<?xml version="1.0" standalone="no"?>
<!DOCTYPE svg PUBLIC "-//W3C//DTD SVG 1.1//EN" "http://www.w3.org/Graphics/SVG/1.1/DTD/svg11.dtd" >
<svg>
<metadata>
Created by FontForge 20090622 at Thu Feb 23 15:06:13 2017
 By deploy user
Copyright (c) 2015 by Typetype. Designer Ivan Gladkikh, technical designer Olexa Volochay. All rights reserved.
</metadata>
<defs>
<font id="TTRoundsCondensed-Black" horiz-adv-x="535" >
  <font-face 
    font-family="TTRoundsCondensed-Black"
    font-weight="400"
    font-stretch="normal"
    units-per-em="1000"
    panose-1="2 0 5 3 0 0 0 2 0 4"
    ascent="771"
    descent="-229"
    x-height="520"
    cap-height="700"
    bbox="-70 -355 1130 1040"
    underline-thickness="50"
    underline-position="-100"
    unicode-range="U+000D-U+2212"
  />
<missing-glyph horiz-adv-x="0" 
 />
    <glyph glyph-name=".notdef" horiz-adv-x="0" 
 />
    <glyph glyph-name=".null" horiz-adv-x="0" 
 />
    <glyph glyph-name=".null" horiz-adv-x="0" 
 />
    <glyph glyph-name="nonmarkingreturn" unicode="&#xd;" horiz-adv-x="0" 
 />
    <glyph glyph-name="space" unicode=" " horiz-adv-x="220" 
 />
    <glyph glyph-name="exclam" unicode="!" horiz-adv-x="290" 
d="M145 200q45 0 75 -30t30 -75t-30 -75t-75 -30t-75 30t-30 75t30 75t75 30zM145 720q49 0 79.5 -30t30.5 -75q0 -2 -1 -15.5t-1 -28.5q-2 -19 -3 -41l-10 -190q-3 -28 -14 -50q-10 -20 -28.5 -35t-52.5 -15t-53 15.5t-28 34.5q-11 22 -14 50l-10 190q-1 22 -2 41
q-2 16 -2.5 29t-0.5 15q0 45 30.5 75t79.5 30z" />
    <glyph glyph-name="quotedbl" unicode="&#x22;" horiz-adv-x="410" 
d="M105 400q-26 0 -44 15t-21 45l-10 90q-3 20 -5 36l-3 28q-2 12 -2 16q0 34 23.5 57t61.5 23t61.5 -23t23.5 -57q0 -4 -1.5 -17t-3.5 -27q-2 -16 -5 -36l-10 -90q-3 -30 -21 -45t-44 -15zM305 400q-26 0 -44 15t-21 45l-10 90q-3 20 -5 36l-3 28q-2 12 -2 16q0 34 23.5 57
t61.5 23t61.5 -23t23.5 -57q0 -4 -1.5 -17t-3.5 -27q-2 -16 -5 -36l-10 -90q-3 -30 -21 -45t-44 -15z" />
    <glyph glyph-name="numbersign" unicode="#" horiz-adv-x="655" 
d="M595 580l-10 -40q20 -5 35 -16q14 -9 24.5 -24t10.5 -40q0 -34 -23.5 -57t-61.5 -23h-20l-15 -60q20 -5 35 -16q14 -9 24.5 -24t10.5 -40q0 -34 -23.5 -57t-61.5 -23h-20l-15 -80q-16 -90 -90 -90q-42 0 -68.5 26t-26.5 64q0 15 3.5 30.5t4.5 19.5l7 30h-60l-15 -80
q-16 -90 -90 -90q-42 0 -68.5 26t-26.5 64q0 15 3.5 30.5t4.5 19.5l7 30q-20 4 -35 14q-14 9 -24.5 24.5t-10.5 41.5q0 34 23.5 57t61.5 23h20l15 60q-20 4 -35 14q-14 9 -24.5 24.5t-10.5 41.5q0 34 23.5 57t61.5 23h15l20 80q11 45 31.5 67.5t58.5 22.5q42 0 68.5 -26
t26.5 -64q0 -15 -3.5 -30.5t-4.5 -19.5l-7 -30h55l20 80q11 45 31.5 67.5t58.5 22.5q42 0 68.5 -26t26.5 -64q0 -15 -2 -25.5t-3 -14.5zM300 390l-20 -80h75l20 80h-75z" />
    <glyph glyph-name="dollar" unicode="$" 
d="M375 710v-5q35 -14 63 -36q25 -20 43.5 -48.5t18.5 -70.5q0 -38 -26 -64t-64 -26q-30 0 -45.5 12.5t-27.5 27.5t-25 27.5t-37 12.5q-19 0 -29.5 -10t-10.5 -25q0 -21 21 -35t53 -28l68 -29q37 -16 69 -40.5t53 -61t21 -91.5q0 -66 -22.5 -107.5t-49.5 -65.5
q-32 -28 -73 -42v-15q0 -45 -28 -72.5t-77 -27.5q-45 0 -72.5 27.5t-27.5 72.5q-43 13 -77 35q-21 12 -33 23.5t-22 26.5t-16.5 34t-6.5 41q0 38 26 64t64 26q28 0 45.5 -12.5t32.5 -27.5t32 -27.5t45 -12.5q26 0 38 11t12 29q0 24 -21 38.5t-53 27.5l-69 28
q-36 15 -68 39.5t-53 62t-21 94.5q0 68 22.5 109.5t50.5 65.5q31 28 72 40v5q0 45 27.5 72.5t72.5 27.5q49 0 77 -27.5t28 -72.5z" />
    <glyph glyph-name="percent" unicode="%" horiz-adv-x="760" 
d="M580 525l-245 -460l-15 -26q-8 -15 -20 -28t-28 -22t-37 -9q-17 0 -32.5 7t-27 18.5t-18.5 27t-7 32.5q0 23 7 41.5t23 48.5l245 460l15 26q8 15 20 28t28 22t37 9q17 0 32.5 -7t27 -18.5t18.5 -27t7 -32.5q0 -23 -7 -41.5t-23 -48.5zM10 495v35q0 75 41 117.5t109 42.5
t109 -42.5t41 -117.5v-35q0 -75 -41 -117.5t-109 -42.5t-109 42.5t-41 117.5zM175 495v35q0 23 -3.5 29t-11.5 6t-11.5 -6t-3.5 -29v-35q0 -23 3.5 -29t11.5 -6t11.5 6t3.5 29zM450 150v35q0 75 41 117.5t109 42.5t109 -42.5t41 -117.5v-35q0 -75 -41 -117.5t-109 -42.5
t-109 42.5t-41 117.5zM615 150v35q0 23 -3.5 29t-11.5 6t-11.5 -6t-3.5 -29v-35q0 -23 3.5 -29t11.5 -6t11.5 6t3.5 29z" />
    <glyph glyph-name="ampersand" unicode="&#x26;" horiz-adv-x="630" 
d="M420 60h-10q-19 -22 -46 -40q-24 -16 -58 -28t-81 -12t-86.5 16t-68 43t-44.5 63.5t-16 77.5q0 53 18 89t40 59q25 26 57 42v10q-15 13 -27 33q-12 17 -20 43t-8 64q0 41 16 77.5t44.5 63.5t68 43t86.5 16t86.5 -16t68 -43t44.5 -63.5t16 -77.5q0 -42 -17 -72.5
t-38 -51.5q-24 -24 -55 -41l25 -25q11 14 24 25q12 10 27 17.5t34 7.5q38 0 64 -26t26 -64q0 -17 -8 -32.5t-17 -26.5q-11 -14 -25 -26v-10l19 -19q13 -14 26.5 -31t24 -34.5t10.5 -30.5q0 -38 -26 -64t-64 -26q-19 0 -34 6.5t-28.5 17t-25.5 23.5zM220 200q0 -23 7.5 -31.5
t22.5 -8.5q8 0 15.5 5.5t14.5 12.5q8 7 15 17l-55 60q-6 -5 -10 -12t-7 -17.5t-3 -25.5zM285 560q-8 0 -14 -8.5t-6 -31.5q0 -11 3 -20.5t7 -15.5q4 -8 10 -14q6 6 11 14q4 7 7 16t3 20q0 23 -6.5 31.5t-14.5 8.5z" />
    <glyph glyph-name="quotesingle" unicode="'" horiz-adv-x="210" 
d="M105 710q38 0 61.5 -23t23.5 -57q0 -11 -1.5 -25t-3.5 -25l-15 -120q-3 -23 -19 -41.5t-46 -18.5t-46 18.5t-19 41.5l-15 120q-2 11 -3.5 25t-1.5 25q0 34 23.5 57t61.5 23z" />
    <glyph glyph-name="parenleft" unicode="(" horiz-adv-x="380" 
d="M245 285q0 -90 21 -156t46.5 -115t46.5 -83.5t21 -60.5q0 -90 -85 -90q-28 0 -72 34t-86 98.5t-72 158.5t-30 214t30 214t72 158.5t86 98.5t72 34q85 0 85 -90q0 -26 -21 -60.5t-46.5 -83t-46.5 -115t-21 -156.5z" />
    <glyph glyph-name="parenright" unicode=")" horiz-adv-x="380" 
d="M135 285q0 90 -21 156.5t-46.5 115t-46.5 83t-21 60.5q0 90 85 90q28 0 72 -34t86 -98.5t72 -158.5t30 -214t-30 -214t-72 -158.5t-86 -98.5t-72 -34q-85 0 -85 90q0 26 21 60.5t46.5 83.5t46.5 115t21 156z" />
    <glyph glyph-name="asterisk" unicode="*" horiz-adv-x="420" 
d="M207 414q-5 -33 -16 -59q-10 -25 -28 -42.5t-48 -17.5q-29 0 -49.5 20t-20.5 50q0 25 13 42.5t30 29.5q18 14 42 23l-5 5q-10 -1 -19 -2q-9 -2 -17 -2.5t-14 -0.5q-34 0 -54.5 20.5t-20.5 54.5q0 30 20 50t50 20q15 0 30.5 -8t29.5 -17q15 -11 30 -25l5 5q-7 15 -12 30
q-6 14 -9.5 29.5t-3.5 30.5q0 30 20 50t50 20t50 -20t20 -50q0 -15 -4 -31t-8 -29q-6 -15 -13 -30l5 -5q15 14 30 25q15 10 30 17.5t30 7.5q30 0 50 -20t20 -50q0 -34 -20.5 -54.5t-54.5 -20.5q-6 0 -15 1l-16 2q-9 1 -19 2l-5 -5q24 -9 43 -23q17 -13 29.5 -30t12.5 -42
q0 -30 -20.5 -50t-49.5 -20q-30 0 -48 18.5t-28 41.5q-11 26 -16 59h-6z" />
    <glyph glyph-name="plus" unicode="+" horiz-adv-x="470" 
d="M150 210v50h-50q-42 0 -66 23.5t-24 61.5t24 61.5t66 23.5h50v50q0 42 23.5 66t61.5 24t61.5 -24t23.5 -66v-50h50q42 0 66 -23.5t24 -61.5t-24 -61.5t-66 -23.5h-50v-50q0 -42 -23.5 -66t-61.5 -24t-61.5 24t-23.5 66z" />
    <glyph glyph-name="comma" unicode="," horiz-adv-x="240" 
d="M10 95q0 45 30 75t75 30t75 -32.5t30 -92.5q0 -41 -14.5 -77t-38 -62t-53 -41t-59.5 -15q-19 0 -29.5 10t-10.5 25q0 17 9.5 25.5t22 15.5t24 16t14.5 28q-13 0 -26.5 7t-24 20t-17.5 30t-7 38z" />
    <glyph glyph-name="hyphen" unicode="-" horiz-adv-x="430" 
d="M100 430h230q42 0 66 -23.5t24 -61.5t-24 -61.5t-66 -23.5h-230q-42 0 -66 23.5t-24 61.5t24 61.5t66 23.5z" />
    <glyph glyph-name="period" unicode="." horiz-adv-x="250" 
d="M125 200q45 0 75 -30t30 -75t-30 -75t-75 -30t-75 30t-30 75t30 75t75 30z" />
    <glyph glyph-name="slash" unicode="/" horiz-adv-x="465" 
d="M425 560l-230 -540q-3 -7 -10 -19t-18 -23.5t-27.5 -19.5t-39.5 -8q-38 0 -64 27.5t-26 72.5q0 11 3.5 24t8.5 25.5t10 23.5t8 17l230 540q3 8 10 19.5t18 23t28 19.5t39 8q38 0 64 -27.5t26 -72.5q0 -11 -3.5 -24t-8.5 -25.5t-10 -23.5t-8 -17z" />
    <glyph glyph-name="zero" unicode="0" horiz-adv-x="590" 
d="M340 230v250q0 45 -13 62.5t-32 17.5t-32 -17.5t-13 -62.5v-250q0 -45 13 -62.5t32 -17.5t32 17.5t13 62.5zM40 260v180q0 66 19 118t52.5 88t80.5 55t103 19t103 -19t81 -55t52.5 -88t18.5 -118v-180q0 -66 -18.5 -118t-52.5 -88t-81 -55t-103 -19t-103 19t-80.5 55
t-52.5 88t-19 118z" />
    <glyph glyph-name="one" unicode="1" horiz-adv-x="425" 
d="M360 610v-520q0 -45 -25.5 -72.5t-74.5 -27.5q-45 0 -75 27.5t-30 72.5v290h-10q-6 -14 -16 -25q-8 -10 -20 -17.5t-29 -7.5q-34 0 -57 23t-23 57t14 56.5t22 33.5l129 165q3 4 9.5 11.5t17.5 15t26.5 13t36.5 5.5q49 0 77 -27.5t28 -72.5z" />
    <glyph glyph-name="two" unicode="2" horiz-adv-x="525" 
d="M45 220q42 64 87.5 100t82.5 60t61 45t24 55q0 26 -16 43t-39 17q-22 0 -34 -12.5t-23.5 -27.5t-27 -27.5t-45.5 -12.5q-38 0 -64 26t-26 64q0 32 15.5 62.5t44.5 54.5t71 38.5t94 14.5q60 0 107.5 -18.5t80 -51.5t50 -77.5t17.5 -97.5q0 -55 -27 -94.5t-64.5 -70.5
t-77.5 -57t-66 -53v-10h135q45 0 72.5 -26.5t27.5 -68.5t-27.5 -68.5t-72.5 -26.5h-295q-45 0 -72.5 26.5t-27.5 68.5q0 19 3.5 38t9 36t11.5 30.5t11 20.5z" />
    <glyph glyph-name="three" unicode="3" 
d="M150 420l65 80v10h-90q-45 0 -72.5 26.5t-27.5 68.5t27.5 68.5t72.5 26.5h275q45 0 72.5 -26.5t27.5 -68.5q0 -41 -16 -63.5t-29 -36.5l-80 -85v-10q39 -11 70 -36q28 -23 49 -61.5t21 -102.5q0 -49 -18.5 -91t-53.5 -73t-86 -48.5t-117 -17.5q-52 0 -94.5 15.5
t-72.5 39.5t-46.5 54.5t-16.5 60.5q0 38 26 64t64 26q28 0 45.5 -12.5t32.5 -27.5t32 -27.5t45 -12.5q19 0 34.5 17t15.5 43t-18 43t-52 17h-45q-34 0 -54.5 20t-20.5 50q0 23 12.5 41t22.5 29z" />
    <glyph glyph-name="four" unicode="4" horiz-adv-x="580" 
d="M365 720q24 0 47 -10.5t40 -27t27.5 -38t10.5 -44.5v-260q22 -5 40 -17q16 -11 28 -29.5t12 -48.5t-12.5 -48.5t-27.5 -28.5q-18 -13 -40 -18v-60q0 -45 -28 -72.5t-77 -27.5q-45 0 -72.5 27.5t-27.5 72.5v60h-175q-45 0 -72.5 26.5t-27.5 68.5q0 38 11.5 61.5t23.5 43.5
l140 240q18 31 35 55t37.5 40.5t46 25.5t61.5 9zM220 350v-10h65v125h-7z" />
    <glyph glyph-name="five" unicode="5" 
d="M520 245q0 -125 -71 -195t-199 -70q-52 0 -94.5 15.5t-72.5 39.5t-46.5 54.5t-16.5 60.5q0 38 26 64t64 26q28 0 44.5 -12.5t30.5 -27.5t30.5 -27.5t44.5 -12.5q23 0 41.5 15.5t18.5 49.5t-18.5 49.5t-41.5 15.5q-19 0 -29.5 -3t-20 -7t-22.5 -7t-38 -3q-45 0 -72.5 27.5
t-27.5 72.5v240q0 42 24 66t66 24h255q45 0 72.5 -26.5t27.5 -68.5t-27.5 -68.5t-72.5 -26.5h-145v-71q8 3 18 6q10 2 22.5 3.5t29.5 1.5q43 0 79.5 -15t63.5 -42.5t42 -65t15 -82.5z" />
    <glyph glyph-name="six" unicode="6" horiz-adv-x="555" 
d="M250 490v-50q10 3 21 5q10 2 21.5 3.5t22.5 1.5q106 0 165.5 -60.5t59.5 -169.5q0 -54 -17 -98.5t-49 -76t-77.5 -48.5t-101.5 -17t-103 19t-80.5 54t-52.5 85t-19 112v220q0 117 67 183.5t188 66.5q53 0 94.5 -14.5t70.5 -38.5t44.5 -54.5t15.5 -62.5q0 -38 -26 -64
t-64 -26q-30 0 -45.5 12.5t-27.5 27.5t-25 27.5t-37 12.5q-19 0 -32 -13.5t-13 -36.5zM280 290q-12 0 -22 -5q-5 -2 -8 -5v-50q0 -45 12.5 -62.5t27.5 -17.5t27.5 16t12.5 54t-13.5 54t-36.5 16z" />
    <glyph glyph-name="seven" unicode="7" horiz-adv-x="490" 
d="M240 500v10h-140q-45 0 -72.5 26.5t-27.5 68.5t27.5 68.5t72.5 26.5h290q45 0 72.5 -26.5t27.5 -68.5q0 -38 -8 -62l-16 -43l-146 -410q-6 -17 -13.5 -34.5t-20 -32t-32 -24t-49.5 -9.5q-45 0 -72.5 27.5t-27.5 72.5q0 15 6 31l14 39z" />
    <glyph glyph-name="eight" unicode="8" horiz-adv-x="550" 
d="M275 450q8 8 19 23.5t11 41.5t-9.5 38t-20.5 12t-20.5 -12t-9.5 -38t11 -41.5t19 -23.5zM275 140q23 0 39 18t16 52t-16 54.5t-39 35.5q-23 -15 -39 -35.5t-16 -54.5t16 -52t39 -18zM275 720q53 0 95.5 -15.5t72.5 -42t46 -60.5t16 -72t-11 -64.5t-24 -42.5
q-15 -20 -35 -33v-10q28 -13 50 -37q20 -22 35 -56t15 -87q0 -45 -18 -85t-52 -70t-82 -47.5t-108 -17.5t-108 17.5t-82 47.5t-52 70t-18 85q0 53 16.5 87.5t36.5 55.5q23 24 52 37v10q-21 13 -37 33q-16 17 -27 43t-11 64t16.5 72t46.5 60.5t72.5 42t94.5 15.5z" />
    <glyph glyph-name="nine" unicode="9" horiz-adv-x="555" 
d="M260 160q19 0 32 13.5t13 36.5v50q-10 -3 -21 -5q-10 -2 -21.5 -3.5t-22.5 -1.5q-106 0 -165.5 60.5t-59.5 169.5q0 54 17 98.5t49 76t77.5 48.5t101.5 17t103 -19t81 -54t52.5 -85t18.5 -112v-220q0 -117 -67 -183.5t-188 -66.5q-52 0 -94 14.5t-71 38.5t-44.5 54.5
t-15.5 62.5q0 38 26 64t64 26q30 0 45.5 -12.5t27.5 -27.5t25 -27.5t37 -12.5zM275 410q13 0 23 5q4 2 7 5v50q0 45 -12.5 62.5t-27.5 17.5t-27.5 -16t-12.5 -54t13.5 -54t36.5 -16z" />
    <glyph glyph-name="colon" unicode=":" horiz-adv-x="250" 
d="M125 200q45 0 75 -30t30 -75t-30 -75t-75 -30t-75 30t-30 75t30 75t75 30zM125 530q45 0 75 -30t30 -75t-30 -75t-75 -30t-75 30t-30 75t30 75t75 30z" />
    <glyph glyph-name="semicolon" unicode=";" horiz-adv-x="240" 
d="M115 530q45 0 75 -30t30 -75t-30 -75t-75 -30t-75 30t-30 75t30 75t75 30zM10 95q0 45 30 75t75 30t75 -32.5t30 -92.5q0 -41 -14.5 -77t-38 -62t-53 -41t-59.5 -15q-19 0 -29.5 10t-10.5 25q0 17 9.5 25.5t22 15.5t24 16t14.5 28q-13 0 -26.5 7t-24 20t-17.5 30t-7 38z
" />
    <glyph glyph-name="less" unicode="&#x3c;" horiz-adv-x="495" 
d="M250 255l134 -65l36 -18q16 -8 28.5 -19t19.5 -25.5t7 -37.5q0 -38 -25.5 -64t-59.5 -26q-33 0 -59.5 11t-40.5 19l-160 85q-24 13 -44.5 27t-35 30.5t-22.5 38t-8 49.5t8 49.5t22.5 38t35 30.5t44.5 27l160 85q14 8 40.5 19t59.5 11q34 0 59.5 -26t25.5 -64
q0 -22 -7 -37t-19.5 -26t-28.5 -19l-36 -18l-134 -65v-10z" />
    <glyph glyph-name="equal" unicode="=" horiz-adv-x="460" 
d="M105 535h250q38 0 61.5 -23t23.5 -57t-23.5 -57t-61.5 -23h-250q-38 0 -61.5 23t-23.5 57t23.5 57t61.5 23zM105 305h250q38 0 61.5 -23t23.5 -57t-23.5 -57t-61.5 -23h-250q-38 0 -61.5 23t-23.5 57t23.5 57t61.5 23z" />
    <glyph glyph-name="greater" unicode="&#x3e;" horiz-adv-x="495" 
d="M245 265l-134 65l-35 18q-17 8 -29.5 19t-19.5 26t-7 37q0 38 25.5 64t59.5 26q33 0 59.5 -11t40.5 -19l160 -85q24 -13 44.5 -27t35 -30.5t22.5 -38t8 -49.5t-8 -49.5t-22.5 -38t-35 -30.5t-44.5 -27l-160 -85q-14 -8 -40.5 -19t-59.5 -11q-34 0 -59.5 26t-25.5 64
q0 23 7 37.5t19.5 25.5t29.5 19l35 18l134 65v10z" />
    <glyph glyph-name="question" unicode="?" horiz-adv-x="505" 
d="M230 200q45 0 75 -30t30 -75t-30 -75t-75 -30t-75 30t-30 75t30 75t75 30zM135 335q0 30 22 50.5t48 37.5t48 35t22 42q0 40 -40 40q-24 0 -37 -12.5t-25 -27.5t-27.5 -27.5t-45.5 -12.5q-38 0 -64 26t-26 64q0 32 15.5 62.5t44.5 54.5t71 38.5t94 14.5q128 0 189 -56
t61 -154q0 -46 -15.5 -75t-39.5 -50t-52 -40t-53 -45q-10 -11 -18.5 -21.5t-18.5 -19t-23.5 -14t-34.5 -5.5q-45 0 -70 25t-25 70z" />
    <glyph glyph-name="at" unicode="@" horiz-adv-x="860" 
d="M500 150h-5q-11 -14 -26 -25q-14 -10 -33.5 -17.5t-45.5 -7.5q-57 0 -91 39t-34 126v60q0 87 34 126t91 39q19 0 33 -4.5t23 -10.5q11 -7 19 -15h5q5 8 13 15q6 6 16.5 10.5t25.5 4.5q30 0 50 -20.5t20 -54.5v-195q3 -1 7 -2q3 -2 7.5 -2.5t10.5 -0.5q11 0 20.5 4.5
t16 17t10 35t3.5 57.5q0 60 -19 110t-52 86t-76.5 55.5t-92.5 19.5t-92.5 -20t-76.5 -58.5t-52 -94.5t-19 -127t19 -127t52 -94.5t76.5 -58.5t92.5 -20q38 0 61.5 7t40.5 16l29 15q13 7 29 7q26 0 45.5 -20.5t19.5 -54.5q0 -30 -18 -48t-37 -27q-21 -10 -47 -18
q-25 -7 -55 -12t-68 -5q-86 0 -159.5 31t-127 88t-83.5 138.5t-30 182.5t30 182.5t83.5 138.5t127 88t159.5 31t159.5 -34.5t127 -91.5t83.5 -131t30 -153q0 -49 -17.5 -91t-47.5 -73t-70 -48.5t-85 -17.5q-28 0 -48.5 8t-34.5 17q-16 11 -27 25zM455 245v100q0 30 -25 30
t-25 -30v-100q0 -30 25 -30t25 30z" />
    <glyph glyph-name="A" unicode="A" horiz-adv-x="590" 
d="M255 320h80l-37 160h-6zM370 150h-150l-15 -60q-12 -47 -37.5 -73.5t-67.5 -26.5q-21 0 -39 8t-31.5 21.5t-21.5 31.5t-8 39q0 17 3 36t7 36q4 19 10 38l120 400q8 26 20 48t30 38t43.5 25t61.5 9t61.5 -9t43.5 -25t30 -38t20 -48l120 -400q6 -19 10 -38q4 -18 7 -36.5
t3 -35.5q0 -21 -8 -39t-21.5 -31.5t-31.5 -21.5t-39 -8q-42 0 -67.5 26.5t-37.5 73.5z" />
    <glyph glyph-name="B" unicode="B" horiz-adv-x="610" 
d="M270 540v-105h30q19 0 32 14.5t13 40.5q0 23 -13 36.5t-32 13.5h-30zM270 285v-125h55q23 0 39 17.5t16 47.5q0 26 -16 43t-39 17h-55zM165 700h155q128 0 184 -49.5t56 -135.5q0 -40 -13 -65.5t-29 -41.5q-19 -18 -43 -28v-10q32 -10 58 -32q23 -19 40 -50.5t17 -82.5
q0 -94 -60.5 -149.5t-184.5 -55.5h-180q-45 0 -72.5 27.5t-27.5 72.5v500q0 45 27.5 72.5t72.5 27.5z" />
    <glyph glyph-name="C" unicode="C" horiz-adv-x="555" 
d="M40 280v140q0 69 20.5 124.5t57 94.5t87 60t110.5 21q53 0 94.5 -14.5t70.5 -38.5t44.5 -54.5t15.5 -62.5q0 -38 -26 -64t-64 -26q-30 0 -46.5 12.5t-28.5 27.5t-24.5 27.5t-35.5 12.5q-26 0 -45.5 -23.5t-19.5 -76.5v-170q0 -60 19.5 -85t45.5 -25q21 0 34.5 12.5
t28 27.5t32 27.5t45.5 12.5q38 0 64 -26t26 -64q0 -30 -16 -60.5t-46 -54.5t-72.5 -39.5t-95.5 -15.5q-60 0 -110 21t-87 60t-57.5 94.5t-20.5 124.5z" />
    <glyph glyph-name="D" unicode="D" horiz-adv-x="620" 
d="M270 170h35q26 0 45.5 25t19.5 85v150q0 53 -19.5 76.5t-45.5 23.5h-35v-360zM305 0h-140q-45 0 -72.5 27.5t-27.5 72.5v500q0 45 27.5 72.5t72.5 27.5h140q60 0 110.5 -21t87 -60t57 -94.5t20.5 -124.5v-100q0 -69 -20.5 -124.5t-57 -94.5t-87 -60t-110.5 -21z" />
    <glyph glyph-name="E" unicode="E" horiz-adv-x="580" 
d="M460 510h-190v-75h130q42 0 66 -23.5t24 -61.5t-24 -61.5t-66 -23.5h-130v-75h200q45 0 72.5 -26.5t27.5 -68.5t-27.5 -68.5t-72.5 -26.5h-305q-45 0 -72.5 27.5t-27.5 72.5v500q0 45 27.5 72.5t72.5 27.5h295q45 0 72.5 -26.5t27.5 -68.5t-27.5 -68.5t-72.5 -26.5z" />
    <glyph glyph-name="F" unicode="F" horiz-adv-x="560" 
d="M270 225v-135q0 -45 -28 -72.5t-77 -27.5q-45 0 -72.5 27.5t-27.5 72.5v510q0 45 27.5 72.5t72.5 27.5h295q45 0 72.5 -26.5t27.5 -68.5t-27.5 -68.5t-72.5 -26.5h-190v-95h95q45 0 72.5 -26.5t27.5 -68.5t-27.5 -68.5t-72.5 -26.5h-95z" />
    <glyph glyph-name="G" unicode="G" horiz-adv-x="595" 
d="M375 200v50q-25 1 -45 11q-18 8 -31.5 25t-13.5 49q0 38 24 61.5t66 23.5h105q40 0 57.5 -22.5t17.5 -67.5v-180q0 -28 -17 -58t-48.5 -55t-76 -41t-98.5 -16q-63 0 -114 23t-87 63.5t-55 95t-19 118.5v140q0 69 20.5 124.5t57.5 94.5t87 60t110 21q53 0 94.5 -14.5
t70.5 -38.5t44.5 -54.5t15.5 -62.5q0 -45 -26 -67.5t-64 -22.5q-30 0 -46.5 12.5t-28.5 27.5t-24.5 27.5t-35.5 12.5q-26 0 -45.5 -23.5t-19.5 -76.5v-170q0 -60 19.5 -85t45.5 -25q13 0 24 6t19 14q9 9 17 20z" />
    <glyph glyph-name="H" unicode="H" horiz-adv-x="660" 
d="M270 610v-175h120v175q0 45 28 72.5t77 27.5q45 0 72.5 -27.5t27.5 -72.5v-520q0 -45 -27.5 -72.5t-72.5 -27.5q-49 0 -77 27.5t-28 72.5v165h-120v-165q0 -45 -28 -72.5t-77 -27.5q-45 0 -72.5 27.5t-27.5 72.5v520q0 45 27.5 72.5t72.5 27.5q49 0 77 -27.5t28 -72.5z
" />
    <glyph glyph-name="I" unicode="I" horiz-adv-x="335" 
d="M270 610v-520q0 -45 -28 -72.5t-77 -27.5q-45 0 -72.5 27.5t-27.5 72.5v520q0 45 27.5 72.5t72.5 27.5q49 0 77 -27.5t28 -72.5z" />
    <glyph glyph-name="J" unicode="J" horiz-adv-x="405" 
d="M135 280v330q0 45 27.5 72.5t72.5 27.5q49 0 77 -27.5t28 -72.5v-330q0 -73 -19 -129t-54 -94t-85 -57.5t-112 -19.5q-38 0 -64 26t-26 64q0 29 11.5 45t28.5 27t37.5 19.5t37.5 22.5t28.5 36t11.5 60z" />
    <glyph glyph-name="K" unicode="K" horiz-adv-x="595" 
d="M295 245l-25 -35v-120q0 -45 -28 -72.5t-77 -27.5q-45 0 -72.5 27.5t-27.5 72.5v520q0 45 27.5 72.5t72.5 27.5q49 0 77 -27.5t28 -72.5v-140l135 200q8 11 19 20q11 8 25.5 14t35.5 6q42 0 66 -25.5t24 -74.5q0 -19 -4.5 -33.5t-10.5 -25.5q-7 -12 -15 -21l-100 -135
l120 -215q8 -15 15 -30q6 -14 10.5 -29.5t4.5 -30.5q0 -45 -25.5 -72.5t-74.5 -27.5q-23 0 -39 8t-26 17q-12 11 -20 25z" />
    <glyph glyph-name="L" unicode="L" 
d="M270 610v-420h165q45 0 72.5 -26.5t27.5 -68.5t-27.5 -68.5t-72.5 -26.5h-270q-45 0 -72.5 27.5t-27.5 72.5v510q0 45 27.5 72.5t72.5 27.5q49 0 77 -27.5t28 -72.5z" />
    <glyph glyph-name="M" unicode="M" horiz-adv-x="800" 
d="M403 366l47 234q12 60 49.5 90t90.5 30q59 0 91.5 -33.5t38.5 -86.5l50 -410q3 -19 5 -37q2 -17 3.5 -33.5t1.5 -29.5q0 -45 -27.5 -72.5t-72.5 -27.5t-70 27.5t-30 72.5l-30 260h-5l-35 -190q-10 -53 -39 -76.5t-71 -23.5t-71 23.5t-39 76.5l-35 190h-5l-30 -260
q-5 -45 -30 -72.5t-70 -27.5t-72.5 27.5t-27.5 72.5q0 13 1.5 30.5t3.5 32.5q2 18 5 37l50 410q6 53 38.5 86.5t91.5 33.5q53 0 90.5 -30t49.5 -90l47 -234h6z" />
    <glyph glyph-name="N" unicode="N" horiz-adv-x="665" 
d="M275 320h-5v-230q0 -45 -28 -72.5t-77 -27.5q-45 0 -72.5 27.5t-27.5 72.5v520q0 45 27.5 72.5t72.5 27.5q42 0 66 -23.5t49 -76.5l110 -230h5v230q0 45 28 72.5t77 27.5q45 0 72.5 -27.5t27.5 -72.5v-520q0 -45 -27.5 -72.5t-72.5 -27.5q-38 0 -64 23.5t-51 76.5z" />
    <glyph glyph-name="O" unicode="O" horiz-adv-x="630" 
d="M315 140q26 0 45.5 23.5t19.5 76.5v220q0 53 -19.5 76.5t-45.5 23.5t-45.5 -23.5t-19.5 -76.5v-220q0 -53 19.5 -76.5t45.5 -23.5zM315 -20q-60 0 -110.5 21t-87 60t-57 94.5t-20.5 124.5v140q0 69 20.5 124.5t57 94.5t87 60t110.5 21t110.5 -21t87 -60t57 -94.5
t20.5 -124.5v-140q0 -69 -20.5 -124.5t-57 -94.5t-87 -60t-110.5 -21z" />
    <glyph glyph-name="P" unicode="P" horiz-adv-x="595" 
d="M270 380h30q26 0 45.5 20.5t19.5 54.5t-19.5 54.5t-45.5 20.5h-30v-150zM315 210h-45v-120q0 -45 -28 -72.5t-77 -27.5q-45 0 -72.5 27.5t-27.5 72.5v510q0 45 27.5 72.5t72.5 27.5h150q60 0 108 -18t82 -50t52 -77.5t18 -99.5t-18 -99.5t-52 -77.5t-82 -50t-108 -18z
" />
    <glyph glyph-name="Q" unicode="Q" horiz-adv-x="630" 
d="M315 -20q-60 0 -110.5 21t-87 60t-57 94.5t-20.5 124.5v140q0 69 20.5 124.5t57 94.5t87 60t110.5 21t110.5 -21t87 -60t57 -94.5t20.5 -124.5v-140q0 -40 -6 -71t-14 -53q-9 -26 -20 -46q8 -11 15 -24q6 -12 10.5 -27t4.5 -34q0 -38 -26 -64t-64 -26q-17 0 -32.5 9.5
t-26.5 20.5q-14 13 -26 30q-9 -4 -22 -8q-13 -3 -29 -5t-39 -2zM300 185q0 30 12.5 48t27.5 27q18 11 40 15v185q0 53 -19.5 76.5t-45.5 23.5t-45.5 -23.5t-19.5 -76.5v-220q0 -36 8.5 -56t19.5 -30q12 -11 27 -14q-4 15 -4.5 24t-0.5 21z" />
    <glyph glyph-name="R" unicode="R" horiz-adv-x="615" 
d="M295 250h-25v-160q0 -45 -28 -72.5t-77 -27.5q-45 0 -72.5 27.5t-27.5 72.5v510q0 45 27.5 72.5t72.5 27.5h155q124 0 189.5 -61.5t65.5 -163.5q0 -47 -11.5 -78.5t-25.5 -50.5q-17 -23 -38 -36v-10l70 -120q8 -15 15 -30q6 -14 10.5 -29.5t4.5 -30.5q0 -45 -27.5 -72.5
t-72.5 -27.5q-25 0 -42.5 9.5t-29.5 20.5q-14 13 -23 30zM270 410h30q26 0 43 17.5t17 47.5t-17 47.5t-43 17.5h-30v-130z" />
    <glyph glyph-name="S" unicode="S" 
d="M245 -20q-52 0 -94.5 15.5t-72.5 39.5t-46.5 54.5t-16.5 60.5q0 38 26 64t64 26q28 0 45.5 -12.5t32.5 -27.5t32 -27.5t45 -12.5q26 0 38 11t12 29q0 24 -21 38.5t-53 27.5l-68 28q-37 15 -69 39.5t-53 62t-21 94.5q0 106 64.5 168t185.5 62q53 0 94.5 -14.5t70.5 -38.5
t44.5 -54.5t15.5 -62.5q0 -38 -26 -64t-64 -26q-30 0 -45.5 12.5t-27.5 27.5t-25 27.5t-37 12.5q-19 0 -29.5 -10t-10.5 -25q0 -21 21 -35t53 -28l69 -29q36 -16 68 -40.5t53 -61t21 -91.5q0 -52 -18.5 -96.5t-53.5 -76t-86 -49.5t-117 -18z" />
    <glyph glyph-name="T" unicode="T" 
d="M100 700h335q45 0 72.5 -26.5t27.5 -68.5t-27.5 -68.5t-72.5 -26.5h-65v-420q0 -45 -28 -72.5t-77 -27.5q-45 0 -72.5 27.5t-27.5 72.5v420h-65q-45 0 -72.5 26.5t-27.5 68.5t27.5 68.5t72.5 26.5z" />
    <glyph glyph-name="U" unicode="U" horiz-adv-x="650" 
d="M265 610v-365q0 -49 18.5 -72t41.5 -23t41.5 23t18.5 72v365q0 45 28 72.5t77 27.5q45 0 72.5 -27.5t27.5 -72.5v-340q0 -67 -19.5 -121t-55 -91.5t-84 -57.5t-106.5 -20t-106.5 20t-84 57.5t-55 91.5t-19.5 121v340q0 45 27.5 72.5t72.5 27.5q49 0 77 -27.5t28 -72.5z
" />
    <glyph glyph-name="V" unicode="V" horiz-adv-x="570" 
d="M290 230l70 380q8 45 34.5 72.5t75.5 27.5q45 0 72.5 -27.5t27.5 -72.5q0 -11 -4 -31l-8 -40l-13 -49l-100 -390q-14 -57 -51 -88.5t-109 -31.5t-109 31.5t-51 88.5l-100 390q-7 26 -12 49q-6 21 -9.5 40.5t-3.5 30.5q0 45 27.5 72.5t72.5 27.5q49 0 75.5 -27.5
t34.5 -72.5l70 -380h10z" />
    <glyph glyph-name="W" unicode="W" horiz-adv-x="890" 
d="M440 360l-25 -260q-5 -53 -41.5 -86.5t-108.5 -33.5q-36 0 -63.5 10.5t-47 28.5t-32 41.5t-17.5 49.5l-75 385q-6 24 -10 46q-4 21 -7 39.5t-3 29.5q0 45 27.5 72.5t72.5 27.5q49 0 79 -27.5t36 -72.5l45 -330h10l35 310q7 57 36.5 88.5t93.5 31.5t93.5 -31.5t36.5 -88.5
l35 -310h10l45 330q6 45 36 72.5t79 27.5q45 0 72.5 -27.5t27.5 -72.5q0 -11 -3 -30.5t-7 -38.5q-4 -22 -10 -46l-75 -385q-5 -26 -17.5 -49.5t-32 -41.5t-47 -28.5t-63.5 -10.5q-72 0 -108.5 33.5t-41.5 86.5l-25 260h-10z" />
    <glyph glyph-name="X" unicode="X" horiz-adv-x="530" 
d="M150 360l-105 160q-2 4 -7 13t-10 21t-9 26.5t-4 29.5q0 45 26 72.5t64 27.5q23 0 40.5 -9.5t30 -21.5t20 -23.5t9.5 -15.5l55 -90h10l55 90q2 4 9.5 15.5t20 23.5t30.5 21.5t40 9.5q38 0 64 -27.5t26 -72.5q0 -15 -4 -29.5t-9 -26.5t-10 -21t-7 -13l-105 -160l110 -170
q11 -17 20 -35q8 -16 14 -33t6 -32q0 -45 -28 -72.5t-77 -27.5q-21 0 -36.5 9.5t-26.5 20.5q-13 13 -22 30l-70 115h-10l-70 -115q-9 -17 -22 -30q-11 -12 -26.5 -21t-36.5 -9q-49 0 -77 27.5t-28 72.5q0 15 6 32.5t14 32.5q9 18 20 35z" />
    <glyph glyph-name="Y" unicode="Y" horiz-adv-x="555" 
d="M280 470l85 190q7 14 19 25q11 10 28 17.5t43 7.5q45 0 72.5 -27.5t27.5 -72.5q0 -15 -6 -32.5t-12.5 -32.5t-12.5 -25l-5 -10l-139 -255v-165q0 -45 -28 -72.5t-77 -27.5q-45 0 -72.5 27.5t-27.5 72.5v165l-139 255l-6 10q-5 10 -11.5 25t-12.5 32.5t-6 32.5
q0 45 27.5 72.5t72.5 27.5q26 0 43.5 -8t27.5 -17q12 -11 19 -25l80 -190h10z" />
    <glyph glyph-name="Z" unicode="Z" horiz-adv-x="515" 
d="M35 200l195 300v10h-120q-45 0 -72.5 26.5t-27.5 68.5t27.5 68.5t72.5 26.5h300q45 0 72.5 -26.5t27.5 -68.5t-12.5 -63.5t-22.5 -36.5l-195 -305v-10h135q45 0 72.5 -26.5t27.5 -68.5t-27.5 -68.5t-72.5 -26.5h-315q-45 0 -72.5 26.5t-27.5 68.5q0 38 12.5 64t22.5 41z
" />
    <glyph glyph-name="bracketleft" unicode="[" horiz-adv-x="405" 
d="M270 -20h35q45 0 72.5 -26.5t27.5 -68.5t-27.5 -68.5t-72.5 -26.5h-140q-45 0 -72.5 27.5t-27.5 72.5v790q0 45 27.5 72.5t72.5 27.5h140q45 0 72.5 -26.5t27.5 -68.5t-27.5 -68.5t-72.5 -26.5h-35v-610z" />
    <glyph glyph-name="backslash" unicode="\" horiz-adv-x="465" 
d="M270 20l-230 540q-3 6 -8 17t-10 23.5t-8.5 25.5t-3.5 24q0 45 26 72.5t64 27.5q23 0 39.5 -8t27.5 -19.5t18 -23t10 -19.5l230 -540q3 -6 8 -17t10 -23.5t8.5 -25.5t3.5 -24q0 -45 -26 -72.5t-64 -27.5q-22 0 -39 8t-28 19.5t-18 23.5t-10 19z" />
    <glyph glyph-name="bracketright" unicode="]" horiz-adv-x="405" 
d="M100 -20h35v610h-35q-45 0 -72.5 26.5t-27.5 68.5t27.5 68.5t72.5 26.5h140q45 0 72.5 -27.5t27.5 -72.5v-790q0 -45 -27.5 -72.5t-72.5 -27.5h-140q-45 0 -72.5 26.5t-27.5 68.5t27.5 68.5t72.5 26.5z" />
    <glyph glyph-name="asciicircum" unicode="^" horiz-adv-x="460" 
d="M235 505h-10l-44 -85q-14 -26 -28 -38t-48 -12q-17 0 -32.5 7t-27 18.5t-18.5 27t-7 32.5q0 30 11.5 50t21.5 35l72 110q17 26 42 43t63 17t63 -17t42 -43l72 -110q10 -15 21.5 -35t11.5 -50q0 -17 -7 -32.5t-18.5 -27t-27 -18.5t-32.5 -7q-34 0 -48 12t-28 38z" />
    <glyph glyph-name="underscore" unicode="_" horiz-adv-x="410" 
d="M90 -40h230q42 0 66 -23.5t24 -61.5t-24 -61.5t-66 -23.5h-230q-42 0 -66 23.5t-24 61.5t24 61.5t66 23.5z" />
    <glyph glyph-name="grave" unicode="`" horiz-adv-x="220" 
d="M135 450q-30 0 -48.5 20t-26.5 40l-30 70q0 1 -5 14t-5 36q0 34 23.5 57t61.5 23q34 0 54.5 -21t25.5 -59l10 -70l3 -24q2 -15 2 -26q0 -26 -17.5 -43t-47.5 -17z" />
    <glyph glyph-name="a" unicode="a" horiz-adv-x="495" 
d="M450 330v-240q0 -38 -26 -64t-64 -26q-25 0 -41 8t-26 17q-11 11 -18 25h-10q-9 -17 -22 -30q-13 -12 -29 -21t-39 -9q-32 0 -59.5 12t-47.5 34t-31.5 53.5t-11.5 70.5q0 79 50.5 124.5t159.5 45.5h30q0 34 -12.5 49.5t-27.5 15.5q-17 0 -25.5 -9.5t-16.5 -20.5
t-19 -20.5t-34 -9.5q-75 0 -75 75q0 21 12.5 43t36.5 40t58.5 30t77.5 12q98 0 154 -55.5t56 -149.5zM265 195v20h-30q-11 0 -18 -9.5t-7 -35.5t7 -35.5t18 -9.5t20.5 14t9.5 56z" />
    <glyph glyph-name="b" unicode="b" horiz-adv-x="525" 
d="M55 215v415q0 38 26 64t64 26q42 0 68.5 -26t26.5 -64v-120h10q8 7 19 13q11 5 25.5 8.5t35.5 3.5q34 0 64 -14t52.5 -42.5t35.5 -72t13 -101.5v-90q0 -51 -17.5 -93t-47.5 -72.5t-70 -47.5t-85 -17q-49 0 -89.5 17t-69.5 47.5t-45 72.5t-16 93zM275 130q15 0 25 12.5
t10 42.5v150q0 30 -10 42.5t-25 12.5t-25 -12.5t-10 -42.5v-150q0 -30 10 -42.5t25 -12.5z" />
    <glyph glyph-name="c" unicode="c" horiz-adv-x="450" 
d="M250 -15q-47 0 -87 17t-69.5 47.5t-46.5 72.5t-17 93v90q0 51 17 93t46.5 72.5t69.5 47.5t87 17q41 0 74.5 -12t57 -31.5t36 -45t12.5 -51.5q0 -34 -23 -57t-57 -23q-28 0 -41.5 10t-21.5 23l-15 22q-7 10 -22 10t-25 -12.5t-10 -42.5v-130q0 -30 10 -42.5t25 -12.5
q17 0 25 10t16.5 22.5t22 22.5t41.5 10q34 0 57 -23t23 -57q0 -26 -12.5 -51.5t-36.5 -45t-58.5 -31.5t-77.5 -12z" />
    <glyph glyph-name="d" unicode="d" horiz-adv-x="525" 
d="M470 630v-545q0 -38 -26 -64t-64 -26q-25 0 -41 8t-26 17q-11 11 -18 25h-10q-9 -17 -22 -30q-13 -12 -29 -21t-39 -9q-34 0 -64 14t-52.5 42.5t-35.5 72t-13 101.5v90q0 58 13 101.5t35.5 72t52.5 42.5t64 14q21 0 36 -4t25 -8q11 -6 19 -13h10v120q0 38 26.5 64
t68.5 26q38 0 64 -26t26 -64zM250 130q15 0 25 12.5t10 42.5v150q0 30 -10 42.5t-25 12.5t-25 -12.5t-10 -42.5v-150q0 -30 10 -42.5t25 -12.5z" />
    <glyph glyph-name="e" unicode="e" horiz-adv-x="480" 
d="M215 210v-40q0 -23 10 -34t25 -11q23 0 33.5 8.5t20 19t22.5 19t39 8.5q30 0 50 -20t20 -50q0 -21 -13 -43t-37 -40t-59.5 -30t-80.5 -12t-84 17t-68.5 47.5t-46 72.5t-16.5 93v90q0 51 16.5 93t46 72.5t68.5 47.5t84 17q43 0 81.5 -17t67 -47.5t45 -72.5t16.5 -93v-15
q0 -38 -20.5 -59t-54.5 -21h-165zM215 315h60v20q0 26 -9.5 38t-20.5 12t-20.5 -12t-9.5 -38v-20z" />
    <glyph glyph-name="f" unicode="f" horiz-adv-x="350" 
d="M245 510h25q42 0 66 -23.5t24 -61.5t-24 -61.5t-66 -23.5h-25v-255q0 -38 -27 -64t-68 -26t-65.5 26.5t-24.5 63.5v265q-14 5 -25 15q-10 9 -17.5 23t-7.5 37t8 37.5t17 22.5q11 10 25 15v5q0 54 12.5 94.5t34.5 67.5t52 40t66 13q75 0 110 -29t35 -71q0 -30 -17 -47.5
t-43 -17.5q-11 0 -17.5 1.5t-10.5 3.5t-7.5 3.5t-9.5 1.5q-8 0 -14 -10.5t-6 -44.5z" />
    <glyph glyph-name="g" unicode="g" horiz-adv-x="520" 
d="M250 390q-15 0 -25 -12.5t-10 -42.5v-120q0 -30 10 -42.5t25 -12.5t25 12.5t10 42.5v120q0 30 -10 42.5t-25 12.5zM285 -15v55h-10q-8 -7 -19 -12q-11 -6 -25.5 -9.5t-35.5 -3.5q-34 0 -64 14t-52.5 42.5t-35.5 72t-13 101.5v60q0 58 13 101.5t35.5 72t52.5 42.5t64 14
q23 0 39.5 -9.5t28.5 -20.5q13 -13 22 -30h10q7 14 18 25q11 10 26.5 17.5t40.5 7.5q38 0 64 -26t26 -64v-450q0 -94 -56.5 -149.5t-158.5 -55.5q-45 0 -80.5 11t-59.5 29t-37 40t-13 45q0 75 75 75q24 0 36 -9.5t20 -20.5t16.5 -20.5t27.5 -9.5t32 15.5t13 49.5z" />
    <glyph glyph-name="h" unicode="h" horiz-adv-x="530" 
d="M485 305v-220q0 -38 -26 -64t-64 -26q-42 0 -68.5 26t-26.5 64v245q0 30 -9.5 42.5t-20.5 12.5t-20.5 -12.5t-9.5 -42.5v-245q0 -38 -26.5 -64t-68.5 -26q-38 0 -64 26t-26 64v545q0 38 26 64t64 26q42 0 68.5 -26t26.5 -64v-144h10q8 14 19 25q11 9 25.5 16.5t35.5 7.5
q32 0 60 -13.5t49 -41.5t33.5 -71.5t12.5 -103.5z" />
    <glyph glyph-name="i" unicode="i" horiz-adv-x="285" 
d="M235 415v-330q0 -38 -26.5 -64t-68.5 -26q-38 0 -64 26t-26 64v330q0 38 26 64t64 26q42 0 68.5 -26t26.5 -64zM45 645q0 42 26.5 68.5t68.5 26.5q45 0 72.5 -26.5t27.5 -68.5t-27.5 -68.5t-72.5 -26.5q-42 0 -68.5 26.5t-26.5 68.5z" />
    <glyph glyph-name="j" unicode="j" horiz-adv-x="290" 
d="M55 70v345q0 38 26 64t64 26q42 0 68.5 -26t26.5 -64v-345q0 -73 -17 -127.5t-48 -90.5t-74 -54t-96 -18q-30 0 -52.5 22.5t-22.5 52.5q0 24 9.5 38t23 24.5t30 20.5t30 26t23 41t9.5 65zM50 645q0 42 26.5 68.5t68.5 26.5q45 0 72.5 -26.5t27.5 -68.5t-27.5 -68.5
t-72.5 -26.5q-42 0 -68.5 26.5t-26.5 68.5z" />
    <glyph glyph-name="k" unicode="k" horiz-adv-x="490" 
d="M385 290l75 -125q8 -12 19 -33t11 -47q0 -38 -26 -64t-64 -26q-21 0 -35.5 5.5t-24.5 13t-15.5 15t-7.5 11.5l-62 125l-15 -15v-65q0 -38 -26.5 -64t-68.5 -26q-38 0 -64 26t-26 64v545q0 38 26 64t64 26q42 0 68.5 -26t26.5 -64v-265l60 95q3 4 9.5 14t17.5 20t26.5 18
t36.5 8q19 0 35.5 -7t28.5 -18t19 -25.5t7 -29.5q0 -16 -6 -30.5t-14 -26.5t-15 -20.5t-10 -12.5z" />
    <glyph glyph-name="l" unicode="l" horiz-adv-x="295" 
d="M240 630v-545q0 -38 -26.5 -64t-68.5 -26q-38 0 -64 26t-26 64v545q0 38 26 64t64 26q42 0 68.5 -26t26.5 -64z" />
    <glyph glyph-name="m" unicode="m" horiz-adv-x="750" 
d="M440 475h10q12 17 28 30q14 12 31.5 21t40.5 9q34 0 62.5 -12.5t49 -40t32 -70t11.5 -102.5v-225q0 -38 -26 -64t-64 -26q-42 0 -68.5 26t-26.5 64v255q0 23 -8.5 34t-16.5 11t-16.5 -11t-8.5 -34v-255q0 -38 -26 -64t-64 -26q-42 0 -68.5 26t-26.5 64v255q0 23 -8.5 34
t-16.5 11t-16.5 -11t-8.5 -34v-255q0 -38 -26.5 -64t-68.5 -26q-38 0 -64 26t-26 64v350q0 38 26 64t64 26q25 0 41 -8t26 -17q11 -11 18 -25h10q9 17 24 30q13 12 31.5 21t44.5 9q25 0 44 -9.5t33 -20.5q16 -13 28 -30z" />
    <glyph glyph-name="n" unicode="n" horiz-adv-x="525" 
d="M325 535q32 0 60 -13.5t49 -41.5t33.5 -71.5t12.5 -103.5v-220q0 -38 -26 -64t-64 -26q-42 0 -68.5 26t-26.5 64v245q0 30 -9.5 42.5t-20.5 12.5t-20.5 -12.5t-9.5 -42.5v-245q0 -38 -26.5 -64t-68.5 -26q-38 0 -64 26t-26 64v350q0 38 26 64t64 26q25 0 41 -8t26 -17
q11 -11 18 -25h10q9 17 23 30q12 12 28 21t39 9z" />
    <glyph glyph-name="o" unicode="o" horiz-adv-x="500" 
d="M250 130q15 0 25 12.5t10 42.5v150q0 30 -10 42.5t-25 12.5t-25 -12.5t-10 -42.5v-150q0 -30 10 -42.5t25 -12.5zM250 -15q-47 0 -87 17t-69.5 47.5t-46.5 72.5t-17 93v90q0 51 17 93t46.5 72.5t69.5 47.5t87 17t87 -17t69.5 -47.5t46.5 -72.5t17 -93v-90q0 -51 -17 -93
t-46.5 -72.5t-69.5 -47.5t-87 -17z" />
    <glyph glyph-name="p" unicode="p" horiz-adv-x="520" 
d="M50 -130v565q0 38 26 64t64 26q25 0 41 -8t26 -17q11 -11 18 -25h10q9 17 23 30q12 12 28 21t39 9q34 0 64 -14t52.5 -42.5t35.5 -72t13 -101.5v-90q0 -58 -13 -101.5t-35.5 -72t-52.5 -42.5t-64 -14q-21 0 -36 4t-25 8q-11 6 -19 13h-10v-140q0 -38 -26.5 -64t-68.5 -26
q-38 0 -64 26t-26 64zM270 390q-15 0 -25 -12.5t-10 -42.5v-150q0 -30 10 -42.5t25 -12.5t25 12.5t10 42.5v150q0 30 -10 42.5t-25 12.5z" />
    <glyph glyph-name="q" unicode="q" horiz-adv-x="520" 
d="M470 305v-435q0 -38 -26 -64t-64 -26q-42 0 -68.5 26t-26.5 64v140h-10q-8 -7 -19 -13q-11 -5 -25.5 -8.5t-35.5 -3.5q-34 0 -64 14t-52.5 42.5t-35.5 72t-13 101.5v90q0 51 17.5 93t47.5 72.5t70 47.5t85 17q49 0 89.5 -17t69.5 -47.5t45 -72.5t16 -93zM250 390
q-15 0 -25 -12.5t-10 -42.5v-150q0 -30 10 -42.5t25 -12.5t25 12.5t10 42.5v150q0 30 -10 42.5t-25 12.5z" />
    <glyph glyph-name="r" unicode="r" horiz-adv-x="410" 
d="M265 360q-11 0 -20.5 -12.5t-9.5 -42.5v-220q0 -38 -26.5 -64t-68.5 -26q-38 0 -64 26t-26 64v350q0 38 26 64t64 26q26 0 42.5 -8.5t26.5 -18.5q11 -13 16 -28h10q8 18 20 33q11 13 26.5 22.5t38.5 9.5q38 0 64 -26.5t26 -68.5q0 -38 -26 -64t-64 -26q-13 0 -20 1.5
t-11.5 3.5t-9.5 3.5t-14 1.5z" />
    <glyph glyph-name="s" unicode="s" horiz-adv-x="425" 
d="M200 -15q-45 0 -80.5 11t-59.5 29t-37 40.5t-13 44.5q0 34 20.5 54.5t54.5 20.5q24 0 36.5 -7t22 -15.5t20 -15.5t31.5 -7q35 0 35 25q0 13 -15.5 20.5t-39 15t-50.5 18t-50.5 29.5t-39 48t-15.5 74q0 34 13.5 64t39.5 52.5t63 35.5t84 13q43 0 77.5 -12t58.5 -30
t36.5 -40t12.5 -43q0 -75 -75 -75q-22 0 -33.5 7t-20 15.5t-18 15.5t-28.5 7q-25 0 -25 -25q0 -12 15.5 -19t39 -14t50.5 -17t50.5 -28.5t39 -49t15.5 -77.5q0 -32 -14.5 -61.5t-42.5 -52.5t-67.5 -37t-90.5 -14z" />
    <glyph glyph-name="t" unicode="t" horiz-adv-x="375" 
d="M270 350h-25v-155q0 -34 6 -44.5t14 -10.5q6 0 9.5 1.5t7.5 3.5t10.5 3.5t17.5 1.5q26 0 43 -17.5t17 -47.5q0 -42 -35 -71t-110 -29q-36 0 -66 13t-52 40t-34.5 67.5t-12.5 94.5v160q-14 5 -25 15q-10 9 -17.5 23t-7.5 37t8 37.5t17 22.5q11 10 25 15v40q0 37 24.5 63.5
t65.5 26.5t68 -26t27 -64v-30h25q42 0 66 -23.5t24 -61.5t-24 -61.5t-66 -23.5z" />
    <glyph glyph-name="u" unicode="u" horiz-adv-x="530" 
d="M205 -15q-32 0 -60 13.5t-49 41.5t-33.5 71.5t-12.5 103.5v220q0 38 26 64t64 26q42 0 68.5 -26t26.5 -64v-245q0 -30 9.5 -42.5t20.5 -12.5t20.5 12.5t9.5 42.5v245q0 38 26.5 64t68.5 26q38 0 64 -26t26 -64v-350q0 -38 -26 -64t-64 -26q-25 0 -41 8t-26 17
q-11 11 -18 25h-10q-9 -17 -22 -30q-13 -12 -29 -21t-39 -9z" />
    <glyph glyph-name="v" unicode="v" horiz-adv-x="470" 
d="M238 210l48 230q8 38 30 61.5t64 23.5q17 0 32.5 -7t27 -18.5t18.5 -27t7 -32.5q0 -11 -1.5 -23t-3.5 -23q-2 -12 -5 -24l-81 -285q-12 -41 -43.5 -70.5t-95.5 -29.5t-95.5 29.5t-43.5 70.5l-81 285q-3 12 -5 24q-2 11 -3.5 23t-1.5 23q0 17 7 32.5t18.5 27t27 18.5
t32.5 7q42 0 64 -23.5t30 -61.5l48 -230h6z" />
    <glyph glyph-name="w" unicode="w" horiz-adv-x="730" 
d="M370 270h-10l-20 -185q-5 -42 -36.5 -71t-88.5 -29q-60 0 -93 30t-42 75l-50 245q-4 19 -7 37q-4 16 -6 32.5t-2 28.5q0 39 26 65.5t64 26.5q45 0 70.5 -23.5t29.5 -61.5l20 -190h10l15 170q4 42 33 73t82 31t82 -31t33 -73l15 -170h10l20 190q4 38 29.5 61.5t70.5 23.5
q38 0 64 -26.5t26 -65.5q0 -12 -2.5 -29t-4.5 -32l-8 -37l-50 -245q-9 -45 -42 -75t-93 -30q-57 0 -88.5 29t-36.5 71z" />
    <glyph glyph-name="x" unicode="x" horiz-adv-x="450" 
d="M280 40l-50 80h-10l-50 -80q-15 -24 -30 -34.5t-45 -10.5q-34 0 -59.5 26t-25.5 64q0 23 6.5 42.5t23.5 42.5l70 95l-60 85q-16 23 -23 42.5t-7 42.5q0 38 25.5 64t59.5 26q30 0 46.5 -14t28.5 -31l40 -60h10l40 60q12 17 28.5 31t46.5 14q34 0 59.5 -26t25.5 -64
q0 -23 -7 -42.5t-23 -42.5l-60 -85l70 -95q17 -23 23.5 -42.5t6.5 -42.5q0 -38 -25.5 -64t-59.5 -26q-30 0 -45 10.5t-30 34.5z" />
    <glyph glyph-name="y" unicode="y" horiz-adv-x="455" 
d="M120 -30l25 70l-125 310q-2 5 -5.5 14.5t-6.5 22t-5.5 25.5t-2.5 23q0 21 7.5 37.5t20.5 28t29 18t33 6.5q21 0 35 -7.5t23.5 -19.5t16 -27t10.5 -31l50 -170h10l40 170q8 32 28.5 58.5t61.5 26.5q38 0 64 -26t26 -64q0 -11 -2.5 -24t-5.5 -25t-6 -21.5t-5 -14.5
l-151 -485q-14 -42 -35.5 -63.5t-59.5 -21.5q-42 0 -68.5 26t-26.5 64q0 12 3.5 27.5t7.5 30.5l9 26q4 12 5 16z" />
    <glyph glyph-name="z" unicode="z" horiz-adv-x="430" 
d="M380 340l-135 -160v-10h95q17 0 32.5 -7t27 -18.5t18.5 -27t7 -32.5t-7 -32.5t-18.5 -27t-27 -18.5t-32.5 -7h-245q-38 0 -64 26t-26 64t12 60t18 30l135 160v10h-70q-17 0 -32.5 7t-27 18.5t-18.5 27t-7 32.5t7 32.5t18.5 27t27 18.5t32.5 7h230q38 0 64 -26t26 -64
q0 -30 -12.5 -50.5t-27.5 -39.5z" />
    <glyph glyph-name="braceleft" unicode="{" horiz-adv-x="440" 
d="M235 290v-10q24 -10 43 -28q17 -17 29.5 -42t12.5 -65v-110q0 -30 10 -42.5t25 -12.5q38 0 61.5 -25t23.5 -70q0 -42 -27.5 -68.5t-72.5 -26.5q-49 0 -90 17t-71 47.5t-47 72.5t-17 93v120q0 26 -8 36.5t-27 18.5q-7 3 -17.5 9.5t-20 17.5t-16 26.5t-6.5 36.5t6.5 36.5
t16 26.5t20 17.5t17.5 9.5q19 8 27 18.5t8 36.5v120q0 51 17 93t47 72.5t71 47.5t90 17q45 0 72.5 -26.5t27.5 -68.5q0 -45 -23.5 -70t-61.5 -25q-15 0 -25 -12.5t-10 -42.5v-110q0 -40 -13 -65.5t-29 -41.5q-19 -18 -43 -28z" />
    <glyph glyph-name="bar" unicode="|" horiz-adv-x="355" 
d="M280 660v-750q0 -45 -28 -72.5t-77 -27.5q-45 0 -72.5 27.5t-27.5 72.5v750q0 45 27.5 72.5t72.5 27.5q49 0 77 -27.5t28 -72.5z" />
    <glyph glyph-name="braceright" unicode="}" horiz-adv-x="440" 
d="M205 280v10q-24 10 -42 28q-18 17 -30.5 42t-12.5 65v110q0 30 -10 42.5t-25 12.5q-38 0 -61.5 25t-23.5 70q0 42 27.5 68.5t72.5 26.5q49 0 90 -17t71 -47.5t47 -72.5t17 -93v-120q0 -26 8 -36.5t27 -18.5q8 -3 18 -9.5t19.5 -17.5t16 -26.5t6.5 -36.5t-6.5 -36.5
t-16 -26.5t-19.5 -17.5t-18 -9.5q-19 -8 -27 -18.5t-8 -36.5v-120q0 -51 -17 -93t-47 -72.5t-71 -47.5t-90 -17q-45 0 -72.5 26.5t-27.5 68.5q0 45 23.5 70t61.5 25q15 0 25 12.5t10 42.5v110q0 40 13 65.5t30 41.5q18 18 42 28z" />
    <glyph glyph-name="asciitilde" unicode="~" horiz-adv-x="485" 
d="M200 280q-15 0 -22 -10l-16 -20q-9 -11 -22.5 -20.5t-39.5 -9.5q-38 0 -64 26t-26 64q0 32 11.5 59.5t31 47.5t46 31.5t56.5 11.5q27 0 46.5 -9.5t34.5 -20.5t26.5 -20.5t22.5 -9.5q15 0 23 10l16 20q8 11 21.5 20.5t39.5 9.5q38 0 64 -26t26 -64q0 -32 -11.5 -59.5
t-31 -47.5t-46 -31.5t-56.5 -11.5q-27 0 -46.5 9.5t-34.5 20.5t-26.5 20.5t-22.5 9.5z" />
    <glyph glyph-name="nonbreakingspace" unicode="&#xa0;" horiz-adv-x="220" 
 />
    <glyph glyph-name="exclamdown" unicode="&#xa1;" horiz-adv-x="290" 
d="M145 320q-45 0 -75 30t-30 75t30 75t75 30t75 -30t30 -75t-30 -75t-75 -30zM145 -220q-49 0 -79.5 30t-30.5 75q0 2 1 18.5t2 35.5q1 23 2 51l10 190q3 28 14 50q10 20 28.5 35t52.5 15t53 -15.5t28 -34.5q11 -22 14 -50l10 -190q1 -28 3 -51q1 -21 1.5 -36.5t0.5 -17.5
q0 -45 -30.5 -75t-79.5 -30z" />
    <glyph glyph-name="cent" unicode="&#xa2;" horiz-adv-x="450" 
d="M235 610q34 0 53 -14t28 -31q11 -20 14 -45q28 -11 50 -29q20 -16 35 -39t15 -57t-23 -57t-57 -23q-28 0 -41.5 10t-21.5 23l-15 22q-7 10 -22 10t-25 -12.5t-10 -42.5v-130q0 -30 10 -42.5t25 -12.5q17 0 25 10t16.5 22.5t22 22.5t41.5 10q34 0 57 -23t23 -57
t-16.5 -57.5t-35.5 -38.5q-24 -18 -53 -29q-3 -24 -14 -43q-10 -17 -28.5 -29.5t-52.5 -12.5q-38 0 -64 26t-26 64v5q-32 18 -57 46q-24 26 -41 64t-17 95v90q0 57 18 95.5t40 63.5q25 28 57 46v10q0 38 26 64t64 26z" />
    <glyph glyph-name="sterling" unicode="&#xa3;" 
d="M290 190h135q45 0 72.5 -26.5t27.5 -68.5t-27.5 -68.5t-72.5 -26.5h-325q-45 0 -72.5 26.5t-27.5 68.5t27.5 68.5t72.5 26.5h5q11 7 20 21q8 13 14 34t6 55q-22 3 -40 13q-16 8 -28 25t-12 47t12.5 47t27.5 26q18 9 40 12v35q0 54 15.5 94.5t41.5 67.5t59 40t69 13
q83 0 124 -35.5t41 -84.5q0 -60 -55 -60q-13 0 -22 4t-16.5 8.5t-15 8.5t-16.5 4q-19 0 -29.5 -12.5t-10.5 -42.5v-40h45q42 0 66 -23.5t24 -61.5t-24 -61.5t-66 -23.5h-45q0 -34 -6 -53.5t-14 -30.5q-9 -12 -20 -16v-10z" />
    <glyph glyph-name="currency" unicode="&#xa4;" horiz-adv-x="585" 
d="M415 110h-130v-20q0 -45 -28 -72.5t-77 -27.5q-45 0 -72.5 27.5t-27.5 72.5v20q-20 2 -35 11q-14 7 -24.5 20.5t-10.5 38.5t11 38.5t24 20.5q15 9 35 11v20q-20 2 -35 11q-14 7 -24.5 20.5t-10.5 38.5t11 38.5t24 20.5q15 9 35 11v190q0 45 27.5 72.5t72.5 27.5h125
q131 0 195.5 -58.5t64.5 -156.5q0 -97 -64.5 -156t-195.5 -59h-20v-20h130q34 0 54.5 -20t20.5 -50t-20.5 -50t-54.5 -20zM285 410h20q19 0 34.5 17.5t15.5 47.5t-15.5 47.5t-34.5 17.5h-20v-130z" />
    <glyph glyph-name="yen" unicode="&#xa5;" horiz-adv-x="555" 
d="M445 280h-50l-15 -25h65q34 0 54.5 -20t20.5 -50t-20.5 -50t-54.5 -20h-65v-25q0 -45 -28 -72.5t-77 -27.5q-45 0 -72.5 27.5t-27.5 72.5v25h-65q-34 0 -54.5 20t-20.5 50t20.5 50t54.5 20h65l-15 25h-50q-34 0 -54.5 20t-20.5 50q0 21 8 33.5t17 19.5q11 8 25 12l-49 95
l-5 10q-6 10 -12.5 25t-12.5 32.5t-6 32.5q0 45 27.5 72.5t72.5 27.5q26 0 43.5 -8t27.5 -17q12 -11 19 -25l80 -190h10l85 190q7 14 19 25q11 10 28 17.5t43 7.5q45 0 72.5 -27.5t27.5 -72.5q0 -15 -6 -32.5t-12.5 -32.5t-11.5 -25l-6 -10l-49 -95q14 -4 25 -12
q10 -7 17.5 -19.5t7.5 -33.5q0 -30 -20.5 -50t-54.5 -20z" />
    <glyph glyph-name="brokenbar" unicode="&#xa6;" horiz-adv-x="355" 
d="M280 660v-230q0 -45 -28 -72.5t-77 -27.5q-45 0 -72.5 27.5t-27.5 72.5v230q0 45 27.5 72.5t72.5 27.5q49 0 77 -27.5t28 -72.5zM280 140v-230q0 -45 -28 -72.5t-77 -27.5q-45 0 -72.5 27.5t-27.5 72.5v230q0 45 27.5 72.5t72.5 27.5q49 0 77 -27.5t28 -72.5z" />
    <glyph glyph-name="section" unicode="&#xa7;" horiz-adv-x="470" 
d="M25 310q0 30 9.5 52.5t20.5 37.5q13 18 30 30v10l-8 7q-8 8 -17 23t-17 37.5t-8 52.5q0 32 14 61t40 51t64 35t87 13q43 0 78 -12.5t60 -31t38.5 -40.5t13.5 -41q0 -75 -75 -75q-26 0 -38 8.5t-20 19t-17 19t-30 8.5q-30 0 -30 -25q0 -12 16 -22.5t40 -22t51.5 -26.5
t51.5 -37.5t40 -54.5t16 -77q0 -23 -9.5 -41t-20.5 -31q-13 -16 -30 -28v-10l10 -11q10 -11 22.5 -29t22.5 -42.5t10 -52.5q0 -32 -15 -61.5t-44 -52.5t-72 -37t-99 -14q-47 0 -82.5 11t-59.5 29t-36 40.5t-12 44.5q0 34 20.5 54.5t54.5 20.5q24 0 37.5 -8.5t24 -19
t21.5 -19t32 -8.5q40 0 40 25q0 11 -16.5 21t-41.5 21.5t-54.5 27t-54.5 38.5t-41.5 55t-16.5 77zM200 320q0 -23 11 -35t34 -20q3 6 5 12q2 5 3.5 11t1.5 12q0 23 -11 35t-34 20q-3 -6 -5 -12q-2 -5 -3.5 -11t-1.5 -12z" />
    <glyph glyph-name="dieresis" unicode="&#xa8;" horiz-adv-x="440" 
d="M30 730q0 38 25.5 64t59.5 26t59.5 -26t25.5 -64t-25.5 -64t-59.5 -26t-59.5 26t-25.5 64zM240 730q0 38 25.5 64t59.5 26t59.5 -26t25.5 -64t-25.5 -64t-59.5 -26t-59.5 26t-25.5 64z" />
    <glyph glyph-name="copyright" unicode="&#xa9;" horiz-adv-x="860" 
d="M670 300q0 71 -19 127t-52 94.5t-76.5 58.5t-92.5 20t-92.5 -20t-76.5 -58.5t-52 -94.5t-19 -127t19 -127t52 -94.5t76.5 -58.5t92.5 -20t92.5 20t76.5 58.5t52 94.5t19 127zM830 300q0 -101 -30 -182.5t-83.5 -138.5t-127 -88t-159.5 -31t-159.5 31t-127 88t-83.5 138.5
t-30 182.5t30 182.5t83.5 138.5t127 88t159.5 31t159.5 -31t127 -88t83.5 -138.5t30 -182.5zM440 100q-34 0 -63 12.5t-50.5 34.5t-34 52t-12.5 66v60q0 36 12.5 66t34 52t50.5 34.5t63 12.5q30 0 54 -8.5t41 -22.5t26 -32t9 -37q0 -26 -16 -43t-39 -17q-21 0 -31 7
t-16 15.5t-11.5 15.5t-16.5 7q-8 0 -14 -8t-6 -27v-91q0 -17 6 -25.5t14 -8.5q11 0 16.5 7t11.5 15.5t16 15.5t31 7q26 0 43 -17t17 -43q0 -19 -9 -37t-26.5 -32t-42.5 -22.5t-57 -8.5z" />
    <glyph glyph-name="ordfeminine" unicode="&#xaa;" horiz-adv-x="370" 
d="M330 580v-150q0 -30 -19.5 -50t-45.5 -20q-19 0 -30.5 5.5t-18.5 12.5t-11 17h-5q-5 -11 -14 -20q-8 -8 -21 -14t-33 -6q-43 0 -72.5 30t-29.5 75q0 57 35 88.5t110 31.5h20q0 35 -25 35q-7 0 -13 -5l-13 -10q-8 -6 -19 -10.5t-30 -4.5t-32 13.5t-13 36.5q0 13 7.5 26.5
t24 24t42 17.5t61.5 7q72 0 108.5 -35t36.5 -95zM195 460v50h-5q-25 0 -25 -30q0 -15 6 -22.5t14 -7.5q6 0 9 5q1 2 1 5z" />
    <glyph glyph-name="guillemotleft" unicode="&#xab;" horiz-adv-x="545" 
d="M190 245l70 -95q14 -19 19.5 -35t5.5 -35q0 -33 -20.5 -54t-54.5 -21q-30 0 -48.5 19t-31.5 36l-65 90q-8 10 -21.5 36t-13.5 64t13.5 64t21.5 36l65 90q13 17 31.5 36t48.5 19q34 0 54.5 -21t20.5 -54q0 -19 -5.5 -35t-19.5 -35l-70 -95v-10zM420 245l70 -95
q14 -19 19.5 -35t5.5 -35q0 -33 -20.5 -54t-54.5 -21q-30 0 -48.5 19t-31.5 36l-65 90q-8 10 -21.5 36t-13.5 64t13.5 64t21.5 36l65 90q13 17 31.5 36t48.5 19q34 0 54.5 -21t20.5 -54q0 -19 -5.5 -35t-19.5 -35l-70 -95v-10z" />
    <glyph glyph-name="logicalnot" unicode="&#xac;" horiz-adv-x="485" 
d="M100 465h260q42 0 68.5 -26t26.5 -64v-140q0 -38 -26.5 -64t-68.5 -26q-38 0 -64 26t-26 64v60h-170q-42 0 -66 23.5t-24 61.5t24 61.5t66 23.5z" />
    <glyph glyph-name="uni00AD" unicode="&#xad;" horiz-adv-x="430" 
d="M100 425h230q42 0 66 -23.5t24 -61.5t-24 -61.5t-66 -23.5h-230q-42 0 -66 23.5t-24 61.5t24 61.5t66 23.5z" />
    <glyph glyph-name="registered" unicode="&#xae;" horiz-adv-x="860" 
d="M670 300q0 71 -19 127t-52 94.5t-76.5 58.5t-92.5 20t-92.5 -20t-76.5 -58.5t-52 -94.5t-19 -127t19 -127t52 -94.5t76.5 -58.5t92.5 -20t92.5 20t76.5 58.5t52 94.5t19 127zM830 300q0 -101 -30 -182.5t-83.5 -138.5t-127 -88t-159.5 -31t-159.5 31t-127 88t-83.5 138.5
t-30 182.5t30 182.5t83.5 138.5t127 88t159.5 31t159.5 -31t127 -88t83.5 -138.5t30 -182.5zM280 405q0 34 20 54.5t50 20.5h85q75 0 115 -36t40 -89q0 -21 -7 -36t-15 -25q-10 -11 -23 -19v-5l28 -40q5 -8 13.5 -23.5t8.5 -41.5q0 -23 -14.5 -41.5t-40.5 -18.5
q-15 0 -26 5.5t-19 13t-13 15t-7 11.5l-50 90h-5v-60q0 -34 -20 -54.5t-50 -20.5t-50 20.5t-20 54.5v225zM420 325h6q11 0 17.5 7.5t6.5 22.5t-6.5 22.5t-17.5 7.5h-6v-60z" />
    <glyph glyph-name="macron" unicode="&#xaf;" horiz-adv-x="380" 
d="M105 820h170q34 0 54.5 -20t20.5 -50t-20.5 -50t-54.5 -20h-170q-34 0 -54.5 20t-20.5 50t20.5 50t54.5 20z" />
    <glyph glyph-name="degree" unicode="&#xb0;" horiz-adv-x="360" 
d="M215 540q0 34 -10 47t-25 13t-25 -13t-10 -47t10 -47t25 -13t25 13t10 47zM340 540q0 -79 -44 -124.5t-116 -45.5t-116 45.5t-44 124.5t44 124.5t116 45.5t116 -45.5t44 -124.5z" />
    <glyph glyph-name="plusminus" unicode="&#xb1;" horiz-adv-x="490" 
d="M110 230h50v85h-50q-42 0 -66 23.5t-24 61.5t24 61.5t66 23.5h50v50q0 42 23.5 66t61.5 24t61.5 -24t23.5 -66v-50h50q42 0 66 -23.5t24 -61.5t-24 -61.5t-66 -23.5h-50v-85h50q42 0 66 -23.5t24 -61.5t-24 -61.5t-66 -23.5h-270q-42 0 -66 23.5t-24 61.5t24 61.5
t66 23.5z" />
    <glyph glyph-name="twosuperior" unicode="&#xb2;" horiz-adv-x="340" 
d="M305 595q0 -26 -13 -46t-29 -33q-19 -15 -43 -26v-10h25q26 0 45.5 -18.5t19.5 -41.5t-19.5 -41.5t-45.5 -18.5h-150q-26 0 -45.5 18.5t-19.5 41.5q0 36 22.5 59t50.5 41l50 32q22 14 22 33q0 25 -25 25q-13 0 -19.5 -7t-12.5 -15.5t-15 -15.5t-28 -7t-32 13.5t-13 36.5
q0 17 9 34t26 30.5t41 22t54 8.5q72 0 108.5 -33t36.5 -82z" />
    <glyph glyph-name="threesuperior" unicode="&#xb3;" horiz-adv-x="340" 
d="M262 598l-32 -28v-5q22 -3 40 -14q16 -11 28 -30.5t12 -55.5q0 -21 -10 -40.5t-28 -35t-44 -25t-58 -9.5q-75 0 -107.5 25.5t-32.5 59.5q0 23 13.5 36.5t35.5 13.5q19 0 28.5 -7t16 -15.5t14 -15.5t22.5 -7q25 0 25 25q0 11 -8.5 18t-31.5 7h-15q-15 0 -25 10t-10 25
t7.5 23t22.5 22l39 35v5h-79q-23 0 -36.5 13t-13.5 32t13.5 32t36.5 13h160q23 0 36.5 -13t13.5 -32t-9 -34t-24 -28z" />
    <glyph glyph-name="acute" unicode="&#xb4;" horiz-adv-x="240" 
d="M95 590q-30 0 -47.5 17t-17.5 43q0 11 2 27l3 23l10 70q5 38 25.5 59t54.5 21q38 0 61.5 -23t23.5 -57q0 -23 -5 -36t-5 -14l-30 -70q-8 -20 -26.5 -40t-48.5 -20z" />
    <glyph glyph-name="mu" unicode="&#xb5;" horiz-adv-x="530" 
d="M235 15v-145q0 -38 -26.5 -64t-68.5 -26q-38 0 -64 26t-26 64v565q0 38 26 64t64 26q42 0 68.5 -26t26.5 -64v-245q0 -30 9.5 -42.5t20.5 -12.5t20.5 12.5t9.5 42.5v245q0 38 26.5 64t68.5 26q38 0 64 -26t26 -64v-350q0 -38 -26 -64t-64 -26q-21 0 -35 4.5t-23 10.5
q-11 7 -17 15h-10q-4 -7 -10 -12q-5 -6 -11 -9.5t-14 -3.5q-6 0 -10.5 2.5t-7.5 5.5q-4 3 -7 7h-10z" />
    <glyph glyph-name="paragraph" unicode="&#xb6;" horiz-adv-x="620" 
d="M465 -220q-17 0 -32.5 7t-27 18.5t-18.5 27t-7 32.5v665h-30v-665q0 -17 -7 -32.5t-18.5 -27t-27 -18.5t-32.5 -7t-32.5 7t-27 18.5t-18.5 27t-7 32.5v455q-34 0 -64.5 14t-54 39.5t-37.5 60.5t-14 76t14 76t39.5 60.5t60.5 39.5t76 14h320q42 0 66 -23.5t24 -61.5
q0 -25 -9.5 -40t-20.5 -24q-13 -11 -30 -16v-670q0 -17 -7 -32.5t-18.5 -27t-27 -18.5t-32.5 -7z" />
    <glyph glyph-name="periodcentered" unicode="&#xb7;" horiz-adv-x="220" 
d="M110 455q45 0 75 -30t30 -75t-30 -75t-75 -30t-75 30t-30 75t30 75t75 30z" />
    <glyph glyph-name="cedilla" unicode="&#xb8;" horiz-adv-x="305" 
d="M275 -175q0 -26 -11.5 -50.5t-33.5 -43.5t-52 -30t-68 -11t-59 19.5t-21 45.5t19 43t61 17q15 0 22.5 6t7.5 14t-8 14t-27 6q-60 0 -60 55v100h115v-50q32 -3 58 -19q23 -14 40 -40.5t17 -75.5z" />
    <glyph glyph-name="onesuperior" unicode="&#xb9;" horiz-adv-x="285" 
d="M245 640v-210q0 -34 -20 -54.5t-50 -20.5t-50 20.5t-20 54.5v95h-5q-3 -6 -8 -10t-11.5 -7t-15.5 -3q-45 0 -45 50q0 9 4 18.5t9 17t10 12.5l7 7l60 70q2 2 6.5 7.5t12.5 11.5t19.5 11t26.5 5q30 0 50 -20.5t20 -54.5z" />
    <glyph glyph-name="ordmasculine" unicode="&#xba;" horiz-adv-x="360" 
d="M30 515v35q0 75 41 117.5t109 42.5t109 -42.5t41 -117.5v-35q0 -75 -41 -117.5t-109 -42.5t-109 42.5t-41 117.5zM195 515v35q0 23 -3.5 29t-11.5 6t-11.5 -6t-3.5 -29v-35q0 -23 3.5 -29t11.5 -6t11.5 6t3.5 29z" />
    <glyph glyph-name="guillemotright" unicode="&#xbb;" horiz-adv-x="545" 
d="M355 255l-70 95q-14 19 -19.5 35t-5.5 35q0 33 20.5 54t54.5 21q30 0 48.5 -19t31.5 -36l65 -90q8 -10 21.5 -36t13.5 -64t-13.5 -64t-21.5 -36l-65 -90q-13 -17 -31.5 -36t-48.5 -19q-34 0 -54.5 21t-20.5 54q0 19 5.5 35t19.5 35l70 95v10zM125 255l-70 95
q-14 19 -19.5 35t-5.5 35q0 33 20.5 54t54.5 21q30 0 48.5 -19t31.5 -36l65 -90q8 -10 21.5 -36t13.5 -64t-13.5 -64t-21.5 -36l-65 -90q-13 -17 -31.5 -36t-48.5 -19q-34 0 -54.5 21t-20.5 54q0 19 5.5 35t19.5 35l70 95v10z" />
    <glyph glyph-name="onequarter" unicode="&#xbc;" horiz-adv-x="790" 
d="M580 525l-245 -460l-15 -26q-8 -15 -20 -28t-28 -22t-37 -9q-17 0 -32.5 7t-27 18.5t-18.5 27t-7 32.5q0 23 7 41.5t23 48.5l245 460l15 26q8 15 20 28t28 22t37 9q17 0 32.5 -7t27 -18.5t18.5 -27t7 -32.5q0 -23 -7 -41.5t-23 -48.5zM245 640v-210q0 -34 -20 -54.5
t-50 -20.5t-50 20.5t-20 54.5v95h-5q-3 -6 -8 -10t-11.5 -7t-15.5 -3q-45 0 -45 50q0 9 4 18.5t9 17t10 12.5l7 7l60 70q2 2 6.5 7.5t12.5 11.5t19.5 11t26.5 5q30 0 50 -20.5t20 -54.5zM720 55q0 -26 -20.5 -45.5t-49.5 -19.5q-30 0 -50 19.5t-20 45.5h-85q-23 0 -39 16
t-16 39q0 19 7.5 33t12.5 22l83 120q10 15 19.5 27t21.5 20.5t28 13t38 4.5q29 0 49.5 -20.5t20.5 -54.5v-110q11 -2 20 -9q8 -6 14 -16.5t6 -29.5t-6 -30t-14 -16q-9 -7 -20 -9zM555 155h35v60h-5l-30 -55v-5z" />
    <glyph glyph-name="onehalf" unicode="&#xbd;" horiz-adv-x="800" 
d="M580 525l-245 -460l-15 -26q-8 -15 -20 -28t-28 -22t-37 -9q-17 0 -32.5 7t-27 18.5t-18.5 27t-7 32.5q0 23 7 41.5t23 48.5l245 460l15 26q8 15 20 28t28 22t37 9q17 0 32.5 -7t27 -18.5t18.5 -27t7 -32.5q0 -23 -7 -41.5t-23 -48.5zM245 640v-210q0 -34 -20 -54.5
t-50 -20.5t-50 20.5t-20 54.5v95h-5q-3 -6 -8 -10t-11.5 -7t-15.5 -3q-45 0 -45 50q0 9 4 18.5t9 17t10 12.5l7 7l60 70q2 2 6.5 7.5t12.5 11.5t19.5 11t26.5 5q30 0 50 -20.5t20 -54.5zM755 230q0 -26 -13 -46t-29 -33q-19 -15 -43 -26v-10h25q26 0 45.5 -18.5t19.5 -41.5
t-19.5 -41.5t-45.5 -18.5h-150q-26 0 -45.5 18.5t-19.5 41.5q0 36 22.5 59t50.5 41l50 32q22 14 22 33q0 25 -25 25q-13 0 -19.5 -7t-12.5 -15.5t-15 -15.5t-28 -7t-32 13.5t-13 36.5q0 17 9 34t26 30.5t41 22t54 8.5q72 0 108.5 -33t36.5 -82z" />
    <glyph glyph-name="threequarters" unicode="&#xbe;" horiz-adv-x="815" 
d="M252 598l-32 -28v-5q22 -3 40 -14q16 -11 28 -30.5t12 -55.5q0 -21 -10 -40.5t-28 -35t-44 -25t-58 -9.5q-75 0 -107.5 25.5t-32.5 59.5q0 23 13.5 36.5t35.5 13.5q19 0 28.5 -7t16 -15.5t14 -15.5t22.5 -7q25 0 25 25q0 11 -8.5 18t-31.5 7h-15q-15 0 -25 10t-10 25
t7.5 23t22.5 22l39 35v5h-79q-23 0 -36.5 13t-13.5 32t13.5 32t36.5 13h160q23 0 36.5 -13t13.5 -32t-9 -34t-24 -28zM595 525l-245 -460l-14 -26q-9 -15 -21 -28t-28 -22t-37 -9q-17 0 -32.5 7t-27 18.5t-18.5 27t-7 32.5q0 23 7 41.5t23 48.5l245 460l15 26q8 15 20 28
t28 22t37 9q17 0 32.5 -7t27 -18.5t18.5 -27t7 -32.5q0 -23 -7 -41.5t-23 -48.5zM735 55q0 -26 -20.5 -45.5t-49.5 -19.5q-30 0 -50 19.5t-20 45.5h-85q-23 0 -39 16t-16 39q0 19 7.5 33t12.5 22l83 120q10 15 19.5 27t21.5 20.5t28 13t38 4.5q29 0 49.5 -20.5t20.5 -54.5
v-110q11 -2 20 -9q8 -6 14 -16.5t6 -29.5t-6 -30t-14 -16q-9 -7 -20 -9zM570 155h35v60h-5l-30 -55v-5z" />
    <glyph glyph-name="questiondown" unicode="&#xbf;" horiz-adv-x="505" 
d="M275 320q-45 0 -75 30t-30 75t30 75t75 30t75 -30t30 -75t-30 -75t-75 -30zM370 185q0 -34 -22 -56.5t-48 -41.5t-48 -39t-22 -48q0 -40 40 -40q24 0 37 12.5t25 27.5t27.5 27.5t45.5 12.5q38 0 64 -26t26 -64q0 -32 -15.5 -62.5t-44.5 -54.5t-70.5 -38.5t-94.5 -14.5
q-128 0 -189 56t-61 154q0 54 15.5 87t39.5 56t52 42t53 45q11 11 19 21.5t18 19t23.5 14t34.5 5.5q45 0 70 -25t25 -70z" />
    <glyph glyph-name="Agrave" unicode="&#xc0;" horiz-adv-x="590" 
d="M255 320h80l-37 160h-6zM370 150h-150l-15 -60q-12 -47 -37.5 -73.5t-67.5 -26.5q-21 0 -39 8t-31.5 21.5t-21.5 31.5t-8 39q0 17 3 36t7 36q4 19 10 38l120 400q8 26 20 48t30 38t43.5 25t61.5 9t61.5 -9t43.5 -25t30 -38t20 -48l120 -400q6 -19 10 -38q4 -18 7 -36.5
t3 -35.5q0 -21 -8 -39t-21.5 -31.5t-31.5 -21.5t-39 -8q-42 0 -67.5 26.5t-37.5 73.5zM295 780q-30 0 -48.5 20t-26.5 40l-30 70q0 1 -5 14t-5 36q0 34 23.5 57t61.5 23q34 0 54.5 -21t25.5 -59l10 -70l3 -24q2 -15 2 -26q0 -26 -17.5 -43t-47.5 -17z" />
    <glyph glyph-name="Aacute" unicode="&#xc1;" horiz-adv-x="590" 
d="M255 320h80l-37 160h-6zM370 150h-150l-15 -60q-12 -47 -37.5 -73.5t-67.5 -26.5q-21 0 -39 8t-31.5 21.5t-21.5 31.5t-8 39q0 17 3 36t7 36q4 19 10 38l120 400q8 26 20 48t30 38t43.5 25t61.5 9t61.5 -9t43.5 -25t30 -38t20 -48l120 -400q6 -19 10 -38q4 -18 7 -36.5
t3 -35.5q0 -21 -8 -39t-21.5 -31.5t-31.5 -21.5t-39 -8q-42 0 -67.5 26.5t-37.5 73.5zM315 780q-30 0 -47.5 17t-17.5 43q0 11 2 26l3 24l10 70q5 38 25.5 59t54.5 21q38 0 61.5 -23t23.5 -57q0 -23 -5 -36t-5 -14l-30 -70q-8 -20 -26.5 -40t-48.5 -20z" />
    <glyph glyph-name="Acircumflex" unicode="&#xc2;" horiz-adv-x="590" 
d="M255 320h80l-37 160h-6zM370 150h-150l-15 -60q-12 -47 -37.5 -73.5t-67.5 -26.5q-21 0 -39 8t-31.5 21.5t-21.5 31.5t-8 39q0 17 3 36t7 36q4 19 10 38l120 400q8 26 20 48t30 38t43.5 25t61.5 9t61.5 -9t43.5 -25t30 -38t20 -48l120 -400q6 -19 10 -38q4 -18 7 -36.5
t3 -35.5q0 -21 -8 -39t-21.5 -31.5t-31.5 -21.5t-39 -8q-42 0 -67.5 26.5t-37.5 73.5zM290 885l-20 -45q-8 -19 -26.5 -39.5t-48.5 -20.5t-47.5 17t-17.5 43q0 18 5.5 30t9.5 20l50 90q5 9 13.5 19.5t21 19.5t28.5 15t37 6t37 -6t28.5 -15t21 -19.5t13.5 -19.5l50 -90
q4 -8 9.5 -20t5.5 -30q0 -26 -17.5 -43t-47.5 -17t-48.5 20.5t-26.5 39.5l-20 45h-10z" />
    <glyph glyph-name="Atilde" unicode="&#xc3;" horiz-adv-x="590" 
d="M255 320h80l-37 160h-6zM370 150h-150l-15 -60q-12 -47 -37.5 -73.5t-67.5 -26.5q-21 0 -39 8t-31.5 21.5t-21.5 31.5t-8 39q0 17 3 36t7 36q4 19 10 38l120 400q8 26 20 48t30 38t43.5 25t61.5 9t61.5 -9t43.5 -25t30 -38t20 -48l120 -400q6 -19 10 -38q4 -18 7 -36.5
t3 -35.5q0 -21 -8 -39t-21.5 -31.5t-31.5 -21.5t-39 -8q-42 0 -67.5 26.5t-37.5 73.5zM260 850q-9 0 -15 -8t-13.5 -17t-19 -17t-32.5 -8q-26 0 -45.5 19.5t-19.5 45.5q0 30 9.5 55t25 42.5t35 27.5t40.5 10t36.5 -8t27.5 -17l22 -17q10 -8 19 -8t15 8t13.5 17t19 17t32.5 8
q26 0 45.5 -19.5t19.5 -45.5q0 -30 -9.5 -55t-25 -42.5t-35 -27.5t-40.5 -10t-36.5 8t-27.5 17l-22 17q-10 8 -19 8z" />
    <glyph glyph-name="Adieresis" unicode="&#xc4;" horiz-adv-x="590" 
d="M255 320h80l-37 160h-6zM370 150h-150l-15 -60q-12 -47 -37.5 -73.5t-67.5 -26.5q-21 0 -39 8t-31.5 21.5t-21.5 31.5t-8 39q0 17 3 36t7 36q4 19 10 38l120 400q8 26 20 48t30 38t43.5 25t61.5 9t61.5 -9t43.5 -25t30 -38t20 -48l120 -400q6 -19 10 -38q4 -18 7 -36.5
t3 -35.5q0 -21 -8 -39t-21.5 -31.5t-31.5 -21.5t-39 -8q-42 0 -67.5 26.5t-37.5 73.5zM105 880q0 38 25.5 64t59.5 26t59.5 -26t25.5 -64t-25.5 -64t-59.5 -26t-59.5 26t-25.5 64zM315 880q0 38 25.5 64t59.5 26t59.5 -26t25.5 -64t-25.5 -64t-59.5 -26t-59.5 26t-25.5 64z
" />
    <glyph glyph-name="Aring" unicode="&#xc5;" horiz-adv-x="590" 
d="M295 915q26 0 49.5 -10.5t41.5 -29.5t28.5 -44.5t10.5 -55.5q0 -19 -4 -34.5t-8 -26.5q-6 -13 -13 -24q9 -9 18 -22t17 -29t15 -39l120 -400q6 -19 10 -38q4 -18 7 -36.5t3 -35.5q0 -21 -8 -39t-21.5 -31.5t-31.5 -21.5t-39 -8q-42 0 -67.5 26.5t-37.5 73.5l-15 60h-150
l-15 -60q-12 -47 -37.5 -73.5t-67.5 -26.5q-21 0 -39 8t-31.5 21.5t-21.5 31.5t-8 39q0 17 3 36t7 36q4 19 10 38l120 400q7 23 15.5 39.5t16.5 28.5q9 13 18 22q-7 11 -12 24q-6 12 -9.5 27t-3.5 34q0 30 10.5 55.5t28.5 44.5t41.5 29.5t49.5 10.5zM255 320h80l-37 160h-6z
M295 730q11 0 20.5 11t9.5 34q0 22 -9.5 33.5t-20.5 11.5t-20.5 -11.5t-9.5 -33.5q0 -23 9.5 -34t20.5 -11z" />
    <glyph glyph-name="AE" unicode="&#xc6;" horiz-adv-x="830" 
d="M255 320h85v190h-40zM290 700h420q45 0 72.5 -26.5t27.5 -68.5t-27.5 -68.5t-72.5 -26.5h-190v-75h130q42 0 66 -23.5t24 -61.5t-24 -61.5t-66 -23.5h-130v-75h200q45 0 72.5 -26.5t27.5 -68.5t-27.5 -68.5t-72.5 -26.5h-280q-45 0 -72.5 27.5t-27.5 72.5v50h-120
l-15 -60q-12 -47 -37.5 -73.5t-67.5 -26.5q-21 0 -39 8t-31.5 21.5t-21.5 31.5t-8 39q0 17 3 36t7 36q4 19 10 38l115 380q8 26 20 48t30 38t43.5 25t61.5 9z" />
    <glyph glyph-name="Ccedilla" unicode="&#xc7;" horiz-adv-x="555" 
d="M435 -175q0 -26 -11.5 -50.5t-33.5 -43.5t-52 -30t-68 -11t-59 19.5t-21 45.5t19 43t61 17q15 0 22.5 6t7.5 14t-8 14t-27 6q-60 0 -60 55v90q-46 19 -82 56q-22 20 -35 39.5t-23.5 46.5t-17.5 61.5t-7 76.5v140q0 69 20.5 124.5t57 94.5t87 60t110.5 21q53 0 94.5 -14.5
t70.5 -38.5t44.5 -54.5t15.5 -62.5q0 -38 -26 -64t-64 -26q-30 0 -46.5 12.5t-28.5 27.5t-24.5 27.5t-35.5 12.5q-26 0 -45.5 -23.5t-19.5 -76.5v-170q0 -60 19.5 -85t45.5 -25q21 0 34.5 12.5t28 27.5t32 27.5t45.5 12.5q38 0 64 -26t26 -64q0 -30 -16 -60t-45 -54
t-71 -39.5t-93 -16.5v-20q32 -3 58 -19q23 -14 40 -40.5t17 -75.5z" />
    <glyph glyph-name="Egrave" unicode="&#xc8;" horiz-adv-x="580" 
d="M460 510h-190v-75h130q42 0 66 -23.5t24 -61.5t-24 -61.5t-66 -23.5h-130v-75h200q45 0 72.5 -26.5t27.5 -68.5t-27.5 -68.5t-72.5 -26.5h-305q-45 0 -72.5 27.5t-27.5 72.5v500q0 45 27.5 72.5t72.5 27.5h295q45 0 72.5 -26.5t27.5 -68.5t-27.5 -68.5t-72.5 -26.5z
M305 780q-30 0 -48.5 20t-26.5 40l-30 70q0 1 -5 14t-5 36q0 34 23.5 57t61.5 23q34 0 54.5 -21t25.5 -59l10 -70l3 -24q2 -15 2 -26q0 -26 -17.5 -43t-47.5 -17z" />
    <glyph glyph-name="Eacute" unicode="&#xc9;" horiz-adv-x="580" 
d="M460 510h-190v-75h130q42 0 66 -23.5t24 -61.5t-24 -61.5t-66 -23.5h-130v-75h200q45 0 72.5 -26.5t27.5 -68.5t-27.5 -68.5t-72.5 -26.5h-305q-45 0 -72.5 27.5t-27.5 72.5v500q0 45 27.5 72.5t72.5 27.5h295q45 0 72.5 -26.5t27.5 -68.5t-27.5 -68.5t-72.5 -26.5z
M290 780q-30 0 -47.5 17t-17.5 43q0 11 2 27l3 23l10 70q5 38 25.5 59t54.5 21q38 0 61.5 -23t23.5 -57q0 -23 -5 -36t-5 -14l-30 -70q-8 -20 -26.5 -40t-48.5 -20z" />
    <glyph glyph-name="Ecircumflex" unicode="&#xca;" horiz-adv-x="580" 
d="M460 510h-190v-75h130q42 0 66 -23.5t24 -61.5t-24 -61.5t-66 -23.5h-130v-75h200q45 0 72.5 -26.5t27.5 -68.5t-27.5 -68.5t-72.5 -26.5h-305q-45 0 -72.5 27.5t-27.5 72.5v500q0 45 27.5 72.5t72.5 27.5h295q45 0 72.5 -26.5t27.5 -68.5t-27.5 -68.5t-72.5 -26.5z
M310 885l-20 -45q-8 -19 -26.5 -39.5t-48.5 -20.5t-47.5 17t-17.5 43q0 18 5.5 30t9.5 20l50 90q5 9 13.5 19.5t21 19.5t28.5 15t37 6t37 -6t28.5 -15t21 -19.5t13.5 -19.5l50 -90q4 -8 9.5 -20t5.5 -30q0 -26 -17.5 -43t-47.5 -17t-48.5 20.5t-26.5 39.5l-20 45h-10z" />
    <glyph glyph-name="Edieresis" unicode="&#xcb;" horiz-adv-x="580" 
d="M460 510h-190v-75h130q42 0 66 -23.5t24 -61.5t-24 -61.5t-66 -23.5h-130v-75h200q45 0 72.5 -26.5t27.5 -68.5t-27.5 -68.5t-72.5 -26.5h-305q-45 0 -72.5 27.5t-27.5 72.5v500q0 45 27.5 72.5t72.5 27.5h295q45 0 72.5 -26.5t27.5 -68.5t-27.5 -68.5t-72.5 -26.5z
M125 880q0 38 25.5 64t59.5 26t59.5 -26t25.5 -64t-25.5 -64t-59.5 -26t-59.5 26t-25.5 64zM335 880q0 38 25.5 64t59.5 26t59.5 -26t25.5 -64t-25.5 -64t-59.5 -26t-59.5 26t-25.5 64z" />
    <glyph glyph-name="Igrave" unicode="&#xcc;" horiz-adv-x="335" 
d="M270 610v-520q0 -45 -28 -72.5t-77 -27.5q-45 0 -72.5 27.5t-27.5 72.5v520q0 45 27.5 72.5t72.5 27.5q49 0 77 -27.5t28 -72.5zM160 780q-30 0 -48.5 20t-26.5 40l-30 70q0 1 -5 14t-5 36q0 34 23.5 57t61.5 23q34 0 54.5 -21t25.5 -59l10 -70l3 -24q2 -15 2 -26
q0 -26 -17.5 -43t-47.5 -17z" />
    <glyph glyph-name="Iacute" unicode="&#xcd;" horiz-adv-x="335" 
d="M270 610v-520q0 -45 -28 -72.5t-77 -27.5q-45 0 -72.5 27.5t-27.5 72.5v520q0 45 27.5 72.5t72.5 27.5q49 0 77 -27.5t28 -72.5zM175 780q-30 0 -47.5 17t-17.5 43q0 11 2 27l3 23l10 70q5 38 25.5 59t54.5 21q38 0 61.5 -23t23.5 -57q0 -23 -5 -36t-5 -14l-30 -70
q-8 -20 -26.5 -40t-48.5 -20z" />
    <glyph glyph-name="Icircumflex" unicode="&#xce;" horiz-adv-x="335" 
d="M270 610v-520q0 -45 -28 -72.5t-77 -27.5q-45 0 -72.5 27.5t-27.5 72.5v520q0 45 27.5 72.5t72.5 27.5q49 0 77 -27.5t28 -72.5zM160 885l-20 -45q-8 -19 -26.5 -39.5t-48.5 -20.5t-47.5 17t-17.5 43q0 18 5.5 30t9.5 20l50 90q5 9 13.5 19.5t21 19.5t28.5 15t37 6t37 -6
t28.5 -15t21 -19.5t13.5 -19.5l50 -90q4 -8 9.5 -20t5.5 -30q0 -26 -17.5 -43t-47.5 -17t-48.5 20.5t-26.5 39.5l-20 45h-10z" />
    <glyph glyph-name="Idieresis" unicode="&#xcf;" horiz-adv-x="335" 
d="M270 610v-520q0 -45 -28 -72.5t-77 -27.5q-45 0 -72.5 27.5t-27.5 72.5v520q0 45 27.5 72.5t72.5 27.5q49 0 77 -27.5t28 -72.5zM-25 880q0 38 25.5 64t59.5 26t59.5 -26t25.5 -64t-25.5 -64t-59.5 -26t-59.5 26t-25.5 64zM185 880q0 38 25.5 64t59.5 26t59.5 -26
t25.5 -64t-25.5 -64t-59.5 -26t-59.5 26t-25.5 64z" />
    <glyph glyph-name="Eth" unicode="&#xd0;" horiz-adv-x="625" 
d="M310 0h-140q-45 0 -72.5 27.5t-27.5 72.5v160q-17 4 -30 14q-12 9 -21 24.5t-9 41.5t9.5 42t20.5 24q13 10 30 14v180q0 45 27.5 72.5t72.5 27.5h140q60 0 110.5 -21t87 -60t57 -94.5t20.5 -124.5v-100q0 -69 -20.5 -124.5t-57 -94.5t-87 -60t-110.5 -21zM275 170h35
q26 0 45.5 25t19.5 85v150q0 53 -19.5 76.5t-45.5 23.5h-35v-105q21 -4 38 -14q15 -10 26 -26.5t11 -44.5q0 -29 -11.5 -45.5t-25.5 -25.5q-17 -10 -38 -14v-85z" />
    <glyph glyph-name="Ntilde" unicode="&#xd1;" horiz-adv-x="665" 
d="M275 320h-5v-230q0 -45 -28 -72.5t-77 -27.5q-45 0 -72.5 27.5t-27.5 72.5v520q0 45 27.5 72.5t72.5 27.5q42 0 66 -23.5t49 -76.5l110 -230h5v230q0 45 28 72.5t77 27.5q45 0 72.5 -27.5t27.5 -72.5v-520q0 -45 -27.5 -72.5t-72.5 -27.5q-38 0 -64 23.5t-51 76.5z
M287 830q-9 0 -15 -8t-13.5 -17t-19 -17t-32.5 -8q-26 0 -45.5 19.5t-19.5 45.5q0 30 9.5 55t25 42.5t35 27.5t40.5 10t36.5 -8t27.5 -17l22 -17q10 -8 19 -8t15 8t13.5 17t19 17t32.5 8q26 0 45.5 -19.5t19.5 -45.5q0 -30 -9.5 -55t-25 -42.5t-35 -27.5t-40.5 -10t-36.5 8
t-27.5 17l-22 17q-10 8 -19 8z" />
    <glyph glyph-name="Ograve" unicode="&#xd2;" horiz-adv-x="630" 
d="M315 140q26 0 45.5 23.5t19.5 76.5v220q0 53 -19.5 76.5t-45.5 23.5t-45.5 -23.5t-19.5 -76.5v-220q0 -53 19.5 -76.5t45.5 -23.5zM315 -20q-60 0 -110.5 21t-87 60t-57 94.5t-20.5 124.5v140q0 69 20.5 124.5t57 94.5t87 60t110.5 21t110.5 -21t87 -60t57 -94.5
t20.5 -124.5v-140q0 -69 -20.5 -124.5t-57 -94.5t-87 -60t-110.5 -21zM315 780q-30 0 -48.5 20t-26.5 40l-30 70q0 1 -5 14t-5 36q0 34 23.5 57t61.5 23q34 0 54.5 -21t25.5 -59l10 -70l3 -24q2 -15 2 -26q0 -26 -17.5 -43t-47.5 -17z" />
    <glyph glyph-name="Oacute" unicode="&#xd3;" horiz-adv-x="630" 
d="M315 140q26 0 45.5 23.5t19.5 76.5v220q0 53 -19.5 76.5t-45.5 23.5t-45.5 -23.5t-19.5 -76.5v-220q0 -53 19.5 -76.5t45.5 -23.5zM315 -20q-60 0 -110.5 21t-87 60t-57 94.5t-20.5 124.5v140q0 69 20.5 124.5t57 94.5t87 60t110.5 21t110.5 -21t87 -60t57 -94.5
t20.5 -124.5v-140q0 -69 -20.5 -124.5t-57 -94.5t-87 -60t-110.5 -21zM310 780q-30 0 -47.5 17t-17.5 43q0 11 2 27l3 23l10 70q5 38 25.5 59t54.5 21q38 0 61.5 -23t23.5 -57q0 -23 -5 -36t-5 -14l-30 -70q-8 -20 -26.5 -40t-48.5 -20z" />
    <glyph glyph-name="Ocircumflex" unicode="&#xd4;" horiz-adv-x="630" 
d="M315 140q26 0 45.5 23.5t19.5 76.5v220q0 53 -19.5 76.5t-45.5 23.5t-45.5 -23.5t-19.5 -76.5v-220q0 -53 19.5 -76.5t45.5 -23.5zM315 -20q-60 0 -110.5 21t-87 60t-57 94.5t-20.5 124.5v140q0 69 20.5 124.5t57 94.5t87 60t110.5 21t110.5 -21t87 -60t57 -94.5
t20.5 -124.5v-140q0 -69 -20.5 -124.5t-57 -94.5t-87 -60t-110.5 -21zM310 885l-20 -45q-8 -19 -26.5 -39.5t-48.5 -20.5t-47.5 17t-17.5 43q0 18 5.5 30t9.5 20l50 90q5 9 13.5 19.5t21 19.5t28.5 15t37 6t37 -6t28.5 -15t21 -19.5t13.5 -19.5l50 -90q4 -8 9.5 -20t5.5 -30
q0 -26 -17.5 -43t-47.5 -17t-48.5 20.5t-26.5 39.5l-20 45h-10z" />
    <glyph glyph-name="Otilde" unicode="&#xd5;" horiz-adv-x="630" 
d="M315 140q26 0 45.5 23.5t19.5 76.5v220q0 53 -19.5 76.5t-45.5 23.5t-45.5 -23.5t-19.5 -76.5v-220q0 -53 19.5 -76.5t45.5 -23.5zM315 -20q-60 0 -110.5 21t-87 60t-57 94.5t-20.5 124.5v140q0 69 20.5 124.5t57 94.5t87 60t110.5 21t110.5 -21t87 -60t57 -94.5
t20.5 -124.5v-140q0 -69 -20.5 -124.5t-57 -94.5t-87 -60t-110.5 -21zM280 840q-9 0 -15 -8t-13.5 -17t-19 -17t-32.5 -8q-26 0 -45.5 19.5t-19.5 45.5q0 30 9.5 55t25 42.5t35 27.5t40.5 10t36.5 -8t27.5 -17l22 -17q10 -8 19 -8t15 8t13.5 17t19 17t32.5 8
q26 0 45.5 -19.5t19.5 -45.5q0 -30 -9.5 -55t-25 -42.5t-35 -27.5t-40.5 -10t-36.5 8t-27.5 17l-22 17q-10 8 -19 8z" />
    <glyph glyph-name="Odieresis" unicode="&#xd6;" horiz-adv-x="630" 
d="M315 140q26 0 45.5 23.5t19.5 76.5v220q0 53 -19.5 76.5t-45.5 23.5t-45.5 -23.5t-19.5 -76.5v-220q0 -53 19.5 -76.5t45.5 -23.5zM315 -20q-60 0 -110.5 21t-87 60t-57 94.5t-20.5 124.5v140q0 69 20.5 124.5t57 94.5t87 60t110.5 21t110.5 -21t87 -60t57 -94.5
t20.5 -124.5v-140q0 -69 -20.5 -124.5t-57 -94.5t-87 -60t-110.5 -21zM125 880q0 38 25.5 64t59.5 26t59.5 -26t25.5 -64t-25.5 -64t-59.5 -26t-59.5 26t-25.5 64zM335 880q0 38 25.5 64t59.5 26t59.5 -26t25.5 -64t-25.5 -64t-59.5 -26t-59.5 26t-25.5 64z" />
    <glyph glyph-name="multiply" unicode="&#xd7;" horiz-adv-x="450" 
d="M260 189l-35 36l-35 -36q-15 -15 -31.5 -22t-33.5 -7t-32.5 7t-27 18.5t-18.5 27t-7 32.5q0 35 30 65l35 35l-35 35q-30 30 -30 65q0 17 7 32.5t18.5 27t27 18.5t32.5 7q35 0 65 -30l35 -35l35 35q30 30 65 30q17 0 32.5 -7t27 -18.5t18.5 -27t7 -32.5q0 -35 -30 -65
l-35 -35l35 -35q30 -30 30 -65q0 -17 -7 -32.5t-18.5 -27t-27 -18.5t-32.5 -7t-34 7t-31 22z" />
    <glyph glyph-name="Oslash" unicode="&#xd8;" horiz-adv-x="630" 
d="M315 -20q-21 0 -38 3l-30 4q-15 4 -27 8q-5 -11 -13 -20q-8 -8 -19 -14t-28 -6q-30 0 -50 20t-20 50q0 9 2.5 18t5.5 16q3 9 7 16q-31 38 -48 89.5t-17 115.5v140q0 69 20.5 124.5t57 94.5t87 60t110.5 21q21 0 37.5 -2.5t28.5 -4.5q13 -4 24 -8q6 11 16 20q8 8 20 14
t29 6q30 0 50 -20t20 -50q0 -9 -2 -18l-5 -16q-4 -9 -8 -16q31 -38 48 -90t17 -115v-140q0 -69 -20.5 -124.5t-57 -94.5t-87 -60t-110.5 -21zM250 460v-85l85 180q-2 1 -4 3q-7 2 -16 2q-26 0 -45.5 -23.5t-19.5 -76.5zM315 140q26 0 45.5 23.5t19.5 76.5v85l-85 -180l4 -2
q7 -3 16 -3z" />
    <glyph glyph-name="Ugrave" unicode="&#xd9;" horiz-adv-x="650" 
d="M265 610v-365q0 -49 18.5 -72t41.5 -23t41.5 23t18.5 72v365q0 45 28 72.5t77 27.5q45 0 72.5 -27.5t27.5 -72.5v-340q0 -67 -19.5 -121t-55 -91.5t-84 -57.5t-106.5 -20t-106.5 20t-84 57.5t-55 91.5t-19.5 121v340q0 45 27.5 72.5t72.5 27.5q49 0 77 -27.5t28 -72.5z
M310 770q-30 0 -48.5 20t-26.5 40l-30 70q0 1 -5 14t-5 36q0 34 23.5 57t61.5 23q34 0 54.5 -21t25.5 -59l10 -70l3 -24q2 -15 2 -26q0 -26 -17.5 -43t-47.5 -17z" />
    <glyph glyph-name="Uacute" unicode="&#xda;" horiz-adv-x="650" 
d="M265 610v-365q0 -49 18.5 -72t41.5 -23t41.5 23t18.5 72v365q0 45 28 72.5t77 27.5q45 0 72.5 -27.5t27.5 -72.5v-340q0 -67 -19.5 -121t-55 -91.5t-84 -57.5t-106.5 -20t-106.5 20t-84 57.5t-55 91.5t-19.5 121v340q0 45 27.5 72.5t72.5 27.5q49 0 77 -27.5t28 -72.5z
M325 770q-30 0 -47.5 17t-17.5 43q0 11 2 27l3 23l10 70q5 38 25.5 59t54.5 21q38 0 61.5 -23t23.5 -57q0 -23 -5 -36t-5 -14l-30 -70q-8 -20 -26.5 -40t-48.5 -20z" />
    <glyph glyph-name="Ucircumflex" unicode="&#xdb;" horiz-adv-x="650" 
d="M265 610v-365q0 -49 18.5 -72t41.5 -23t41.5 23t18.5 72v365q0 45 28 72.5t77 27.5q45 0 72.5 -27.5t27.5 -72.5v-340q0 -67 -19.5 -121t-55 -91.5t-84 -57.5t-106.5 -20t-106.5 20t-84 57.5t-55 91.5t-19.5 121v340q0 45 27.5 72.5t72.5 27.5q49 0 77 -27.5t28 -72.5z
M320 875l-20 -45q-8 -19 -26.5 -39.5t-48.5 -20.5t-47.5 17t-17.5 43q0 18 5.5 30t9.5 20l50 90q5 9 13.5 19.5t21 19.5t28.5 15t37 6t37 -6t28.5 -15t21 -19.5t13.5 -19.5l50 -90q4 -8 9.5 -20t5.5 -30q0 -26 -17.5 -43t-47.5 -17t-48.5 20.5t-26.5 39.5l-20 45h-10z" />
    <glyph glyph-name="Udieresis" unicode="&#xdc;" horiz-adv-x="650" 
d="M265 610v-365q0 -49 18.5 -72t41.5 -23t41.5 23t18.5 72v365q0 45 28 72.5t77 27.5q45 0 72.5 -27.5t27.5 -72.5v-340q0 -67 -19.5 -121t-55 -91.5t-84 -57.5t-106.5 -20t-106.5 20t-84 57.5t-55 91.5t-19.5 121v340q0 45 27.5 72.5t72.5 27.5q49 0 77 -27.5t28 -72.5z
M135 880q0 38 25.5 64t59.5 26t59.5 -26t25.5 -64t-25.5 -64t-59.5 -26t-59.5 26t-25.5 64zM345 880q0 38 25.5 64t59.5 26t59.5 -26t25.5 -64t-25.5 -64t-59.5 -26t-59.5 26t-25.5 64z" />
    <glyph glyph-name="Yacute" unicode="&#xdd;" horiz-adv-x="555" 
d="M280 470l85 190q7 14 19 25q11 10 28 17.5t43 7.5q45 0 72.5 -27.5t27.5 -72.5q0 -15 -6 -32.5t-12.5 -32.5t-12.5 -25l-5 -10l-139 -255v-165q0 -45 -28 -72.5t-77 -27.5q-45 0 -72.5 27.5t-27.5 72.5v165l-139 255l-6 10q-5 10 -11.5 25t-12.5 32.5t-6 32.5
q0 45 27.5 72.5t72.5 27.5q26 0 43.5 -8t27.5 -17q12 -11 19 -25l80 -190h10zM295 770q-30 0 -47.5 17t-17.5 43q0 11 2 27l3 23l10 70q5 38 25.5 59t54.5 21q38 0 61.5 -23t23.5 -57q0 -23 -5 -36t-5 -14l-30 -70q-8 -20 -26.5 -40t-48.5 -20z" />
    <glyph glyph-name="Thorn" unicode="&#xde;" horiz-adv-x="590" 
d="M270 630v-40h45q60 0 108 -17.5t82 -49t52 -74.5t18 -94t-18 -94t-52 -74.5t-82 -49t-108 -17.5h-45v-40q0 -45 -28 -72.5t-77 -27.5q-45 0 -72.5 27.5t-27.5 72.5v550q0 45 27.5 72.5t72.5 27.5q49 0 77 -27.5t28 -72.5zM300 420h-30v-130h30q30 0 47.5 17.5t17.5 47.5
t-17.5 47.5t-47.5 17.5z" />
    <glyph glyph-name="germandbls" unicode="&#xdf;" horiz-adv-x="555" 
d="M50 85v415q0 49 16 89.5t44 69.5t66.5 45t83.5 16t82.5 -15t65 -42t42.5 -63.5t15 -79.5q0 -26 -5.5 -42.5t-12.5 -29.5l-12 -26q-5 -13 -5 -32q0 -26 18 -44l39 -39q22 -22 40 -53t18 -84q0 -37 -16 -71.5t-44.5 -61t-68 -42t-86.5 -15.5q-34 0 -57 23t-23 57
q0 33 22.5 56.5t52.5 23.5q23 0 31.5 8.5t8.5 31.5t-17 40l-38 38q-21 22 -38 52.5t-17 79.5q0 23 4.5 40.5t10.5 33.5t10.5 31.5t4.5 34.5q0 26 -7 35.5t-18 9.5t-18 -9.5t-7 -35.5v-445q0 -38 -26.5 -64t-68.5 -26q-38 0 -64 26t-26 64z" />
    <glyph glyph-name="agrave" unicode="&#xe0;" horiz-adv-x="495" 
d="M450 330v-240q0 -38 -26 -64t-64 -26q-25 0 -41 8t-26 17q-11 11 -18 25h-10q-9 -17 -22 -30q-13 -12 -29 -21t-39 -9q-32 0 -59.5 12t-47.5 34t-31.5 53.5t-11.5 70.5q0 79 50.5 124.5t159.5 45.5h30q0 34 -12.5 49.5t-27.5 15.5q-17 0 -25.5 -9.5t-16.5 -20.5
t-19 -20.5t-34 -9.5q-75 0 -75 75q0 21 12.5 43t36.5 40t58.5 30t77.5 12q98 0 154 -55.5t56 -149.5zM265 195v20h-30q-11 0 -18 -9.5t-7 -35.5t7 -35.5t18 -9.5t20.5 14t9.5 56zM245 600q-30 0 -48.5 20t-26.5 40l-30 70q0 1 -5 14t-5 36q0 34 23.5 57t61.5 23
q34 0 54.5 -21t25.5 -59l10 -70l3 -24q2 -15 2 -26q0 -26 -17.5 -43t-47.5 -17z" />
    <glyph glyph-name="aacute" unicode="&#xe1;" horiz-adv-x="495" 
d="M450 330v-240q0 -38 -26 -64t-64 -26q-25 0 -41 8t-26 17q-11 11 -18 25h-10q-9 -17 -22 -30q-13 -12 -29 -21t-39 -9q-32 0 -59.5 12t-47.5 34t-31.5 53.5t-11.5 70.5q0 79 50.5 124.5t159.5 45.5h30q0 34 -12.5 49.5t-27.5 15.5q-17 0 -25.5 -9.5t-16.5 -20.5
t-19 -20.5t-34 -9.5q-75 0 -75 75q0 21 12.5 43t36.5 40t58.5 30t77.5 12q98 0 154 -55.5t56 -149.5zM265 195v20h-30q-11 0 -18 -9.5t-7 -35.5t7 -35.5t18 -9.5t20.5 14t9.5 56zM255 600q-30 0 -47.5 17t-17.5 43q0 11 2 26l3 24l10 70q5 38 25.5 59t54.5 21q38 0 61.5 -23
t23.5 -57q0 -23 -5 -36t-5 -14l-30 -70q-8 -20 -26.5 -40t-48.5 -20z" />
    <glyph glyph-name="acircumflex" unicode="&#xe2;" horiz-adv-x="495" 
d="M450 330v-240q0 -38 -26 -64t-64 -26q-25 0 -41 8t-26 17q-11 11 -18 25h-10q-9 -17 -22 -30q-13 -12 -29 -21t-39 -9q-32 0 -59.5 12t-47.5 34t-31.5 53.5t-11.5 70.5q0 79 50.5 124.5t159.5 45.5h30q0 34 -12.5 49.5t-27.5 15.5q-17 0 -25.5 -9.5t-16.5 -20.5
t-19 -20.5t-34 -9.5q-75 0 -75 75q0 21 12.5 43t36.5 40t58.5 30t77.5 12q98 0 154 -55.5t56 -149.5zM265 195v20h-30q-11 0 -18 -9.5t-7 -35.5t7 -35.5t18 -9.5t20.5 14t9.5 56zM235 705l-20 -45q-8 -19 -26.5 -39.5t-48.5 -20.5t-47.5 17t-17.5 43q0 18 5.5 30t9.5 20
l50 90q5 9 13.5 19.5t21 19.5t28.5 15t37 6t37 -6t28.5 -15t21 -19.5t13.5 -19.5l50 -90q4 -8 9.5 -20t5.5 -30q0 -26 -17.5 -43t-47.5 -17t-48.5 20.5t-26.5 39.5l-20 45h-10z" />
    <glyph glyph-name="atilde" unicode="&#xe3;" horiz-adv-x="495" 
d="M450 330v-240q0 -38 -26 -64t-64 -26q-25 0 -41 8t-26 17q-11 11 -18 25h-10q-9 -17 -22 -30q-13 -12 -29 -21t-39 -9q-32 0 -59.5 12t-47.5 34t-31.5 53.5t-11.5 70.5q0 79 50.5 124.5t159.5 45.5h30q0 34 -12.5 49.5t-27.5 15.5q-17 0 -25.5 -9.5t-16.5 -20.5
t-19 -20.5t-34 -9.5q-75 0 -75 75q0 21 12.5 43t36.5 40t58.5 30t77.5 12q98 0 154 -55.5t56 -149.5zM265 195v20h-30q-11 0 -18 -9.5t-7 -35.5t7 -35.5t18 -9.5t20.5 14t9.5 56zM205 670q-9 0 -15 -8t-13.5 -17t-19 -17t-32.5 -8q-26 0 -45.5 19.5t-19.5 45.5q0 30 9.5 55
t25 42.5t35 27.5t40.5 10t36.5 -8t27.5 -17l22 -17q10 -8 19 -8t15 8t13.5 17t19 17t32.5 8q26 0 45.5 -19.5t19.5 -45.5q0 -30 -9.5 -55t-25 -42.5t-35 -27.5t-40.5 -10t-36.5 8t-27.5 17l-22 17q-10 8 -19 8z" />
    <glyph glyph-name="adieresis" unicode="&#xe4;" horiz-adv-x="495" 
d="M450 330v-240q0 -38 -26 -64t-64 -26q-25 0 -41 8t-26 17q-11 11 -18 25h-10q-9 -17 -22 -30q-13 -12 -29 -21t-39 -9q-32 0 -59.5 12t-47.5 34t-31.5 53.5t-11.5 70.5q0 79 50.5 124.5t159.5 45.5h30q0 34 -12.5 49.5t-27.5 15.5q-17 0 -25.5 -9.5t-16.5 -20.5
t-19 -20.5t-34 -9.5q-75 0 -75 75q0 21 12.5 43t36.5 40t58.5 30t77.5 12q98 0 154 -55.5t56 -149.5zM265 195v20h-30q-11 0 -18 -9.5t-7 -35.5t7 -35.5t18 -9.5t20.5 14t9.5 56zM60 710q0 38 25.5 64t59.5 26t59.5 -26t25.5 -64t-25.5 -64t-59.5 -26t-59.5 26t-25.5 64z
M270 710q0 38 25.5 64t59.5 26t59.5 -26t25.5 -64t-25.5 -64t-59.5 -26t-59.5 26t-25.5 64z" />
    <glyph glyph-name="aring" unicode="&#xe5;" horiz-adv-x="495" 
d="M450 330v-240q0 -38 -26 -64t-64 -26q-25 0 -41 8t-26 17q-11 11 -18 25h-10q-9 -17 -22 -30q-13 -12 -29 -21t-39 -9q-32 0 -59.5 12t-47.5 34t-31.5 53.5t-11.5 70.5q0 79 50.5 124.5t159.5 45.5h30q0 34 -12.5 49.5t-27.5 15.5q-17 0 -25.5 -9.5t-16.5 -20.5
t-19 -20.5t-34 -9.5q-75 0 -75 75q0 21 12.5 43t36.5 40t58.5 30t77.5 12q98 0 154 -55.5t56 -149.5zM265 195v20h-30q-11 0 -18 -9.5t-7 -35.5t7 -35.5t18 -9.5t20.5 14t9.5 56zM240 685q11 0 20.5 11t9.5 34q0 22 -9.5 33.5t-20.5 11.5t-20.5 -11.5t-9.5 -33.5
q0 -23 9.5 -34t20.5 -11zM240 870q26 0 49.5 -10.5t41.5 -29.5t28.5 -44.5t10.5 -55.5t-10.5 -55.5t-28.5 -44.5t-41.5 -29.5t-49.5 -10.5t-49.5 10.5t-41.5 29.5t-28.5 44.5t-10.5 55.5t10.5 55.5t28.5 44.5t41.5 29.5t49.5 10.5z" />
    <glyph glyph-name="ae" unicode="&#xe6;" horiz-adv-x="715" 
d="M220 535q38 0 63.5 -8t41.5 -17q19 -11 30 -25h10q11 14 30 25q17 10 42 17.5t63 7.5q36 0 70 -17t60.5 -47.5t43 -72.5t16.5 -93v-15q0 -38 -20.5 -59t-54.5 -21h-165v-40q0 -23 10 -34t25 -11q23 0 33.5 8.5t20 19t22.5 19t39 8.5q30 0 50 -20t20 -50q0 -21 -12.5 -43
t-35.5 -40t-55.5 -30t-71.5 -12q-32 0 -56 8t-41 17q-19 11 -33 25h-10q-14 -14 -34 -25q-19 -10 -44.5 -17.5t-61.5 -7.5q-94 0 -142 46t-48 129q0 79 50.5 124.5t159.5 45.5h30q0 34 -12.5 49.5t-27.5 15.5q-17 0 -25.5 -9.5t-16.5 -20.5t-19 -20.5t-34 -9.5q-75 0 -75 75
q0 21 12.5 43t34.5 40t52 30t66 12zM265 195v20h-30q-11 0 -18 -9.5t-7 -35.5t7 -35.5t18 -9.5t20.5 14t9.5 56zM450 315h60v20q0 26 -9.5 38t-20.5 12t-20.5 -12t-9.5 -38v-20z" />
    <glyph glyph-name="ccedilla" unicode="&#xe7;" horiz-adv-x="450" 
d="M375 -165q0 -26 -11.5 -50.5t-33.5 -43.5t-52 -30t-68 -11t-59 19.5t-21 45.5t19 43t61 17q15 0 22.5 6t7.5 14t-8 14t-27 6q-60 0 -60 55v90q-32 18 -57 46q-24 26 -41 64t-17 95v90q0 51 17 93t46.5 72.5t69.5 47.5t87 17q41 0 74.5 -12t57 -31.5t36 -45t12.5 -51.5
q0 -34 -23 -57t-57 -23q-28 0 -41.5 10t-21.5 23l-15 22q-7 10 -22 10t-25 -12.5t-10 -42.5v-130q0 -30 10 -42.5t25 -12.5q17 0 25 10t16.5 22.5t22 22.5t41.5 10q34 0 57 -23t23 -57q0 -23 -7.5 -41.5t-20 -33t-28 -25t-31.5 -17.5q-39 -17 -88 -23v-15q32 -3 58 -19
q23 -14 40 -40.5t17 -75.5z" />
    <glyph glyph-name="egrave" unicode="&#xe8;" horiz-adv-x="480" 
d="M215 210v-40q0 -23 10 -34t25 -11q23 0 33.5 8.5t20 19t22.5 19t39 8.5q30 0 50 -20t20 -50q0 -21 -13 -43t-37 -40t-59.5 -30t-80.5 -12t-84 17t-68.5 47.5t-46 72.5t-16.5 93v90q0 51 16.5 93t46 72.5t68.5 47.5t84 17q43 0 81.5 -17t67 -47.5t45 -72.5t16.5 -93v-15
q0 -38 -20.5 -59t-54.5 -21h-165zM215 315h60v20q0 26 -9.5 38t-20.5 12t-20.5 -12t-9.5 -38v-20zM245 600q-30 0 -48.5 20t-26.5 40l-30 70q0 1 -5 14t-5 36q0 34 23.5 57t61.5 23q34 0 54.5 -21t25.5 -59l10 -70l3 -24q2 -15 2 -26q0 -26 -17.5 -43t-47.5 -17z" />
    <glyph glyph-name="eacute" unicode="&#xe9;" horiz-adv-x="480" 
d="M215 210v-40q0 -23 10 -34t25 -11q23 0 33.5 8.5t20 19t22.5 19t39 8.5q30 0 50 -20t20 -50q0 -21 -13 -43t-37 -40t-59.5 -30t-80.5 -12t-84 17t-68.5 47.5t-46 72.5t-16.5 93v90q0 51 16.5 93t46 72.5t68.5 47.5t84 17q43 0 81.5 -17t67 -47.5t45 -72.5t16.5 -93v-15
q0 -38 -20.5 -59t-54.5 -21h-165zM215 315h60v20q0 26 -9.5 38t-20.5 12t-20.5 -12t-9.5 -38v-20zM245 600q-30 0 -47.5 17t-17.5 43q0 11 2 27l3 23l10 70q5 38 25.5 59t54.5 21q38 0 61.5 -23t23.5 -57q0 -23 -5 -36t-5 -14l-30 -70q-8 -20 -26.5 -40t-48.5 -20z" />
    <glyph glyph-name="ecircumflex" unicode="&#xea;" horiz-adv-x="480" 
d="M215 210v-40q0 -23 10 -34t25 -11q23 0 33.5 8.5t20 19t22.5 19t39 8.5q30 0 50 -20t20 -50q0 -21 -13 -43t-37 -40t-59.5 -30t-80.5 -12t-84 17t-68.5 47.5t-46 72.5t-16.5 93v90q0 51 16.5 93t46 72.5t68.5 47.5t84 17q43 0 81.5 -17t67 -47.5t45 -72.5t16.5 -93v-15
q0 -38 -20.5 -59t-54.5 -21h-165zM215 315h60v20q0 26 -9.5 38t-20.5 12t-20.5 -12t-9.5 -38v-20zM235 705l-20 -45q-8 -19 -26.5 -39.5t-48.5 -20.5t-47.5 17t-17.5 43q0 18 5.5 30t9.5 20l50 90q5 9 13.5 19.5t21 19.5t28.5 15t37 6t37 -6t28.5 -15t21 -19.5t13.5 -19.5
l50 -90q4 -8 9.5 -20t5.5 -30q0 -26 -17.5 -43t-47.5 -17t-48.5 20.5t-26.5 39.5l-20 45h-10z" />
    <glyph glyph-name="edieresis" unicode="&#xeb;" horiz-adv-x="480" 
d="M215 210v-40q0 -23 10 -34t25 -11q23 0 33.5 8.5t20 19t22.5 19t39 8.5q30 0 50 -20t20 -50q0 -21 -13 -43t-37 -40t-59.5 -30t-80.5 -12t-84 17t-68.5 47.5t-46 72.5t-16.5 93v90q0 51 16.5 93t46 72.5t68.5 47.5t84 17q43 0 81.5 -17t67 -47.5t45 -72.5t16.5 -93v-15
q0 -38 -20.5 -59t-54.5 -21h-165zM215 315h60v20q0 26 -9.5 38t-20.5 12t-20.5 -12t-9.5 -38v-20zM50 700q0 38 25.5 64t59.5 26t59.5 -26t25.5 -64t-25.5 -64t-59.5 -26t-59.5 26t-25.5 64zM260 700q0 38 25.5 64t59.5 26t59.5 -26t25.5 -64t-25.5 -64t-59.5 -26t-59.5 26
t-25.5 64z" />
    <glyph glyph-name="igrave" unicode="&#xec;" horiz-adv-x="285" 
d="M125 600q-30 0 -48.5 20t-26.5 40l-30 70q0 1 -5 14t-5 36q0 34 23.5 57t61.5 23q34 0 54.5 -21t25.5 -59l10 -70l3 -24q2 -15 2 -26q0 -26 -17.5 -43t-47.5 -17zM235 425v-340q0 -38 -26.5 -64t-68.5 -26q-38 0 -64 26t-26 64v340q0 38 26 64t64 26q42 0 68.5 -26
t26.5 -64z" />
    <glyph glyph-name="iacute" unicode="&#xed;" horiz-adv-x="285" 
d="M145 600q-30 0 -47.5 17t-17.5 43q0 11 2 27l3 23l10 70q5 38 25.5 59t54.5 21q38 0 61.5 -23t23.5 -57q0 -23 -5 -36t-5 -14l-30 -70q-8 -20 -26.5 -40t-48.5 -20zM235 425v-340q0 -38 -26.5 -64t-68.5 -26q-38 0 -64 26t-26 64v340q0 38 26 64t64 26q42 0 68.5 -26
t26.5 -64z" />
    <glyph glyph-name="icircumflex" unicode="&#xee;" horiz-adv-x="285" 
d="M235 425v-340q0 -38 -26.5 -64t-68.5 -26q-38 0 -64 26t-26 64v340q0 38 26 64t64 26q42 0 68.5 -26t26.5 -64zM135 705l-20 -45q-8 -19 -26.5 -39.5t-48.5 -20.5t-47.5 17t-17.5 43q0 18 5.5 30t9.5 20l50 90q5 9 13.5 19.5t21 19.5t28.5 15t37 6t37 -6t28.5 -15
t21 -19.5t13.5 -19.5l50 -90q4 -8 9.5 -20t5.5 -30q0 -26 -17.5 -43t-47.5 -17t-48.5 20.5t-26.5 39.5l-20 45h-10z" />
    <glyph glyph-name="idieresis" unicode="&#xef;" horiz-adv-x="285" 
d="M-50 690q0 38 25.5 64t59.5 26t59.5 -26t25.5 -64t-25.5 -64t-59.5 -26t-59.5 26t-25.5 64zM160 690q0 38 25.5 64t59.5 26t59.5 -26t25.5 -64t-25.5 -64t-59.5 -26t-59.5 26t-25.5 64zM235 425v-340q0 -38 -26.5 -64t-68.5 -26q-38 0 -64 26t-26 64v340q0 38 26 64
t64 26q42 0 68.5 -26t26.5 -64z" />
    <glyph glyph-name="eth" unicode="&#xf0;" horiz-adv-x="490" 
d="M175 720q9 0 18 -1t16 -1q9 -2 16 -3l10 15q1 2 4.5 8.5t10 13.5t17.5 12.5t28 5.5q26 0 45.5 -19.5t19.5 -45.5q0 -8 -2.5 -15.5t-4.5 -14.5q-4 -8 -8 -15q32 -25 58 -61q23 -33 40 -79t17 -110v-195q0 -51 -16 -93t-45 -72.5t-69.5 -47.5t-89.5 -17q-45 0 -85 17
t-70 47t-47.5 71t-17.5 90v5q0 58 13.5 101.5t36.5 72t55.5 42.5t69.5 14q26 0 43.5 -5.5t27.5 -11.5q12 -8 19 -18h10q0 17 -5.5 32.5t-11.5 26.5q-8 14 -18 26q-5 -11 -13 -20q-8 -8 -19 -14t-28 -6q-27 0 -46 19.5t-19 45.5q0 8 1 14t2 11q1 6 2 10q-15 7 -27 18
q-12 9 -20 24t-8 38q0 38 24 61.5t66 23.5zM240 125q15 0 25 12.5t10 42.5v80q0 30 -10 42.5t-25 12.5t-25 -12.5t-10 -42.5v-80q0 -30 10 -42.5t25 -12.5z" />
    <glyph glyph-name="ntilde" unicode="&#xf1;" horiz-adv-x="525" 
d="M325 535q32 0 60 -13.5t49 -41.5t33.5 -71.5t12.5 -103.5v-220q0 -38 -26 -64t-64 -26q-42 0 -68.5 26t-26.5 64v245q0 30 -9.5 42.5t-20.5 12.5t-20.5 -12.5t-9.5 -42.5v-245q0 -38 -26.5 -64t-68.5 -26q-38 0 -64 26t-26 64v350q0 38 26 64t64 26q25 0 41 -8t26 -17
q11 -11 18 -25h10q9 17 23 30q12 12 28 21t39 9zM230 670q-9 0 -15 -8t-13.5 -17t-19 -17t-32.5 -8q-26 0 -45.5 19.5t-19.5 45.5q0 30 9.5 55t25 42.5t35 27.5t40.5 10t36.5 -8t27.5 -17l22 -17q10 -8 19 -8t15 8t13.5 17t19 17t32.5 8q26 0 45.5 -19.5t19.5 -45.5
q0 -30 -9.5 -55t-25 -42.5t-35 -27.5t-40.5 -10t-36.5 8t-27.5 17l-22 17q-10 8 -19 8z" />
    <glyph glyph-name="ograve" unicode="&#xf2;" horiz-adv-x="500" 
d="M250 130q15 0 25 12.5t10 42.5v150q0 30 -10 42.5t-25 12.5t-25 -12.5t-10 -42.5v-150q0 -30 10 -42.5t25 -12.5zM250 -15q-47 0 -87 17t-69.5 47.5t-46.5 72.5t-17 93v90q0 51 17 93t46.5 72.5t69.5 47.5t87 17t87 -17t69.5 -47.5t46.5 -72.5t17 -93v-90q0 -51 -17 -93
t-46.5 -72.5t-69.5 -47.5t-87 -17zM240 600q-30 0 -48.5 20t-26.5 40l-30 70q0 1 -5 14t-5 36q0 34 23.5 57t61.5 23q34 0 54.5 -21t25.5 -59l10 -70l3 -24q2 -15 2 -26q0 -26 -17.5 -43t-47.5 -17z" />
    <glyph glyph-name="oacute" unicode="&#xf3;" horiz-adv-x="500" 
d="M250 130q15 0 25 12.5t10 42.5v150q0 30 -10 42.5t-25 12.5t-25 -12.5t-10 -42.5v-150q0 -30 10 -42.5t25 -12.5zM250 -15q-47 0 -87 17t-69.5 47.5t-46.5 72.5t-17 93v90q0 51 17 93t46.5 72.5t69.5 47.5t87 17t87 -17t69.5 -47.5t46.5 -72.5t17 -93v-90q0 -51 -17 -93
t-46.5 -72.5t-69.5 -47.5t-87 -17zM260 600q-30 0 -47.5 17t-17.5 43q0 11 2 27l3 23l10 70q5 38 25.5 59t54.5 21q38 0 61.5 -23t23.5 -57q0 -23 -5 -36t-5 -14l-30 -70q-8 -20 -26.5 -40t-48.5 -20z" />
    <glyph glyph-name="ocircumflex" unicode="&#xf4;" horiz-adv-x="500" 
d="M250 130q15 0 25 12.5t10 42.5v150q0 30 -10 42.5t-25 12.5t-25 -12.5t-10 -42.5v-150q0 -30 10 -42.5t25 -12.5zM250 -15q-47 0 -87 17t-69.5 47.5t-46.5 72.5t-17 93v90q0 51 17 93t46.5 72.5t69.5 47.5t87 17t87 -17t69.5 -47.5t46.5 -72.5t17 -93v-90q0 -51 -17 -93
t-46.5 -72.5t-69.5 -47.5t-87 -17zM245 705l-20 -45q-8 -19 -26.5 -39.5t-48.5 -20.5t-47.5 17t-17.5 43q0 18 5.5 30t9.5 20l50 90q5 9 13.5 19.5t21 19.5t28.5 15t37 6t37 -6t28.5 -15t21 -19.5t13.5 -19.5l50 -90q4 -8 9.5 -20t5.5 -30q0 -26 -17.5 -43t-47.5 -17
t-48.5 20.5t-26.5 39.5l-20 45h-10z" />
    <glyph glyph-name="otilde" unicode="&#xf5;" horiz-adv-x="500" 
d="M250 130q15 0 25 12.5t10 42.5v150q0 30 -10 42.5t-25 12.5t-25 -12.5t-10 -42.5v-150q0 -30 10 -42.5t25 -12.5zM250 -15q-47 0 -87 17t-69.5 47.5t-46.5 72.5t-17 93v90q0 51 17 93t46.5 72.5t69.5 47.5t87 17t87 -17t69.5 -47.5t46.5 -72.5t17 -93v-90q0 -51 -17 -93
t-46.5 -72.5t-69.5 -47.5t-87 -17zM215 660q-9 0 -15 -8t-13.5 -17t-19 -17t-32.5 -8q-26 0 -45.5 19.5t-19.5 45.5q0 30 9.5 55t25 42.5t35 27.5t40.5 10t36.5 -8t27.5 -17l22 -17q10 -8 19 -8t15 8t13.5 17t19 17t32.5 8q26 0 45.5 -19.5t19.5 -45.5q0 -30 -9.5 -55
t-25 -42.5t-35 -27.5t-40.5 -10t-36.5 8t-27.5 17l-22 17q-10 8 -19 8z" />
    <glyph glyph-name="odieresis" unicode="&#xf6;" horiz-adv-x="500" 
d="M250 130q15 0 25 12.5t10 42.5v150q0 30 -10 42.5t-25 12.5t-25 -12.5t-10 -42.5v-150q0 -30 10 -42.5t25 -12.5zM250 -15q-47 0 -87 17t-69.5 47.5t-46.5 72.5t-17 93v90q0 51 17 93t46.5 72.5t69.5 47.5t87 17t87 -17t69.5 -47.5t46.5 -72.5t17 -93v-90q0 -51 -17 -93
t-46.5 -72.5t-69.5 -47.5t-87 -17zM60 700q0 38 25.5 64t59.5 26t59.5 -26t25.5 -64t-25.5 -64t-59.5 -26t-59.5 26t-25.5 64zM270 700q0 38 25.5 64t59.5 26t59.5 -26t25.5 -64t-25.5 -64t-59.5 -26t-59.5 26t-25.5 64z" />
    <glyph glyph-name="divide" unicode="&#xf7;" horiz-adv-x="460" 
d="M100 430h260q42 0 66 -23.5t24 -61.5t-24 -61.5t-66 -23.5h-260q-42 0 -66 23.5t-24 61.5t24 61.5t66 23.5zM230 225q45 0 75 -30t30 -75t-30 -75t-75 -30t-75 30t-30 75t30 75t75 30zM230 675q45 0 75 -30t30 -75t-30 -75t-75 -30t-75 30t-30 75t30 75t75 30z" />
    <glyph glyph-name="oslash" unicode="&#xf8;" horiz-adv-x="500" 
d="M250 -15q-15 0 -26 1.5t-19 3.5q-9 2 -15 5q-5 -11 -13 -20q-8 -8 -19 -14t-28 -6q-27 0 -46 19.5t-19 45.5q0 9 2.5 17.5t5.5 14.5q3 7 7 13q-14 16 -25 38q-10 20 -17.5 47t-7.5 65v90q0 51 17 93t46.5 72.5t69.5 47.5t87 17q15 0 26 -1.5t19 -3.5q9 -2 15 -5
q5 11 13 20q8 8 19 14t28 6q27 0 46 -19.5t19 -45.5q0 -9 -2.5 -17.5t-4.5 -14.5q-4 -7 -8 -13q23 -29 36.5 -67t13.5 -83v-90q0 -51 -17 -93t-46.5 -72.5t-69.5 -47.5t-87 -17zM240 130h10q19 0 29.5 12.5t10.5 42.5v45zM210 335v-45l50 100h-10q-19 0 -29.5 -12.5
t-10.5 -42.5z" />
    <glyph glyph-name="ugrave" unicode="&#xf9;" horiz-adv-x="530" 
d="M205 -15q-32 0 -60 13.5t-49 41.5t-33.5 71.5t-12.5 103.5v220q0 38 26 64t64 26q42 0 68.5 -26t26.5 -64v-245q0 -30 9.5 -42.5t20.5 -12.5t20.5 12.5t9.5 42.5v245q0 38 26.5 64t68.5 26q38 0 64 -26t26 -64v-350q0 -38 -26 -64t-64 -26q-25 0 -41 8t-26 17
q-11 11 -18 25h-10q-9 -17 -22 -30q-13 -12 -29 -21t-39 -9zM250 600q-30 0 -48.5 20t-26.5 40l-30 70q0 1 -5 14t-5 36q0 34 23.5 57t61.5 23q34 0 54.5 -21t25.5 -59l10 -70l3 -24q2 -15 2 -26q0 -26 -17.5 -43t-47.5 -17z" />
    <glyph glyph-name="uacute" unicode="&#xfa;" horiz-adv-x="530" 
d="M205 -15q-32 0 -60 13.5t-49 41.5t-33.5 71.5t-12.5 103.5v220q0 38 26 64t64 26q42 0 68.5 -26t26.5 -64v-245q0 -30 9.5 -42.5t20.5 -12.5t20.5 12.5t9.5 42.5v245q0 38 26.5 64t68.5 26q38 0 64 -26t26 -64v-350q0 -38 -26 -64t-64 -26q-25 0 -41 8t-26 17
q-11 11 -18 25h-10q-9 -17 -22 -30q-13 -12 -29 -21t-39 -9zM260 600q-30 0 -47.5 17t-17.5 43q0 11 2 27l3 23l10 70q5 38 25.5 59t54.5 21q38 0 61.5 -23t23.5 -57q0 -23 -5 -36t-5 -14l-30 -70q-8 -20 -26.5 -40t-48.5 -20z" />
    <glyph glyph-name="ucircumflex" unicode="&#xfb;" horiz-adv-x="530" 
d="M205 -15q-32 0 -60 13.5t-49 41.5t-33.5 71.5t-12.5 103.5v220q0 38 26 64t64 26q42 0 68.5 -26t26.5 -64v-245q0 -30 9.5 -42.5t20.5 -12.5t20.5 12.5t9.5 42.5v245q0 38 26.5 64t68.5 26q38 0 64 -26t26 -64v-350q0 -38 -26 -64t-64 -26q-25 0 -41 8t-26 17
q-11 11 -18 25h-10q-9 -17 -22 -30q-13 -12 -29 -21t-39 -9zM260 705l-20 -45q-8 -19 -26.5 -39.5t-48.5 -20.5t-47.5 17t-17.5 43q0 18 5.5 30t9.5 20l50 90q5 9 13.5 19.5t21 19.5t28.5 15t37 6t37 -6t28.5 -15t21 -19.5t13.5 -19.5l50 -90q4 -8 9.5 -20t5.5 -30
q0 -26 -17.5 -43t-47.5 -17t-48.5 20.5t-26.5 39.5l-20 45h-10z" />
    <glyph glyph-name="udieresis" unicode="&#xfc;" horiz-adv-x="530" 
d="M205 -15q-32 0 -60 13.5t-49 41.5t-33.5 71.5t-12.5 103.5v220q0 38 26 64t64 26q42 0 68.5 -26t26.5 -64v-245q0 -30 9.5 -42.5t20.5 -12.5t20.5 12.5t9.5 42.5v245q0 38 26.5 64t68.5 26q38 0 64 -26t26 -64v-350q0 -38 -26 -64t-64 -26q-25 0 -41 8t-26 17
q-11 11 -18 25h-10q-9 -17 -22 -30q-13 -12 -29 -21t-39 -9zM75 700q0 38 25.5 64t59.5 26t59.5 -26t25.5 -64t-25.5 -64t-59.5 -26t-59.5 26t-25.5 64zM285 700q0 38 25.5 64t59.5 26t59.5 -26t25.5 -64t-25.5 -64t-59.5 -26t-59.5 26t-25.5 64z" />
    <glyph glyph-name="yacute" unicode="&#xfd;" horiz-adv-x="455" 
d="M120 -30l25 70l-125 310q-2 5 -5.5 14.5t-6.5 22t-5.5 25.5t-2.5 23q0 21 7.5 37.5t20.5 28t29 18t33 6.5q21 0 35 -7.5t23.5 -19.5t16 -27t10.5 -31l50 -170h10l40 170q8 32 28.5 58.5t61.5 26.5q38 0 64 -26t26 -64q0 -11 -2.5 -24t-5.5 -25t-6 -21.5t-5 -14.5
l-151 -485q-14 -42 -35.5 -63.5t-59.5 -21.5q-42 0 -68.5 26t-26.5 64q0 12 3.5 27.5t7.5 30.5l9 26q4 12 5 16zM255 600q-30 0 -47.5 17t-17.5 43q0 11 2 27l3 23l10 70q5 38 25.5 59t54.5 21q38 0 61.5 -23t23.5 -57q0 -23 -5 -36t-5 -14l-30 -70q-8 -20 -26.5 -40
t-48.5 -20z" />
    <glyph glyph-name="thorn" unicode="&#xfe;" horiz-adv-x="525" 
d="M55 -130v760q0 38 26 64t64 26q42 0 68.5 -26t26.5 -64v-120h10q8 7 19 13q11 5 25.5 8.5t35.5 3.5q34 0 64 -14t52.5 -42.5t35.5 -72t13 -101.5v-90q0 -58 -13 -101.5t-35.5 -72t-52.5 -42.5t-64 -14q-21 0 -36 4t-25 8q-11 6 -19 13h-10v-140q0 -38 -26.5 -64
t-68.5 -26q-38 0 -64 26t-26 64zM275 390q-15 0 -25 -12.5t-10 -42.5v-150q0 -30 10 -42.5t25 -12.5t25 12.5t10 42.5v150q0 30 -10 42.5t-25 12.5z" />
    <glyph glyph-name="ydieresis" unicode="&#xff;" horiz-adv-x="455" 
d="M120 -30l25 70l-125 310q-2 5 -5.5 14.5t-6.5 22t-5.5 25.5t-2.5 23q0 21 7.5 37.5t20.5 28t29 18t33 6.5q21 0 35 -7.5t23.5 -19.5t16 -27t10.5 -31l50 -170h10l40 170q8 32 28.5 58.5t61.5 26.5q38 0 64 -26t26 -64q0 -11 -2.5 -24t-5.5 -25t-6 -21.5t-5 -14.5
l-151 -485q-14 -42 -35.5 -63.5t-59.5 -21.5q-42 0 -68.5 26t-26.5 64q0 12 3.5 27.5t7.5 30.5l9 26q4 12 5 16zM40 700q0 38 25.5 64t59.5 26t59.5 -26t25.5 -64t-25.5 -64t-59.5 -26t-59.5 26t-25.5 64zM250 700q0 38 25.5 64t59.5 26t59.5 -26t25.5 -64t-25.5 -64
t-59.5 -26t-59.5 26t-25.5 64z" />
    <glyph glyph-name="Amacron" unicode="&#x100;" horiz-adv-x="590" 
d="M255 320h80l-37 160h-6zM370 150h-150l-15 -60q-12 -47 -37.5 -73.5t-67.5 -26.5q-21 0 -39 8t-31.5 21.5t-21.5 31.5t-8 39q0 17 3 36t7 36q4 19 10 38l120 400q8 26 20 48t30 38t43.5 25t61.5 9t61.5 -9t43.5 -25t30 -38t20 -48l120 -400q6 -19 10 -38q4 -18 7 -36.5
t3 -35.5q0 -21 -8 -39t-21.5 -31.5t-31.5 -21.5t-39 -8q-42 0 -67.5 26.5t-37.5 73.5zM210 950h170q34 0 54.5 -20t20.5 -50t-20.5 -50t-54.5 -20h-170q-34 0 -54.5 20t-20.5 50t20.5 50t54.5 20z" />
    <glyph glyph-name="amacron" unicode="&#x101;" horiz-adv-x="495" 
d="M450 330v-240q0 -38 -26 -64t-64 -26q-25 0 -41 8t-26 17q-11 11 -18 25h-10q-9 -17 -22 -30q-13 -12 -29 -21t-39 -9q-32 0 -59.5 12t-47.5 34t-31.5 53.5t-11.5 70.5q0 79 50.5 124.5t159.5 45.5h30q0 34 -12.5 49.5t-27.5 15.5q-17 0 -25.5 -9.5t-16.5 -20.5
t-19 -20.5t-34 -9.5q-75 0 -75 75q0 21 12.5 43t36.5 40t58.5 30t77.5 12q98 0 154 -55.5t56 -149.5zM265 195v20h-30q-11 0 -18 -9.5t-7 -35.5t7 -35.5t18 -9.5t20.5 14t9.5 56zM165 780h170q34 0 54.5 -20t20.5 -50t-20.5 -50t-54.5 -20h-170q-34 0 -54.5 20t-20.5 50
t20.5 50t54.5 20z" />
    <glyph glyph-name="Abreve" unicode="&#x102;" horiz-adv-x="590" 
d="M255 320h80l-37 160h-6zM370 150h-150l-15 -60q-12 -47 -37.5 -73.5t-67.5 -26.5q-21 0 -39 8t-31.5 21.5t-21.5 31.5t-8 39q0 17 3 36t7 36q4 19 10 38l120 400q8 26 20 48t30 38t43.5 25t61.5 9t61.5 -9t43.5 -25t30 -38t20 -48l120 -400q6 -19 10 -38q4 -18 7 -36.5
t3 -35.5q0 -21 -8 -39t-21.5 -31.5t-31.5 -21.5t-39 -8q-42 0 -67.5 26.5t-37.5 73.5zM295 780q-32 0 -60 12t-49 31t-33.5 43.5t-12.5 48.5q0 26 19.5 45.5t45.5 19.5q23 0 34 -8.5t18.5 -19t15 -19t22.5 -8.5t22.5 8.5t15 19t19 19t33.5 8.5q26 0 45.5 -19.5t19.5 -45.5
q0 -24 -12.5 -48.5t-33.5 -43.5t-49 -31t-60 -12z" />
    <glyph glyph-name="abreve" unicode="&#x103;" horiz-adv-x="495" 
d="M450 330v-240q0 -38 -26 -64t-64 -26q-25 0 -41 8t-26 17q-11 11 -18 25h-10q-9 -17 -22 -30q-13 -12 -29 -21t-39 -9q-32 0 -59.5 12t-47.5 34t-31.5 53.5t-11.5 70.5q0 79 50.5 124.5t159.5 45.5h30q0 34 -12.5 49.5t-27.5 15.5q-17 0 -25.5 -9.5t-16.5 -20.5
t-19 -20.5t-34 -9.5q-75 0 -75 75q0 21 12.5 43t36.5 40t58.5 30t77.5 12q98 0 154 -55.5t56 -149.5zM265 195v20h-30q-11 0 -18 -9.5t-7 -35.5t7 -35.5t18 -9.5t20.5 14t9.5 56zM240 600q-32 0 -60 12t-49 31t-33.5 43.5t-12.5 48.5q0 26 19.5 45.5t45.5 19.5q23 0 34 -8.5
t18.5 -19t15 -19t22.5 -8.5t22.5 8.5t15 19t19 19t33.5 8.5q26 0 45.5 -19.5t19.5 -45.5q0 -24 -12.5 -48.5t-33.5 -43.5t-49 -31t-60 -12z" />
    <glyph glyph-name="Aogonek" unicode="&#x104;" horiz-adv-x="590" 
d="M370 150h-150l-15 -60q-12 -47 -37.5 -73.5t-67.5 -26.5q-21 0 -39 8t-31.5 21.5t-21.5 31.5t-8 39q0 17 3 36t7 36q4 19 10 38l120 400q8 26 20 48t30 38t43.5 25t61.5 9t61.5 -9t43.5 -25t30 -38t20 -48l120 -400q6 -19 10 -38q4 -18 7 -36.5t3 -35.5
q0 -36 -18.5 -58.5t-41 -41t-41.5 -36.5t-19 -44q0 -45 40 -45q23 0 41.5 -17t18.5 -43t-21 -45.5t-59 -19.5q-34 0 -61.5 12t-47 30.5t-30.5 41.5t-11 46q0 34 13 60.5t30 45.5q18 22 42 39q-7 5 -14 15q-7 9 -13.5 23t-12.5 37zM255 320h80l-37 160h-6z" />
    <glyph glyph-name="aogonek" unicode="&#x105;" horiz-adv-x="495" 
d="M450 330v-240q0 -30 -16.5 -51t-36 -39t-36 -35.5t-16.5 -39.5q0 -45 40 -45q23 0 41.5 -17t18.5 -43t-21 -45.5t-59 -19.5q-34 0 -61.5 12t-47 30.5t-30.5 41.5t-11 46q0 34 12.5 59t27.5 42q18 20 40 34q-6 5 -9.5 10.5t-6.5 9.5l-4 10h-10q-9 -17 -22 -30
q-13 -12 -29 -21t-39 -9q-32 0 -59.5 12t-47.5 34t-31.5 53.5t-11.5 70.5q0 79 50.5 124.5t159.5 45.5h30q0 34 -12.5 49.5t-27.5 15.5q-17 0 -25.5 -9.5t-16.5 -20.5t-19 -20.5t-34 -9.5q-75 0 -75 75q0 21 12.5 43t36.5 40t58.5 30t77.5 12q98 0 154 -55.5t56 -149.5z
M265 195v20h-30q-11 0 -18 -9.5t-7 -35.5t7 -35.5t18 -9.5t20.5 14t9.5 56z" />
    <glyph glyph-name="Cacute" unicode="&#x106;" horiz-adv-x="555" 
d="M40 280v140q0 69 20.5 124.5t57 94.5t87 60t110.5 21q53 0 94.5 -14.5t70.5 -38.5t44.5 -54.5t15.5 -62.5q0 -38 -26 -64t-64 -26q-30 0 -46.5 12.5t-28.5 27.5t-24.5 27.5t-35.5 12.5q-26 0 -45.5 -23.5t-19.5 -76.5v-170q0 -60 19.5 -85t45.5 -25q21 0 34.5 12.5
t28 27.5t32 27.5t45.5 12.5q38 0 64 -26t26 -64q0 -30 -16 -60.5t-46 -54.5t-72.5 -39.5t-95.5 -15.5q-60 0 -110 21t-87 60t-57.5 94.5t-20.5 124.5zM310 780q-30 0 -47.5 17t-17.5 43q0 11 2 26l3 24l10 70q5 38 25.5 59t54.5 21q38 0 61.5 -23t23.5 -57q0 -23 -5 -36
t-5 -14l-30 -70q-8 -20 -26.5 -40t-48.5 -20z" />
    <glyph glyph-name="cacute" unicode="&#x107;" horiz-adv-x="450" 
d="M250 -15q-47 0 -87 17t-69.5 47.5t-46.5 72.5t-17 93v90q0 51 17 93t46.5 72.5t69.5 47.5t87 17q41 0 74.5 -12t57 -31.5t36 -45t12.5 -51.5q0 -34 -23 -57t-57 -23q-28 0 -41.5 10t-21.5 23l-15 22q-7 10 -22 10t-25 -12.5t-10 -42.5v-130q0 -30 10 -42.5t25 -12.5
q17 0 25 10t16.5 22.5t22 22.5t41.5 10q34 0 57 -23t23 -57q0 -26 -12.5 -51.5t-36.5 -45t-58.5 -31.5t-77.5 -12zM245 600q-30 0 -47.5 17t-17.5 43q0 11 2 27l3 23l10 70q5 38 25.5 59t54.5 21q38 0 61.5 -23t23.5 -57q0 -23 -5 -36t-5 -14l-30 -70q-8 -20 -26.5 -40
t-48.5 -20z" />
    <glyph glyph-name="Ccircumflex" unicode="&#x108;" horiz-adv-x="555" 
d="M40 280v140q0 69 20.5 124.5t57 94.5t87 60t110.5 21q53 0 94.5 -14.5t70.5 -38.5t44.5 -54.5t15.5 -62.5q0 -38 -26 -64t-64 -26q-30 0 -46.5 12.5t-28.5 27.5t-24.5 27.5t-35.5 12.5q-26 0 -45.5 -23.5t-19.5 -76.5v-170q0 -60 19.5 -85t45.5 -25q21 0 34.5 12.5
t28 27.5t32 27.5t45.5 12.5q38 0 64 -26t26 -64q0 -30 -16 -60.5t-46 -54.5t-72.5 -39.5t-95.5 -15.5q-60 0 -110 21t-87 60t-57.5 94.5t-20.5 124.5zM300 885l20 -45q8 -19 26.5 -39.5t48.5 -20.5t47.5 17t17.5 43q0 18 -5 30l-10 20l-50 90q-5 9 -13.5 19.5t-21 19.5
t-28.5 15t-37 6t-37 -6t-28.5 -15t-21 -19.5t-13.5 -19.5l-50 -90l-10 -20q-5 -12 -5 -30q0 -26 17.5 -43t47.5 -17t48.5 20.5t26.5 39.5l20 45h10z" />
    <glyph glyph-name="ccircumflex" unicode="&#x109;" horiz-adv-x="450" 
d="M250 -15q-47 0 -87 17t-69.5 47.5t-46.5 72.5t-17 93v90q0 51 17 93t46.5 72.5t69.5 47.5t87 17q41 0 74.5 -12t57 -31.5t36 -45t12.5 -51.5q0 -34 -23 -57t-57 -23q-28 0 -41.5 10t-21.5 23l-15 22q-7 10 -22 10t-25 -12.5t-10 -42.5v-130q0 -30 10 -42.5t25 -12.5
q17 0 25 10t16.5 22.5t22 22.5t41.5 10q34 0 57 -23t23 -57q0 -26 -12.5 -51.5t-36.5 -45t-58.5 -31.5t-77.5 -12zM235 705l20 -45q8 -19 26.5 -39.5t48.5 -20.5t47.5 17t17.5 43q0 18 -5 30l-10 20l-50 90q-5 9 -13.5 19.5t-21 19.5t-28.5 15t-37 6t-37 -6t-28.5 -15
t-21 -19.5t-13.5 -19.5l-50 -90l-9 -20q-6 -12 -6 -30q0 -26 17.5 -43t47.5 -17t48.5 20.5t26.5 39.5l20 45h10z" />
    <glyph glyph-name="Ccaron" unicode="&#x10c;" horiz-adv-x="555" 
d="M40 280v140q0 69 20.5 124.5t57 94.5t87 60t110.5 21q53 0 94.5 -14.5t70.5 -38.5t44.5 -54.5t15.5 -62.5q0 -38 -26 -64t-64 -26q-30 0 -46.5 12.5t-28.5 27.5t-24.5 27.5t-35.5 12.5q-26 0 -45.5 -23.5t-19.5 -76.5v-170q0 -60 19.5 -85t45.5 -25q21 0 34.5 12.5
t28 27.5t32 27.5t45.5 12.5q38 0 64 -26t26 -64q0 -30 -16 -60.5t-46 -54.5t-72.5 -39.5t-95.5 -15.5q-60 0 -110 21t-87 60t-57.5 94.5t-20.5 124.5zM315 935l20 45q8 19 26.5 39.5t48.5 20.5t47.5 -17t17.5 -43q0 -18 -5.5 -30t-9.5 -20l-50 -90q-5 -9 -13.5 -19.5
t-21 -19.5t-28.5 -15t-37 -6t-37 6t-28.5 15t-21 19.5t-13.5 19.5l-50 90q-4 8 -9.5 20t-5.5 30q0 26 17.5 43t47.5 17t48.5 -20.5t26.5 -39.5l20 -45h10z" />
    <glyph glyph-name="ccaron" unicode="&#x10d;" horiz-adv-x="450" 
d="M250 -15q-47 0 -87 17t-69.5 47.5t-46.5 72.5t-17 93v90q0 51 17 93t46.5 72.5t69.5 47.5t87 17q41 0 74.5 -12t57 -31.5t36 -45t12.5 -51.5q0 -34 -23 -57t-57 -23q-28 0 -41.5 10t-21.5 23l-15 22q-7 10 -22 10t-25 -12.5t-10 -42.5v-130q0 -30 10 -42.5t25 -12.5
q17 0 25 10t16.5 22.5t22 22.5t41.5 10q34 0 57 -23t23 -57q0 -26 -12.5 -51.5t-36.5 -45t-58.5 -31.5t-77.5 -12zM245 755l20 45q8 19 26.5 39.5t48.5 20.5t47.5 -17t17.5 -43q0 -18 -5.5 -30t-9.5 -20l-50 -90q-5 -9 -13.5 -19.5t-21 -19.5t-28.5 -15t-37 -6t-37 6
t-28.5 15t-21 19.5t-13.5 19.5l-50 90q-4 8 -9.5 20t-5.5 30q0 26 17.5 43t47.5 17t48.5 -20.5t26.5 -39.5l20 -45h10z" />
    <glyph glyph-name="Dcaron" unicode="&#x10e;" horiz-adv-x="620" 
d="M270 170h35q26 0 45.5 25t19.5 85v150q0 53 -19.5 76.5t-45.5 23.5h-35v-360zM305 0h-140q-45 0 -72.5 27.5t-27.5 72.5v500q0 45 27.5 72.5t72.5 27.5h140q60 0 110.5 -21t87 -60t57 -94.5t20.5 -124.5v-100q0 -69 -20.5 -124.5t-57 -94.5t-87 -60t-110.5 -21zM305 935
l20 45q8 19 26.5 39.5t48.5 20.5t47.5 -17t17.5 -43q0 -18 -5.5 -30t-9.5 -20l-50 -90q-5 -9 -13.5 -19.5t-21 -19.5t-28.5 -15t-37 -6t-37 6t-28.5 15t-21 19.5t-13.5 19.5l-50 90q-4 8 -9.5 20t-5.5 30q0 26 17.5 43t47.5 17t48.5 -20.5t26.5 -39.5l20 -45h10z" />
    <glyph glyph-name="dcaron" unicode="&#x10f;" horiz-adv-x="700" 
d="M470 630v-545q0 -38 -26 -64t-64 -26q-25 0 -41 8t-26 17q-11 11 -18 25h-10q-9 -17 -22 -30q-13 -12 -29 -21t-39 -9q-34 0 -64 14t-52.5 42.5t-35.5 72t-13 101.5v90q0 58 13 101.5t35.5 72t52.5 42.5t64 14q21 0 36 -4t25 -8q11 -6 19 -13h10v120q0 38 26.5 64
t68.5 26q38 0 64 -26t26 -64zM250 130q15 0 25 12.5t10 42.5v150q0 30 -10 42.5t-25 12.5t-25 -12.5t-10 -42.5v-150q0 -30 10 -42.5t25 -12.5zM530 615q0 42 26.5 68.5t68.5 26.5t68.5 -28t26.5 -77q0 -39 -13 -72t-33.5 -57t-46.5 -37.5t-52 -13.5q-19 0 -29.5 9.5
t-10.5 20.5q0 17 9 24.5t20 13t21.5 13t14.5 24.5q-12 0 -24 6.5t-22.5 17.5t-17 27t-6.5 34z" />
    <glyph glyph-name="Dcroat" unicode="&#x110;" horiz-adv-x="625" 
d="M310 0h-140q-45 0 -72.5 27.5t-27.5 72.5v160q-17 4 -30 14q-12 9 -21 24.5t-9 41.5t9.5 42t20.5 24q13 10 30 14v180q0 45 27.5 72.5t72.5 27.5h140q60 0 110.5 -21t87 -60t57 -94.5t20.5 -124.5v-100q0 -69 -20.5 -124.5t-57 -94.5t-87 -60t-110.5 -21zM275 170h35
q26 0 45.5 25t19.5 85v150q0 53 -19.5 76.5t-45.5 23.5h-35v-105q21 -4 38 -14q15 -10 26 -26.5t11 -44.5q0 -29 -11.5 -45.5t-25.5 -25.5q-17 -10 -38 -14v-85z" />
    <glyph glyph-name="dcroat" unicode="&#x111;" horiz-adv-x="510" 
d="M260 630h20q0 19 7 37t20 32t30 22.5t38 8.5q19 0 35.5 -8.5t28.5 -22.5t19 -32t7 -37v-10q13 -5 23 -14q9 -9 15.5 -22t6.5 -34t-7 -34.5t-15 -21.5q-10 -9 -23 -14v-395q0 -38 -26 -64t-64 -26q-25 0 -41 8t-26 17q-11 11 -18 25h-10q-9 -17 -22 -30q-13 -12 -29 -21
t-39 -9q-34 0 -64 14t-52.5 42.5t-35.5 72t-13 101.5t13 101.5t35.5 72t52.5 42.5t64 14q21 0 36 -4t25 -8q11 -6 19 -13h10v50h-20q-38 0 -61.5 21t-23.5 59t23.5 59t61.5 21zM210 215q0 -52 10 -68.5t25 -16.5t25 16.5t10 68.5q0 53 -10 69t-25 16t-25 -16t-10 -69z" />
    <glyph glyph-name="Emacron" unicode="&#x112;" horiz-adv-x="580" 
d="M460 510h-190v-75h130q42 0 66 -23.5t24 -61.5t-24 -61.5t-66 -23.5h-130v-75h200q45 0 72.5 -26.5t27.5 -68.5t-27.5 -68.5t-72.5 -26.5h-305q-45 0 -72.5 27.5t-27.5 72.5v500q0 45 27.5 72.5t72.5 27.5h295q45 0 72.5 -26.5t27.5 -68.5t-27.5 -68.5t-72.5 -26.5z
M230 950h170q34 0 54.5 -20t20.5 -50t-20.5 -50t-54.5 -20h-170q-34 0 -54.5 20t-20.5 50t20.5 50t54.5 20z" />
    <glyph glyph-name="emacron" unicode="&#x113;" horiz-adv-x="480" 
d="M215 210v-40q0 -23 10 -34t25 -11q23 0 33.5 8.5t20 19t22.5 19t39 8.5q30 0 50 -20t20 -50q0 -21 -13 -43t-37 -40t-59.5 -30t-80.5 -12t-84 17t-68.5 47.5t-46 72.5t-16.5 93v90q0 51 16.5 93t46 72.5t68.5 47.5t84 17q43 0 81.5 -17t67 -47.5t45 -72.5t16.5 -93v-15
q0 -38 -20.5 -59t-54.5 -21h-165zM215 315h60v20q0 26 -9.5 38t-20.5 12t-20.5 -12t-9.5 -38v-20zM155 780h170q34 0 54.5 -20t20.5 -50t-20.5 -50t-54.5 -20h-170q-34 0 -54.5 20t-20.5 50t20.5 50t54.5 20z" />
    <glyph glyph-name="Edotaccent" unicode="&#x116;" horiz-adv-x="580" 
d="M460 510h-190v-75h130q42 0 66 -23.5t24 -61.5t-24 -61.5t-66 -23.5h-130v-75h200q45 0 72.5 -26.5t27.5 -68.5t-27.5 -68.5t-72.5 -26.5h-305q-45 0 -72.5 27.5t-27.5 72.5v500q0 45 27.5 72.5t72.5 27.5h295q45 0 72.5 -26.5t27.5 -68.5t-27.5 -68.5t-72.5 -26.5z
M225 880q0 38 26 64t64 26t64 -26t26 -64t-26 -64t-64 -26t-64 26t-26 64z" />
    <glyph glyph-name="edotaccent" unicode="&#x117;" horiz-adv-x="480" 
d="M215 210v-40q0 -23 10 -34t25 -11q23 0 33.5 8.5t20 19t22.5 19t39 8.5q30 0 50 -20t20 -50q0 -21 -13 -43t-37 -40t-59.5 -30t-80.5 -12t-84 17t-68.5 47.5t-46 72.5t-16.5 93v90q0 51 16.5 93t46 72.5t68.5 47.5t84 17q43 0 81.5 -17t67 -47.5t45 -72.5t16.5 -93v-15
q0 -38 -20.5 -59t-54.5 -21h-165zM215 315h60v20q0 26 -9.5 38t-20.5 12t-20.5 -12t-9.5 -38v-20zM150 700q0 38 26 64t64 26t64 -26t26 -64t-26 -64t-64 -26t-64 26t-26 64z" />
    <glyph glyph-name="Eogonek" unicode="&#x118;" horiz-adv-x="580" 
d="M570 95q0 -39 -21 -62t-46.5 -40t-46.5 -35t-21 -48q0 -45 40 -45q23 0 41.5 -17t18.5 -43t-21 -45.5t-59 -19.5q-34 0 -61.5 12t-47 30.5t-30.5 41.5t-11 46q0 30 11 54t24 41q15 20 35 35h-210q-45 0 -72.5 27.5t-27.5 72.5v500q0 45 27.5 72.5t72.5 27.5h295
q45 0 72.5 -26.5t27.5 -68.5t-27.5 -68.5t-72.5 -26.5h-190v-75h130q42 0 66 -23.5t24 -61.5t-24 -61.5t-66 -23.5h-130v-75h200q45 0 72.5 -26.5t27.5 -68.5z" />
    <glyph glyph-name="eogonek" unicode="&#x119;" horiz-adv-x="480" 
d="M435 110q0 -32 -23.5 -57.5t-51.5 -48.5t-51.5 -45.5t-23.5 -48.5q0 -45 40 -45q23 0 41.5 -17t18.5 -43t-21 -45.5t-59 -19.5q-34 0 -61.5 12t-47 30.5t-30.5 41.5t-11 46q0 26 8.5 48t19.5 38q12 19 27 34q-50 10 -90 38q-24 14 -38 30t-25.5 38t-19 52t-7.5 67v90
q0 51 16.5 93t46 72.5t68.5 47.5t84 17q43 0 81.5 -17t67 -47.5t45 -72.5t16.5 -93v-15q0 -38 -20.5 -59t-54.5 -21h-165v-40q0 -23 10 -34t25 -11q23 0 33.5 8.5t20 19t22.5 19t39 8.5q30 0 50 -20t20 -50zM215 315h60v20q0 26 -9.5 38t-20.5 12t-20.5 -12t-9.5 -38v-20z
" />
    <glyph glyph-name="Ecaron" unicode="&#x11a;" horiz-adv-x="580" 
d="M460 510h-190v-75h130q42 0 66 -23.5t24 -61.5t-24 -61.5t-66 -23.5h-130v-75h200q45 0 72.5 -26.5t27.5 -68.5t-27.5 -68.5t-72.5 -26.5h-305q-45 0 -72.5 27.5t-27.5 72.5v500q0 45 27.5 72.5t72.5 27.5h295q45 0 72.5 -26.5t27.5 -68.5t-27.5 -68.5t-72.5 -26.5z
M320 935l20 45q8 19 26.5 39.5t48.5 20.5t47.5 -17t17.5 -43q0 -18 -5.5 -30t-9.5 -20l-50 -90q-5 -9 -13.5 -19.5t-21 -19.5t-28.5 -15t-37 -6t-37 6t-28.5 15t-21 19.5t-13.5 19.5l-50 90q-4 8 -9.5 20t-5.5 30q0 26 17.5 43t47.5 17t48.5 -20.5t26.5 -39.5l20 -45h10z
" />
    <glyph glyph-name="ecaron" unicode="&#x11b;" horiz-adv-x="480" 
d="M215 210v-40q0 -23 10 -34t25 -11q23 0 33.5 8.5t20 19t22.5 19t39 8.5q30 0 50 -20t20 -50q0 -21 -13 -43t-37 -40t-59.5 -30t-80.5 -12t-84 17t-68.5 47.5t-46 72.5t-16.5 93v90q0 51 16.5 93t46 72.5t68.5 47.5t84 17q43 0 81.5 -17t67 -47.5t45 -72.5t16.5 -93v-15
q0 -38 -20.5 -59t-54.5 -21h-165zM215 315h60v20q0 26 -9.5 38t-20.5 12t-20.5 -12t-9.5 -38v-20zM250 755l20 45q8 19 26.5 39.5t48.5 20.5t47.5 -17t17.5 -43q0 -18 -5.5 -30t-9.5 -20l-50 -90q-5 -9 -13.5 -19.5t-21 -19.5t-28.5 -15t-37 -6t-37 6t-28.5 15t-21 19.5
t-13.5 19.5l-50 90q-4 8 -9.5 20t-5.5 30q0 26 17.5 43t47.5 17t48.5 -20.5t26.5 -39.5l20 -45h10z" />
    <glyph glyph-name="Gbreve" unicode="&#x11e;" horiz-adv-x="595" 
d="M375 200v50q-25 1 -45 11q-18 8 -31.5 25t-13.5 49q0 38 24 61.5t66 23.5h105q40 0 57.5 -22.5t17.5 -67.5v-180q0 -28 -17 -58t-48.5 -55t-76 -41t-98.5 -16q-63 0 -114 23t-87 63.5t-55 95t-19 118.5v140q0 69 20.5 124.5t57.5 94.5t87 60t110 21q53 0 94.5 -14.5
t70.5 -38.5t44.5 -54.5t15.5 -62.5q0 -45 -26 -67.5t-64 -22.5q-30 0 -46.5 12.5t-28.5 27.5t-24.5 27.5t-35.5 12.5q-26 0 -45.5 -23.5t-19.5 -76.5v-170q0 -60 19.5 -85t45.5 -25q13 0 24 6t19 14q9 9 17 20zM310 780q-32 0 -60 12t-49 31t-33.5 43.5t-12.5 48.5
q0 26 19.5 45.5t45.5 19.5q23 0 34 -8.5t18.5 -19t15 -19t22.5 -8.5t22.5 8.5t15 19t19 19t33.5 8.5q26 0 45.5 -19.5t19.5 -45.5q0 -24 -12.5 -48.5t-33.5 -43.5t-49 -31t-60 -12z" />
    <glyph glyph-name="gbreve" unicode="&#x11f;" horiz-adv-x="520" 
d="M250 390q-15 0 -25 -12.5t-10 -42.5v-120q0 -30 10 -42.5t25 -12.5t25 12.5t10 42.5v120q0 30 -10 42.5t-25 12.5zM285 -15v55h-10q-8 -7 -19 -12q-11 -6 -25.5 -9.5t-35.5 -3.5q-34 0 -64 14t-52.5 42.5t-35.5 72t-13 101.5v60q0 58 13 101.5t35.5 72t52.5 42.5t64 14
q23 0 39.5 -9.5t28.5 -20.5q13 -13 22 -30h10q7 14 18 25q11 10 26.5 17.5t40.5 7.5q38 0 64 -26t26 -64v-450q0 -94 -56.5 -149.5t-158.5 -55.5q-45 0 -80.5 11t-59.5 29t-37 40t-13 45q0 75 75 75q24 0 36 -9.5t20 -20.5t16.5 -20.5t27.5 -9.5t32 15.5t13 49.5zM260 600
q-32 0 -60 12t-49 31t-33.5 43.5t-12.5 48.5q0 26 19.5 45.5t45.5 19.5q23 0 34 -8.5t18.5 -19t15 -19t22.5 -8.5t22.5 8.5t15 19t19 19t33.5 8.5q26 0 45.5 -19.5t19.5 -45.5q0 -24 -12.5 -48.5t-33.5 -43.5t-49 -31t-60 -12z" />
    <glyph glyph-name="Gcommaaccent" unicode="&#x122;" horiz-adv-x="595" 
d="M375 200v50q-25 1 -45 11q-18 8 -31.5 25t-13.5 49q0 38 24 61.5t66 23.5h105q40 0 57.5 -22.5t17.5 -67.5v-180q0 -28 -17 -58t-48.5 -55t-76 -41t-98.5 -16q-63 0 -114 23t-87 63.5t-55 95t-19 118.5v140q0 69 20.5 124.5t57.5 94.5t87 60t110 21q53 0 94.5 -14.5
t70.5 -38.5t44.5 -54.5t15.5 -62.5q0 -45 -26 -67.5t-64 -22.5q-30 0 -46.5 12.5t-28.5 27.5t-24.5 27.5t-35.5 12.5q-26 0 -45.5 -23.5t-19.5 -76.5v-170q0 -60 19.5 -85t45.5 -25q13 0 24 6t19 14q9 9 17 20zM220 -165q0 42 26.5 68.5t68.5 26.5t68.5 -28t26.5 -77
q0 -39 -13 -72t-33.5 -57t-46.5 -37.5t-52 -13.5q-19 0 -29.5 9.5t-10.5 20.5q0 17 9 24.5t20 13t21.5 13t14.5 24.5q-12 0 -24 6.5t-22.5 17.5t-17 27t-6.5 34z" />
    <glyph glyph-name="gcommaaccent" unicode="&#x123;" horiz-adv-x="520" 
d="M370 685q0 -42 -26.5 -68.5t-68.5 -26.5t-68.5 28t-26.5 77q0 39 13 72t33.5 57t46.5 37.5t52 13.5q19 0 29.5 -9.5t10.5 -20.5q0 -17 -8.5 -24.5t-20 -13t-22 -13t-14.5 -24.5q12 0 24 -6.5t22.5 -17.5t17 -27t6.5 -34zM250 390q-15 0 -25 -12.5t-10 -42.5v-120
q0 -30 10 -42.5t25 -12.5t25 12.5t10 42.5v120q0 30 -10 42.5t-25 12.5zM285 -15v55h-10q-8 -7 -19 -12q-11 -6 -25.5 -9.5t-35.5 -3.5q-34 0 -64 14t-52.5 42.5t-35.5 72t-13 101.5v60q0 58 13 101.5t35.5 72t52.5 42.5t64 14q23 0 39.5 -9.5t28.5 -20.5q13 -13 22 -30h10
q7 14 18 25q11 10 26.5 17.5t40.5 7.5q38 0 64 -26t26 -64v-450q0 -94 -56.5 -149.5t-158.5 -55.5q-45 0 -80.5 11t-59.5 29t-37 40t-13 45q0 75 75 75q24 0 36 -9.5t20 -20.5t16.5 -20.5t27.5 -9.5t32 15.5t13 49.5z" />
    <glyph glyph-name="Imacron" unicode="&#x12a;" horiz-adv-x="335" 
d="M270 610v-520q0 -45 -28 -72.5t-77 -27.5q-45 0 -72.5 27.5t-27.5 72.5v520q0 45 27.5 72.5t72.5 27.5q49 0 77 -27.5t28 -72.5zM80 950h170q34 0 54.5 -20t20.5 -50t-20.5 -50t-54.5 -20h-170q-34 0 -54.5 20t-20.5 50t20.5 50t54.5 20z" />
    <glyph glyph-name="imacron" unicode="&#x12b;" horiz-adv-x="285" 
d="M55 780h170q34 0 54.5 -20t20.5 -50t-20.5 -50t-54.5 -20h-170q-34 0 -54.5 20t-20.5 50t20.5 50t54.5 20zM235 425v-340q0 -38 -26.5 -64t-68.5 -26q-38 0 -64 26t-26 64v340q0 38 26 64t64 26q42 0 68.5 -26t26.5 -64z" />
    <glyph glyph-name="Iogonek" unicode="&#x12e;" horiz-adv-x="335" 
d="M270 610v-520q0 -37 -18 -61.5t-40 -43.5l-39 -36q-18 -17 -18 -39q0 -45 40 -45q23 0 41.5 -17t18.5 -43t-21 -45.5t-59 -19.5q-34 0 -61.5 12t-47 30.5t-30.5 41.5t-11 46q0 32 12.5 57t27.5 42q18 21 40 36q-11 8 -20 20q-8 11 -14 26.5t-6 38.5v520q0 45 27.5 72.5
t72.5 27.5q49 0 77 -27.5t28 -72.5z" />
    <glyph glyph-name="iogonek" unicode="&#x12f;" horiz-adv-x="285" 
d="M235 415v-330q0 -32 -18 -54t-39.5 -41t-39.5 -37.5t-18 -42.5q0 -45 40 -45q23 0 41.5 -17t18.5 -43t-21 -45.5t-59 -19.5q-34 0 -61.5 12t-47 30.5t-30.5 41.5t-11 46q0 36 15 63t33 45q20 22 47 37q-10 6 -17 16q-8 9 -13 22t-5 32v330q0 38 26 64t64 26
q42 0 68.5 -26t26.5 -64zM45 645q0 42 26.5 68.5t68.5 26.5q45 0 72.5 -26.5t27.5 -68.5t-27.5 -68.5t-72.5 -26.5q-42 0 -68.5 26.5t-26.5 68.5z" />
    <glyph glyph-name="Idotaccent" unicode="&#x130;" horiz-adv-x="335" 
d="M270 610v-520q0 -45 -28 -72.5t-77 -27.5q-45 0 -72.5 27.5t-27.5 72.5v520q0 45 27.5 72.5t72.5 27.5q49 0 77 -27.5t28 -72.5zM75 870q0 38 26 64t64 26t64 -26t26 -64t-26 -64t-64 -26t-64 26t-26 64z" />
    <glyph glyph-name="dotlessi" unicode="&#x131;" horiz-adv-x="285" 
d="M235 425v-340q0 -38 -26.5 -64t-68.5 -26q-38 0 -64 26t-26 64v340q0 38 26 64t64 26q42 0 68.5 -26t26.5 -64z" />
    <glyph glyph-name="Kcommaaccent" unicode="&#x136;" horiz-adv-x="595" 
d="M295 245l-25 -35v-120q0 -45 -28 -72.5t-77 -27.5q-45 0 -72.5 27.5t-27.5 72.5v520q0 45 27.5 72.5t72.5 27.5q49 0 77 -27.5t28 -72.5v-140l135 200q8 11 19 20q11 8 25.5 14t35.5 6q42 0 66 -25.5t24 -74.5q0 -19 -4.5 -33.5t-10.5 -25.5q-7 -12 -15 -21l-100 -135
l120 -215q8 -15 15 -30q6 -14 10.5 -29.5t4.5 -30.5q0 -45 -25.5 -72.5t-74.5 -27.5q-23 0 -39 8t-26 17q-12 11 -20 25zM240 -155q0 42 26.5 68.5t68.5 26.5t68.5 -28t26.5 -77q0 -39 -13 -72t-33.5 -57t-46.5 -37.5t-52 -13.5q-19 0 -29.5 9.5t-10.5 20.5q0 17 9 24.5
t20 13t21.5 13t14.5 24.5q-12 0 -24 6.5t-22.5 17.5t-17 27t-6.5 34z" />
    <glyph glyph-name="kcommaaccent" unicode="&#x137;" horiz-adv-x="490" 
d="M385 290l75 -125q8 -12 19 -33t11 -47q0 -38 -26 -64t-64 -26q-21 0 -35.5 5.5t-24.5 13t-15.5 15t-7.5 11.5l-62 125l-15 -15v-65q0 -38 -26.5 -64t-68.5 -26q-38 0 -64 26t-26 64v545q0 38 26 64t64 26q42 0 68.5 -26t26.5 -64v-265l60 95q3 4 9.5 14t17.5 20t26.5 18
t36.5 8q19 0 35.5 -7t28.5 -18t19 -25.5t7 -29.5q0 -16 -6 -30.5t-14 -26.5t-15 -20.5t-10 -12.5zM175 -165q0 42 26.5 68.5t68.5 26.5t68.5 -28t26.5 -77q0 -39 -13 -72t-33.5 -57t-46.5 -37.5t-52 -13.5q-19 0 -29.5 9.5t-10.5 20.5q0 17 9 24.5t20 13t21.5 13t14.5 24.5
q-12 0 -24 6.5t-22.5 17.5t-17 27t-6.5 34z" />
    <glyph glyph-name="Lacute" unicode="&#x139;" 
d="M270 610v-420h165q45 0 72.5 -26.5t27.5 -68.5t-27.5 -68.5t-72.5 -26.5h-270q-45 0 -72.5 27.5t-27.5 72.5v510q0 45 27.5 72.5t72.5 27.5q49 0 77 -27.5t28 -72.5zM165 780q-30 0 -47.5 17t-17.5 43q0 11 2 27l3 23l10 70q5 38 25.5 59t54.5 21q38 0 61.5 -23t23.5 -57
q0 -23 -5 -36t-5 -14l-30 -70q-8 -20 -26.5 -40t-48.5 -20z" />
    <glyph glyph-name="lacute" unicode="&#x13a;" horiz-adv-x="295" 
d="M240 630v-545q0 -38 -26.5 -64t-68.5 -26q-38 0 -64 26t-26 64v545q0 38 26 64t64 26q42 0 68.5 -26t26.5 -64zM145 780q-30 0 -47.5 17t-17.5 43q0 11 2 27l3 23l10 70q5 38 25.5 59t54.5 21q38 0 61.5 -23t23.5 -57q0 -23 -5 -36t-5 -14l-30 -70q-8 -20 -26.5 -40
t-48.5 -20z" />
    <glyph glyph-name="Lcommaaccent" unicode="&#x13b;" 
d="M270 610v-420h165q45 0 72.5 -26.5t27.5 -68.5t-27.5 -68.5t-72.5 -26.5h-270q-45 0 -72.5 27.5t-27.5 72.5v510q0 45 27.5 72.5t72.5 27.5q49 0 77 -27.5t28 -72.5zM205 -165q0 42 26.5 68.5t68.5 26.5t68.5 -28t26.5 -77q0 -39 -13 -72t-33.5 -57t-46.5 -37.5
t-52 -13.5q-19 0 -29.5 9.5t-10.5 20.5q0 17 9 24.5t20 13t21.5 13t14.5 24.5q-12 0 -24 6.5t-22.5 17.5t-17 27t-6.5 34z" />
    <glyph glyph-name="lcommaaccent" unicode="&#x13c;" horiz-adv-x="295" 
d="M240 630v-545q0 -38 -26.5 -64t-68.5 -26q-38 0 -64 26t-26 64v545q0 38 26 64t64 26q42 0 68.5 -26t26.5 -64zM55 -165q0 42 26.5 68.5t68.5 26.5t68.5 -28t26.5 -77q0 -39 -13 -72t-33.5 -57t-46.5 -37.5t-52 -13.5q-19 0 -29.5 9.5t-10.5 20.5q0 17 9 24.5t20 13
t21.5 13t14.5 24.5q-12 0 -24 6.5t-22.5 17.5t-17 27t-6.5 34z" />
    <glyph glyph-name="Lcaron" unicode="&#x13d;" 
d="M270 610v-420h165q45 0 72.5 -26.5t27.5 -68.5t-27.5 -68.5t-72.5 -26.5h-270q-45 0 -72.5 27.5t-27.5 72.5v510q0 45 27.5 72.5t72.5 27.5q49 0 77 -27.5t28 -72.5zM325 605q0 45 30 75t75 30t75 -32.5t30 -92.5q0 -41 -14.5 -76.5t-38 -62t-53 -41.5t-59.5 -15
q-19 0 -29.5 10t-10.5 25q0 17 9.5 25.5t22 15.5t24 16t14.5 28q-13 0 -26.5 7t-24 20t-17.5 30t-7 38z" />
    <glyph glyph-name="lcaron" unicode="&#x13e;" horiz-adv-x="470" 
d="M240 630v-545q0 -38 -26.5 -64t-68.5 -26q-38 0 -64 26t-26 64v545q0 38 26 64t64 26q42 0 68.5 -26t26.5 -64zM300 615q0 42 26.5 68.5t68.5 26.5t68.5 -28t26.5 -77q0 -39 -13 -72t-33.5 -57t-46.5 -37.5t-52 -13.5q-19 0 -29.5 9.5t-10.5 20.5q0 17 9 24.5t20 13
t21.5 13t14.5 24.5q-12 0 -24 6.5t-22.5 17.5t-17 27t-6.5 34z" />
    <glyph glyph-name="Lslash" unicode="&#x141;" horiz-adv-x="550" 
d="M285 610v-70q6 3 13 5q6 2 12.5 3.5t14.5 1.5q30 0 47.5 -17.5t17.5 -48.5q0 -34 -20 -58.5t-45 -40.5l-40 -25v-170h165q45 0 72.5 -26.5t27.5 -68.5t-27.5 -68.5t-72.5 -26.5h-270q-45 0 -72.5 27.5t-27.5 72.5v145l-4 -2q-5 -3 -11 -3q-26 0 -45.5 20.5t-19.5 54.5
t20 54t45 36l15 9v196q0 45 27.5 72.5t72.5 27.5q49 0 77 -27.5t28 -72.5z" />
    <glyph glyph-name="lslash" unicode="&#x142;" horiz-adv-x="355" 
d="M300 365l-30 -15v-265q0 -38 -26.5 -64t-68.5 -26q-38 0 -64 26t-26 64v160q-4 -1 -9 -2q-5 -2 -10 -2.5t-11 -0.5q-26 0 -45.5 20.5t-19.5 54.5t19.5 55.5t45.5 34.5l30 15v210q0 38 26 64t64 26q42 0 68.5 -26t26.5 -64v-105q4 1 9 3q5 1 10 1.5t11 0.5
q26 0 45.5 -20.5t19.5 -54.5t-19.5 -55.5t-45.5 -34.5z" />
    <glyph glyph-name="Nacute" unicode="&#x143;" horiz-adv-x="665" 
d="M275 320h-5v-230q0 -45 -28 -72.5t-77 -27.5q-45 0 -72.5 27.5t-27.5 72.5v520q0 45 27.5 72.5t72.5 27.5q42 0 66 -23.5t49 -76.5l110 -230h5v230q0 45 28 72.5t77 27.5q45 0 72.5 -27.5t27.5 -72.5v-520q0 -45 -27.5 -72.5t-72.5 -27.5q-38 0 -64 23.5t-51 76.5z
M325 780q-30 0 -47.5 17t-17.5 43q0 11 2 27l3 23l10 70q5 38 25.5 59t54.5 21q38 0 61.5 -23t23.5 -57q0 -23 -5 -36t-5 -14l-30 -70q-8 -20 -26.5 -40t-48.5 -20z" />
    <glyph glyph-name="nacute" unicode="&#x144;" horiz-adv-x="525" 
d="M325 535q32 0 60 -13.5t49 -41.5t33.5 -71.5t12.5 -103.5v-220q0 -38 -26 -64t-64 -26q-42 0 -68.5 26t-26.5 64v245q0 30 -9.5 42.5t-20.5 12.5t-20.5 -12.5t-9.5 -42.5v-245q0 -38 -26.5 -64t-68.5 -26q-38 0 -64 26t-26 64v350q0 38 26 64t64 26q25 0 41 -8t26 -17
q11 -11 18 -25h10q9 17 23 30q12 12 28 21t39 9zM265 600q-30 0 -47.5 17t-17.5 43q0 11 2 27l3 23l10 70q5 38 25.5 59t54.5 21q38 0 61.5 -23t23.5 -57q0 -23 -5 -36t-5 -14l-30 -70q-8 -20 -26.5 -40t-48.5 -20z" />
    <glyph glyph-name="Ncommaaccent" unicode="&#x145;" horiz-adv-x="665" 
d="M275 320h-5v-230q0 -45 -28 -72.5t-77 -27.5q-45 0 -72.5 27.5t-27.5 72.5v520q0 45 27.5 72.5t72.5 27.5q42 0 66 -23.5t49 -76.5l110 -230h5v230q0 45 28 72.5t77 27.5q45 0 72.5 -27.5t27.5 -72.5v-520q0 -45 -27.5 -72.5t-72.5 -27.5q-38 0 -64 23.5t-51 76.5z
M240 -155q0 42 26.5 68.5t68.5 26.5t68.5 -28t26.5 -77q0 -39 -13 -72t-33.5 -57t-46.5 -37.5t-52 -13.5q-19 0 -29.5 9.5t-10.5 20.5q0 17 9 24.5t20 13t21.5 13t14.5 24.5q-12 0 -24 6.5t-22.5 17.5t-17 27t-6.5 34z" />
    <glyph glyph-name="ncommaaccent" unicode="&#x146;" horiz-adv-x="525" 
d="M325 535q32 0 60 -13.5t49 -41.5t33.5 -71.5t12.5 -103.5v-220q0 -38 -26 -64t-64 -26q-42 0 -68.5 26t-26.5 64v245q0 30 -9.5 42.5t-20.5 12.5t-20.5 -12.5t-9.5 -42.5v-245q0 -38 -26.5 -64t-68.5 -26q-38 0 -64 26t-26 64v350q0 38 26 64t64 26q25 0 41 -8t26 -17
q11 -11 18 -25h10q9 17 23 30q12 12 28 21t39 9zM170 -165q0 42 26.5 68.5t68.5 26.5t68.5 -28t26.5 -77q0 -39 -13 -72t-33.5 -57t-46.5 -37.5t-52 -13.5q-19 0 -29.5 9.5t-10.5 20.5q0 17 9 24.5t20 13t21.5 13t14.5 24.5q-12 0 -24 6.5t-22.5 17.5t-17 27t-6.5 34z" />
    <glyph glyph-name="Ncaron" unicode="&#x147;" horiz-adv-x="665" 
d="M275 320h-5v-230q0 -45 -28 -72.5t-77 -27.5q-45 0 -72.5 27.5t-27.5 72.5v520q0 45 27.5 72.5t72.5 27.5q42 0 66 -23.5t49 -76.5l110 -230h5v230q0 45 28 72.5t77 27.5q45 0 72.5 -27.5t27.5 -72.5v-520q0 -45 -27.5 -72.5t-72.5 -27.5q-38 0 -64 23.5t-51 76.5z
M335 935l20 45q8 19 26.5 39.5t48.5 20.5t47.5 -17t17.5 -43q0 -18 -5.5 -30t-9.5 -20l-50 -90q-5 -9 -13.5 -19.5t-21 -19.5t-28.5 -15t-37 -6t-37 6t-28.5 15t-21 19.5t-13.5 19.5l-50 90q-4 8 -9.5 20t-5.5 30q0 26 17.5 43t47.5 17t48.5 -20.5t26.5 -39.5l20 -45h10z
" />
    <glyph glyph-name="ncaron" unicode="&#x148;" horiz-adv-x="525" 
d="M325 535q32 0 60 -13.5t49 -41.5t33.5 -71.5t12.5 -103.5v-220q0 -38 -26 -64t-64 -26q-42 0 -68.5 26t-26.5 64v245q0 30 -9.5 42.5t-20.5 12.5t-20.5 -12.5t-9.5 -42.5v-245q0 -38 -26.5 -64t-68.5 -26q-38 0 -64 26t-26 64v350q0 38 26 64t64 26q25 0 41 -8t26 -17
q11 -11 18 -25h10q9 17 23 30q12 12 28 21t39 9zM270 755l20 45q8 19 26.5 39.5t48.5 20.5t47.5 -17t17.5 -43q0 -18 -5.5 -30t-9.5 -20l-50 -90q-5 -9 -13.5 -19.5t-21 -19.5t-28.5 -15t-37 -6t-37 6t-28.5 15t-21 19.5t-13.5 19.5l-50 90q-4 8 -9.5 20t-5.5 30
q0 26 17.5 43t47.5 17t48.5 -20.5t26.5 -39.5l20 -45h10z" />
    <glyph glyph-name="Omacron" unicode="&#x14c;" horiz-adv-x="630" 
d="M315 140q26 0 45.5 23.5t19.5 76.5v220q0 53 -19.5 76.5t-45.5 23.5t-45.5 -23.5t-19.5 -76.5v-220q0 -53 19.5 -76.5t45.5 -23.5zM315 -20q-60 0 -110.5 21t-87 60t-57 94.5t-20.5 124.5v140q0 69 20.5 124.5t57 94.5t87 60t110.5 21t110.5 -21t87 -60t57 -94.5
t20.5 -124.5v-140q0 -69 -20.5 -124.5t-57 -94.5t-87 -60t-110.5 -21zM230 950h170q34 0 54.5 -20t20.5 -50t-20.5 -50t-54.5 -20h-170q-34 0 -54.5 20t-20.5 50t20.5 50t54.5 20z" />
    <glyph glyph-name="omacron" unicode="&#x14d;" horiz-adv-x="500" 
d="M250 130q15 0 25 12.5t10 42.5v150q0 30 -10 42.5t-25 12.5t-25 -12.5t-10 -42.5v-150q0 -30 10 -42.5t25 -12.5zM250 -15q-47 0 -87 17t-69.5 47.5t-46.5 72.5t-17 93v90q0 51 17 93t46.5 72.5t69.5 47.5t87 17t87 -17t69.5 -47.5t46.5 -72.5t17 -93v-90q0 -51 -17 -93
t-46.5 -72.5t-69.5 -47.5t-87 -17zM165 780h170q34 0 54.5 -20t20.5 -50t-20.5 -50t-54.5 -20h-170q-34 0 -54.5 20t-20.5 50t20.5 50t54.5 20z" />
    <glyph glyph-name="Ohungarumlaut" unicode="&#x150;" horiz-adv-x="630" 
d="M315 140q26 0 45.5 23.5t19.5 76.5v220q0 53 -19.5 76.5t-45.5 23.5t-45.5 -23.5t-19.5 -76.5v-220q0 -53 19.5 -76.5t45.5 -23.5zM315 -20q-60 0 -110.5 21t-87 60t-57 94.5t-20.5 124.5v140q0 69 20.5 124.5t57 94.5t87 60t110.5 21t110.5 -21t87 -60t57 -94.5
t20.5 -124.5v-140q0 -69 -20.5 -124.5t-57 -94.5t-87 -60t-110.5 -21zM235 780q-30 0 -47.5 17t-17.5 43q0 11 2 27l3 23l10 70q5 38 25.5 59t54.5 21q38 0 61.5 -23t23.5 -57q0 -23 -5 -36t-5 -14l-30 -70q-8 -20 -26.5 -40t-48.5 -20zM420 780q-30 0 -47.5 17t-17.5 43
q0 11 2 27l3 23l10 70q5 38 25.5 59t54.5 21q38 0 61.5 -23t23.5 -57q0 -23 -5 -36t-5 -14l-30 -70q-8 -20 -26.5 -40t-48.5 -20z" />
    <glyph glyph-name="ohungarumlaut" unicode="&#x151;" horiz-adv-x="500" 
d="M250 130q15 0 25 12.5t10 42.5v150q0 30 -10 42.5t-25 12.5t-25 -12.5t-10 -42.5v-150q0 -30 10 -42.5t25 -12.5zM250 -15q-47 0 -87 17t-69.5 47.5t-46.5 72.5t-17 93v90q0 51 17 93t46.5 72.5t69.5 47.5t87 17t87 -17t69.5 -47.5t46.5 -72.5t17 -93v-90q0 -51 -17 -93
t-46.5 -72.5t-69.5 -47.5t-87 -17zM165 600q-30 0 -47.5 17t-17.5 43q0 11 2 27l3 23l10 70q5 38 25.5 59t54.5 21q38 0 61.5 -23t23.5 -57q0 -23 -5 -36t-5 -14l-30 -70q-8 -20 -26.5 -40t-48.5 -20zM350 600q-30 0 -47.5 17t-17.5 43q0 11 2 27l3 23l10 70q5 38 25.5 59
t54.5 21q38 0 61.5 -23t23.5 -57q0 -23 -5 -36t-5 -14l-30 -70q-8 -20 -26.5 -40t-48.5 -20z" />
    <glyph glyph-name="OE" unicode="&#x152;" horiz-adv-x="830" 
d="M345 170v360h-30q-26 0 -45.5 -23.5t-19.5 -76.5v-160q0 -53 19.5 -76.5t45.5 -23.5h30zM315 700h395q45 0 72.5 -26.5t27.5 -68.5t-27.5 -68.5t-72.5 -26.5h-160v-75h100q42 0 66 -23.5t24 -61.5t-24 -61.5t-66 -23.5h-100v-75h170q45 0 72.5 -26.5t27.5 -68.5
t-27.5 -68.5t-72.5 -26.5h-405q-60 0 -110.5 21t-87 60t-57 94.5t-20.5 124.5v100q0 69 20.5 124.5t57 94.5t87 60t110.5 21z" />
    <glyph glyph-name="oe" unicode="&#x153;" horiz-adv-x="735" 
d="M470 210v-40q0 -23 10 -34t25 -11q23 0 33.5 8.5t20 19t22.5 19t39 8.5q30 0 50 -20t20 -50q0 -21 -13 -43t-37 -40t-59.5 -30t-80.5 -12q-28 0 -50.5 7t-37.5 16q-18 9 -32 22h-10q-14 -13 -32 -22q-16 -10 -38 -16.5t-50 -6.5q-47 0 -87 17t-69.5 47.5t-46.5 72.5
t-17 93v90q0 51 17 93t46.5 72.5t69.5 47.5t87 17q28 0 50.5 -7t37.5 -15q18 -10 32 -23h10q14 13 32 23q16 9 38 15.5t50 6.5q43 0 81.5 -17t67 -47.5t45 -72.5t16.5 -93v-15q0 -38 -20.5 -59t-54.5 -21h-165zM250 130q15 0 25 12.5t10 42.5v150q0 30 -10 42.5t-25 12.5
t-25 -12.5t-10 -42.5v-150q0 -30 10 -42.5t25 -12.5zM470 315h60v20q0 26 -9.5 38t-20.5 12t-20.5 -12t-9.5 -38v-20z" />
    <glyph glyph-name="Racute" unicode="&#x154;" horiz-adv-x="615" 
d="M295 250h-25v-160q0 -45 -28 -72.5t-77 -27.5q-45 0 -72.5 27.5t-27.5 72.5v510q0 45 27.5 72.5t72.5 27.5h155q124 0 189.5 -61.5t65.5 -163.5q0 -47 -11.5 -78.5t-25.5 -50.5q-17 -23 -38 -36v-10l70 -120q8 -15 15 -30q6 -14 10.5 -29.5t4.5 -30.5q0 -45 -27.5 -72.5
t-72.5 -27.5q-25 0 -42.5 9.5t-29.5 20.5q-14 13 -23 30zM270 410h30q26 0 43 17.5t17 47.5t-17 47.5t-43 17.5h-30v-130zM305 780q-30 0 -47.5 17t-17.5 43q0 11 2 27l3 23l10 70q5 38 25.5 59t54.5 21q38 0 61.5 -23t23.5 -57q0 -23 -5 -36t-5 -14l-30 -70
q-8 -20 -26.5 -40t-48.5 -20z" />
    <glyph glyph-name="racute" unicode="&#x155;" horiz-adv-x="410" 
d="M265 360q-11 0 -20.5 -12.5t-9.5 -42.5v-220q0 -38 -26.5 -64t-68.5 -26q-38 0 -64 26t-26 64v350q0 38 26 64t64 26q26 0 42.5 -8.5t26.5 -18.5q11 -13 16 -28h10q8 18 20 33q11 13 26.5 22.5t38.5 9.5q38 0 64 -26.5t26 -68.5q0 -38 -26 -64t-64 -26q-13 0 -20 1.5
t-11.5 3.5t-9.5 3.5t-14 1.5zM230 600q-30 0 -47.5 17t-17.5 43q0 11 2 27l3 23l10 70q5 38 25.5 59t54.5 21q38 0 61.5 -23t23.5 -57q0 -23 -5 -36t-5 -14l-30 -70q-8 -20 -26.5 -40t-48.5 -20z" />
    <glyph glyph-name="Rcommaaccent" unicode="&#x156;" horiz-adv-x="615" 
d="M295 250h-25v-160q0 -45 -28 -72.5t-77 -27.5q-45 0 -72.5 27.5t-27.5 72.5v510q0 45 27.5 72.5t72.5 27.5h155q124 0 189.5 -61.5t65.5 -163.5q0 -47 -11.5 -78.5t-25.5 -50.5q-17 -23 -38 -36v-10l70 -120q8 -15 15 -30q6 -14 10.5 -29.5t4.5 -30.5q0 -45 -27.5 -72.5
t-72.5 -27.5q-25 0 -42.5 9.5t-29.5 20.5q-14 13 -23 30zM270 410h30q26 0 43 17.5t17 47.5t-17 47.5t-43 17.5h-30v-130zM235 -155q0 42 26.5 68.5t68.5 26.5t68.5 -28t26.5 -77q0 -39 -13 -72t-33.5 -57t-46.5 -37.5t-52 -13.5q-19 0 -29.5 9.5t-10.5 20.5q0 17 9 24.5
t20 13t21.5 13t14.5 24.5q-12 0 -24 6.5t-22.5 17.5t-17 27t-6.5 34z" />
    <glyph glyph-name="rcommaaccent" unicode="&#x157;" horiz-adv-x="410" 
d="M265 360q-11 0 -20.5 -12.5t-9.5 -42.5v-220q0 -38 -26.5 -64t-68.5 -26q-38 0 -64 26t-26 64v350q0 38 26 64t64 26q26 0 42.5 -8.5t26.5 -18.5q11 -13 16 -28h10q8 18 20 33q11 13 26.5 22.5t38.5 9.5q38 0 64 -26.5t26 -68.5q0 -38 -26 -64t-64 -26q-13 0 -20 1.5
t-11.5 3.5t-9.5 3.5t-14 1.5zM50 -165q0 42 26.5 68.5t68.5 26.5t68.5 -28t26.5 -77q0 -39 -13 -72t-33.5 -57t-46.5 -37.5t-52 -13.5q-19 0 -29.5 9.5t-10.5 20.5q0 17 9 24.5t20 13t21.5 13t14.5 24.5q-12 0 -24 6.5t-22.5 17.5t-17 27t-6.5 34z" />
    <glyph glyph-name="Rcaron" unicode="&#x158;" horiz-adv-x="615" 
d="M295 250h-25v-160q0 -45 -28 -72.5t-77 -27.5q-45 0 -72.5 27.5t-27.5 72.5v510q0 45 27.5 72.5t72.5 27.5h155q124 0 189.5 -61.5t65.5 -163.5q0 -47 -11.5 -78.5t-25.5 -50.5q-17 -23 -38 -36v-10l70 -120q8 -15 15 -30q6 -14 10.5 -29.5t4.5 -30.5q0 -45 -27.5 -72.5
t-72.5 -27.5q-25 0 -42.5 9.5t-29.5 20.5q-14 13 -23 30zM270 410h30q26 0 43 17.5t17 47.5t-17 47.5t-43 17.5h-30v-130zM320 935l20 45q8 19 26.5 39.5t48.5 20.5t47.5 -17t17.5 -43q0 -18 -5.5 -30t-9.5 -20l-50 -90q-5 -9 -13.5 -19.5t-21 -19.5t-28.5 -15t-37 -6t-37 6
t-28.5 15t-21 19.5t-13.5 19.5l-50 90q-4 8 -9.5 20t-5.5 30q0 26 17.5 43t47.5 17t48.5 -20.5t26.5 -39.5l20 -45h10z" />
    <glyph glyph-name="rcaron" unicode="&#x159;" horiz-adv-x="410" 
d="M265 360q-11 0 -20.5 -12.5t-9.5 -42.5v-220q0 -38 -26.5 -64t-68.5 -26q-38 0 -64 26t-26 64v350q0 38 26 64t64 26q26 0 42.5 -8.5t26.5 -18.5q11 -13 16 -28h10q8 18 20 33q11 13 26.5 22.5t38.5 9.5q38 0 64 -26.5t26 -68.5q0 -38 -26 -64t-64 -26q-13 0 -20 1.5
t-11.5 3.5t-9.5 3.5t-14 1.5zM235 755l20 45q8 19 26.5 39.5t48.5 20.5t47.5 -17t17.5 -43q0 -18 -5.5 -30t-9.5 -20l-50 -90q-5 -9 -13.5 -19.5t-21 -19.5t-28.5 -15t-37 -6t-37 6t-28.5 15t-21 19.5t-13.5 19.5l-50 90q-4 8 -9.5 20t-5.5 30q0 26 17.5 43t47.5 17
t48.5 -20.5t26.5 -39.5l20 -45h10z" />
    <glyph glyph-name="Sacute" unicode="&#x15a;" 
d="M245 -20q-52 0 -94.5 15.5t-72.5 39.5t-46.5 54.5t-16.5 60.5q0 38 26 64t64 26q28 0 45.5 -12.5t32.5 -27.5t32 -27.5t45 -12.5q26 0 38 11t12 29q0 24 -21 38.5t-53 27.5l-68 28q-37 15 -69 39.5t-53 62t-21 94.5q0 106 64.5 168t185.5 62q53 0 94.5 -14.5t70.5 -38.5
t44.5 -54.5t15.5 -62.5q0 -38 -26 -64t-64 -26q-30 0 -45.5 12.5t-27.5 27.5t-25 27.5t-37 12.5q-19 0 -29.5 -10t-10.5 -25q0 -21 21 -35t53 -28l69 -29q36 -16 68 -40.5t53 -61t21 -91.5q0 -52 -18.5 -96.5t-53.5 -76t-86 -49.5t-117 -18zM280 780q-30 0 -47.5 17
t-17.5 43q0 11 2 26l3 24l10 70q5 38 25.5 59t54.5 21q38 0 61.5 -23t23.5 -57q0 -23 -5 -36t-5 -14l-30 -70q-8 -20 -26.5 -40t-48.5 -20z" />
    <glyph glyph-name="sacute" unicode="&#x15b;" horiz-adv-x="425" 
d="M200 -15q-45 0 -80.5 11t-59.5 29t-37 40.5t-13 44.5q0 34 20.5 54.5t54.5 20.5q24 0 36.5 -7t22 -15.5t20 -15.5t31.5 -7q35 0 35 25q0 13 -15.5 20.5t-39 15t-50.5 18t-50.5 29.5t-39 48t-15.5 74q0 34 13.5 64t39.5 52.5t63 35.5t84 13q43 0 77.5 -12t58.5 -30
t36.5 -40t12.5 -43q0 -75 -75 -75q-22 0 -33.5 7t-20 15.5t-18 15.5t-28.5 7q-25 0 -25 -25q0 -12 15.5 -19t39 -14t50.5 -17t50.5 -28.5t39 -49t15.5 -77.5q0 -32 -14.5 -61.5t-42.5 -52.5t-67.5 -37t-90.5 -14zM235 600q-30 0 -47.5 17t-17.5 43q0 11 2 26l3 24l10 70
q5 38 25.5 59t54.5 21q38 0 61.5 -23t23.5 -57q0 -23 -5 -36t-5 -14l-30 -70q-8 -20 -26.5 -40t-48.5 -20z" />
    <glyph glyph-name="Scedilla" unicode="&#x15e;" 
d="M405 -175q0 -26 -11.5 -50.5t-33.5 -43.5t-52 -30t-68 -11t-59 19.5t-21 45.5t19 43t61 17q15 0 22.5 6t7.5 14t-8 14t-27 6q-60 0 -60 55v80q-45 12 -80 33q-21 12 -33.5 23.5t-23 26.5t-17 34.5t-6.5 42.5q0 38 26 64t64 26q28 0 45.5 -12.5t32.5 -27.5t32 -27.5
t45 -12.5q26 0 38 11t12 29q0 24 -21 38.5t-53 27.5l-68 28q-37 15 -69 39.5t-53 62t-21 94.5q0 106 64.5 168t185.5 62q53 0 94.5 -14.5t70.5 -38.5t44.5 -54.5t15.5 -62.5q0 -38 -26 -64t-64 -26q-30 0 -45.5 12.5t-27.5 27.5t-25 27.5t-37 12.5q-19 0 -29.5 -10
t-10.5 -25q0 -21 21 -35t53 -28l69 -29q36 -16 68 -40.5t53 -61t21 -91.5q0 -42 -10 -74.5t-26 -57t-36.5 -41.5t-42.5 -29q-51 -27 -115 -33v-25q32 -3 58 -19q23 -14 40 -40.5t17 -75.5z" />
    <glyph glyph-name="scedilla" unicode="&#x15f;" horiz-adv-x="425" 
d="M355 -175q0 -26 -11.5 -50.5t-33.5 -43.5t-52 -30t-68 -11t-59 19.5t-21 45.5t19 43t61 17q15 0 22.5 6t7.5 14t-8 14t-27 6q-60 0 -60 55v85q-32 10 -57 26q-24 14 -41 35.5t-17 53.5q0 34 20.5 54.5t54.5 20.5q24 0 36.5 -7t22 -15.5t20 -15.5t31.5 -7q35 0 35 25
q0 13 -15.5 20.5t-39 15t-50.5 18t-50.5 29.5t-39 48t-15.5 74q0 34 13.5 64t39.5 52.5t63 35.5t84 13q43 0 77.5 -12t58.5 -30t36.5 -40t12.5 -43q0 -75 -75 -75q-22 0 -33.5 7t-20 15.5t-18 15.5t-28.5 7q-25 0 -25 -25q0 -12 15.5 -19t39 -14t50.5 -17t50.5 -28.5t39 -49
t15.5 -77.5q0 -27 -7.5 -48.5t-20 -38t-28 -28t-31.5 -19.5q-39 -20 -88 -26v-30q32 -3 58 -19q23 -14 40 -40.5t17 -75.5z" />
    <glyph glyph-name="Scaron" unicode="&#x160;" 
d="M245 -20q-52 0 -94.5 15.5t-72.5 39.5t-46.5 54.5t-16.5 60.5q0 38 26 64t64 26q28 0 45.5 -12.5t32.5 -27.5t32 -27.5t45 -12.5q26 0 38 11t12 29q0 24 -21 38.5t-53 27.5l-68 28q-37 15 -69 39.5t-53 62t-21 94.5q0 106 64.5 168t185.5 62q53 0 94.5 -14.5t70.5 -38.5
t44.5 -54.5t15.5 -62.5q0 -38 -26 -64t-64 -26q-30 0 -45.5 12.5t-27.5 27.5t-25 27.5t-37 12.5q-19 0 -29.5 -10t-10.5 -25q0 -21 21 -35t53 -28l69 -29q36 -16 68 -40.5t53 -61t21 -91.5q0 -52 -18.5 -96.5t-53.5 -76t-86 -49.5t-117 -18zM275 935l20 45q8 19 26.5 39.5
t48.5 20.5t47.5 -17t17.5 -43q0 -18 -5.5 -30t-9.5 -20l-50 -90q-5 -9 -13.5 -19.5t-21 -19.5t-28.5 -15t-37 -6t-37 6t-28.5 15t-21 19.5t-13.5 19.5l-50 90q-4 8 -9.5 20t-5.5 30q0 26 17.5 43t47.5 17t48.5 -20.5t26.5 -39.5l20 -45h10z" />
    <glyph glyph-name="scaron" unicode="&#x161;" horiz-adv-x="425" 
d="M200 -15q-45 0 -80.5 11t-59.5 29t-37 40.5t-13 44.5q0 34 20.5 54.5t54.5 20.5q24 0 36.5 -7t22 -15.5t20 -15.5t31.5 -7q35 0 35 25q0 13 -15.5 20.5t-39 15t-50.5 18t-50.5 29.5t-39 48t-15.5 74q0 34 13.5 64t39.5 52.5t63 35.5t84 13q43 0 77.5 -12t58.5 -30
t36.5 -40t12.5 -43q0 -75 -75 -75q-22 0 -33.5 7t-20 15.5t-18 15.5t-28.5 7q-25 0 -25 -25q0 -12 15.5 -19t39 -14t50.5 -17t50.5 -28.5t39 -49t15.5 -77.5q0 -32 -14.5 -61.5t-42.5 -52.5t-67.5 -37t-90.5 -14zM220 755l20 45q8 19 26.5 39.5t48.5 20.5t47.5 -17t17.5 -43
q0 -18 -5.5 -30t-9.5 -20l-50 -90q-5 -9 -13.5 -19.5t-21 -19.5t-28.5 -15t-37 -6t-37 6t-28.5 15t-21 19.5t-13.5 19.5l-50 90q-4 8 -9.5 20t-5.5 30q0 26 17.5 43t47.5 17t48.5 -20.5t26.5 -39.5l20 -45h10z" />
    <glyph glyph-name="Tcommaaccent" unicode="&#x162;" 
d="M100 700h335q45 0 72.5 -26.5t27.5 -68.5t-27.5 -68.5t-72.5 -26.5h-65v-420q0 -45 -28 -72.5t-77 -27.5q-45 0 -72.5 27.5t-27.5 72.5v420h-65q-45 0 -72.5 26.5t-27.5 68.5t27.5 68.5t72.5 26.5zM175 -165q0 42 26.5 68.5t68.5 26.5t68.5 -28t26.5 -77q0 -39 -13 -72
t-33.5 -57t-46.5 -37.5t-52 -13.5q-19 0 -29.5 9.5t-10.5 20.5q0 17 9 24.5t20 13t21.5 13t14.5 24.5q-12 0 -24 6.5t-22.5 17.5t-17 27t-6.5 34z" />
    <glyph glyph-name="tcommaaccent" unicode="&#x163;" horiz-adv-x="375" 
d="M270 350h-25v-155q0 -34 6 -44.5t14 -10.5q6 0 9.5 1.5t7.5 3.5t10.5 3.5t17.5 1.5q26 0 43 -17.5t17 -47.5q0 -42 -35 -71t-110 -29q-36 0 -66 13t-52 40t-34.5 67.5t-12.5 94.5v160q-14 5 -25 15q-10 9 -17.5 23t-7.5 37t8 37.5t17 22.5q11 10 25 15v40q0 37 24.5 63.5
t65.5 26.5t68 -26t27 -64v-30h25q42 0 66 -23.5t24 -61.5t-24 -61.5t-66 -23.5zM120 -165q0 42 26.5 68.5t68.5 26.5t68.5 -28t26.5 -77q0 -39 -13 -72t-33.5 -57t-46.5 -37.5t-52 -13.5q-19 0 -29.5 9.5t-10.5 20.5q0 17 9 24.5t20 13t21.5 13t14.5 24.5q-12 0 -24 6.5
t-22.5 17.5t-17 27t-6.5 34z" />
    <glyph glyph-name="Tcaron" unicode="&#x164;" 
d="M100 700h335q45 0 72.5 -26.5t27.5 -68.5t-27.5 -68.5t-72.5 -26.5h-65v-420q0 -45 -28 -72.5t-77 -27.5q-45 0 -72.5 27.5t-27.5 72.5v420h-65q-45 0 -72.5 26.5t-27.5 68.5t27.5 68.5t72.5 26.5zM270 935l20 45q8 19 26.5 39.5t48.5 20.5t47.5 -17t17.5 -43
q0 -18 -5.5 -30t-9.5 -20l-50 -90q-5 -9 -13.5 -19.5t-21 -19.5t-28.5 -15t-37 -6t-37 6t-28.5 15t-21 19.5t-13.5 19.5l-50 90q-4 8 -9.5 20t-5.5 30q0 26 17.5 43t47.5 17t48.5 -20.5t26.5 -39.5l20 -45h10z" />
    <glyph glyph-name="tcaron" unicode="&#x165;" horiz-adv-x="540" 
d="M270 350h-25v-155q0 -34 6 -44.5t14 -10.5q6 0 9.5 1.5t7.5 3.5t10.5 3.5t17.5 1.5q26 0 43 -17.5t17 -47.5q0 -42 -35 -71t-110 -29q-36 0 -66 13t-52 40t-34.5 67.5t-12.5 94.5v160q-14 5 -25 15q-10 9 -17.5 23t-7.5 37t8 37.5t17 22.5q11 10 25 15v40q0 37 24.5 63.5
t65.5 26.5t68 -26t27 -64v-30h25q42 0 66 -23.5t24 -61.5t-24 -61.5t-66 -23.5zM390 615q0 42 26.5 68.5t68.5 26.5t68.5 -28t26.5 -77q0 -39 -13 -72t-33.5 -57t-46.5 -37.5t-52 -13.5q-19 0 -29.5 9.5t-10.5 20.5q0 17 9 24.5t20 13t21.5 13t14.5 24.5q-12 0 -24 6.5
t-22.5 17.5t-17 27t-6.5 34z" />
    <glyph glyph-name="Umacron" unicode="&#x16a;" horiz-adv-x="650" 
d="M265 610v-365q0 -49 18.5 -72t41.5 -23t41.5 23t18.5 72v365q0 45 28 72.5t77 27.5q45 0 72.5 -27.5t27.5 -72.5v-340q0 -67 -19.5 -121t-55 -91.5t-84 -57.5t-106.5 -20t-106.5 20t-84 57.5t-55 91.5t-19.5 121v340q0 45 27.5 72.5t72.5 27.5q49 0 77 -27.5t28 -72.5z
M240 950h170q34 0 54.5 -20t20.5 -50t-20.5 -50t-54.5 -20h-170q-34 0 -54.5 20t-20.5 50t20.5 50t54.5 20z" />
    <glyph glyph-name="umacron" unicode="&#x16b;" horiz-adv-x="530" 
d="M205 -15q-32 0 -60 13.5t-49 41.5t-33.5 71.5t-12.5 103.5v220q0 38 26 64t64 26q42 0 68.5 -26t26.5 -64v-245q0 -30 9.5 -42.5t20.5 -12.5t20.5 12.5t9.5 42.5v245q0 38 26.5 64t68.5 26q38 0 64 -26t26 -64v-350q0 -38 -26 -64t-64 -26q-25 0 -41 8t-26 17
q-11 11 -18 25h-10q-9 -17 -22 -30q-13 -12 -29 -21t-39 -9zM180 780h170q34 0 54.5 -20t20.5 -50t-20.5 -50t-54.5 -20h-170q-34 0 -54.5 20t-20.5 50t20.5 50t54.5 20z" />
    <glyph glyph-name="Uring" unicode="&#x16e;" horiz-adv-x="650" 
d="M265 610v-365q0 -49 18.5 -72t41.5 -23t41.5 23t18.5 72v365q0 45 28 72.5t77 27.5q45 0 72.5 -27.5t27.5 -72.5v-340q0 -67 -19.5 -121t-55 -91.5t-84 -57.5t-106.5 -20t-106.5 20t-84 57.5t-55 91.5t-19.5 121v340q0 45 27.5 72.5t72.5 27.5q49 0 77 -27.5t28 -72.5z
M325 845q11 0 20.5 11t9.5 34q0 22 -9.5 33.5t-20.5 11.5t-20.5 -11.5t-9.5 -33.5q0 -23 9.5 -34t20.5 -11zM325 1030q26 0 49.5 -10.5t41.5 -29.5t28.5 -44.5t10.5 -55.5t-10.5 -55.5t-28.5 -44.5t-41.5 -29.5t-49.5 -10.5t-49.5 10.5t-41.5 29.5t-28.5 44.5t-10.5 55.5
t10.5 55.5t28.5 44.5t41.5 29.5t49.5 10.5z" />
    <glyph glyph-name="uring" unicode="&#x16f;" horiz-adv-x="530" 
d="M205 -15q-32 0 -60 13.5t-49 41.5t-33.5 71.5t-12.5 103.5v220q0 38 26 64t64 26q42 0 68.5 -26t26.5 -64v-245q0 -30 9.5 -42.5t20.5 -12.5t20.5 12.5t9.5 42.5v245q0 38 26.5 64t68.5 26q38 0 64 -26t26 -64v-350q0 -38 -26 -64t-64 -26q-25 0 -41 8t-26 17
q-11 11 -18 25h-10q-9 -17 -22 -30q-13 -12 -29 -21t-39 -9zM265 665q11 0 20.5 11t9.5 34q0 22 -9.5 33.5t-20.5 11.5t-20.5 -11.5t-9.5 -33.5q0 -23 9.5 -34t20.5 -11zM265 850q26 0 49.5 -10.5t41.5 -29.5t28.5 -44.5t10.5 -55.5t-10.5 -55.5t-28.5 -44.5t-41.5 -29.5
t-49.5 -10.5t-49.5 10.5t-41.5 29.5t-28.5 44.5t-10.5 55.5t10.5 55.5t28.5 44.5t41.5 29.5t49.5 10.5z" />
    <glyph glyph-name="Uhungarumlaut" unicode="&#x170;" horiz-adv-x="650" 
d="M265 610v-365q0 -49 18.5 -72t41.5 -23t41.5 23t18.5 72v365q0 45 28 72.5t77 27.5q45 0 72.5 -27.5t27.5 -72.5v-340q0 -67 -19.5 -121t-55 -91.5t-84 -57.5t-106.5 -20t-106.5 20t-84 57.5t-55 91.5t-19.5 121v340q0 45 27.5 72.5t72.5 27.5q49 0 77 -27.5t28 -72.5z
M230 780q-30 0 -47.5 17t-17.5 43q0 11 2 27l3 23l10 70q5 38 25.5 59t54.5 21q38 0 61.5 -23t23.5 -57q0 -23 -5 -36t-5 -14l-30 -70q-8 -20 -26.5 -40t-48.5 -20zM415 780q-30 0 -47.5 17t-17.5 43q0 11 2 27l3 23l10 70q5 38 25.5 59t54.5 21q38 0 61.5 -23t23.5 -57
q0 -23 -5 -36t-5 -14l-30 -70q-8 -20 -26.5 -40t-48.5 -20z" />
    <glyph glyph-name="uhungarumlaut" unicode="&#x171;" horiz-adv-x="530" 
d="M205 -15q-32 0 -60 13.5t-49 41.5t-33.5 71.5t-12.5 103.5v220q0 38 26 64t64 26q42 0 68.5 -26t26.5 -64v-245q0 -30 9.5 -42.5t20.5 -12.5t20.5 12.5t9.5 42.5v245q0 38 26.5 64t68.5 26q38 0 64 -26t26 -64v-350q0 -38 -26 -64t-64 -26q-25 0 -41 8t-26 17
q-11 11 -18 25h-10q-9 -17 -22 -30q-13 -12 -29 -21t-39 -9zM185 600q-30 0 -47.5 17t-17.5 43q0 11 2 27l3 23l10 70q5 38 25.5 59t54.5 21q38 0 61.5 -23t23.5 -57q0 -23 -5 -36t-5 -14l-30 -70q-8 -20 -26.5 -40t-48.5 -20zM370 600q-30 0 -47.5 17t-17.5 43q0 11 2 27
l3 23l10 70q5 38 25.5 59t54.5 21q38 0 61.5 -23t23.5 -57q0 -23 -5 -36t-5 -14l-30 -70q-8 -20 -26.5 -40t-48.5 -20z" />
    <glyph glyph-name="Uogonek" unicode="&#x172;" horiz-adv-x="650" 
d="M245 -130q0 26 8 46.5t17 34.5q11 17 25 29q-66 8 -117 42q-32 17 -50 37.5t-33 50t-25 69t-10 91.5v340q0 45 27.5 72.5t72.5 27.5q49 0 77 -27.5t28 -72.5v-365q0 -49 18.5 -72t41.5 -23t41.5 23t18.5 72v365q0 45 28 72.5t77 27.5q45 0 72.5 -27.5t27.5 -72.5v-340
q0 -66 -16 -112t-40 -78t-51 -53l-52 -40q-24 -18 -40 -35.5t-16 -41.5q0 -45 40 -45q23 0 41.5 -17t18.5 -43t-21 -45.5t-59 -19.5q-34 0 -61.5 12t-47 30.5t-30.5 41.5t-11 46z" />
    <glyph glyph-name="uogonek" unicode="&#x173;" horiz-adv-x="530" 
d="M305 45h-10q-9 -17 -22 -30q-13 -12 -29 -21t-39 -9q-32 0 -60 13.5t-49 41.5t-33.5 71.5t-12.5 103.5v220q0 38 26 64t64 26q42 0 68.5 -26t26.5 -64v-245q0 -30 9.5 -42.5t20.5 -12.5t20.5 12.5t9.5 42.5v245q0 38 26.5 64t68.5 26q38 0 64 -26t26 -64v-350
q0 -30 -16.5 -51t-36 -39t-36 -35.5t-16.5 -39.5q0 -45 40 -45q23 0 41.5 -17t18.5 -43t-21 -45.5t-59 -19.5q-34 0 -61.5 12t-47 30.5t-30.5 41.5t-11 46q0 34 12.5 59t27.5 42q18 20 40 34q-6 5 -9.5 10.5t-6.5 9.5z" />
    <glyph glyph-name="Ydieresis" unicode="&#x178;" horiz-adv-x="555" 
d="M280 470l85 190q7 14 19 25q11 10 28 17.5t43 7.5q45 0 72.5 -27.5t27.5 -72.5q0 -15 -6 -32.5t-12.5 -32.5t-12.5 -25l-5 -10l-139 -255v-165q0 -45 -28 -72.5t-77 -27.5q-45 0 -72.5 27.5t-27.5 72.5v165l-139 255l-6 10q-5 10 -11.5 25t-12.5 32.5t-6 32.5
q0 45 27.5 72.5t72.5 27.5q26 0 43.5 -8t27.5 -17q12 -11 19 -25l80 -190h10zM85 880q0 38 25.5 64t59.5 26t59.5 -26t25.5 -64t-25.5 -64t-59.5 -26t-59.5 26t-25.5 64zM295 880q0 38 25.5 64t59.5 26t59.5 -26t25.5 -64t-25.5 -64t-59.5 -26t-59.5 26t-25.5 64z" />
    <glyph glyph-name="Zacute" unicode="&#x179;" horiz-adv-x="515" 
d="M35 200l195 300v10h-120q-45 0 -72.5 26.5t-27.5 68.5t27.5 68.5t72.5 26.5h300q45 0 72.5 -26.5t27.5 -68.5t-12.5 -63.5t-22.5 -36.5l-195 -305v-10h135q45 0 72.5 -26.5t27.5 -68.5t-27.5 -68.5t-72.5 -26.5h-315q-45 0 -72.5 26.5t-27.5 68.5q0 38 12.5 64t22.5 41z
M275 780q-30 0 -47.5 17t-17.5 43q0 11 2 27l3 23l10 70q5 38 25.5 59t54.5 21q38 0 61.5 -23t23.5 -57q0 -23 -5 -36t-5 -14l-30 -70q-8 -20 -26.5 -40t-48.5 -20z" />
    <glyph glyph-name="zacute" unicode="&#x17a;" horiz-adv-x="430" 
d="M380 340l-135 -160v-10h95q17 0 32.5 -7t27 -18.5t18.5 -27t7 -32.5t-7 -32.5t-18.5 -27t-27 -18.5t-32.5 -7h-245q-38 0 -64 26t-26 64t12 60t18 30l135 160v10h-70q-17 0 -32.5 7t-27 18.5t-18.5 27t-7 32.5t7 32.5t18.5 27t27 18.5t32.5 7h230q38 0 64 -26t26 -64
q0 -30 -12.5 -50.5t-27.5 -39.5zM235 600q-30 0 -47.5 17t-17.5 43q0 11 2 27l3 23l10 70q5 38 25.5 59t54.5 21q38 0 61.5 -23t23.5 -57q0 -23 -5 -36t-5 -14l-30 -70q-8 -20 -26.5 -40t-48.5 -20z" />
    <glyph glyph-name="Zdotaccent" unicode="&#x17b;" horiz-adv-x="515" 
d="M35 200l195 300v10h-120q-45 0 -72.5 26.5t-27.5 68.5t27.5 68.5t72.5 26.5h300q45 0 72.5 -26.5t27.5 -68.5t-12.5 -63.5t-22.5 -36.5l-195 -305v-10h135q45 0 72.5 -26.5t27.5 -68.5t-27.5 -68.5t-72.5 -26.5h-315q-45 0 -72.5 26.5t-27.5 68.5q0 38 12.5 64t22.5 41z
M170 880q0 38 26 64t64 26t64 -26t26 -64t-26 -64t-64 -26t-64 26t-26 64z" />
    <glyph glyph-name="zdotaccent" unicode="&#x17c;" horiz-adv-x="430" 
d="M380 340l-135 -160v-10h95q17 0 32.5 -7t27 -18.5t18.5 -27t7 -32.5t-7 -32.5t-18.5 -27t-27 -18.5t-32.5 -7h-245q-38 0 -64 26t-26 64t12 60t18 30l135 160v10h-70q-17 0 -32.5 7t-27 18.5t-18.5 27t-7 32.5t7 32.5t18.5 27t27 18.5t32.5 7h230q38 0 64 -26t26 -64
q0 -30 -12.5 -50.5t-27.5 -39.5zM125 700q0 38 26 64t64 26t64 -26t26 -64t-26 -64t-64 -26t-64 26t-26 64z" />
    <glyph glyph-name="Zcaron" unicode="&#x17d;" horiz-adv-x="515" 
d="M35 200l195 300v10h-120q-45 0 -72.5 26.5t-27.5 68.5t27.5 68.5t72.5 26.5h300q45 0 72.5 -26.5t27.5 -68.5t-12.5 -63.5t-22.5 -36.5l-195 -305v-10h135q45 0 72.5 -26.5t27.5 -68.5t-27.5 -68.5t-72.5 -26.5h-315q-45 0 -72.5 26.5t-27.5 68.5q0 38 12.5 64t22.5 41z
M260 935l20 45q8 19 26.5 39.5t48.5 20.5t47.5 -17t17.5 -43q0 -18 -5.5 -30t-9.5 -20l-50 -90q-5 -9 -13.5 -19.5t-21 -19.5t-28.5 -15t-37 -6t-37 6t-28.5 15t-21 19.5t-13.5 19.5l-50 90q-4 8 -9.5 20t-5.5 30q0 26 17.5 43t47.5 17t48.5 -20.5t26.5 -39.5l20 -45h10z
" />
    <glyph glyph-name="zcaron" unicode="&#x17e;" horiz-adv-x="430" 
d="M380 340l-135 -160v-10h95q17 0 32.5 -7t27 -18.5t18.5 -27t7 -32.5t-7 -32.5t-18.5 -27t-27 -18.5t-32.5 -7h-245q-38 0 -64 26t-26 64t12 60t18 30l135 160v10h-70q-17 0 -32.5 7t-27 18.5t-18.5 27t-7 32.5t7 32.5t18.5 27t27 18.5t32.5 7h230q38 0 64 -26t26 -64
q0 -30 -12.5 -50.5t-27.5 -39.5zM220 755l20 45q8 19 26.5 39.5t48.5 20.5t47.5 -17t17.5 -43q0 -18 -5.5 -30t-9.5 -20l-50 -90q-5 -9 -13.5 -19.5t-21 -19.5t-28.5 -15t-37 -6t-37 6t-28.5 15t-21 19.5t-13.5 19.5l-50 90q-4 8 -9.5 20t-5.5 30q0 26 17.5 43t47.5 17
t48.5 -20.5t26.5 -39.5l20 -45h10z" />
    <glyph glyph-name="florin" unicode="&#x192;" horiz-adv-x="355" 
d="M250 510v-35h25q42 0 66 -23.5t24 -61.5t-24 -61.5t-66 -23.5h-25v-235q0 -73 -17 -127.5t-48 -90.5t-74 -54t-96 -18q-30 0 -52.5 22.5t-22.5 52.5q0 24 9.5 38t23 24.5t30 20.5t30 26t23 41t9.5 65v245q-14 5 -25 15q-10 9 -17.5 23t-7.5 37t8 37.5t17 22.5
q11 10 25 15v40q0 54 12.5 94.5t34.5 67.5t52 40t66 13q75 0 110 -29t35 -71q0 -30 -17 -47.5t-43 -17.5q-11 0 -17.5 1.5t-10.5 3.5t-7.5 3.5t-9.5 1.5q-8 0 -14 -10.5t-6 -44.5z" />
    <glyph glyph-name="Scommaaccent" unicode="&#x218;" 
d="M245 -20q-52 0 -94.5 15.5t-72.5 39.5t-46.5 54.5t-16.5 60.5q0 38 26 64t64 26q28 0 45.5 -12.5t32.5 -27.5t32 -27.5t45 -12.5q26 0 38 11t12 29q0 24 -21 38.5t-53 27.5l-68 28q-37 15 -69 39.5t-53 62t-21 94.5q0 106 64.5 168t185.5 62q53 0 94.5 -14.5t70.5 -38.5
t44.5 -54.5t15.5 -62.5q0 -38 -26 -64t-64 -26q-30 0 -45.5 12.5t-27.5 27.5t-25 27.5t-37 12.5q-19 0 -29.5 -10t-10.5 -25q0 -21 21 -35t53 -28l69 -29q36 -16 68 -40.5t53 -61t21 -91.5q0 -52 -18.5 -96.5t-53.5 -76t-86 -49.5t-117 -18zM170 -165q0 42 26.5 68.5
t68.5 26.5t68.5 -28t26.5 -77q0 -39 -13 -72t-33.5 -57t-46.5 -37.5t-52 -13.5q-19 0 -29.5 9.5t-10.5 20.5q0 17 9 24.5t20 13t21.5 13t14.5 24.5q-12 0 -24 6.5t-22.5 17.5t-17 27t-6.5 34z" />
    <glyph glyph-name="scommaaccent" unicode="&#x219;" horiz-adv-x="425" 
d="M200 -15q-45 0 -80.5 11t-59.5 29t-37 40.5t-13 44.5q0 34 20.5 54.5t54.5 20.5q24 0 36.5 -7t22 -15.5t20 -15.5t31.5 -7q35 0 35 25q0 13 -15.5 20.5t-39 15t-50.5 18t-50.5 29.5t-39 48t-15.5 74q0 34 13.5 64t39.5 52.5t63 35.5t84 13q43 0 77.5 -12t58.5 -30
t36.5 -40t12.5 -43q0 -75 -75 -75q-22 0 -33.5 7t-20 15.5t-18 15.5t-28.5 7q-25 0 -25 -25q0 -12 15.5 -19t39 -14t50.5 -17t50.5 -28.5t39 -49t15.5 -77.5q0 -32 -14.5 -61.5t-42.5 -52.5t-67.5 -37t-90.5 -14zM115 -165q0 42 26.5 68.5t68.5 26.5t68.5 -28t26.5 -77
q0 -39 -13 -72t-33.5 -57t-46.5 -37.5t-52 -13.5q-19 0 -29.5 9.5t-10.5 20.5q0 17 9 24.5t20 13t21.5 13t14.5 24.5q-12 0 -24 6.5t-22.5 17.5t-17 27t-6.5 34z" />
    <glyph glyph-name="afii57929" unicode="&#x2bc;" horiz-adv-x="250" 
d="M30 755q0 42 26.5 68.5t68.5 26.5t68.5 -28t26.5 -77q0 -39 -13 -72t-33.5 -57t-46.5 -37.5t-52 -13.5q-19 0 -29.5 9.5t-10.5 20.5q0 17 9 24.5t20 13t21.5 13t14.5 24.5q-12 0 -24 6.5t-22.5 17.5t-17 27t-6.5 34z" />
    <glyph glyph-name="circumflex" unicode="&#x2c6;" horiz-adv-x="390" 
d="M190 695l-20 -45q-8 -19 -26.5 -39.5t-48.5 -20.5t-47.5 17t-17.5 43q0 18 5.5 30t9.5 20l50 90q5 9 13.5 19.5t21 19.5t28.5 15t37 6t37 -6t28.5 -15t21 -19.5t13.5 -19.5l50 -90q4 -8 9.5 -20t5.5 -30q0 -26 -17.5 -43t-47.5 -17t-48.5 20.5t-26.5 39.5l-20 45h-10z
" />
    <glyph glyph-name="caron" unicode="&#x2c7;" horiz-adv-x="390" 
d="M200 745l20 45q8 19 26.5 39.5t48.5 20.5t47.5 -17t17.5 -43q0 -18 -5.5 -30t-9.5 -20l-50 -90q-5 -9 -13.5 -19.5t-21 -19.5t-28.5 -15t-37 -6t-37 6t-28.5 15t-21 19.5t-13.5 19.5l-50 90q-4 8 -9.5 20t-5.5 30q0 26 17.5 43t47.5 17t48.5 -20.5t26.5 -39.5l20 -45h10z
" />
    <glyph glyph-name="breve" unicode="&#x2d8;" horiz-adv-x="370" 
d="M185 630q-32 0 -60 12t-49 31t-33.5 43.5t-12.5 48.5q0 26 19.5 45.5t45.5 19.5q23 0 34 -8.5t18.5 -19t15 -19t22.5 -8.5t22.5 8.5t15 19t19 19t33.5 8.5q26 0 45.5 -19.5t19.5 -45.5q0 -24 -12.5 -48.5t-33.5 -43.5t-49 -31t-60 -12z" />
    <glyph glyph-name="dotaccent" unicode="&#x2d9;" horiz-adv-x="240" 
d="M30 730q0 38 26 64t64 26t64 -26t26 -64t-26 -64t-64 -26t-64 26t-26 64z" />
    <glyph glyph-name="ring" unicode="&#x2da;" horiz-adv-x="320" 
d="M160 685q11 0 20.5 11t9.5 34q0 22 -9.5 33.5t-20.5 11.5t-20.5 -11.5t-9.5 -33.5q0 -23 9.5 -34t20.5 -11zM160 870q26 0 49.5 -10.5t41.5 -29.5t28.5 -44.5t10.5 -55.5t-10.5 -55.5t-28.5 -44.5t-41.5 -29.5t-49.5 -10.5t-49.5 10.5t-41.5 29.5t-28.5 44.5t-10.5 55.5
t10.5 55.5t28.5 44.5t41.5 29.5t49.5 10.5z" />
    <glyph glyph-name="ogonek" unicode="&#x2db;" horiz-adv-x="290" 
d="M30 -130q0 34 13 60t30 44q18 21 42 36h135q-25 -15 -45 -31q-18 -15 -31.5 -32.5t-13.5 -36.5q0 -45 40 -45q23 0 41.5 -17t18.5 -43t-21 -45.5t-59 -19.5q-34 0 -61.5 12t-47 30.5t-30.5 41.5t-11 46z" />
    <glyph glyph-name="tilde" unicode="&#x2dc;" horiz-adv-x="420" 
d="M175 680q-9 0 -15 -8t-13.5 -17t-19 -17t-32.5 -8q-26 0 -45.5 19.5t-19.5 45.5q0 30 9.5 55t25 42.5t35 27.5t40.5 10t36.5 -8t27.5 -17l22 -17q10 -8 19 -8t15 8t13.5 17t19 17t32.5 8q26 0 45.5 -19.5t19.5 -45.5q0 -30 -9.5 -55t-25 -42.5t-35 -27.5t-40.5 -10
t-36.5 8t-27.5 17l-22 17q-10 8 -19 8z" />
    <glyph glyph-name="hungarumlaut" unicode="&#x2dd;" horiz-adv-x="425" 
d="M95 590q-30 0 -47.5 17t-17.5 43q0 11 2 27l3 23l10 70q5 38 25.5 59t54.5 21q38 0 61.5 -23t23.5 -57q0 -23 -5 -36t-5 -14l-30 -70q-8 -20 -26.5 -40t-48.5 -20zM280 590q-30 0 -47.5 17t-17.5 43q0 11 2 27l3 23l10 70q5 38 25.5 59t54.5 21q38 0 61.5 -23t23.5 -57
q0 -23 -5 -36t-5 -14l-30 -70q-8 -20 -26.5 -40t-48.5 -20z" />
    <glyph glyph-name="afii10023" unicode="&#x401;" horiz-adv-x="580" 
d="M130 850q0 38 25.5 64t59.5 26t59.5 -26t25.5 -64t-25.5 -64t-59.5 -26t-59.5 26t-25.5 64zM340 850q0 38 25.5 64t59.5 26t59.5 -26t25.5 -64t-25.5 -64t-59.5 -26t-59.5 26t-25.5 64zM460 510h-190v-75h130q42 0 66 -23.5t24 -61.5t-24 -61.5t-66 -23.5h-130v-75h200
q45 0 72.5 -26.5t27.5 -68.5t-27.5 -68.5t-72.5 -26.5h-305q-45 0 -72.5 27.5t-27.5 72.5v500q0 45 27.5 72.5t72.5 27.5h295q45 0 72.5 -26.5t27.5 -68.5t-27.5 -68.5t-72.5 -26.5z" />
    <glyph glyph-name="afii10051" unicode="&#x402;" horiz-adv-x="640" 
d="M630 205q0 -58 -16 -103.5t-43 -77t-63.5 -48t-77.5 -16.5q-30 0 -52.5 22.5t-22.5 52.5q0 28 11 40.5t24 25.5t24 35t11 69q0 42 -13 58.5t-32 16.5q-15 0 -27 -3t-20 -7q-10 -4 -18 -10v-170q0 -45 -28 -72.5t-77 -27.5q-45 0 -72.5 27.5t-27.5 72.5v420h-30
q-45 0 -72.5 26.5t-27.5 68.5t27.5 68.5t72.5 26.5h280q45 0 72.5 -26.5t27.5 -68.5t-27.5 -68.5t-72.5 -26.5h-45v-80q12 6 29 10q15 4 35 7t46 3q43 0 80.5 -16.5t65 -48t43.5 -77t16 -103.5z" />
    <glyph glyph-name="afii10052" unicode="&#x403;" horiz-adv-x="530" 
d="M270 510v-420q0 -45 -28 -72.5t-77 -27.5q-45 0 -72.5 27.5t-27.5 72.5v510q0 45 27.5 72.5t72.5 27.5h265q45 0 72.5 -26.5t27.5 -68.5t-27.5 -68.5t-72.5 -26.5h-160zM300 770q-30 0 -47.5 17t-17.5 43q0 11 2 27l3 23l10 70q5 38 25.5 59t54.5 21q38 0 61.5 -23
t23.5 -57q0 -23 -5 -36t-5 -14l-30 -70q-8 -20 -26.5 -40t-48.5 -20z" />
    <glyph glyph-name="afii10053" unicode="&#x404;" horiz-adv-x="555" 
d="M40 280v140q0 69 20.5 124.5t57 94.5t87 60t110.5 21q53 0 94.5 -14.5t70.5 -38.5t44.5 -54.5t15.5 -62.5q0 -38 -26 -64t-64 -26q-30 0 -46.5 12.5t-28.5 27.5t-24.5 27.5t-35.5 12.5q-34 0 -54.5 -23.5t-20.5 -76.5h65q53 0 76.5 -21.5t23.5 -63.5t-23.5 -63.5
t-76.5 -21.5h-65q0 -60 20.5 -85t54.5 -25q21 0 34.5 12.5t28 27.5t32 27.5t45.5 12.5q38 0 64 -26t26 -64q0 -30 -16 -60.5t-46 -54.5t-72.5 -39.5t-95.5 -15.5q-60 0 -110 21t-87 60t-57.5 94.5t-20.5 124.5z" />
    <glyph glyph-name="afii10054" unicode="&#x405;" 
d="M245 -20q-52 0 -94.5 15.5t-72.5 39.5t-46.5 54.5t-16.5 60.5q0 38 26 64t64 26q28 0 45.5 -12.5t32.5 -27.5t32 -27.5t45 -12.5q26 0 38 11t12 29q0 24 -21 38.5t-53 27.5l-68 28q-37 15 -69 39.5t-53 62t-21 94.5q0 106 64.5 168t185.5 62q53 0 94.5 -14.5t70.5 -38.5
t44.5 -54.5t15.5 -62.5q0 -38 -26 -64t-64 -26q-30 0 -45.5 12.5t-27.5 27.5t-25 27.5t-37 12.5q-19 0 -29.5 -10t-10.5 -25q0 -21 21 -35t53 -28l69 -29q36 -16 68 -40.5t53 -61t21 -91.5q0 -52 -18.5 -96.5t-53.5 -76t-86 -49.5t-117 -18z" />
    <glyph glyph-name="afii10055" unicode="&#x406;" horiz-adv-x="335" 
d="M270 610v-520q0 -45 -28 -72.5t-77 -27.5q-45 0 -72.5 27.5t-27.5 72.5v520q0 45 27.5 72.5t72.5 27.5q49 0 77 -27.5t28 -72.5z" />
    <glyph glyph-name="afii10056" unicode="&#x407;" horiz-adv-x="335" 
d="M270 610v-520q0 -45 -28 -72.5t-77 -27.5q-45 0 -72.5 27.5t-27.5 72.5v520q0 45 27.5 72.5t72.5 27.5q49 0 77 -27.5t28 -72.5zM-25 860q0 38 25.5 64t59.5 26t59.5 -26t25.5 -64t-25.5 -64t-59.5 -26t-59.5 26t-25.5 64zM185 860q0 38 25.5 64t59.5 26t59.5 -26
t25.5 -64t-25.5 -64t-59.5 -26t-59.5 26t-25.5 64z" />
    <glyph glyph-name="afii10057" unicode="&#x408;" horiz-adv-x="405" 
d="M135 280v330q0 45 27.5 72.5t72.5 27.5q49 0 77 -27.5t28 -72.5v-330q0 -73 -19 -129t-54 -94t-85 -57.5t-112 -19.5q-38 0 -64 26t-26 64q0 29 11.5 45t28.5 27t37.5 19.5t37.5 22.5t28.5 36t11.5 60z" />
    <glyph glyph-name="afii10058" unicode="&#x409;" horiz-adv-x="875" 
d="M580 320h-20v-150h20q26 0 45.5 20.5t19.5 54.5t-19.5 54.5t-45.5 20.5zM560 600v-110h35q60 0 108 -18t82 -50t52 -77.5t18 -99.5t-18 -99.5t-52 -77.5t-82 -50t-108 -18h-140q-45 0 -72.5 27.5t-27.5 72.5v410h-55v-150q0 -99 -19.5 -171t-51 -118.5t-71 -68.5
t-78.5 -22q-38 0 -64 26t-26 64q0 29 8 43.5t20 24.5l24 22q14 12 25.5 34.5t19.5 61.5t8 104v240q0 45 27.5 72.5t72.5 27.5h265q45 0 72.5 -27.5t27.5 -72.5z" />
    <glyph glyph-name="afii10059" unicode="&#x40a;" horiz-adv-x="880" 
d="M575 610v-140h35q58 0 104.5 -17t78.5 -48t49.5 -74t17.5 -96q0 -52 -17.5 -95.5t-50.5 -74.5t-81.5 -48t-110.5 -17h-130q-45 0 -72.5 27.5t-27.5 72.5v175h-100v-185q0 -45 -28 -72.5t-77 -27.5q-45 0 -72.5 27.5t-27.5 72.5v520q0 45 27.5 72.5t72.5 27.5
q49 0 77 -27.5t28 -72.5v-155h100v155q0 45 28 72.5t77 27.5q45 0 72.5 -27.5t27.5 -72.5zM595 300h-20v-130h20q23 0 39 17.5t16 47.5t-16 47.5t-39 17.5z" />
    <glyph glyph-name="afii10060" unicode="&#x40b;" horiz-adv-x="650" 
d="M315 260v-170q0 -45 -28 -72.5t-77 -27.5q-45 0 -72.5 27.5t-27.5 72.5v420h-30q-45 0 -72.5 26.5t-27.5 68.5t27.5 68.5t72.5 26.5h280q45 0 72.5 -26.5t27.5 -68.5t-27.5 -68.5t-72.5 -26.5h-45v-80q12 6 29 10q15 4 35 7t46 3q43 0 80.5 -17t65 -50.5t43.5 -84
t16 -118.5v-90q0 -45 -27.5 -72.5t-72.5 -27.5q-49 0 -77 27.5t-28 72.5v115q0 42 -13 58.5t-32 16.5q-15 0 -27 -3t-20 -7q-10 -4 -18 -10z" />
    <glyph glyph-name="afii10061" unicode="&#x40c;" horiz-adv-x="595" 
d="M295 245l-25 -35v-120q0 -45 -28 -72.5t-77 -27.5q-45 0 -72.5 27.5t-27.5 72.5v520q0 45 27.5 72.5t72.5 27.5q49 0 77 -27.5t28 -72.5v-140l135 200q8 11 19 20q11 8 25.5 14t35.5 6q42 0 66 -25.5t24 -74.5q0 -19 -4.5 -33.5t-10.5 -25.5q-7 -12 -15 -21l-100 -135
l120 -215q8 -15 15 -30q6 -14 10.5 -29.5t4.5 -30.5q0 -45 -25.5 -72.5t-74.5 -27.5q-23 0 -39 8t-26 17q-12 11 -20 25zM320 740q-30 0 -47.5 17t-17.5 43q0 11 2 27l3 23l10 70q5 38 25.5 59t54.5 21q38 0 61.5 -23t23.5 -57q0 -23 -5 -36t-5 -14l-30 -70
q-8 -20 -26.5 -40t-48.5 -20z" />
    <glyph glyph-name="afii10062" unicode="&#x40e;" horiz-adv-x="546" 
d="M185 180l-165 335q-3 7 -11.5 34t-8.5 61q0 45 27.5 72.5t72.5 27.5q26 0 44 -7t30 -20.5t20.5 -31.5t15.5 -41l70 -210h10l45 210q5 23 12 41t19.5 31.5t31.5 20.5t47 7q45 0 72 -27.5t28 -72.5q0 -17 -3 -33t-6.5 -28.5t-6.5 -20.5l-4 -8l-115 -330q-14 -41 -36.5 -79
t-53.5 -67t-69.5 -46.5t-85.5 -17.5q-60 0 -95 33t-35 82q0 38 26 64t64 26q23 0 30 -7.5t15 -7.5q6 0 11 5q2 2 4 5zM280 720q-37 0 -69.5 13t-55.5 34.5t-36.5 49.5t-13.5 58q0 26 19.5 45.5t45.5 19.5q23 0 34.5 -9.5t20.5 -20.5t21 -20.5t34 -9.5q23 0 34.5 9.5
t20.5 20.5t21 20.5t34 9.5q26 0 45.5 -19.5t19.5 -45.5q0 -30 -13.5 -58t-36.5 -49.5t-55 -34.5t-70 -13z" />
    <glyph glyph-name="afii10145" unicode="&#x40f;" horiz-adv-x="650" 
d="M485 0h-55v-50q0 -45 -28 -72.5t-77 -27.5q-45 0 -72.5 27.5t-27.5 72.5v50h-60q-45 0 -72.5 27.5t-27.5 72.5v510q0 45 27.5 72.5t72.5 27.5q49 0 77 -27.5t28 -72.5v-420h110v420q0 45 28 72.5t77 27.5q45 0 72.5 -27.5t27.5 -72.5v-510q0 -45 -27.5 -72.5t-72.5 -27.5
z" />
    <glyph glyph-name="afii10017" unicode="&#x410;" horiz-adv-x="590" 
d="M255 320h80l-37 160h-6zM370 150h-150l-15 -60q-12 -47 -37.5 -73.5t-67.5 -26.5q-21 0 -39 8t-31.5 21.5t-21.5 31.5t-8 39q0 17 3 36t7 36q4 19 10 38l120 400q8 26 20 48t30 38t43.5 25t61.5 9t61.5 -9t43.5 -25t30 -38t20 -48l120 -400q6 -19 10 -38q4 -18 7 -36.5
t3 -35.5q0 -21 -8 -39t-21.5 -31.5t-31.5 -21.5t-39 -8q-42 0 -67.5 26.5t-37.5 73.5z" />
    <glyph glyph-name="afii10018" unicode="&#x411;" horiz-adv-x="605" 
d="M270 285v-120h45q30 0 47.5 17t17.5 43t-17.5 43t-47.5 17h-45zM450 700q45 0 72.5 -26.5t27.5 -68.5t-27.5 -68.5t-72.5 -26.5h-180v-60h60q64 0 112.5 -16t81.5 -45.5t49.5 -71t16.5 -92.5t-16.5 -92.5t-49.5 -71t-81.5 -45.5t-112.5 -16h-165q-45 0 -72.5 27.5
t-27.5 72.5v500q0 45 27.5 72.5t72.5 27.5h285z" />
    <glyph glyph-name="afii10019" unicode="&#x412;" horiz-adv-x="610" 
d="M270 540v-105h30q19 0 32 14.5t13 40.5q0 23 -13 36.5t-32 13.5h-30zM270 285v-125h55q23 0 39 17.5t16 47.5q0 26 -16 43t-39 17h-55zM165 700h155q128 0 184 -49.5t56 -135.5q0 -40 -13 -65.5t-29 -41.5q-19 -18 -43 -28v-10q32 -10 58 -32q23 -19 40 -50.5t17 -82.5
q0 -94 -60.5 -149.5t-184.5 -55.5h-180q-45 0 -72.5 27.5t-27.5 72.5v500q0 45 27.5 72.5t72.5 27.5z" />
    <glyph glyph-name="afii10020" unicode="&#x413;" horiz-adv-x="530" 
d="M270 510v-420q0 -45 -28 -72.5t-77 -27.5q-45 0 -72.5 27.5t-27.5 72.5v510q0 45 27.5 72.5t72.5 27.5h265q45 0 72.5 -26.5t27.5 -68.5t-27.5 -68.5t-72.5 -26.5h-160z" />
    <glyph glyph-name="afii10021" unicode="&#x414;" horiz-adv-x="665" 
d="M-10 -50v160q0 15 6 29.5t17 25.5t25.5 18t31.5 7q11 18 20 43q8 22 14 50.5t6 66.5v250q0 45 27.5 72.5t72.5 27.5h265q45 0 72.5 -27.5t27.5 -72.5v-410q17 0 31.5 -7t25.5 -18t17 -25.5t6 -29.5v-160q0 -45 -28 -72.5t-77 -27.5q-45 0 -72.5 27.5t-27.5 72.5v50h-255
v-50q0 -45 -27.5 -72.5t-72.5 -27.5q-49 0 -77 27.5t-28 72.5zM370 200v310h-55v-160q0 -38 -5.5 -64.5t-11.5 -42.5q-8 -20 -18 -33v-10h90z" />
    <glyph glyph-name="afii10022" unicode="&#x415;" horiz-adv-x="580" 
d="M460 510h-190v-75h130q42 0 66 -23.5t24 -61.5t-24 -61.5t-66 -23.5h-130v-75h200q45 0 72.5 -26.5t27.5 -68.5t-27.5 -68.5t-72.5 -26.5h-305q-45 0 -72.5 27.5t-27.5 72.5v500q0 45 27.5 72.5t72.5 27.5h295q45 0 72.5 -26.5t27.5 -68.5t-27.5 -68.5t-72.5 -26.5z" />
    <glyph glyph-name="afii10024" unicode="&#x416;" horiz-adv-x="825" 
d="M150 390l-110 140q-8 9 -15 21q-6 11 -10.5 25.5t-4.5 33.5q0 49 24 74.5t66 25.5q21 0 36 -6t25 -14q11 -9 19 -20l130 -195v135q0 45 27.5 72.5t72.5 27.5q49 0 77 -27.5t28 -72.5v-135l130 195q8 11 19 20q11 8 25.5 14t35.5 6q42 0 66 -25.5t24 -74.5
q0 -19 -4.5 -33.5t-10.5 -25.5q-7 -12 -15 -21l-110 -140l120 -210q8 -15 15 -30q6 -14 10.5 -29.5t4.5 -30.5q0 -45 -25.5 -72.5t-74.5 -27.5q-23 0 -39 8t-26 17q-12 11 -20 25l-110 195l-15 -25v-120q0 -45 -28 -72.5t-77 -27.5q-45 0 -72.5 27.5t-27.5 72.5v120l-15 25
l-110 -195q-8 -14 -20 -25q-11 -10 -26.5 -17.5t-38.5 -7.5q-49 0 -74.5 27.5t-25.5 72.5q0 15 4.5 31t10.5 29q7 15 15 30z" />
    <glyph glyph-name="afii10025" unicode="&#x417;" horiz-adv-x="525" 
d="M280 495q0 19 -13 32t-32 13q-22 0 -34 -12.5t-23.5 -27.5t-27 -27.5t-45.5 -12.5q-38 0 -64 26t-26 64q0 32 15.5 62.5t44.5 54.5t71 38.5t94 14.5q60 0 106.5 -16t78.5 -45t48.5 -69.5t16.5 -89.5q0 -42 -14 -68.5t-31 -42.5q-20 -19 -45 -29v-10q29 -10 53 -29
q21 -17 36.5 -43t15.5 -68q0 -49 -18.5 -91t-53.5 -73t-86 -48.5t-117 -17.5q-52 0 -94.5 15.5t-72.5 39.5t-46.5 54.5t-16.5 60.5q0 38 26 64t64 26q28 0 45.5 -12.5t32.5 -27.5t32 -27.5t45 -12.5q19 0 34.5 16t15.5 39q0 26 -18 43t-52 17q-90 0 -90 85t90 85
q23 0 39 15.5t16 34.5z" />
    <glyph glyph-name="afii10026" unicode="&#x418;" horiz-adv-x="665" 
d="M165 -10q-45 0 -72.5 27.5t-27.5 72.5v520q0 45 27.5 72.5t72.5 27.5q49 0 77 -27.5t28 -72.5v-230h10l105 230q23 49 50 74.5t65 25.5q45 0 72.5 -27.5t27.5 -72.5v-520q0 -45 -27.5 -72.5t-72.5 -27.5q-49 0 -77 27.5t-28 72.5v230h-10l-110 -230q-23 -49 -47.5 -74.5
t-62.5 -25.5z" />
    <glyph glyph-name="afii10027" unicode="&#x419;" horiz-adv-x="665" 
d="M165 -10q-45 0 -72.5 27.5t-27.5 72.5v520q0 45 27.5 72.5t72.5 27.5q49 0 77 -27.5t28 -72.5v-230h10l105 230q23 49 50 74.5t65 25.5q45 0 72.5 -27.5t27.5 -72.5v-520q0 -45 -27.5 -72.5t-72.5 -27.5q-49 0 -77 27.5t-28 72.5v230h-10l-110 -230q-23 -49 -47.5 -74.5
t-62.5 -25.5zM335 740q-37 0 -69.5 13t-55.5 34.5t-36.5 49.5t-13.5 58q0 26 19.5 45.5t45.5 19.5q23 0 34.5 -9.5t20.5 -20.5t21 -20.5t34 -9.5q23 0 34.5 9.5t20.5 20.5t21 20.5t34 9.5q26 0 45.5 -19.5t19.5 -45.5q0 -30 -13.5 -58t-36.5 -49.5t-55 -34.5t-70 -13z" />
    <glyph glyph-name="afii10028" unicode="&#x41a;" horiz-adv-x="595" 
d="M295 245l-25 -35v-120q0 -45 -28 -72.5t-77 -27.5q-45 0 -72.5 27.5t-27.5 72.5v520q0 45 27.5 72.5t72.5 27.5q49 0 77 -27.5t28 -72.5v-140l135 200q8 11 19 20q11 8 25.5 14t35.5 6q42 0 66 -25.5t24 -74.5q0 -19 -4.5 -33.5t-10.5 -25.5q-7 -12 -15 -21l-100 -135
l120 -215q8 -15 15 -30q6 -14 10.5 -29.5t4.5 -30.5q0 -45 -25.5 -72.5t-74.5 -27.5q-23 0 -39 8t-26 17q-12 11 -20 25z" />
    <glyph glyph-name="afii10029" unicode="&#x41b;" horiz-adv-x="635" 
d="M95 360v240q0 45 27.5 72.5t72.5 27.5h275q45 0 72.5 -27.5t27.5 -72.5v-510q0 -45 -27.5 -72.5t-72.5 -27.5q-49 0 -77 27.5t-28 72.5v420h-65v-150q0 -99 -19.5 -171t-51 -118.5t-71 -68.5t-78.5 -22q-38 0 -64 26t-26 64q0 29 8 43.5t20 24.5l24 22q14 12 25.5 34.5
t19.5 61.5t8 104z" />
    <glyph glyph-name="afii10030" unicode="&#x41c;" horiz-adv-x="800" 
d="M403 366l47 234q12 60 49.5 90t90.5 30q59 0 91.5 -33.5t38.5 -86.5l50 -410q3 -19 5 -37q2 -17 3.5 -33.5t1.5 -29.5q0 -45 -27.5 -72.5t-72.5 -27.5t-70 27.5t-30 72.5l-30 260h-5l-35 -190q-10 -53 -39 -76.5t-71 -23.5t-71 23.5t-39 76.5l-35 190h-5l-30 -260
q-5 -45 -30 -72.5t-70 -27.5t-72.5 27.5t-27.5 72.5q0 13 1.5 30.5t3.5 32.5q2 18 5 37l50 410q6 53 38.5 86.5t91.5 33.5q53 0 90.5 -30t49.5 -90l47 -234h6z" />
    <glyph glyph-name="afii10031" unicode="&#x41d;" horiz-adv-x="660" 
d="M270 610v-175h120v175q0 45 28 72.5t77 27.5q45 0 72.5 -27.5t27.5 -72.5v-520q0 -45 -27.5 -72.5t-72.5 -27.5q-49 0 -77 27.5t-28 72.5v165h-120v-165q0 -45 -28 -72.5t-77 -27.5q-45 0 -72.5 27.5t-27.5 72.5v520q0 45 27.5 72.5t72.5 27.5q49 0 77 -27.5t28 -72.5z
" />
    <glyph glyph-name="afii10032" unicode="&#x41e;" horiz-adv-x="630" 
d="M315 140q26 0 45.5 23.5t19.5 76.5v220q0 53 -19.5 76.5t-45.5 23.5t-45.5 -23.5t-19.5 -76.5v-220q0 -53 19.5 -76.5t45.5 -23.5zM315 -20q-60 0 -110.5 21t-87 60t-57 94.5t-20.5 124.5v140q0 69 20.5 124.5t57 94.5t87 60t110.5 21t110.5 -21t87 -60t57 -94.5
t20.5 -124.5v-140q0 -69 -20.5 -124.5t-57 -94.5t-87 -60t-110.5 -21z" />
    <glyph glyph-name="afii10033" unicode="&#x41f;" horiz-adv-x="660" 
d="M165 700h330q45 0 72.5 -27.5t27.5 -72.5v-510q0 -45 -27.5 -72.5t-72.5 -27.5q-49 0 -77 27.5t-28 72.5v420h-120v-420q0 -45 -28 -72.5t-77 -27.5q-45 0 -72.5 27.5t-27.5 72.5v510q0 45 27.5 72.5t72.5 27.5z" />
    <glyph glyph-name="afii10034" unicode="&#x420;" horiz-adv-x="595" 
d="M270 380h30q26 0 45.5 20.5t19.5 54.5t-19.5 54.5t-45.5 20.5h-30v-150zM315 210h-45v-120q0 -45 -28 -72.5t-77 -27.5q-45 0 -72.5 27.5t-27.5 72.5v510q0 45 27.5 72.5t72.5 27.5h150q60 0 108 -18t82 -50t52 -77.5t18 -99.5t-18 -99.5t-52 -77.5t-82 -50t-108 -18z
" />
    <glyph glyph-name="afii10035" unicode="&#x421;" horiz-adv-x="560" 
d="M40 280v140q0 69 20.5 124.5t57 94.5t87 60t110.5 21q53 0 94.5 -14.5t70.5 -38.5t44.5 -54.5t15.5 -62.5q0 -38 -26 -64t-64 -26q-30 0 -46.5 12.5t-28.5 27.5t-24.5 27.5t-35.5 12.5q-26 0 -45.5 -23.5t-19.5 -76.5v-170q0 -60 19.5 -85t45.5 -25q21 0 34.5 12.5
t28 27.5t32 27.5t45.5 12.5q38 0 64 -26t26 -64q0 -30 -16 -60.5t-46 -54.5t-72.5 -39.5t-95.5 -15.5q-60 0 -110 21t-87 60t-57.5 94.5t-20.5 124.5z" />
    <glyph glyph-name="afii10036" unicode="&#x422;" 
d="M100 700h335q45 0 72.5 -26.5t27.5 -68.5t-27.5 -68.5t-72.5 -26.5h-65v-420q0 -45 -28 -72.5t-77 -27.5q-45 0 -72.5 27.5t-27.5 72.5v420h-65q-45 0 -72.5 26.5t-27.5 68.5t27.5 68.5t72.5 26.5z" />
    <glyph glyph-name="afii10037" unicode="&#x423;" horiz-adv-x="546" 
d="M185 180l-165 335q-3 7 -11.5 34t-8.5 61q0 45 27.5 72.5t72.5 27.5q26 0 44 -7t30 -20.5t20.5 -31.5t15.5 -41l70 -210h10l45 210q5 23 12 41t19.5 31.5t31.5 20.5t47 7q45 0 72 -27.5t28 -72.5q0 -17 -3 -33t-6.5 -28.5t-6.5 -20.5l-4 -8l-115 -330q-14 -41 -36.5 -79
t-53.5 -67t-69.5 -46.5t-85.5 -17.5q-60 0 -95 33t-35 82q0 38 26 64t64 26q23 0 30 -7.5t15 -7.5q6 0 11 5q2 2 4 5z" />
    <glyph glyph-name="afii10038" unicode="&#x424;" horiz-adv-x="815" 
d="M510 670v-25q9 4 22 8q11 3 26.5 5t36.5 2q38 0 71.5 -16t58.5 -47.5t40 -78t15 -108.5v-120q0 -62 -15 -108.5t-40 -78t-58.5 -47.5t-71.5 -16q-21 0 -36.5 2.5t-26.5 5.5q-13 3 -22 7v-25q0 -45 -28 -72.5t-77 -27.5q-45 0 -72.5 27.5t-27.5 72.5v25q-9 -4 -22 -7
q-11 -4 -26.5 -6t-36.5 -2q-37 0 -71 16t-59 47.5t-40 78t-15 108.5v120q0 62 15 108.5t40 78t59 47.5t71 16q21 0 36.5 -2.5t26.5 -4.5q13 -4 22 -8v25q0 45 27.5 72.5t72.5 27.5q49 0 77 -27.5t28 -72.5zM575 270v160q0 34 -10 47t-25 13q-6 0 -11 -1.5t-10 -3.5t-9 -5
v-260q4 -3 9 -5t10 -3.5t11 -1.5q15 0 25 13t10 47zM240 430v-160q0 -34 10 -47t25 -13q6 0 11 1.5t10 3.5t9 5v260q-4 3 -9 5t-10 3.5t-11 1.5q-15 0 -25 -13t-10 -47z" />
    <glyph glyph-name="afii10039" unicode="&#x425;" horiz-adv-x="540" 
d="M155 360l-105 160q-2 4 -7 13t-10 21t-9 26.5t-4 29.5q0 45 26 72.5t64 27.5q23 0 40.5 -9.5t30 -21.5t20 -23.5t9.5 -15.5l55 -90h10l55 90q2 4 9.5 15.5t20 23.5t30.5 21.5t40 9.5q38 0 64 -27.5t26 -72.5q0 -15 -4 -29.5t-9 -26.5t-10 -21t-7 -13l-105 -160l110 -170
q11 -17 20 -35q8 -16 14 -33t6 -32q0 -45 -28 -72.5t-77 -27.5q-21 0 -36.5 9.5t-26.5 20.5q-13 13 -22 30l-70 115h-10l-70 -115q-9 -17 -22 -30q-11 -12 -26.5 -21t-36.5 -9q-49 0 -77 27.5t-28 72.5q0 15 6 32.5t14 32.5q9 18 20 35z" />
    <glyph glyph-name="afii10040" unicode="&#x426;" horiz-adv-x="675" 
d="M665 110v-160q0 -45 -28 -72.5t-77 -27.5q-45 0 -72.5 27.5t-27.5 72.5v50h-295q-45 0 -72.5 27.5t-27.5 72.5v510q0 45 27.5 72.5t72.5 27.5q49 0 77 -27.5t28 -72.5v-420h110v420q0 45 28 72.5t77 27.5q45 0 72.5 -27.5t27.5 -72.5v-420q17 0 31.5 -7t25.5 -18
t17 -25.5t6 -29.5z" />
    <glyph glyph-name="afii10041" unicode="&#x427;" horiz-adv-x="630" 
d="M360 400v210q0 45 28 72.5t77 27.5q45 0 72.5 -27.5t27.5 -72.5v-520q0 -45 -27.5 -72.5t-72.5 -27.5q-49 0 -77 27.5t-28 72.5v140q-12 -6 -29 -10q-15 -4 -35 -7t-46 -3q-43 0 -80.5 17t-65 50.5t-43.5 84.5t-16 118v130q0 45 27.5 72.5t72.5 27.5q49 0 77 -27.5
t28 -72.5v-155q0 -42 13 -58.5t32 -16.5q15 0 27 3t21 7t17 10z" />
    <glyph glyph-name="afii10042" unicode="&#x428;" horiz-adv-x="925" 
d="M565 610v-420h90v420q0 45 28 72.5t77 27.5q45 0 72.5 -27.5t27.5 -72.5v-510q0 -45 -27.5 -72.5t-72.5 -27.5h-595q-45 0 -72.5 27.5t-27.5 72.5v510q0 45 27.5 72.5t72.5 27.5q49 0 77 -27.5t28 -72.5v-420h90v420q0 45 27.5 72.5t72.5 27.5q49 0 77 -27.5t28 -72.5z
" />
    <glyph glyph-name="afii10043" unicode="&#x429;" horiz-adv-x="950" 
d="M565 610v-420h90v420q0 45 28 72.5t77 27.5q45 0 72.5 -27.5t27.5 -72.5v-420q17 0 31.5 -7t25.5 -18t17 -25.5t6 -29.5v-160q0 -45 -28 -72.5t-77 -27.5q-45 0 -72.5 27.5t-27.5 72.5v50h-570q-45 0 -72.5 27.5t-27.5 72.5v510q0 45 27.5 72.5t72.5 27.5q49 0 77 -27.5
t28 -72.5v-420h90v420q0 45 27.5 72.5t72.5 27.5q49 0 77 -27.5t28 -72.5z" />
    <glyph glyph-name="afii10044" unicode="&#x42a;" horiz-adv-x="640" 
d="M345 320h-20v-150h20q26 0 45.5 20.5t19.5 54.5t-19.5 54.5t-45.5 20.5zM90 700h130q49 0 77 -27.5t28 -72.5v-110h35q60 0 108 -18t82 -50t52 -77.5t18 -99.5t-18 -99.5t-52 -77.5t-82 -50t-108 -18h-140q-45 0 -72.5 27.5t-27.5 72.5v410h-30q-45 0 -72.5 26.5
t-27.5 68.5t27.5 68.5t72.5 26.5z" />
    <glyph glyph-name="afii10045" unicode="&#x42b;" horiz-adv-x="885" 
d="M290 320h-20v-150h20q26 0 45.5 20.5t19.5 54.5t-19.5 54.5t-45.5 20.5zM270 490h35q60 0 108 -18t82 -50t52 -77.5t18 -99.5t-18 -99.5t-52 -77.5t-82 -50t-108 -18h-140q-45 0 -72.5 27.5t-27.5 72.5v510q0 45 27.5 72.5t72.5 27.5q49 0 77 -27.5t28 -72.5v-120z
M820 610v-520q0 -45 -28 -72.5t-77 -27.5q-45 0 -72.5 27.5t-27.5 72.5v520q0 45 27.5 72.5t72.5 27.5q49 0 77 -27.5t28 -72.5z" />
    <glyph glyph-name="afii10046" unicode="&#x42c;" horiz-adv-x="595" 
d="M300 320h-30v-150h30q26 0 45.5 20.5t19.5 54.5t-19.5 54.5t-45.5 20.5zM270 490h45q60 0 108 -18t82 -50t52 -77.5t18 -99.5t-18 -99.5t-52 -77.5t-82 -50t-108 -18h-150q-45 0 -72.5 27.5t-27.5 72.5v510q0 45 27.5 72.5t72.5 27.5q49 0 77 -27.5t28 -72.5v-120z" />
    <glyph glyph-name="afii10047" unicode="&#x42d;" horiz-adv-x="560" 
d="M520 420v-140q0 -69 -20.5 -124.5t-57.5 -94.5t-87 -60t-110 -21q-52 0 -94.5 15.5t-72.5 39.5t-46.5 54.5t-16.5 60.5q0 38 26 64t64 26q28 0 45.5 -12.5t32 -27.5t28 -27.5t34.5 -12.5q34 0 54.5 25t20.5 85h-65q-53 0 -76.5 21.5t-23.5 63.5t23.5 63.5t76.5 21.5h65
q0 53 -20.5 76.5t-54.5 23.5q-22 0 -35 -12.5t-25 -27.5t-28.5 -27.5t-46.5 -12.5q-38 0 -64 26t-26 64q0 32 15.5 62.5t44.5 54.5t71 38.5t94 14.5q60 0 110.5 -21t87 -60t57 -94.5t20.5 -124.5z" />
    <glyph glyph-name="afii10048" unicode="&#x42e;" horiz-adv-x="875" 
d="M575 -20q-54 0 -100 18.5t-80 53.5t-55 86t-24 117h-46v-165q0 -45 -28 -72.5t-77 -27.5q-45 0 -72.5 27.5t-27.5 72.5v520q0 45 27.5 72.5t72.5 27.5q49 0 77 -27.5t28 -72.5v-175h45q2 68 22.5 120.5t55 89.5t81 56t101.5 19q56 0 104 -20t82.5 -58.5t54 -94.5
t19.5 -127v-140q0 -71 -19.5 -127t-54 -94.5t-82.5 -58.5t-104 -20zM575 140q23 0 36.5 23t13.5 72v230q0 56 -15.5 75.5t-34.5 19.5q-23 0 -36.5 -19t-13.5 -76v-230q0 -49 13.5 -72t36.5 -23z" />
    <glyph glyph-name="afii10049" unicode="&#x42f;" horiz-adv-x="615" 
d="M330 250l-120 -200q-2 -4 -8 -13.5t-17.5 -20t-28.5 -18.5t-41 -8q-45 0 -72.5 27.5t-27.5 72.5q0 30 9.5 52.5t20.5 37.5l80 120v10q-22 13 -40 36q-16 20 -28 51t-12 78q0 102 65.5 163.5t189.5 61.5h150q45 0 72.5 -27.5t27.5 -72.5v-510q0 -45 -27.5 -72.5
t-72.5 -27.5q-49 0 -77 27.5t-28 72.5v160h-15zM345 410v130h-25q-26 0 -43 -17.5t-17 -47.5t17 -47.5t43 -17.5h25z" />
    <glyph glyph-name="afii10065" unicode="&#x430;" horiz-adv-x="495" 
d="M450 330v-240q0 -38 -26 -64t-64 -26q-25 0 -41 8t-26 17q-11 11 -18 25h-10q-9 -17 -22 -30q-13 -12 -29 -21t-39 -9q-32 0 -59.5 12t-47.5 34t-31.5 53.5t-11.5 70.5q0 79 50.5 124.5t159.5 45.5h30q0 34 -12.5 49.5t-27.5 15.5q-17 0 -25.5 -9.5t-16.5 -20.5
t-19 -20.5t-34 -9.5q-75 0 -75 75q0 21 12.5 43t36.5 40t58.5 30t77.5 12q98 0 154 -55.5t56 -149.5zM265 195v20h-30q-11 0 -18 -9.5t-7 -35.5t7 -35.5t18 -9.5t20.5 14t9.5 56z" />
    <glyph glyph-name="afii10066" unicode="&#x431;" horiz-adv-x="500" 
d="M260 125q15 0 25 12.5t10 42.5v100q0 30 -10 42.5t-25 12.5t-25 -12.5t-10 -42.5v-100q0 -30 10 -42.5t25 -12.5zM204 690l96 26q5 1 15 3.5t21 4.5l22 4q11 2 17 2q38 0 64 -23.5t26 -61.5q0 -21 -7.5 -36t-20 -26t-27.5 -17.5t-30 -10.5l-120 -30q-26 -7 -40.5 -32
t-14.5 -63h10q7 10 19 18q11 7 28 12t43 5q38 0 70 -14t55 -42.5t36.5 -72t13.5 -101.5v-20q0 -51 -17.5 -93t-47.5 -72.5t-70 -47.5t-85 -17q-49 0 -89.5 17t-69.5 47.5t-45 72.5t-16 93v215q0 53 12.5 96.5t34.5 76.5t52 55.5t65 31.5z" />
    <glyph glyph-name="afii10067" unicode="&#x432;" horiz-adv-x="490" 
d="M235 395v-80h5q15 0 25 10.5t10 29.5t-10 29.5t-25 10.5h-5zM235 205v-80h15q40 0 40 40t-40 40h-15zM275 0h-135q-38 0 -64 26t-26 64v340q0 37 26 63.5t64 26.5h110q105 0 152.5 -40.5t47.5 -104.5q0 -28 -11 -46.5t-24 -29.5q-15 -12 -35 -19v-10q27 -7 48 -23
q19 -15 33 -38.5t14 -63.5q0 -30 -12.5 -56.5t-37 -46t-62 -31t-88.5 -11.5z" />
    <glyph glyph-name="afii10068" unicode="&#x433;" horiz-adv-x="420" 
d="M140 520h190q42 0 66 -23.5t24 -61.5t-24 -61.5t-66 -23.5h-95v-265q0 -38 -26.5 -64t-68.5 -26q-38 0 -64 26t-26 64v345q0 38 26 64t64 26z" />
    <glyph glyph-name="afii10069" unicode="&#x434;" horiz-adv-x="560" 
d="M170 520h225q42 0 68.5 -26t26.5 -64v-270q26 0 43 -16t17 -39v-135q0 -38 -26.5 -64t-68.5 -26q-38 0 -64 26t-26 64v30h-190v-30q0 -38 -26 -64t-64 -26q-42 0 -68.5 26t-26.5 64v135q0 23 17 39t43 16q8 12 15 29q6 15 10.5 35t4.5 46v160q0 38 26 64t64 26zM265 360
v-90q0 -26 -4.5 -45t-10.5 -31q-7 -15 -15 -24v-10h70v200h-40z" />
    <glyph glyph-name="afii10070" unicode="&#x435;" horiz-adv-x="480" 
d="M215 210v-40q0 -23 10 -34t25 -11q23 0 33.5 8.5t20 19t22.5 19t39 8.5q30 0 50 -20t20 -50q0 -21 -13 -43t-37 -40t-59.5 -30t-80.5 -12t-84 17t-68.5 47.5t-46 72.5t-16.5 93v90q0 51 16.5 93t46 72.5t68.5 47.5t84 17q43 0 81.5 -17t67 -47.5t45 -72.5t16.5 -93v-15
q0 -38 -20.5 -59t-54.5 -21h-165zM215 315h60v20q0 26 -9.5 38t-20.5 12t-20.5 -12t-9.5 -38v-20z" />
    <glyph glyph-name="afii10072" unicode="&#x436;" horiz-adv-x="685" 
d="M30 165l80 125l-50 60q-3 3 -10.5 11.5t-15 20.5t-13.5 27t-6 31q0 15 7 29.5t19 25.5t28.5 18t35.5 7q21 0 36.5 -8t26.5 -18t17.5 -20t9.5 -14l55 -85v55q0 38 26 64t64 26q42 0 68.5 -26t26.5 -64v-55l55 85q3 4 9.5 14t17.5 20t26.5 18t36.5 8q19 0 35.5 -7t28.5 -18
t19 -25.5t7 -29.5q0 -16 -6 -31t-13.5 -27t-15 -20.5t-10.5 -11.5l-50 -60l80 -125q8 -12 19 -33t11 -47q0 -38 -26 -64t-64 -26q-21 0 -35.5 5.5t-24.5 13t-15.5 15t-7.5 11.5l-67 125l-10 -10v-70q0 -38 -26.5 -64t-68.5 -26q-38 0 -64 26t-26 64v70l-10 10l-67 -125
q-2 -4 -7.5 -11.5t-15.5 -15t-24.5 -13t-35.5 -5.5q-38 0 -64 26t-26 64q0 26 11 47t19 33z" />
    <glyph glyph-name="afii10073" unicode="&#x437;" horiz-adv-x="430" 
d="M180 325q15 0 25 10.5t10 29.5q0 15 -10 25t-25 10t-22.5 -10t-15 -22.5t-18.5 -22.5t-34 -10q-75 0 -75 75q0 21 12.5 43t36.5 40t58.5 30t77.5 12q51 0 88.5 -11.5t62 -31.5t37 -47.5t12.5 -59.5t-12.5 -52.5t-27.5 -31.5q-18 -14 -40 -21v-10q27 -8 48 -24
q19 -15 33 -37.5t14 -58.5q0 -32 -14.5 -61.5t-42.5 -52.5t-67.5 -37t-90.5 -14q-45 0 -80.5 11t-59.5 29t-37 40.5t-13 44.5q0 34 20.5 54.5t54.5 20.5q24 0 36.5 -10t22 -22.5t20 -22.5t31.5 -10q15 0 25 10t10 25q0 19 -13.5 29.5t-36.5 10.5q-34 0 -52 17.5t-18 47.5
t18 47.5t52 17.5z" />
    <glyph glyph-name="afii10074" unicode="&#x438;" horiz-adv-x="540" 
d="M235 435v-130h10l55 130q16 38 41 64t59 26q38 0 64 -26t26 -64v-350q0 -38 -26 -64t-64 -26q-42 0 -68.5 26t-26.5 64v130h-10l-58 -129q-19 -42 -41 -66.5t-56 -24.5q-37 0 -63.5 26t-26.5 64v350q0 38 26 64t65 26q41 0 67.5 -26t26.5 -64z" />
    <glyph glyph-name="afii10075" unicode="&#x439;" horiz-adv-x="540" 
d="M235 435v-130h10l55 130q16 38 41 64t59 26q38 0 64 -26t26 -64v-350q0 -38 -26 -64t-64 -26q-42 0 -68.5 26t-26.5 64v130h-10l-58 -129q-19 -42 -41 -66.5t-56 -24.5q-37 0 -63.5 26t-26.5 64v350q0 38 26 64t65 26q41 0 67.5 -26t26.5 -64zM270 560q-32 0 -60 12
t-49 31t-33.5 43.5t-12.5 48.5q0 26 19.5 45.5t45.5 19.5q23 0 34 -8.5t18.5 -19t15 -19t22.5 -8.5t22.5 8.5t15 19t19 19t33.5 8.5q26 0 45.5 -19.5t19.5 -45.5q0 -24 -12.5 -48.5t-33.5 -43.5t-49 -31t-60 -12z" />
    <glyph glyph-name="afii10076" unicode="&#x43a;" horiz-adv-x="485" 
d="M380 290l75 -125q8 -12 19 -33t11 -47q0 -38 -26 -64t-64 -26q-21 0 -35.5 5.5t-24.5 13t-15.5 15t-7.5 11.5l-62 125l-15 -15v-65q0 -38 -26.5 -64t-68.5 -26q-38 0 -64 26t-26 64v345q0 38 26 64t64 26q42 0 68.5 -26t26.5 -64v-65l60 95q3 4 9.5 14t17.5 20t26.5 18
t36.5 8q19 0 35.5 -7t28.5 -18t19 -25.5t7 -29.5q0 -16 -6 -30.5t-14 -26.5t-15 -20.5t-10 -12.5z" />
    <glyph glyph-name="afii10077" unicode="&#x43b;" 
d="M260 360v-85q0 -75 -15.5 -129.5t-42.5 -90.5t-62.5 -53t-74.5 -17q-30 0 -52.5 22.5t-22.5 52.5q0 24 6.5 38t15.5 24.5t20.5 20.5t20.5 26t15.5 41t6.5 65v155q0 38 26 64t64 26h235q35 0 60 -26t25 -64v-345q0 -38 -26 -64t-64 -26q-42 0 -68.5 26.5t-26.5 63.5v275
h-40z" />
    <glyph glyph-name="afii10078" unicode="&#x43c;" horiz-adv-x="650" 
d="M330 290l35 140q11 42 36 68.5t74 26.5t76.5 -26.5t33.5 -68.5l40 -290q1 -8 3 -22.5t2 -32.5q0 -38 -26 -64t-64 -26q-42 0 -63 23.5t-27 66.5l-20 145h-10l-20 -115q-5 -30 -23 -47.5t-52 -17.5t-52 17.5t-23 47.5l-20 115h-10l-20 -145q-6 -43 -27 -66.5t-63 -23.5
q-38 0 -64 26t-26 64q0 18 2 32.5t3 22.5l40 290q6 42 33.5 68.5t76.5 26.5t74 -26.5t36 -68.5l35 -140h10z" />
    <glyph glyph-name="afii10079" unicode="&#x43d;" horiz-adv-x="530" 
d="M235 435v-110h60v110q0 38 26.5 64t68.5 26q38 0 64 -26t26 -64v-350q0 -38 -26 -64t-64 -26q-42 0 -68.5 26t-26.5 64v85h-60v-85q0 -38 -26.5 -64t-68.5 -26q-38 0 -64 26t-26 64v350q0 38 26 64t64 26q42 0 68.5 -26t26.5 -64z" />
    <glyph glyph-name="afii10080" unicode="&#x43e;" horiz-adv-x="500" 
d="M250 130q15 0 25 12.5t10 42.5v150q0 30 -10 42.5t-25 12.5t-25 -12.5t-10 -42.5v-150q0 -30 10 -42.5t25 -12.5zM250 -15q-47 0 -87 17t-69.5 47.5t-46.5 72.5t-17 93v90q0 51 17 93t46.5 72.5t69.5 47.5t87 17t87 -17t69.5 -47.5t46.5 -72.5t17 -93v-90q0 -51 -17 -93
t-46.5 -72.5t-69.5 -47.5t-87 -17z" />
    <glyph glyph-name="afii10081" unicode="&#x43f;" horiz-adv-x="530" 
d="M140 520h250q38 0 64 -26t26 -64v-345q0 -38 -26 -64t-64 -26q-42 0 -68.5 26t-26.5 64v280h-60v-280q0 -38 -26.5 -64t-68.5 -26q-38 0 -64 26t-26 64v345q0 38 26 64t64 26z" />
    <glyph glyph-name="afii10082" unicode="&#x440;" horiz-adv-x="520" 
d="M50 -130v565q0 38 26 64t64 26q25 0 41 -8t26 -17q11 -11 18 -25h10q9 17 23 30q12 12 28 21t39 9q34 0 64 -14t52.5 -42.5t35.5 -72t13 -101.5v-90q0 -58 -13 -101.5t-35.5 -72t-52.5 -42.5t-64 -14q-21 0 -36 4t-25 8q-11 6 -19 13h-10v-140q0 -38 -26.5 -64t-68.5 -26
q-38 0 -64 26t-26 64zM270 390q-15 0 -25 -12.5t-10 -42.5v-150q0 -30 10 -42.5t25 -12.5t25 12.5t10 42.5v150q0 30 -10 42.5t-25 12.5z" />
    <glyph glyph-name="afii10083" unicode="&#x441;" horiz-adv-x="450" 
d="M250 -15q-47 0 -87 17t-69.5 47.5t-46.5 72.5t-17 93v90q0 51 17 93t46.5 72.5t69.5 47.5t87 17q41 0 74.5 -12t57 -31.5t36 -45t12.5 -51.5q0 -34 -23 -57t-57 -23q-28 0 -41.5 10t-21.5 23l-15 22q-7 10 -22 10t-25 -12.5t-10 -42.5v-130q0 -30 10 -42.5t25 -12.5
q17 0 25 10t16.5 22.5t22 22.5t41.5 10q34 0 57 -23t23 -57q0 -26 -12.5 -51.5t-36.5 -45t-58.5 -31.5t-77.5 -12z" />
    <glyph glyph-name="afii10084" unicode="&#x442;" horiz-adv-x="445" 
d="M355 350h-40v-265q0 -38 -26.5 -64t-68.5 -26q-38 0 -64 26t-26 64v265h-40q-42 0 -66 23.5t-24 61.5t24 61.5t66 23.5h265q42 0 66 -23.5t24 -61.5t-24 -61.5t-66 -23.5z" />
    <glyph glyph-name="afii10085" unicode="&#x443;" horiz-adv-x="455" 
d="M120 -30l25 70l-125 310q-2 5 -5.5 14.5t-6.5 22t-5.5 25.5t-2.5 23q0 21 7.5 37.5t20.5 28t29 18t33 6.5q21 0 35 -7.5t23.5 -19.5t16 -27t10.5 -31l50 -170h10l40 170q8 32 28.5 58.5t61.5 26.5q38 0 64 -26t26 -64q0 -11 -2.5 -24t-5.5 -25t-6 -21.5t-5 -14.5
l-151 -485q-14 -42 -35.5 -63.5t-59.5 -21.5q-42 0 -68.5 26t-26.5 64q0 12 3.5 27.5t7.5 30.5l9 26q4 12 5 16z" />
    <glyph glyph-name="afii10086" unicode="&#x444;" horiz-adv-x="715" 
d="M240 135q9 0 18 5q4 2 7 5v230q-3 3 -7 5q-3 2 -7.5 3.5t-10.5 1.5q-11 0 -18 -8.5t-7 -31.5v-170q0 -23 7 -31.5t18 -8.5zM450 5v-135q0 -38 -26.5 -64t-68.5 -26q-38 0 -64 26t-26 64v135h-10q-6 -4 -16 -8q-8 -3 -20 -5t-29 -2q-30 0 -58.5 15t-51 44t-36.5 72t-14 99
v70q0 60 14 105t36.5 75t51 45t58.5 15q19 0 31.5 -2.5t19.5 -4.5q9 -4 14 -8h10v115q0 38 26 64t64 26q42 0 68.5 -26t26.5 -64v-115h10q5 4 14 8q8 3 20 5t31 2q30 0 59 -15t51.5 -45t36 -75t13.5 -105v-70q0 -56 -13.5 -99t-36 -72t-51.5 -44t-59 -15q-17 0 -29 2.5
t-20 4.5q-10 4 -16 8h-10zM475 135q11 0 18 8.5t7 31.5v170q0 23 -7 31.5t-18 8.5q-9 0 -18 -5q-4 -2 -7 -5v-230q3 -3 7 -5q3 -2 7.5 -3.5t10.5 -1.5z" />
    <glyph glyph-name="afii10087" unicode="&#x445;" horiz-adv-x="450" 
d="M280 40l-50 80h-10l-50 -80q-15 -24 -30 -34.5t-45 -10.5q-34 0 -59.5 26t-25.5 64q0 23 6.5 42.5t23.5 42.5l70 95l-60 85q-16 23 -23 42.5t-7 42.5q0 38 25.5 64t59.5 26q30 0 46.5 -14t28.5 -31l40 -60h10l40 60q12 17 28.5 31t46.5 14q34 0 59.5 -26t25.5 -64
q0 -23 -7 -42.5t-23 -42.5l-60 -85l70 -95q17 -23 23.5 -42.5t6.5 -42.5q0 -38 -25.5 -64t-59.5 -26q-30 0 -45 10.5t-30 34.5z" />
    <glyph glyph-name="afii10088" unicode="&#x446;" horiz-adv-x="545" 
d="M535 105v-135q0 -38 -26.5 -64t-68.5 -26q-38 0 -64 26t-26 64v30h-210q-42 0 -66 23.5t-24 61.5v350q0 38 26 64t64 26q42 0 68.5 -26t26.5 -64v-275h55v275q0 38 26 64t64 26q42 0 68.5 -26t26.5 -64v-275q26 0 43 -16t17 -39z" />
    <glyph glyph-name="afii10089" unicode="&#x447;" horiz-adv-x="505" 
d="M215 435v-95q0 -26 7 -35.5t18 -9.5q6 0 11 1.5t10 3.5t9 5v130q0 38 26.5 64t68.5 26q38 0 64 -26t26 -64v-350q0 -38 -26 -64t-64 -26q-42 0 -68.5 26t-26.5 64v70q-11 -3 -24 -5t-29 -3.5t-37 -1.5q-68 0 -109 42.5t-41 117.5v130q0 38 26 64t64 26q42 0 68.5 -26
t26.5 -64z" />
    <glyph glyph-name="afii10090" unicode="&#x448;" horiz-adv-x="745" 
d="M465 435v-275h45v275q0 38 26 64t64 26q42 0 68.5 -26t26.5 -64v-350q0 -38 -24 -61.5t-66 -23.5h-465q-42 0 -66 23.5t-24 61.5v350q0 38 26 64t64 26q42 0 68.5 -26t26.5 -64v-275h45v275q0 38 26 64t64 26q42 0 68.5 -26t26.5 -64z" />
    <glyph glyph-name="afii10091" unicode="&#x449;" horiz-adv-x="765" 
d="M755 105v-135q0 -38 -26.5 -64t-68.5 -26q-38 0 -64 26t-26 64v30h-430q-42 0 -66 23.5t-24 61.5v350q0 38 26 64t64 26q42 0 68.5 -26t26.5 -64v-275h45v275q0 38 26 64t64 26q42 0 68.5 -26t26.5 -64v-275h45v275q0 38 26 64t64 26q42 0 68.5 -26t26.5 -64v-275
q26 0 43 -16t17 -39z" />
    <glyph glyph-name="afii10092" unicode="&#x44a;" horiz-adv-x="525" 
d="M290 225v-90h5q30 0 30 45t-30 45h-5zM105 350h-25q-42 0 -66 23.5t-24 61.5t24 61.5t66 23.5h115q42 0 68.5 -26t26.5 -64v-70h15q49 0 87 -13.5t64.5 -37.5t40 -57t13.5 -72t-13.5 -72t-40 -57t-64.5 -37.5t-87 -13.5h-110q-38 0 -64 26t-26 64v260z" />
    <glyph glyph-name="afii10093" unicode="&#x44b;" horiz-adv-x="720" 
d="M235 225v-90h5q30 0 30 45t-30 45h-5zM50 90v345q0 38 26 64t64 26q42 0 68.5 -26t26.5 -64v-75h15q49 0 87 -13.5t64.5 -37.5t40 -57t13.5 -72t-13.5 -72t-40 -57t-64.5 -37.5t-87 -13.5h-110q-38 0 -64 26t-26 64zM485 85v350q0 38 26.5 64t68.5 26q38 0 64 -26t26 -64
v-350q0 -38 -26 -64t-64 -26q-42 0 -68.5 26t-26.5 64z" />
    <glyph glyph-name="afii10094" unicode="&#x44c;" horiz-adv-x="470" 
d="M235 225v-90h5q30 0 30 45t-30 45h-5zM50 90v345q0 38 26 64t64 26q42 0 68.5 -26t26.5 -64v-75h15q49 0 87 -13.5t64.5 -37.5t40 -57t13.5 -72t-13.5 -72t-40 -57t-64.5 -37.5t-87 -13.5h-110q-38 0 -64 26t-26 64z" />
    <glyph glyph-name="afii10095" unicode="&#x44d;" horiz-adv-x="450" 
d="M200 -15q-43 0 -77.5 12t-58.5 30.5t-36.5 42t-12.5 45.5q0 34 23 57t57 23q28 0 41.5 -8.5t22.5 -19t18 -19t28 -8.5q15 0 23 8t12 17q4 11 5 25h-40q-34 0 -54.5 20t-20.5 50t20.5 50t54.5 20h40q-1 14 -5 25q-4 10 -12 17.5t-23 7.5q-17 0 -25 -8.5t-16.5 -19t-22 -19
t-41.5 -8.5q-34 0 -57 23t-23 57q0 23 12.5 46t36 41.5t57 30.5t74.5 12q47 0 87 -17t69.5 -47.5t46.5 -72.5t17 -93v-90q0 -51 -17 -93t-46.5 -72.5t-69.5 -47.5t-87 -17z" />
    <glyph glyph-name="afii10096" unicode="&#x44e;" horiz-adv-x="705" 
d="M470 -15q-34 0 -60.5 8t-47.5 21.5t-36 30.5t-26 35q-25 42 -35 95h-30v-90q0 -38 -26.5 -64t-68.5 -26q-38 0 -64 26t-26 64v350q0 38 26 64t64 26q42 0 68.5 -26t26.5 -64v-110h30q6 59 29 105q13 28 27 44t35 29.5t49 22.5t65 9q43 0 80.5 -16t65 -45t43.5 -69.5
t16 -89.5v-110q0 -49 -16 -89.5t-43.5 -69.5t-65 -45t-80.5 -16zM470 130q8 0 14 9.5t6 35.5v170q0 26 -6 35.5t-14 9.5t-14 -9.5t-6 -35.5v-170q0 -26 6 -35.5t14 -9.5z" />
    <glyph glyph-name="afii10097" unicode="&#x44f;" horiz-adv-x="495" 
d="M445 430v-345q0 -38 -26 -64t-64 -26q-42 0 -68.5 26t-26.5 64v85h-10l-72 -130q-1 -2 -6.5 -9t-14.5 -15t-22 -14.5t-30 -6.5q-38 0 -64 26t-26 64q0 22 11 40.5t19 29.5l40 55v10q-14 11 -25 29q-10 16 -17.5 39t-7.5 57q0 39 14.5 71.5t41 55.5t64.5 35.5t85 12.5h115
q38 0 64 -26t26 -64zM260 300v90h-10q-30 0 -30 -45t30 -45h10z" />
    <glyph glyph-name="afii10071" unicode="&#x451;" horiz-adv-x="480" 
d="M55 675q0 38 25.5 64t59.5 26t59.5 -26t25.5 -64t-25.5 -64t-59.5 -26t-59.5 26t-25.5 64zM265 675q0 38 25.5 64t59.5 26t59.5 -26t25.5 -64t-25.5 -64t-59.5 -26t-59.5 26t-25.5 64zM215 210v-40q0 -23 10 -34t25 -11q23 0 33.5 8.5t20 19t22.5 19t39 8.5q30 0 50 -20
t20 -50q0 -21 -13 -43t-37 -40t-59.5 -30t-80.5 -12t-84 17t-68.5 47.5t-46 72.5t-16.5 93v90q0 51 16.5 93t46 72.5t68.5 47.5t84 17q43 0 81.5 -17t67 -47.5t45 -72.5t16.5 -93v-15q0 -38 -20.5 -59t-54.5 -21h-165zM215 315h60v20q0 26 -9.5 38t-20.5 12t-20.5 -12
t-9.5 -38v-20z" />
    <glyph glyph-name="afii10099" unicode="&#x452;" horiz-adv-x="510" 
d="M300 180v80q0 30 -9.5 42.5t-20.5 12.5t-20.5 -12.5t-9.5 -42.5v-175q0 -38 -26.5 -64t-68.5 -26q-38 0 -64 26t-26 64v405q-14 5 -25 15q-10 9 -17.5 23t-7.5 37t8 37.5t17 22.5q11 10 25 15q4 22 15 40q10 16 27.5 28t47.5 12t48.5 -11.5t29.5 -25.5q12 -17 17 -38h30
q38 0 61.5 -21t23.5 -59t-23.5 -59t-61.5 -21h-30v-69h10q8 14 19 25q11 9 25.5 16.5t35.5 7.5q32 0 60 -13.5t49 -41.5t33.5 -71.5t12.5 -103.5v-55q0 -60 -11 -102t-31 -68t-48.5 -38t-64.5 -12q-30 0 -52.5 22.5t-22.5 52.5q0 26 7 38t15.5 23.5t15.5 29t7 54.5z" />
    <glyph glyph-name="afii10100" unicode="&#x453;" horiz-adv-x="420" 
d="M140 520h190q42 0 66 -23.5t24 -61.5t-24 -61.5t-66 -23.5h-95v-265q0 -38 -26.5 -64t-68.5 -26q-38 0 -64 26t-26 64v345q0 38 26 64t64 26zM240 580q-30 0 -47.5 17t-17.5 43q0 11 2 27l3 23l10 70q5 38 25.5 59t54.5 21q38 0 61.5 -23t23.5 -57q0 -23 -5 -36t-5 -14
l-30 -70q-8 -20 -26.5 -40t-48.5 -20z" />
    <glyph glyph-name="afii10101" unicode="&#x454;" horiz-adv-x="450" 
d="M245 190h-40q1 -14 5 -25q4 -10 12 -17.5t23 -7.5q19 0 28 8.5t18 19t22.5 19t41.5 8.5q34 0 57 -23t23 -57q0 -22 -12.5 -45.5t-36.5 -42t-58.5 -30.5t-77.5 -12q-47 0 -87 17t-69.5 47.5t-46.5 72.5t-17 93v90q0 51 17 93t46.5 72.5t69.5 47.5t87 17q41 0 74.5 -12
t57 -30.5t36 -41.5t12.5 -46q0 -34 -23 -57t-57 -23q-28 0 -41.5 8.5t-22 19t-16.5 19t-25 8.5q-15 0 -23 -8t-12 -17q-4 -11 -5 -25h40q34 0 54.5 -20t20.5 -50t-20.5 -50t-54.5 -20z" />
    <glyph glyph-name="afii10102" unicode="&#x455;" horiz-adv-x="425" 
d="M200 -15q-45 0 -80.5 11t-59.5 29t-37 40.5t-13 44.5q0 34 20.5 54.5t54.5 20.5q24 0 36.5 -7t22 -15.5t20 -15.5t31.5 -7q35 0 35 25q0 13 -15.5 20.5t-39 15t-50.5 18t-50.5 29.5t-39 48t-15.5 74q0 34 13.5 64t39.5 52.5t63 35.5t84 13q43 0 77.5 -12t58.5 -30
t36.5 -40t12.5 -43q0 -75 -75 -75q-22 0 -33.5 7t-20 15.5t-18 15.5t-28.5 7q-25 0 -25 -25q0 -12 15.5 -19t39 -14t50.5 -17t50.5 -28.5t39 -49t15.5 -77.5q0 -32 -14.5 -61.5t-42.5 -52.5t-67.5 -37t-90.5 -14z" />
    <glyph glyph-name="afii10103" unicode="&#x456;" horiz-adv-x="285" 
d="M235 415v-330q0 -38 -26.5 -64t-68.5 -26q-38 0 -64 26t-26 64v330q0 38 26 64t64 26q42 0 68.5 -26t26.5 -64zM45 645q0 42 26.5 68.5t68.5 26.5q45 0 72.5 -26.5t27.5 -68.5t-27.5 -68.5t-72.5 -26.5q-42 0 -68.5 26.5t-26.5 68.5z" />
    <glyph glyph-name="afii10104" unicode="&#x457;" horiz-adv-x="320" 
d="M255 415v-330q0 -38 -26.5 -64t-68.5 -26q-38 0 -64 26t-26 64v330q0 38 26 64t64 26q42 0 68.5 -26t26.5 -64zM-25 660q0 38 25.5 64t59.5 26t59.5 -26t25.5 -64t-25.5 -64t-59.5 -26t-59.5 26t-25.5 64zM185 660q0 38 25.5 64t59.5 26t59.5 -26t25.5 -64t-25.5 -64
t-59.5 -26t-59.5 26t-25.5 64z" />
    <glyph glyph-name="afii10105" unicode="&#x458;" horiz-adv-x="290" 
d="M55 70v345q0 38 26 64t64 26q42 0 68.5 -26t26.5 -64v-345q0 -73 -17 -127.5t-48 -90.5t-74 -54t-96 -18q-30 0 -52.5 22.5t-22.5 52.5q0 24 9.5 38t23 24.5t30 20.5t30 26t23 41t9.5 65zM50 645q0 42 26.5 68.5t68.5 26.5q45 0 72.5 -26.5t27.5 -68.5t-27.5 -68.5
t-72.5 -26.5q-42 0 -68.5 26.5t-26.5 68.5z" />
    <glyph glyph-name="afii10106" unicode="&#x459;" horiz-adv-x="720" 
d="M485 430v-70h15q49 0 87 -13.5t64.5 -37.5t40 -57t13.5 -72t-13.5 -72t-40 -57t-64.5 -37.5t-87 -13.5h-110q-38 0 -64 26t-26 64v270h-40v-85q0 -75 -15.5 -129.5t-42.5 -90.5t-62.5 -53t-74.5 -17q-30 0 -52.5 22.5t-22.5 52.5q0 24 6.5 38t15.5 24.5t20.5 20.5
t20.5 26t15.5 41t6.5 65v155q0 38 26 64t64 26h235q35 0 60 -26t25 -64zM485 225v-90h5q30 0 30 45t-30 45h-5z" />
    <glyph glyph-name="afii10107" unicode="&#x45a;" horiz-adv-x="705" 
d="M470 225v-90h5q30 0 30 45t-30 45h-5zM285 90v110h-50v-115q0 -38 -26.5 -64t-68.5 -26q-38 0 -64 26t-26 64v350q0 38 26 64t64 26q42 0 68.5 -26t26.5 -64v-90h50v90q0 38 26.5 64t68.5 26q38 0 64 -26t26 -64v-75h15q49 0 87 -13.5t64.5 -37.5t40 -57t13.5 -72
t-13.5 -72t-40 -57t-64.5 -37.5t-87 -13.5h-110q-38 0 -64 26t-26 64z" />
    <glyph glyph-name="afii10108" unicode="&#x45b;" horiz-adv-x="525" 
d="M240 416h10q8 14 19 25q11 9 25.5 16.5t35.5 7.5q32 0 60 -13.5t49 -41.5t33.5 -71.5t12.5 -103.5v-150q0 -38 -26 -64t-64 -26q-42 0 -68.5 26t-26.5 64v175q0 30 -9.5 42.5t-20.5 12.5t-20.5 -12.5t-9.5 -42.5v-175q0 -38 -26.5 -64t-68.5 -26q-38 0 -64 26t-26 64v405
q-14 5 -25 15q-10 9 -17.5 23t-7.5 37t8 37.5t17 22.5q11 10 25 15q4 22 15 40q10 16 27.5 28t47.5 12t48.5 -11.5t29.5 -25.5q12 -17 17 -38h30q38 0 61.5 -21t23.5 -59t-23.5 -59t-61.5 -21h-30v-69z" />
    <glyph glyph-name="afii10109" unicode="&#x45c;" horiz-adv-x="485" 
d="M380 290l75 -125q8 -12 19 -33t11 -47q0 -38 -26 -64t-64 -26q-21 0 -35.5 5.5t-24.5 13t-15.5 15t-7.5 11.5l-62 125l-15 -15v-65q0 -38 -26.5 -64t-68.5 -26q-38 0 -64 26t-26 64v345q0 38 26 64t64 26q42 0 68.5 -26t26.5 -64v-65l60 95q3 4 9.5 14t17.5 20t26.5 18
t36.5 8q19 0 35.5 -7t28.5 -18t19 -25.5t7 -29.5q0 -16 -6 -30.5t-14 -26.5t-15 -20.5t-10 -12.5zM270 550q-30 0 -47.5 17t-17.5 43q0 11 2 26l3 24l10 70q5 38 25.5 59t54.5 21q38 0 61.5 -23t23.5 -57q0 -23 -5 -36t-5 -14l-30 -70q-8 -20 -26.5 -40t-48.5 -20z" />
    <glyph glyph-name="afii10110" unicode="&#x45e;" horiz-adv-x="455" 
d="M120 -30l25 70l-125 310q-2 5 -5.5 14.5t-6.5 22t-5.5 25.5t-2.5 23q0 21 7.5 37.5t20.5 28t29 18t33 6.5q21 0 35 -7.5t23.5 -19.5t16 -27t10.5 -31l50 -170h10l40 170q8 32 28.5 58.5t61.5 26.5q38 0 64 -26t26 -64q0 -11 -2.5 -24t-5.5 -25t-6 -21.5t-5 -14.5
l-151 -485q-14 -42 -35.5 -63.5t-59.5 -21.5q-42 0 -68.5 26t-26.5 64q0 12 3.5 27.5t7.5 30.5l9 26q4 12 5 16zM240 560q-32 0 -60 12t-49 31t-33.5 43.5t-12.5 48.5q0 26 19.5 45.5t45.5 19.5q23 0 34 -8.5t18.5 -19t15 -19t22.5 -8.5t22.5 8.5t15 19t19 19t33.5 8.5
q26 0 45.5 -19.5t19.5 -45.5q0 -24 -12.5 -48.5t-33.5 -43.5t-49 -31t-60 -12z" />
    <glyph glyph-name="afii10193" unicode="&#x45f;" horiz-adv-x="525" 
d="M50 85v350q0 38 26 64t64 26q42 0 68.5 -26t26.5 -64v-275h55v275q0 38 26 64t64 26q42 0 68.5 -26t26.5 -64v-350q0 -38 -24 -61.5t-66 -23.5h-30v-30q0 -38 -26.5 -64t-68.5 -26q-38 0 -64 26t-26 64v30h-30q-42 0 -66 23.5t-24 61.5z" />
    <glyph glyph-name="afii10050" unicode="&#x490;" horiz-adv-x="530" 
d="M325 700v10q0 45 27.5 72.5t72.5 27.5q49 0 77 -27.5t28 -72.5v-105q0 -42 -27.5 -68.5t-72.5 -26.5h-160v-420q0 -45 -28 -72.5t-77 -27.5q-45 0 -72.5 27.5t-27.5 72.5v510q0 45 27.5 72.5t72.5 27.5h160z" />
    <glyph glyph-name="afii10098" unicode="&#x491;" horiz-adv-x="420" 
d="M235 520v10q0 38 26 64t64 26q42 0 68.5 -26t26.5 -64v-95q0 -38 -24 -61.5t-66 -23.5h-95v-265q0 -38 -26.5 -64t-68.5 -26q-38 0 -64 26t-26 64v345q0 38 26 64t64 26h95z" />
    <glyph glyph-name="uni1E9E" unicode="&#x1e9e;" horiz-adv-x="585" 
d="M270 80q0 36 15.5 51.5t34.5 25t34.5 19.5t15.5 34q0 23 -15.5 29t-34.5 14.5t-34.5 28t-15.5 68.5q0 23 4.5 36.5t10.5 33.5l25 80v10h-35q-11 0 -20.5 -12t-9.5 -38v-370q0 -45 -28 -72.5t-77 -27.5q-45 0 -72.5 27t-27.5 73v345q0 62 17.5 111t49 83.5t74.5 52.5
t94 18h130q45 0 72.5 -26.5t27.5 -68.5q0 -15 -4.5 -32.5t-10 -34t-11.5 -30.5t-9 -23l-30 -85v-10q36 -13 65 -37q27 -22 46 -56t19 -87q0 -49 -16 -89.5t-44 -69.5t-66.5 -45t-83.5 -16q-38 0 -64 26t-26 64z" />
    <glyph glyph-name="endash" unicode="&#x2013;" horiz-adv-x="530" 
d="M100 405h330q42 0 66 -23.5t24 -61.5t-24 -61.5t-66 -23.5h-330q-42 0 -66 23.5t-24 61.5t24 61.5t66 23.5z" />
    <glyph glyph-name="emdash" unicode="&#x2014;" horiz-adv-x="730" 
d="M100 405h530q42 0 66 -23.5t24 -61.5t-24 -61.5t-66 -23.5h-530q-42 0 -66 23.5t-24 61.5t24 61.5t66 23.5z" />
    <glyph glyph-name="quoteleft" unicode="&#x2018;" horiz-adv-x="240" 
d="M230 495q0 -45 -30 -75t-75 -30t-75 32.5t-30 92.5q0 41 14.5 77t38 62t53 41t59.5 15q19 0 29.5 -10t10.5 -25q0 -17 -9.5 -25.5t-22 -15.5t-24 -16t-14.5 -28q13 0 26.5 -7t24 -20t17.5 -30t7 -38z" />
    <glyph glyph-name="quoteright" unicode="&#x2019;" horiz-adv-x="240" 
d="M10 605q0 45 30 75t75 30t75 -32.5t30 -92.5q0 -41 -14.5 -76.5t-38 -62t-53 -41.5t-59.5 -15q-19 0 -29.5 10t-10.5 25q0 17 9.5 25.5t22 15.5t24 16t14.5 28q-13 0 -26.5 7t-24 20t-17.5 30t-7 38z" />
    <glyph glyph-name="quotesinglbase" unicode="&#x201a;" horiz-adv-x="240" 
d="M10 95q0 45 30 75t75 30t75 -32.5t30 -92.5q0 -41 -14.5 -77t-38 -62t-53 -41t-59.5 -15q-19 0 -29.5 10t-10.5 25q0 17 9.5 25.5t22 15.5t24 16t14.5 28q-13 0 -26.5 7t-24 20t-17.5 30t-7 38z" />
    <glyph glyph-name="quotedblleft" unicode="&#x201c;" horiz-adv-x="475" 
d="M465 495q0 -45 -30 -75t-75 -30t-75 32.5t-30 92.5q0 41 14.5 77t38 62t53 41t59.5 15q19 0 29.5 -10t10.5 -25q0 -17 -9.5 -25.5t-22 -15.5t-24 -16t-14.5 -28q13 0 26.5 -7t24 -20t17.5 -30t7 -38zM230 495q0 -45 -30 -75t-75 -30t-75 32.5t-30 92.5q0 41 14.5 77
t38 62t53 41t59.5 15q19 0 29.5 -10t10.5 -25q0 -17 -9.5 -25.5t-22 -15.5t-24 -16t-14.5 -28q13 0 26.5 -7t24 -20t17.5 -30t7 -38z" />
    <glyph glyph-name="quotedblright" unicode="&#x201d;" horiz-adv-x="475" 
d="M10 605q0 45 30 75t75 30t75 -32.5t30 -92.5q0 -41 -14.5 -76.5t-38 -62t-53 -41.5t-59.5 -15q-19 0 -29.5 10t-10.5 25q0 17 9.5 25.5t22 15.5t24 16t14.5 28q-13 0 -26.5 7t-24 20t-17.5 30t-7 38zM245 605q0 45 30 75t75 30t75 -32.5t30 -92.5q0 -41 -14.5 -76.5
t-38 -62t-53 -41.5t-59.5 -15q-19 0 -29.5 10t-10.5 25q0 17 9.5 25.5t22 15.5t24 16t14.5 28q-13 0 -26.5 7t-24 20t-17.5 30t-7 38z" />
    <glyph glyph-name="quotedblbase" unicode="&#x201e;" horiz-adv-x="475" 
d="M10 95q0 45 30 75t75 30t75 -32.5t30 -92.5q0 -41 -14.5 -77t-38 -62t-53 -41t-59.5 -15q-19 0 -29.5 10t-10.5 25q0 17 9.5 25.5t22 15.5t24 16t14.5 28q-13 0 -26.5 7t-24 20t-17.5 30t-7 38zM245 95q0 45 30 75t75 30t75 -32.5t30 -92.5q0 -41 -14.5 -77t-38 -62
t-53 -41t-59.5 -15q-19 0 -29.5 10t-10.5 25q0 17 9.5 25.5t22 15.5t24 16t14.5 28q-13 0 -26.5 7t-24 20t-17.5 30t-7 38z" />
    <glyph glyph-name="dagger" unicode="&#x2020;" horiz-adv-x="525" 
d="M405 360h-40v-320q0 -45 -28 -72.5t-77 -27.5q-45 0 -72.5 27.5t-27.5 72.5v320h-40q-45 0 -72.5 26.5t-27.5 68.5t27.5 68.5t72.5 26.5h40v110q0 45 27.5 72.5t72.5 27.5q49 0 77 -27.5t28 -72.5v-110h40q45 0 72.5 -26.5t27.5 -68.5t-27.5 -68.5t-72.5 -26.5z" />
    <glyph glyph-name="daggerdbl" unicode="&#x2021;" horiz-adv-x="545" 
d="M415 120h-40v-80q0 -45 -28 -72.5t-77 -27.5q-45 0 -72.5 27.5t-27.5 72.5v80h-40q-45 0 -72.5 26.5t-27.5 68.5t27.5 68.5t72.5 26.5h40v80h-40q-45 0 -72.5 26.5t-27.5 68.5t27.5 68.5t72.5 26.5h40v80q0 45 27.5 72.5t72.5 27.5q49 0 77 -27.5t28 -72.5v-80h40
q45 0 72.5 -26.5t27.5 -68.5t-27.5 -68.5t-72.5 -26.5h-40v-80h40q45 0 72.5 -26.5t27.5 -68.5t-27.5 -68.5t-72.5 -26.5z" />
    <glyph glyph-name="bullet" unicode="&#x2022;" horiz-adv-x="380" 
d="M60 320q0 28 10.5 52.5t28.5 43t41.5 29t49.5 10.5t49.5 -10.5t41.5 -29t28.5 -43t10.5 -52.5t-10.5 -52.5t-28.5 -43t-41.5 -29t-49.5 -10.5t-49.5 10.5t-41.5 29t-28.5 43t-10.5 52.5z" />
    <glyph glyph-name="ellipsis" unicode="&#x2026;" horiz-adv-x="770" 
d="M125 200q45 0 75 -30t30 -75t-30 -75t-75 -30t-75 30t-30 75t30 75t75 30zM385 200q45 0 75 -30t30 -75t-30 -75t-75 -30t-75 30t-30 75t30 75t75 30zM645 200q45 0 75 -30t30 -75t-30 -75t-75 -30t-75 30t-30 75t30 75t75 30z" />
    <glyph glyph-name="perthousand" unicode="&#x2030;" horiz-adv-x="1080" 
d="M580 525l-245 -460l-15 -26q-8 -15 -20 -28t-28 -22t-37 -9q-17 0 -32.5 7t-27 18.5t-18.5 27t-7 32.5q0 23 7 41.5t23 48.5l245 460l15 26q8 15 20 28t28 22t37 9q17 0 32.5 -7t27 -18.5t18.5 -27t7 -32.5q0 -23 -7 -41.5t-23 -48.5zM10 495v35q0 75 41 117.5t109 42.5
t109 -42.5t41 -117.5v-35q0 -75 -41 -117.5t-109 -42.5t-109 42.5t-41 117.5zM175 495v35q0 23 -3.5 29t-11.5 6t-11.5 -6t-3.5 -29v-35q0 -23 3.5 -29t11.5 -6t11.5 6t3.5 29zM450 150v35q0 75 41 117.5t109 42.5t109 -42.5t41 -117.5v-35q0 -75 -41 -117.5t-109 -42.5
t-109 42.5t-41 117.5zM615 150v35q0 23 -3.5 29t-11.5 6t-11.5 -6t-3.5 -29v-35q0 -23 3.5 -29t11.5 -6t11.5 6t3.5 29zM770 150v35q0 75 41 117.5t109 42.5t109 -42.5t41 -117.5v-35q0 -75 -41 -117.5t-109 -42.5t-109 42.5t-41 117.5zM935 150v35q0 23 -3.5 29t-11.5 6
t-11.5 -6t-3.5 -29v-35q0 -23 3.5 -29t11.5 -6t11.5 6t3.5 29z" />
    <glyph glyph-name="guilsinglleft" unicode="&#x2039;" horiz-adv-x="380" 
d="M236 265v-10l64 -75l32 -38q18 -21 18 -47q0 -38 -26 -64t-64 -26q-21 0 -35.5 4.5t-25 12t-18.5 15.5l-16 18l-80 90q-23 26 -39 51.5t-16 63.5t16 63.5t39 51.5l80 90l16 17q8 9 18.5 16.5t25 12t35.5 4.5q38 0 64 -26t26 -64q0 -26 -18 -47l-32 -38z" />
    <glyph glyph-name="guilsinglright" unicode="&#x203a;" horiz-adv-x="380" 
d="M144 255v10l-64 75l-32 38q-18 21 -18 47q0 38 26 64t64 26q21 0 35.5 -4.5t25 -12t19 -16t15.5 -17.5l80 -90q23 -26 39 -51.5t16 -63.5t-16 -63.5t-39 -51.5l-80 -90q-7 -9 -15.5 -17.5t-19 -16t-25 -12t-35.5 -4.5q-38 0 -64 26t-26 64q0 26 18 47l32 38z" />
    <glyph glyph-name="fraction" unicode="&#x2044;" horiz-adv-x="480" 
d="M440 525l-245 -460l-15 -26q-8 -15 -20 -28t-28 -22t-37 -9q-17 0 -32.5 7t-27 18.5t-18.5 27t-7 32.5q0 23 7 41.5t23 48.5l245 460l15 26q8 15 20 28t28 22t37 9q17 0 32.5 -7t27 -18.5t18.5 -27t7 -32.5q0 -23 -7 -41.5t-23 -48.5z" />
    <glyph glyph-name="foursuperior" unicode="&#x2074;" horiz-adv-x="360" 
d="M300 420q0 -26 -20.5 -45.5t-49.5 -19.5q-30 0 -50 19.5t-20 45.5h-85q-23 0 -39 16t-16 39q0 19 7.5 33t12.5 22l83 120q10 15 19.5 27t21.5 20.5t28 13t38 4.5q29 0 49.5 -20.5t20.5 -54.5v-110q11 -2 20 -9q8 -6 14 -16.5t6 -29.5t-6 -30t-14 -16q-9 -7 -20 -9z
M135 520h35v60h-5l-30 -55v-5z" />
    <glyph glyph-name="Euro" unicode="&#x20ac;" horiz-adv-x="580" 
d="M340 360h-55v-20h55q34 0 54.5 -20t20.5 -50t-20.5 -50t-54.5 -20h-50q4 -14 11 -25q7 -10 18.5 -17.5t30.5 -7.5q28 0 41.5 11.5t23.5 26t23.5 26t41.5 11.5q38 0 64 -25.5t26 -59.5q0 -30 -14.5 -58.5t-43 -51t-69 -36.5t-93.5 -14q-42 0 -75.5 9.5t-60 25t-46 35
t-32.5 40.5q-33 48 -46 110h-5q-34 0 -54.5 20t-20.5 50t20.5 50t54.5 20v20q-34 0 -54.5 20t-20.5 50t20.5 50t54.5 20h5q13 62 46 110q17 29 35.5 46t44 31.5t59 23.5t75.5 9q51 0 90.5 -13.5t67.5 -36t42.5 -51.5t14.5 -59q0 -34 -26 -59.5t-64 -25.5q-28 0 -41.5 11.5
t-23 26t-22 26t-38.5 11.5q-19 0 -30.5 -8t-18.5 -17q-7 -11 -11 -25h50q34 0 54.5 -20t20.5 -50t-20.5 -50t-54.5 -20z" />
    <glyph glyph-name="uni20B4" unicode="&#x20b4;" horiz-adv-x="600" 
d="M95 335h410q30 0 47.5 -17t17.5 -43t-17.5 -43t-47.5 -17h-205q-25 -19 -25 -40q0 -15 10.5 -25t29.5 -10q24 0 37 9.5t25 20.5t27.5 20.5t45.5 9.5q38 0 64 -26t26 -64q0 -21 -14 -43.5t-42 -42t-70.5 -32t-98.5 -12.5q-62 0 -108.5 13t-78 36t-47.5 54t-16 67
q0 15 3 27t7 21t10 17q-15 2 -27 9t-20 18.5t-8 32.5q0 26 17.5 43t47.5 17zM505 365h-410q-30 0 -47.5 17t-17.5 43t17.5 43t47.5 17h205q7 5 13 11q5 5 8.5 12.5t3.5 16.5q0 15 -10.5 25t-29.5 10q-24 0 -37 -9.5t-25 -20.5t-27.5 -20.5t-45.5 -9.5q-38 0 -64 26t-26 64
q0 21 14 43.5t42 42t70.5 32t98.5 12.5q62 0 108.5 -13t78 -36t47.5 -54t16 -67q0 -13 -3 -25t-7 -21q-4 -10 -10 -19q15 -2 28 -9q11 -7 19 -18.5t8 -32.5q0 -26 -17.5 -43t-47.5 -17z" />
    <glyph glyph-name="uni20BD" unicode="&#x20bd;" horiz-adv-x="585" 
d="M415 110h-130v-20q0 -45 -28 -72.5t-77 -27.5q-45 0 -72.5 27.5t-27.5 72.5v20q-20 2 -35 11q-14 7 -24.5 20.5t-10.5 38.5t11 38.5t24 20.5q15 9 35 11v20q-20 2 -35 11q-14 7 -24.5 20.5t-10.5 38.5t11 38.5t24 20.5q15 9 35 11v190q0 45 27.5 72.5t72.5 27.5h125
q131 0 195.5 -58.5t64.5 -156.5q0 -97 -64.5 -156t-195.5 -59h-20v-20h130q34 0 54.5 -20t20.5 -50t-20.5 -50t-54.5 -20zM285 410h20q19 0 34.5 17.5t15.5 47.5t-15.5 47.5t-34.5 17.5h-20v-130z" />
    <glyph glyph-name="afii61352" unicode="&#x2116;" horiz-adv-x="975" 
d="M730 315h130q38 0 61.5 -23t23.5 -57t-23.5 -57t-61.5 -23h-130q-38 0 -61.5 23t-23.5 57t23.5 57t61.5 23zM275 320h-5v-230q0 -45 -28 -72.5t-77 -27.5q-45 0 -72.5 27.5t-27.5 72.5v520q0 45 27.5 72.5t72.5 27.5q42 0 66 -23.5t49 -76.5l110 -230h5v230q0 45 28 72.5
t77 27.5q45 0 72.5 -27.5t27.5 -72.5v-520q0 -45 -27.5 -72.5t-72.5 -27.5q-38 0 -64 23.5t-51 76.5zM640 515v35q0 75 41 117.5t109 42.5t109 -42.5t41 -117.5v-35q0 -75 -41 -117.5t-109 -42.5t-109 42.5t-41 117.5zM805 515v35q0 23 -3.5 29t-11.5 6t-11.5 -6t-3.5 -29
v-35q0 -23 3.5 -29t11.5 -6t11.5 6t3.5 29z" />
    <glyph glyph-name="trademark" unicode="&#x2122;" horiz-adv-x="770" 
d="M70 700h160q30 0 50 -19.5t20 -45.5t-20 -45.5t-50 -19.5h-10v-155q0 -34 -20 -54.5t-50 -20.5t-50 20.5t-20 54.5v155h-10q-30 0 -50 19.5t-20 45.5t20 45.5t50 19.5zM512 550h6l22 85q9 34 28 52t57 18q42 0 61 -18t24 -52l25 -160q2 -6 3.5 -23.5t1.5 -36.5
q0 -34 -20 -54.5t-50 -20.5t-49 17.5t-21 47.5l-5 85h-5l-19 -70q-6 -15 -19.5 -27.5t-36.5 -12.5t-36.5 12.5t-19.5 27.5l-19 70h-5l-5 -85q-2 -30 -21 -47.5t-49 -17.5t-50 20.5t-20 54.5q0 19 1.5 36.5t3.5 23.5l25 160q5 34 24 52t61 18q38 0 57 -18t28 -52z" />
    <glyph glyph-name="minus" unicode="&#x2212;" horiz-adv-x="460" 
d="M100 430h260q42 0 66 -23.5t24 -61.5t-24 -61.5t-66 -23.5h-260q-42 0 -66 23.5t-24 61.5t24 61.5t66 23.5z" />
    <glyph glyph-name="Germandbls" horiz-adv-x="585" 
d="M270 80q0 36 15.5 51.5t34.5 25t34.5 19.5t15.5 34q0 23 -15.5 29t-34.5 14.5t-34.5 28t-15.5 68.5q0 23 4.5 36.5t10.5 33.5l25 80v10h-35q-11 0 -20.5 -12t-9.5 -38v-370q0 -45 -28 -72.5t-77 -27.5q-45 0 -72.5 27t-27.5 73v345q0 62 17.5 111t49 83.5t74.5 52.5
t94 18h130q45 0 72.5 -26.5t27.5 -68.5q0 -15 -4.5 -32.5t-10 -34t-11.5 -30.5t-9 -23l-30 -85v-10q36 -13 65 -37q27 -22 46 -56t19 -87q0 -49 -16 -89.5t-44 -69.5t-66.5 -45t-83.5 -16q-38 0 -64 26t-26 64z" />
    <glyph glyph-name="commaaccent" horiz-adv-x="250" 
d="M30 -135q0 42 26.5 68.5t68.5 26.5t68.5 -28t26.5 -77q0 -39 -13 -72t-33.5 -57t-46.5 -37.5t-52 -13.5q-19 0 -29.5 9.5t-10.5 20.5q0 17 9 24.5t20 13t21.5 13t14.5 24.5q-12 0 -24 6.5t-22.5 17.5t-17 27t-6.5 34z" />
    <glyph glyph-name="cyrBreve" horiz-adv-x="410" 
d="M205 740q-37 0 -69.5 13t-55.5 34.5t-36.5 49.5t-13.5 58q0 26 19.5 45.5t45.5 19.5q23 0 34.5 -9.5t20.5 -20.5t21 -20.5t34 -9.5q23 0 34.5 9.5t20.5 20.5t21 20.5t34 9.5q26 0 45.5 -19.5t19.5 -45.5q0 -30 -13.5 -58t-36.5 -49.5t-55 -34.5t-70 -13z" />
    <glyph glyph-name="cyrbreve" horiz-adv-x="370" 
d="M185 560q-32 0 -60 12t-49 31t-33.5 43.5t-12.5 48.5q0 26 19.5 45.5t45.5 19.5q23 0 34 -8.5t18.5 -19t15 -19t22.5 -8.5t22.5 8.5t15 19t19 19t33.5 8.5q26 0 45.5 -19.5t19.5 -45.5q0 -24 -12.5 -48.5t-33.5 -43.5t-49 -31t-60 -12z" />
    <glyph glyph-name="foundryicon" horiz-adv-x="1230" 
d="M100 -110v920h1030v-920h-1030zM1110 -90v880h-990v-880h990zM635 610h110q38 0 59 -19.5t21 -45.5t-21 -45.5t-59 -19.5h-55v-80h-55v210zM765 545q0 8 -6 14t-14 6h-55v-40h55q8 0 14 6t6 14zM635 300h110q38 0 59 -19.5t21 -45.5t-21 -45.5t-59 -19.5h-55v-80h-55v210
zM765 235q0 8 -6 14t-14 6h-55v-40h55q8 0 14 6t6 14zM495 170l-75 130h60l40 -75h5l40 75h65l-80 -130v-80h-55v80zM495 480l-75 130h60l40 -75h5l40 75h65l-80 -130v-80h-55v80zM300 255h-65v45h165l25 -45h-70v-165h-55v165zM300 565h-65v45h165l25 -45h-70v-165h-55v165
zM790 400v65q19 4 37.5 20.5t22.5 39.5h80v-45h-85v-35h120v-45h-175zM790 90v65q19 4 37.5 20.5t22.5 39.5h80v-45h-85v-35h120v-45h-175zM810 300h155v-45h-115q-4 15 -14.5 28t-25.5 17zM810 610h155v-45h-115q-4 15 -14.5 28t-25.5 17z" />
    </font>
</defs>
</svg>
