<?xml version="1.0" standalone="no"?>
<!DOCTYPE svg PUBLIC "-//W3C//DTD SVG 1.1//EN" "http://www.w3.org/Graphics/SVG/1.1/DTD/svg11.dtd" >
<svg>
<metadata>
Created by FontForge 20090622 at Wed Mar  1 13:21:32 2017
 By deploy user
Copyright (c) 2014 by Typetype. Designer Ivan Gladkikh, technical designer Maria Mezeritskaya, Olexa Volochay, Nadyr Rakhimov. All rights reserved.
</metadata>
<defs>
<font id="TTRounds-Black" horiz-adv-x="590" >
  <font-face 
    font-family="TT Rounds Black"
    font-weight="900"
    font-stretch="normal"
    units-per-em="1000"
    panose-1="2 0 5 3 3 0 0 2 0 3"
    ascent="800"
    descent="-200"
    x-height="520"
    cap-height="700"
    bbox="-100 -355 1255 1041"
    underline-thickness="50"
    underline-position="-50"
    unicode-range="U+0020-U+2212"
  />
<missing-glyph horiz-adv-x="280" 
 />
    <glyph glyph-name=".notdef" horiz-adv-x="280" 
 />
    <glyph glyph-name=".null" horiz-adv-x="0" 
 />
    <glyph glyph-name="nonmarkingreturn" horiz-adv-x="333" 
 />
    <glyph glyph-name="space" unicode=" " horiz-adv-x="280" 
 />
    <glyph glyph-name="exclam" unicode="!" horiz-adv-x="310" 
d="M155 200q52 0 83.5 -29.5t31.5 -75.5t-31.5 -75.5t-83.5 -29.5t-83.5 29.5t-31.5 75.5t31.5 75.5t83.5 29.5zM155 720q52 0 86 -32t34 -78l-20 -270q-8 -100 -100 -100t-100 100l-20 270q0 46 34 78t86 32z" />
    <glyph glyph-name="quotedbl" unicode="&#x22;" horiz-adv-x="460" 
d="M115 400q-29 0 -47.5 15.5t-22.5 39.5l-25 165q0 38 27 64t68 26t68 -26t27 -64l-25 -165q-4 -24 -22.5 -39.5t-47.5 -15.5zM345 400q-29 0 -47.5 15.5t-22.5 39.5l-25 165q0 38 27 64t68 26t68 -26t27 -64l-25 -165q-4 -24 -22.5 -39.5t-47.5 -15.5z" />
    <glyph glyph-name="numbersign" unicode="#" horiz-adv-x="780" 
d="M95 160h-15q-34 0 -57 23t-23 57t23 57t57 23h60l15 60h-10q-34 0 -57 23t-23 57t23 57t57 23h60l20 75q25 95 115 95q40 0 67.5 -25.5t27.5 -59.5q0 -11 -2.5 -25t-4.5 -22l-3 -8l-10 -30h60l20 75q25 95 115 95q40 0 67.5 -25.5t27.5 -59.5q0 -11 -2.5 -25t-4.5 -22
l-3 -8l-10 -30h15q34 0 57 -23t23 -57t-23 -57t-57 -23h-60l-20 -60h15q34 0 57 -23t23 -57t-23 -57t-57 -23h-60l-20 -75q-25 -95 -115 -95q-40 0 -67.5 25.5t-27.5 59.5q0 11 2.5 25t4.5 22l3 8l10 30h-60l-20 -75q-25 -95 -115 -95q-40 0 -67.5 25.5t-27.5 59.5
q0 11 2.5 25t4.5 22l3 8zM355 395l-25 -90h90l25 90h-90z" />
    <glyph glyph-name="dollar" unicode="$" horiz-adv-x="645" 
d="M400 220q0 14 -27.5 24.5t-68.5 18.5t-89 24.5t-89 39t-68.5 65t-27.5 98.5q0 80 52 138t133 77v5q0 46 29 73t81 27t81 -27t29 -73q66 -15 118 -64.5t52 -95.5q0 -42 -27.5 -66t-82.5 -24q-41 0 -84.5 35t-80.5 35q-35 0 -52.5 -11.5t-17.5 -28.5q0 -16 27.5 -28.5
t68.5 -21.5t89 -25.5t89 -37.5t68.5 -62t27.5 -95q0 -88 -53 -147t-142 -78v-5q0 -46 -29 -73t-81 -27t-81 27t-29 73q-94 14 -147 59.5t-53 100.5q0 42 27.5 66t82.5 24q39 0 85.5 -35t89.5 -35q52 0 76 14.5t24 35.5z" />
    <glyph glyph-name="percent" unicode="%" horiz-adv-x="885" 
d="M700 555l-365 -515q-3 -6 -10 -14t-31.5 -22t-53.5 -14q-34 0 -57 23t-23 57q0 18 6 36.5t12 28.5l7 10l365 515q3 6 10 14t31.5 22t53.5 14q34 0 57 -23t23 -57q0 -18 -6.5 -36.5t-12.5 -28.5zM10 510v45q0 66 49.5 110.5t130.5 44.5t130.5 -45t49.5 -110v-45
q0 -66 -49.5 -110.5t-130.5 -44.5t-130.5 44.5t-49.5 110.5zM220 510v45q0 11 -9.5 20.5t-20.5 9.5t-20.5 -9.5t-9.5 -20.5v-45q0 -11 9.5 -20.5t20.5 -9.5t20.5 9.5t9.5 20.5zM515 145v45q0 66 49.5 110.5t130.5 44.5t130.5 -44.5t49.5 -110.5v-45q0 -65 -49.5 -110
t-130.5 -45t-130.5 45t-49.5 110zM725 145v45q0 11 -9.5 20.5t-20.5 9.5t-20.5 -9.5t-9.5 -20.5v-45q0 -11 9.5 -20.5t20.5 -9.5t20.5 9.5t9.5 20.5z" />
    <glyph glyph-name="ampersand" unicode="&#x26;" horiz-adv-x="760" 
d="M520 60h-10q-2 -3 -7.5 -8.5t-25.5 -19.5t-44.5 -24.5t-68.5 -19t-94 -8.5q-115 0 -187.5 60.5t-72.5 139.5q0 39 15.5 73t37.5 54.5t44 35.5t37 21l16 6v10q-3 2 -8 5t-18 15.5t-23 27t-18 39.5t-8 53q0 79 72 139.5t184 60.5q111 0 182.5 -60.5t71.5 -139.5
q0 -31 -12 -57.5t-28.5 -43t-33.5 -28t-29 -16.5l-12 -5v-10l35 -30q4 6 12.5 14t33.5 22t49 14q45 0 72.5 -27.5t27.5 -72.5q0 -13 -9 -29.5t-17 -26.5l-9 -10v-10q75 -51 75 -114q0 -41 -29.5 -70.5t-70.5 -29.5q-28 0 -55 13t-40.5 24.5t-34.5 32.5zM240 200
q0 -16 16 -28t44 -12q18 0 33 7.5t21 14.5l6 8l-75 65q-5 -2 -12.5 -5.5t-20 -17.5t-12.5 -32zM340 550q-18 0 -31.5 -12.5t-13.5 -27.5q0 -13 11.5 -25.5t22.5 -18.5l11 -6q5 2 12.5 6.5t20 17.5t12.5 26q0 15 -13.5 27.5t-31.5 12.5z" />
    <glyph glyph-name="quotesingle" unicode="'" horiz-adv-x="230" 
d="M115 400q-29 0 -47.5 15.5t-22.5 39.5l-25 165q0 38 27 64t68 26t68 -26t27 -64l-25 -165q-4 -24 -22.5 -39.5t-47.5 -15.5z" />
    <glyph glyph-name="parenleft" unicode="(" horiz-adv-x="435" 
d="M265 285q0 -74 17.5 -135.5t42.5 -100t50 -69.5t42.5 -58.5t17.5 -51.5q0 -38 -26.5 -64t-63.5 -26q-46 0 -99 35.5t-100.5 98t-79 161t-31.5 210.5t31.5 210.5t79 161t100.5 98t99 35.5q37 0 63.5 -26t26.5 -64q0 -24 -17.5 -51.5t-42.5 -58.5t-50 -69.5t-42.5 -100
t-17.5 -135.5z" />
    <glyph glyph-name="parenright" unicode=")" horiz-adv-x="435" 
d="M170 285q0 74 -17.5 135.5t-42.5 100t-50 69.5t-42.5 58.5t-17.5 51.5q0 38 26 64t64 26q46 0 99 -35.5t100.5 -98t79 -161t31.5 -210.5t-31.5 -210.5t-79 -161t-100.5 -98t-99 -35.5q-38 0 -64 26t-26 64q0 24 17.5 51.5t42.5 58.5t50 69.5t42.5 100t17.5 135.5z" />
    <glyph glyph-name="asterisk" unicode="*" horiz-adv-x="452" 
d="M228 395h-4q-24 -59 -38 -80q-15 -23 -42.5 -29t-57.5 9q-26 14 -32.5 44t12.5 56q11 16 31 32t35 25l14 8v5q-75 -11 -100 0q-27 12 -39 39t-1 56t36 40.5t49 4.5q16 -4 36 -16.5t32 -22.5l12 -11l5 5l-2 6q-3 5 -6.5 14.5l-7.5 20.5t-6.5 24.5t-2.5 24.5q0 30 21 50
t54 20t54 -20t21 -50q0 -11 -2.5 -24.5t-6.5 -24.5l-7.5 -20.5t-6.5 -14.5l-2 -6l5 -5q45 40 80 50q24 7 49 -4.5t36 -40.5t-1 -56t-39 -39q-11 -5 -36 -5t-44 2l-20 3v-5q55 -30 80 -65q19 -26 12.5 -56t-32.5 -44q-30 -15 -57.5 -9t-42.5 29q-6 9 -15.5 29l-16.5 36z" />
    <glyph glyph-name="plus" unicode="+" horiz-adv-x="570" 
d="M195 515q0 44 26 72t64 28t64 -28t26 -72v-85h85q44 0 72 -26t28 -64t-28 -64t-72 -26h-85v-85q0 -44 -26 -72t-64 -28t-64 28t-26 72v85h-85q-44 0 -72 26t-28 64t28 64t72 26h85v85z" />
    <glyph glyph-name="comma" unicode="," horiz-adv-x="255" 
d="M10 95q0 46 31.5 75.5t83.5 29.5q47 0 78.5 -36.5t31.5 -98.5q0 -75 -54 -130t-126 -55q-18 0 -29 10t-11 25t11 25.5t25 15.5t27.5 16t16.5 28q-34 0 -59.5 27.5t-25.5 67.5z" />
    <glyph glyph-name="hyphen" unicode="-" horiz-adv-x="520" 
d="M410 430q44 0 72 -26t28 -64t-28 -64t-72 -26h-300q-44 0 -72 26t-28 64t28 64t72 26h300z" />
    <glyph glyph-name="period" unicode="." horiz-adv-x="270" 
d="M135 200q52 0 83.5 -29.5t31.5 -75.5t-31.5 -75.5t-83.5 -29.5t-83.5 29.5t-31.5 75.5t31.5 75.5t83.5 29.5z" />
    <glyph glyph-name="slash" unicode="/" horiz-adv-x="560" 
d="M530 595l-325 -595q-3 -6 -9.5 -14t-29 -22t-46.5 -14q-51 0 -80.5 25.5t-29.5 64.5q0 13 5 29.5t10 26.5l5 9l325 595q3 6 9.5 14t29 22t46.5 14q51 0 80.5 -25.5t29.5 -64.5q0 -13 -5 -29.5t-10 -26.5z" />
    <glyph glyph-name="zero" unicode="0" horiz-adv-x="700" 
d="M435 255v190q0 47 -25 76t-60 29t-60 -29t-25 -76v-190q0 -47 25 -76t60 -29t60 29t25 76zM40 255v190q0 119 85 197t225 78t225 -78t85 -197v-190q0 -119 -85 -197t-225 -78t-225 78t-85 197z" />
    <glyph glyph-name="one" unicode="1" horiz-adv-x="485" 
d="M420 610v-520q0 -46 -29 -73t-81 -27t-81 27t-29 73v290h-10q-4 -6 -12.5 -14t-34.5 -22t-53 -14q-38 0 -64 26t-26 64q0 18 10 38t20 31l10 11l160 165q4 5 13 12.5t37.5 20t59.5 12.5q52 0 81 -27t29 -73z" />
    <glyph glyph-name="two" unicode="2" horiz-adv-x="630" 
d="M610 475q0 -42 -15 -75.5t-38 -55t-56.5 -41.5t-63.5 -32t-67 -29t-60 -32v-10h190q52 0 81 -27t29 -73q0 -45 -29 -72.5t-81 -27.5h-370q-52 0 -86 32t-34 78q0 59 27.5 107t68.5 77.5t89 56t89 43.5t68.5 38t27.5 43q0 24 -20.5 39.5t-59.5 15.5q-37 0 -80.5 -35
t-84.5 -35q-110 0 -110 89q0 65 75.5 118t199.5 53q145 0 227.5 -69.5t82.5 -175.5z" />
    <glyph glyph-name="three" unicode="3" horiz-adv-x="640" 
d="M540 500l-120 -80v-10q8 -1 21.5 -3.5t48 -15t61 -32t48 -57.5t21.5 -87q0 -99 -84.5 -167t-235.5 -68q-131 0 -210.5 54.5t-79.5 114.5q0 91 110 91q39 0 86.5 -35t93.5 -35t68 15.5t22 39.5t-20.5 39.5t-59.5 15.5h-90q-37 0 -58.5 19.5t-21.5 50.5q0 20 12.5 39
t25.5 27l12 9l100 65v10h-145q-52 0 -81 27t-29 73t29 73t81 27h345q52 0 81 -27t29 -73q0 -27 -15 -52t-30 -36z" />
    <glyph glyph-name="four" unicode="4" horiz-adv-x="700" 
d="M590 150v-60q0 -46 -29 -73t-81 -27t-81 27t-29 73v60h-250q-52 0 -81 27t-29 73q0 22 10 47t20 39l10 14l180 239q52 69 98 100t122 31q59 0 99.5 -38.5t40.5 -91.5v-240q45 0 72.5 -27.5t27.5 -72.5t-27.5 -72.5t-72.5 -27.5zM275 350h95v120h-10l-85 -110v-10z" />
    <glyph glyph-name="five" unicode="5" horiz-adv-x="640" 
d="M275 500v-60q50 10 100 10q110 0 180 -64t70 -156q0 -109 -83 -179.5t-232 -70.5q-131 0 -210.5 54.5t-79.5 114.5q0 91 110 91q39 0 86.5 -35t93.5 -35q39 0 62 18t23 42t-22 42t-58 18q-35 0 -75 -10t-75 -10q-52 0 -81 27t-29 73v240q0 90 90 90h340q52 0 81 -27
t29 -73t-29 -73t-81 -27h-210z" />
    <glyph glyph-name="six" unicode="6" horiz-adv-x="665" 
d="M270 270v-29q0 -34 23 -57.5t57 -23.5q29 0 49.5 18.5t20.5 41.5q0 24 -24 42t-66 18q-13 0 -28 -2.5t-24 -5.5zM270 455v-15q40 10 100 10q131 0 205.5 -64.5t74.5 -165.5q0 -109 -77 -174.5t-223 -65.5q-142 0 -226 74t-84 186v215q0 119 81.5 192t228.5 73
q124 0 199.5 -53t75.5 -118q0 -89 -110 -89q-41 0 -84.5 35t-80.5 35t-58.5 -20.5t-21.5 -54.5z" />
    <glyph glyph-name="seven" unicode="7" horiz-adv-x="595" 
d="M570 500l-205 -430q-36 -80 -110 -80q-47 0 -81 27.5t-34 62.5q0 18 5 38t10 31l5 11l160 330v10h-210q-52 0 -81 27t-29 73t29 73t81 27h375q52 0 81 -27t29 -73q0 -22 -6.5 -47t-12.5 -39z" />
    <glyph glyph-name="eight" unicode="8" horiz-adv-x="670" 
d="M335 720q135 0 207.5 -55t72.5 -135q0 -44 -25 -79t-50 -48l-25 -13v-10q6 -2 15.5 -5.5t33.5 -18t42.5 -32.5t33.5 -51.5t15 -72.5q0 -96 -81.5 -158t-238.5 -62t-238.5 62t-81.5 158q0 39 14.5 72t35 52t41 32.5t34.5 18.5l15 5v10q-4 2 -11 5t-24 15.5t-30 27
t-24 39.5t-11 53q0 80 72.5 135t207.5 55zM335 150q40 0 65 21t25 49q0 50 -90 80q-90 -30 -90 -80q0 -28 25 -49t65 -21zM335 450q50 17 50 60q0 19 -14 32t-36 13t-36 -13t-14 -32q0 -43 50 -60z" />
    <glyph glyph-name="nine" unicode="9" horiz-adv-x="665" 
d="M395 430v29q0 34 -23 57.5t-57 23.5q-29 0 -49.5 -18.5t-20.5 -41.5q0 -24 23.5 -42t66.5 -18q13 0 28 2.5t23 5.5zM395 245v15q-40 -10 -100 -10q-131 0 -205.5 64.5t-74.5 165.5q0 109 77 174.5t223 65.5q142 0 226 -74t84 -186v-215q0 -119 -81.5 -192t-228.5 -73
q-124 0 -199.5 53t-75.5 118q0 89 110 89q41 0 84.5 -35t80.5 -35t58.5 20.5t21.5 54.5z" />
    <glyph glyph-name="colon" unicode=":" horiz-adv-x="270" 
d="M135 200q52 0 83.5 -29.5t31.5 -75.5t-31.5 -75.5t-83.5 -29.5t-83.5 29.5t-31.5 75.5t31.5 75.5t83.5 29.5zM135 530q52 0 83.5 -29.5t31.5 -75.5t-31.5 -75.5t-83.5 -29.5t-83.5 29.5t-31.5 75.5t31.5 75.5t83.5 29.5z" />
    <glyph glyph-name="semicolon" unicode=";" horiz-adv-x="260" 
d="M125 530q52 0 83.5 -29.5t31.5 -75.5t-31.5 -75.5t-83.5 -29.5t-83.5 29.5t-31.5 75.5t31.5 75.5t83.5 29.5zM10 95q0 46 31.5 75.5t83.5 29.5q47 0 78.5 -36.5t31.5 -98.5q0 -80 -52 -137.5t-118 -57.5q-22 0 -36 13t-14 32t15.5 29.5t36 22.5t28.5 33q-34 0 -59.5 27.5
t-25.5 67.5z" />
    <glyph glyph-name="less" unicode="&#x3c;" 
d="M20 260q0 105 120 145l240 90q60 25 95 25q41 0 68 -24t27 -61q0 -44 -23 -67t-77 -38l-200 -65v-10l200 -65q53 -16 76.5 -40t23.5 -65q0 -38 -25.5 -61.5t-69.5 -23.5q-16 0 -39.5 6t-39.5 12l-16 7l-240 90q-62 23 -91 56.5t-29 88.5z" />
    <glyph glyph-name="equal" unicode="=" horiz-adv-x="550" 
d="M115 540h320q40 0 67.5 -25.5t27.5 -59.5t-27.5 -59.5t-67.5 -25.5h-320q-40 0 -67.5 25.5t-27.5 59.5t27.5 59.5t67.5 25.5zM115 310h320q40 0 67.5 -25.5t27.5 -59.5t-27.5 -59.5t-67.5 -25.5h-320q-40 0 -67.5 25.5t-27.5 59.5t27.5 59.5t67.5 25.5z" />
    <glyph glyph-name="greater" unicode="&#x3e;" 
d="M570 260q0 -55 -29 -88.5t-91 -56.5l-240 -90q-60 -25 -95 -25q-44 0 -69.5 23.5t-25.5 61.5q0 41 23.5 65t76.5 40l200 65v10l-200 65q-54 15 -77 38t-23 67q0 37 27 61t68 24q16 0 39.5 -6.5t39.5 -12.5l16 -6l240 -90q120 -40 120 -145z" />
    <glyph glyph-name="question" unicode="?" 
d="M185 340q7 30 32 55.5t51 38.5t46.5 28t20.5 28q0 16 -16 28t-44 12q-31 0 -72 -35t-83 -35q-55 0 -82.5 24t-27.5 66q0 66 71 118t194 52q139 0 217 -61t78 -149q0 -36 -14 -63t-35.5 -43t-44 -28t-43 -26t-28.5 -30q-40 -80 -120 -80q-53 0 -81.5 28t-18.5 72zM280 200
q52 0 83.5 -29.5t31.5 -75.5t-31.5 -75.5t-83.5 -29.5t-83.5 29.5t-31.5 75.5t31.5 75.5t83.5 29.5z" />
    <glyph glyph-name="at" unicode="@" horiz-adv-x="1000" 
d="M595 150h-5q-4 -6 -13 -14t-40 -22t-67 -14q-75 0 -122.5 46.5t-47.5 118.5v60q0 72 47.5 118.5t122.5 46.5q27 0 49.5 -7.5t31.5 -14.5l9 -8h5l5.5 8t19 13.5t35.5 8.5q33 0 54 -20t21 -50v-200q10 -5 20 -5q70 0 70 114q0 108 -82.5 184.5t-207.5 76.5q-120 0 -205 -85
t-85 -205t85 -205t205 -85q69 0 125.5 15t69.5 15q33 0 51.5 -17.5t18.5 -47.5q0 -63 -55 -79q-90 -36 -210 -36q-200 0 -335 128.5t-135 309.5q0 184 135 313t335 129q98 0 186.5 -34.5t150 -91.5t97.5 -131.5t36 -152.5q0 -98 -68 -164t-172 -66q-42 0 -76 12.5t-46 25.5z
M550 265v60q0 19 -14 32t-36 13t-36 -13t-14 -32v-60q0 -19 14 -32t36 -13t36 13t14 32z" />
    <glyph glyph-name="A" unicode="A" horiz-adv-x="720" 
d="M300 330h120l-55 150h-10zM255 150l-25 -60q-42 -100 -120 -100q-48 0 -79 29t-31 71q0 13 6 35.5t12 38.5l7 16l160 420q24 60 64 90t111 30t111.5 -30t63.5 -90l160 -420q25 -60 25 -90q0 -42 -31 -71t-79 -29q-78 0 -120 100l-25 60h-210z" />
    <glyph glyph-name="B" unicode="B" horiz-adv-x="725" 
d="M285 530v-90h90q29 0 44.5 12.5t15.5 32.5t-15.5 32.5t-44.5 12.5h-90zM285 280v-110h120q33 0 51.5 16t18.5 39t-18.5 39t-51.5 16h-120zM175 700h200q150 0 220 -50.5t70 -134.5q0 -29 -11.5 -54t-27.5 -39t-32 -24.5t-28 -13.5l-11 -4v-10q6 -1 16 -4t36 -15.5t46 -29
t36 -47.5t16 -69q0 -92 -75 -148.5t-225 -56.5h-230q-52 0 -81 27t-29 73v500q1 46 29.5 73t80.5 27z" />
    <glyph glyph-name="C" unicode="C" horiz-adv-x="670" 
d="M40 280v140q0 130 92 215t243 85q122 0 198.5 -55t76.5 -115q0 -42 -27.5 -66t-82.5 -24q-41 0 -84.5 35t-80.5 35q-49 0 -79.5 -30.5t-30.5 -79.5v-140q0 -49 30.5 -79.5t79.5 -30.5q43 0 89.5 35t85.5 35q55 0 82.5 -24t27.5 -66q0 -60 -78.5 -115t-206.5 -55
q-151 0 -243 85t-92 215z" />
    <glyph glyph-name="D" unicode="D" horiz-adv-x="735" 
d="M695 400v-100q0 -131 -93.5 -215.5t-251.5 -84.5h-175q-52 0 -81 27t-29 73v500q0 46 29 73t81 27h175q158 0 251.5 -84.5t93.5 -215.5zM350 520h-65v-340h65q52 0 86 34t34 86v100q0 52 -34 86t-86 34z" />
    <glyph glyph-name="E" unicode="E" horiz-adv-x="685" 
d="M555 500h-270v-60h190q44 0 72 -26t28 -64t-28 -64t-72 -26h-190v-60h280q52 0 81 -27t29 -73t-29 -73t-81 -27h-390q-52 0 -81 27t-29 73v500q0 46 29 73t81 27h380q52 0 81 -27t29 -73t-29 -73t-81 -27z" />
    <glyph glyph-name="F" unicode="F" horiz-adv-x="665" 
d="M555 500h-270v-80h150q52 0 81 -27t29 -73t-29 -73t-81 -27h-150v-130q0 -46 -29 -73t-81 -27t-81 27t-29 73v510q0 46 29 73t81 27h380q52 0 81 -27t29 -73t-29 -73t-81 -27z" />
    <glyph glyph-name="G" unicode="G" horiz-adv-x="710" 
d="M40 280v140q0 130 92 215t243 85q122 0 198.5 -55t76.5 -115q0 -42 -27.5 -66t-82.5 -24q-41 0 -84.5 35t-80.5 35q-49 0 -79.5 -30.5t-30.5 -79.5v-140q0 -49 30.5 -79.5t79.5 -30.5q24 0 48 7.5t35 14.5l12 8v40h-30q-44 0 -72 26t-28 64t28 64t72 26h140q90 0 90 -90
v-180q0 -59 -83 -114.5t-212 -55.5q-151 0 -243 85t-92 215z" />
    <glyph glyph-name="H" unicode="H" horiz-adv-x="770" 
d="M285 610v-170h200v170q0 46 29 73t81 27t81 -27t29 -73v-520q0 -46 -29 -73t-81 -27t-81 27t-29 73v160h-200v-160q0 -46 -29 -73t-81 -27t-81 27t-29 73v520q0 46 29 73t81 27t81 -27t29 -73z" />
    <glyph glyph-name="I" unicode="I" horiz-adv-x="350" 
d="M285 610v-520q0 -46 -29 -73t-81 -27t-81 27t-29 73v520q0 46 29 73t81 27t81 -27t29 -73z" />
    <glyph glyph-name="J" unicode="J" horiz-adv-x="465" 
d="M180 300v310q0 46 29 73t81 27t81 -27t29 -73v-310q0 -142 -87 -231t-223 -89q-52 0 -81 27t-29 73q0 36 20.5 56t50 29.5t59 20.5t50 39t20.5 75z" />
    <glyph glyph-name="K" unicode="K" horiz-adv-x="715" 
d="M340 255l-55 -50v-115q0 -46 -29 -73t-81 -27t-81 27t-29 73v520q0 46 29 73t81 27t81 -27t29 -73v-140l220 210q30 30 80 30q45 0 72.5 -27.5t27.5 -72.5q0 -22 -10 -42t-20 -29l-10 -9l-140 -135l170 -215q40 -50 40 -90q0 -46 -29 -73t-81 -27q-24 0 -48 12.5
t-35 25.5l-12 12z" />
    <glyph glyph-name="L" unicode="L" horiz-adv-x="635" 
d="M285 200h240q52 0 81 -27t29 -73t-29 -73t-81 -27h-350q-52 0 -81 27t-29 73v510q0 46 29 73t81 27t81 -27t29 -73v-410z" />
    <glyph glyph-name="M" unicode="M" horiz-adv-x="980" 
d="M490 60q-83 0 -120 100l-75 190h-10l-45 -260q-8 -46 -37.5 -73t-77.5 -27t-76.5 27.5t-28.5 72.5q0 18 2.5 40.5t5.5 35.5l2 14l70 420q9 55 46 87.5t99 32.5q102 0 150 -120l90 -234h10l90 234q46 120 150 120q62 0 99 -32.5t46 -87.5l70 -420q10 -50 10 -90
q0 -45 -28.5 -72.5t-76.5 -27.5t-77.5 27t-37.5 73l-45 260h-10l-75 -190q-38 -100 -120 -100z" />
    <glyph glyph-name="N" unicode="N" horiz-adv-x="780" 
d="M295 320h-10v-230q0 -46 -29 -73t-81 -27t-81 27t-29 73v520q0 45 29 72.5t81 27.5q42 0 72.5 -23.5t67.5 -76.5l170 -230h10v230q0 46 29 73t81 27t81 -27t29 -73v-520q0 -45 -29 -72.5t-81 -27.5q-42 0 -72.5 23.5t-67.5 76.5z" />
    <glyph glyph-name="O" unicode="O" horiz-adv-x="750" 
d="M710 420v-140q0 -130 -92 -215t-243 -85t-243 85t-92 215v140q0 130 92 215t243 85t243 -85t92 -215zM485 280v140q0 58 -32 94t-78 36t-78 -36t-32 -94v-140q0 -58 32 -94t78 -36t78 36t32 94z" />
    <glyph glyph-name="P" unicode="P" horiz-adv-x="705" 
d="M285 390h90q36 0 58 19t22 46t-22 46t-58 19h-90v-130zM375 210h-90v-120q0 -46 -29 -73t-81 -27t-81 27t-29 73v510q0 46 29 73t81 27h200q145 0 227.5 -69.5t82.5 -175.5t-82.5 -175.5t-227.5 -69.5z" />
    <glyph glyph-name="Q" unicode="Q" horiz-adv-x="750" 
d="M660 110l25 -25q20 -20 20 -55q0 -41 -27 -68t-68 -27q-16 0 -29.5 5t-19.5 10l-6 5l-50 45q-40 -20 -130 -20q-151 0 -243 85t-92 215v140q0 130 92 215t243 85t243 -85t92 -215v-140q0 -47 -12.5 -89.5t-25.5 -61.5zM485 280v140q0 58 -32 94t-78 36t-78 -36t-32 -94
v-140q0 -49 28.5 -85.5t61.5 -44.5q-20 20 -20 55q0 41 27 68t68 27q16 0 29.5 -5t19.5 -10z" />
    <glyph glyph-name="R" unicode="R" horiz-adv-x="730" 
d="M345 250h-60v-160q0 -46 -29 -73t-81 -27t-81 27t-29 73v510q0 46 29 73t81 27h210q152 0 226 -59.5t74 -165.5q0 -35 -11.5 -65t-27.5 -47.5t-32 -30t-28 -17.5l-11 -5v-10l100 -120q40 -50 40 -90q0 -46 -30.5 -73t-89.5 -27q-22 0 -44.5 12.5t-34.5 25.5l-11 12z
M285 420h100q33 0 51.5 16t18.5 39t-18.5 39t-51.5 16h-100v-110z" />
    <glyph glyph-name="S" unicode="S" horiz-adv-x="645" 
d="M400 220q0 14 -27.5 24.5t-68.5 18.5t-89 24.5t-89 39t-68.5 65t-27.5 98.5q0 102 77.5 166t222.5 64q122 0 198.5 -55t76.5 -115q0 -42 -27.5 -66t-82.5 -24q-41 0 -84.5 35t-80.5 35q-35 0 -52.5 -11.5t-17.5 -28.5q0 -16 27.5 -28.5t68.5 -21.5t89 -25.5t89 -37.5
t68.5 -62t27.5 -95q0 -103 -86 -171.5t-244 -68.5q-128 0 -206.5 55t-78.5 115q0 42 27.5 66t82.5 24q39 0 85.5 -35t89.5 -35q52 0 76 14.5t24 35.5z" />
    <glyph glyph-name="T" unicode="T" horiz-adv-x="660" 
d="M220 500h-110q-52 0 -81 27t-29 73t29 73t81 27h440q52 0 81 -27t29 -73t-29 -73t-81 -27h-110v-410q0 -46 -29 -73t-81 -27t-81 27t-29 73v410z" />
    <glyph glyph-name="U" unicode="U" horiz-adv-x="770" 
d="M385 -20q-148 0 -234 80t-86 210v340q0 46 29 73t81 27t81 -27t29 -73v-340q0 -52 27 -81t73 -29t73 29t27 81v340q0 46 29 73t81 27t81 -27t29 -73v-340q0 -130 -86 -210t-234 -80z" />
    <glyph glyph-name="V" unicode="V" horiz-adv-x="700" 
d="M355 230l115 380q28 100 120 100q48 0 79 -29t31 -71q0 -13 -6 -35.5t-12 -38.5l-7 -16l-150 -420q-21 -59 -62 -89.5t-113 -30.5t-113 30.5t-62 89.5l-150 420q-25 60 -25 90q0 42 31 71t79 29q92 0 120 -100l115 -380h10z" />
    <glyph glyph-name="W" unicode="W" horiz-adv-x="1090" 
d="M550 360h-10l-55 -260q-33 -120 -170 -120t-170 120l-115 420q-20 60 -20 90q0 42 31 71t79 29q100 0 125 -100l80 -330h10l65 310q26 120 145 120t145 -120l65 -310h10l80 330q25 100 125 100q48 0 79 -29t31 -71q0 -13 -5 -35.5t-10 -38.5l-5 -16l-115 -420
q-33 -120 -170 -120t-170 120z" />
    <glyph glyph-name="X" unicode="X" horiz-adv-x="670" 
d="M45 180l150 180l-130 160q-40 50 -40 90q0 45 28.5 72.5t76.5 27.5q27 0 52 -12.5t36 -25.5l12 -12l100 -130h10l100 130q4 6 12.5 14t34.5 22t53 14q48 0 76.5 -27.5t28.5 -72.5q0 -18 -10 -40.5t-20 -35.5l-10 -14l-130 -160l150 -180q40 -50 40 -90q0 -45 -28.5 -72.5
t-76.5 -27.5q-27 0 -52 12.5t-36 25.5l-12 12l-120 145h-10l-120 -145q-4 -6 -12.5 -14t-34.5 -22t-53 -14q-48 0 -76.5 27.5t-28.5 72.5q0 18 10 40.5t20 35.5z" />
    <glyph glyph-name="Y" unicode="Y" horiz-adv-x="680" 
d="M335 470h10l130 190q4 6 11.5 14t31 22t47.5 14q55 0 85 -27t30 -73q0 -18 -10 -40.5t-20 -35.5l-10 -14l-190 -270v-160q0 -46 -29 -73t-81 -27t-81 27t-29 73v160l-190 270q-40 50 -40 90q0 46 30 73t85 27q24 0 46.5 -12.5t32.5 -25.5l11 -12z" />
    <glyph glyph-name="Z" unicode="Z" horiz-adv-x="630" 
d="M40 200l270 290v10h-190q-52 0 -81 27t-29 73t29 73t81 27h390q52 0 81 -27t29 -73q0 -27 -10 -52t-20 -36l-10 -12l-250 -290v-10h190q52 0 81 -27t29 -73t-29 -73t-81 -27h-410q-52 0 -81 27t-29 73q0 27 10 52t20 36z" />
    <glyph glyph-name="bracketleft" unicode="[" horiz-adv-x="455" 
d="M285 580v-590h60q52 0 81 -27t29 -73t-29 -73t-81 -27h-170q-52 0 -81 27t-29 73v790q0 46 29 73t81 27h170q52 0 81 -27t29 -73t-29 -73t-81 -27h-60z" />
    <glyph glyph-name="backslash" unicode="\" horiz-adv-x="560" 
d="M355 0l-325 595q-20 35 -20 65q0 39 29.5 64.5t80.5 25.5q24 0 45.5 -12.5t30.5 -25.5l9 -12l325 -595q20 -35 20 -65q0 -39 -29.5 -64.5t-80.5 -25.5q-24 0 -45.5 12.5t-30.5 25.5z" />
    <glyph glyph-name="bracketright" unicode="]" horiz-adv-x="455" 
d="M170 -10v600h-60q-52 0 -81 27t-29 73t29 73t81 27h170q52 0 81 -27t29 -73v-800q0 -46 -29 -73t-81 -27h-170q-52 0 -81 27t-29 73t29 73t81 27h60z" />
    <glyph glyph-name="asciicircum" unicode="^" horiz-adv-x="550" 
d="M270 505l-75 -85q-23 -27 -42 -38.5t-53 -11.5q-30 0 -55 26t-25 59q0 43 40 85l100 110q54 60 115 60t115 -60l100 -110q40 -42 40 -85q0 -33 -25 -59t-55 -26q-34 0 -53.5 12t-41.5 38l-75 85h-10z" />
    <glyph glyph-name="underscore" unicode="_" horiz-adv-x="500" 
d="M400 -40q44 0 72 -26t28 -64t-28 -64t-72 -26h-300q-44 0 -72 26t-28 64t28 64t72 26h300z" />
    <glyph glyph-name="grave" unicode="`" horiz-adv-x="255" 
d="M170 450q-56 0 -90 56l-45 74q-15 25 -15 55q0 34 21.5 54.5t58.5 20.5q75 0 100 -75l25 -75q10 -25 10 -50q0 -27 -17.5 -43.5t-47.5 -16.5z" />
    <glyph glyph-name="a" unicode="a" horiz-adv-x="585" 
d="M540 330v-240q0 -38 -28 -64t-72 -26q-31 0 -53.5 12.5t-29.5 25.5l-7 12h-10q-2 -2 -5 -6.5t-14.5 -14.5t-25 -18t-35 -14.5t-45.5 -6.5q-85 0 -137.5 48.5t-52.5 121.5q0 76 62.5 123t187.5 47h65q0 19 -19 37t-41 18q-29 0 -61.5 -25t-68.5 -25q-44 0 -67 20t-23 55
q0 45 57 85t163 40q119 0 189.5 -59.5t70.5 -145.5zM340 196v9h-65q-50 0 -50 -35t50 -35q26 0 45.5 18.5t19.5 42.5z" />
    <glyph glyph-name="b" unicode="b" horiz-adv-x="615" 
d="M55 215v415q0 38 28 64t72 26t72 -26t28 -64v-120h10q30 25 115 25q84 0 144.5 -65.5t60.5 -164.5v-90q0 -96 -74 -163t-191 -67t-191 67t-74 163zM385 215v90q0 33 -19 54t-46 21t-46 -21t-19 -54v-90q0 -33 19 -54t46 -21t46 21t19 54z" />
    <glyph glyph-name="c" unicode="c" horiz-adv-x="540" 
d="M30 215v90q0 96 74 163t191 67q98 0 159 -45t61 -95q0 -80 -90 -80q-37 0 -72 27.5t-58 27.5q-26 0 -45.5 -19.5t-19.5 -45.5v-90q0 -26 19.5 -45.5t45.5 -19.5q29 0 66.5 27.5t73.5 27.5q90 0 90 -80q0 -51 -63 -95.5t-167 -44.5q-117 0 -191 67t-74 163z" />
    <glyph glyph-name="d" unicode="d" horiz-adv-x="615" 
d="M460 -5q-31 0 -53.5 12.5t-29.5 24.5l-7 13h-10q-2 -2 -5 -6.5t-14.5 -14.5t-25 -18t-35 -14.5t-45.5 -6.5q-84 0 -144.5 65.5t-60.5 164.5v90q0 99 60.5 164.5t144.5 65.5q38 0 66.5 -6.5t38.5 -12.5l10 -6h10v120q0 38 28 64t72 26t72 -26t28 -64v-545q0 -38 -28 -64
t-72 -26zM230 305v-90q0 -33 19 -54t46 -21t46 21t19 54v90q0 33 -19 54t-46 21t-46 -21t-19 -54z" />
    <glyph glyph-name="e" unicode="e" horiz-adv-x="575" 
d="M550 305v-15q0 -38 -28 -64t-72 -26h-220q0 -30 19 -50t46 -20q29 0 66.5 25t73.5 25q90 0 90 -80q0 -40 -62 -77.5t-168 -37.5q-117 0 -191 67t-74 163v90q0 96 73 163t187 67t187 -67t73 -163zM230 315h120q0 26 -17 43t-43 17t-43 -17t-17 -43z" />
    <glyph glyph-name="f" unicode="f" horiz-adv-x="430" 
d="M80 85v250l-7.5 2.5t-16.5 8.5t-21.5 16t-17 24.5t-7.5 33.5q0 29 17.5 50t34.5 28l18 7v5q0 90 60 150t150 60q78 0 119 -29.5t41 -70.5q0 -34 -21.5 -54.5t-58.5 -20.5q-10 0 -25 5t-25 5q-15 0 -27.5 -13.5t-12.5 -31.5h50q44 0 72 -25.5t28 -64.5q0 -38 -28 -64
t-72 -26h-50v-245q0 -38 -28 -64t-72 -26t-72 26t-28 64z" />
    <glyph glyph-name="g" unicode="g" horiz-adv-x="610" 
d="M560 435v-435q0 -90 -75 -155t-195 -65q-103 0 -166.5 43t-63.5 87q0 80 90 80q36 0 73.5 -27.5t66.5 -27.5q30 0 50 19t20 46v40h-10q-30 -25 -115 -25q-84 0 -144.5 65.5t-60.5 164.5v60q0 99 60.5 164.5t144.5 65.5q38 0 69 -15t44 -30l12 -15h10q2 6 7.5 14t28.5 22
t54 14q44 0 72 -26t28 -64zM230 305v-60q0 -33 19 -54t46 -21t46 21t19 54v60q0 33 -19 54t-46 21t-46 -21t-19 -54z" />
    <glyph glyph-name="h" unicode="h" horiz-adv-x="620" 
d="M255 305v-220q0 -38 -28 -64t-72 -26t-72 26t-28 64v545q0 38 28 64t72 26t72 -26t28 -64v-145h10q4 6 13 14t37.5 22t59.5 14q85 0 142.5 -63.5t57.5 -166.5v-220q0 -38 -28 -64t-72 -26t-72 26t-28 64v220q0 29 -18.5 49.5t-41.5 20.5t-41.5 -20.5t-18.5 -49.5z" />
    <glyph glyph-name="i" unicode="i" horiz-adv-x="300" 
d="M250 415v-330q0 -38 -28 -64t-72 -26t-72 26t-28 64v330q0 38 28 64t72 26t72 -26t28 -64zM150 740q44 0 74.5 -28.5t30.5 -66.5t-30.5 -66.5t-74.5 -28.5t-74.5 28.5t-30.5 66.5t30.5 66.5t74.5 28.5z" />
    <glyph glyph-name="j" unicode="j" horiz-adv-x="305" 
d="M255 415v-345q0 -126 -79 -208t-196 -82q-34 0 -57 23t-23 57q0 30 16 49t38.5 30t45.5 23.5t39 39.5t16 68v345q0 38 28 64t72 26t72 -26t28 -64zM155 740q44 0 74.5 -28.5t30.5 -66.5t-30.5 -66.5t-74.5 -28.5t-74.5 28.5t-30.5 66.5t30.5 66.5t74.5 28.5z" />
    <glyph glyph-name="k" unicode="k" horiz-adv-x="575" 
d="M435 280l110 -135q30 -35 30 -70t-25.5 -57.5t-69.5 -22.5q-24 0 -45.5 10t-30.5 20l-9 10l-110 135l-30 -30v-55q0 -38 -28 -64t-72 -26t-72 26t-28 64v545q0 38 28 64t72 26t72 -26t28 -64v-265l120 110q4 5 12.5 12.5t33.5 20t49 12.5q38 0 61.5 -24t23.5 -61
q0 -22 -10 -43.5t-20 -31.5l-10 -10z" />
    <glyph glyph-name="l" unicode="l" horiz-adv-x="310" 
d="M255 630v-545q0 -38 -28 -64t-72 -26t-72 26t-28 64v545q0 38 28 64t72 26t72 -26t28 -64z" />
    <glyph glyph-name="m" unicode="m" horiz-adv-x="895" 
d="M250 315v-230q0 -38 -28 -64t-72 -26t-72 26t-28 64v350q0 38 28 64t72 26q31 0 53.5 -13t29.5 -23.5t7 -13.5h10q2 2 5 6.5t14 14.5t24 18t34 14.5t43 6.5q38 0 71.5 -15t48.5 -30l15 -15h10q2 2 6 6.5t17.5 14.5t29 18t40.5 14.5t52 6.5q81 0 135.5 -60.5t54.5 -159.5
v-230q0 -38 -28 -64t-72 -26t-72 26t-28 64v230q0 25 -15.5 42.5t-34.5 17.5t-34.5 -17.5t-15.5 -42.5v-230q0 -38 -28 -64t-72 -26t-72 26t-28 64v230q0 25 -15.5 42.5t-34.5 17.5t-34.5 -17.5t-15.5 -42.5z" />
    <glyph glyph-name="n" unicode="n" horiz-adv-x="615" 
d="M250 305v-220q0 -38 -28 -64t-72 -26t-72 26t-28 64v350q0 38 28 64t72 26q31 0 53.5 -13t29.5 -23.5t7 -13.5h10q2 2 5 6.5t14 14.5t24 18t34 14.5t43 6.5q85 0 142.5 -63.5t57.5 -166.5v-220q0 -38 -28 -64t-72 -26t-72 26t-28 64v220q0 29 -18.5 49.5t-41.5 20.5
t-41.5 -20.5t-18.5 -49.5z" />
    <glyph glyph-name="o" unicode="o" 
d="M295 380q-27 0 -46 -21t-19 -54v-90q0 -33 19 -54t46 -21t46 21t19 54v90q0 33 -19 54t-46 21zM295 -15q-117 0 -191 67t-74 163v90q0 96 74 163t191 67t191 -67t74 -163v-90q0 -96 -74 -163t-191 -67z" />
    <glyph glyph-name="p" unicode="p" horiz-adv-x="610" 
d="M150 525q31 0 53.5 -12.5t29.5 -24.5l7 -13h10q2 2 5 6.5t14.5 14.5t25 18t35 14.5t45.5 6.5q84 0 144.5 -65.5t60.5 -164.5v-90q0 -99 -60.5 -164.5t-144.5 -65.5q-38 0 -66.5 6.5t-38.5 12.5l-10 6h-10v-140q0 -38 -28 -64t-72 -26t-72 26t-28 64v565q0 38 28 64t72 26
zM380 215v90q0 33 -19 54t-46 21t-46 -21t-19 -54v-90q0 -33 19 -54t46 -21t46 21t19 54z" />
    <glyph glyph-name="q" unicode="q" horiz-adv-x="610" 
d="M560 305v-435q0 -38 -28 -64t-72 -26t-72 26t-28 64v140h-10q-30 -25 -115 -25q-84 0 -144.5 65.5t-60.5 164.5v90q0 96 74 163t191 67t191 -67t74 -163zM230 305v-90q0 -33 19 -54t46 -21t46 21t19 54v90q0 33 -19 54t-46 21t-46 -21t-19 -54z" />
    <glyph glyph-name="r" unicode="r" horiz-adv-x="480" 
d="M385 340q-13 0 -38 5t-37 5q-26 0 -43 -17t-17 -43v-205q0 -38 -28 -64t-72 -26t-72 26t-28 64v350q0 38 28 64t72 26q20 0 36.5 -5.5t26 -13.5t16 -16.5t9 -13.5t2.5 -6h10q2 3 5 7t14.5 15.5t25 20t35 15.5t45.5 7q48 0 76.5 -26.5t28.5 -68.5q0 -45 -26.5 -72.5
t-68.5 -27.5z" />
    <glyph glyph-name="s" unicode="s" horiz-adv-x="510" 
d="M500 160q0 -76 -66 -125.5t-194 -49.5q-106 0 -168 40.5t-62 84.5q0 35 23 55t67 20q36 0 73.5 -27.5t66.5 -27.5q25 0 37.5 9t12.5 21q0 13 -27.5 22t-66 18.5t-77.5 25t-66.5 50t-27.5 84.5q0 79 62 127t188 48q97 0 156 -41t59 -84q0 -35 -23 -55t-67 -20
q-30 0 -51.5 13.5t-38.5 27.5t-35 14t-29 -9t-11 -21q0 -13 27.5 -22t66.5 -18.5t77.5 -25t66 -50t27.5 -84.5z" />
    <glyph glyph-name="t" unicode="t" horiz-adv-x="455" 
d="M80 515v35q0 38 28 64t72 26t72 -26t28 -64v-30h50q44 0 72 -26t28 -64q0 -39 -28 -64.5t-72 -25.5h-50v-145q0 -18 12.5 -31.5t27.5 -13.5q10 0 25 5t25 5q37 0 58.5 -20.5t21.5 -54.5q0 -41 -41 -70.5t-119 -29.5q-90 0 -150 60t-60 150v150l-7.5 2.5t-16.5 8.5
t-21.5 16t-17 24.5t-7.5 33.5q0 29 17.5 50t34.5 28z" />
    <glyph glyph-name="u" unicode="u" horiz-adv-x="620" 
d="M370 215v220q0 38 28 64t72 26t72 -26t28 -64v-350q0 -38 -28 -64t-72 -26q-31 0 -53.5 13t-29.5 23.5t-7 13.5h-10q-2 -2 -5 -6.5t-14 -14.5t-24 -18t-34 -14.5t-43 -6.5q-85 0 -142.5 63.5t-57.5 166.5v220q0 38 28 64t72 26t72 -26t28 -64v-220q0 -29 18.5 -49.5
t41.5 -20.5t41.5 20.5t18.5 49.5z" />
    <glyph glyph-name="v" unicode="v" horiz-adv-x="560" 
d="M280 -15q-119 0 -155 100l-105 285q-15 40 -15 70q0 38 24.5 61.5t65.5 23.5q81 0 110 -85l70 -230h10l70 230q29 85 110 85q41 0 65.5 -23.5t24.5 -61.5q0 -13 -3.5 -30.5t-7.5 -28.5l-4 -11l-105 -285q-36 -100 -155 -100z" />
    <glyph glyph-name="w" unicode="w" horiz-adv-x="882" 
d="M441 524q54 1 87.5 -27t42.5 -72l35 -175h10l46 190q20 85 115 85q41 0 65.5 -23.5t24.5 -61.5q0 -16 -2.5 -33.5t-4.5 -26.5l-3 -10l-81 -285q-29 -100 -145 -100q-60 0 -96.5 27.5t-48.5 72.5l-40 185h-10l-40 -185q-12 -45 -48.5 -72.5t-96.5 -27.5q-116 0 -145 100
l-81 285q-10 35 -10 70q0 38 24.5 61.5t65.5 23.5q95 0 115 -85l46 -190h10l35 175q9 44 42.5 72t87.5 27z" />
    <glyph glyph-name="x" unicode="x" horiz-adv-x="540" 
d="M275 130h-10l-85 -95q-3 -4 -9.5 -11t-27.5 -18t-43 -11q-38 0 -64 26.5t-26 63.5q0 20 6 37.5t12 25.5l7 7l105 110l-85 100q-35 35 -35 70q0 38 27 64t68 26q24 0 45.5 -10t30.5 -20l9 -10l65 -75h10l65 75q3 4 9.5 11t29 18t46.5 11q41 0 68 -26t27 -64
q0 -16 -9 -33.5t-17 -27.5l-9 -9l-85 -100l105 -110q25 -25 25 -70q0 -37 -26 -63.5t-64 -26.5q-22 0 -42 10t-29 20l-9 10z" />
    <glyph glyph-name="y" unicode="y" horiz-adv-x="555" 
d="M125 -65l50 115l-155 320q-20 40 -20 70q0 38 24.5 61.5t65.5 23.5q81 0 115 -85l70 -170h10l65 170q34 85 115 85q41 0 65.5 -23.5t24.5 -61.5q0 -13 -5 -30.5t-10 -28.5l-5 -11l-225 -505q-20 -44 -46 -64.5t-69 -20.5q-41 0 -65.5 23.5t-24.5 61.5q0 13 5 30.5
t10 28.5z" />
    <glyph glyph-name="z" unicode="z" horiz-adv-x="520" 
d="M465 340l-170 -150v-10h120q44 0 72 -26t28 -64t-28 -64t-72 -26h-320q-37 0 -63.5 26t-26.5 64q0 24 10 46.5t20 33.5l10 10l170 150v10h-100q-44 0 -72 26t-28 64t28 64t72 26h300q37 0 63.5 -26t26.5 -64q0 -24 -10 -46.5t-20 -33.5z" />
    <glyph glyph-name="braceleft" unicode="{" horiz-adv-x="505" 
d="M255 290v-10q4 -1 11 -4t24 -14t30 -25t24 -40t11 -57v-100q0 -22 12 -36t28 -14q52 0 81 -27t29 -73t-29 -73t-81 -27q-119 0 -189.5 68.5t-70.5 181.5v100q0 18 -13 31.5t-32 18.5q-70 18 -70 95t70 95q19 5 32 18.5t13 31.5v100q0 113 70.5 181.5t189.5 68.5
q52 0 81 -27t29 -73t-29 -73t-81 -27q-16 0 -28 -14t-12 -36v-100q0 -31 -10.5 -56.5t-25 -40.5t-29 -25t-24.5 -14z" />
    <glyph glyph-name="bar" unicode="|" horiz-adv-x="370" 
d="M295 660v-750q0 -46 -29 -73t-81 -27t-81 27t-29 73v750q0 46 29 73t81 27t81 -27t29 -73z" />
    <glyph glyph-name="braceright" unicode="}" horiz-adv-x="505" 
d="M250 280v10q-4 1 -11 4t-24 14t-30 25t-24 40t-11 57v100q0 22 -12 36t-28 14q-52 0 -81 27t-29 73t29 73t81 27q119 0 189.5 -68.5t70.5 -181.5v-100q0 -18 13 -31.5t32 -18.5q70 -18 70 -95t-70 -95q-19 -5 -32 -18.5t-13 -31.5v-100q0 -113 -70.5 -181.5t-189.5 -68.5
q-52 0 -81 27t-29 73t29 73t81 27q16 0 28 14t12 36v100q0 31 10.5 56.5t25 40.5t29 25t25.5 14z" />
    <glyph glyph-name="asciitilde" unicode="~" horiz-adv-x="570" 
d="M390 220q-39 0 -73 15t-58 30t-39 15q-16 0 -30 -9.5t-22.5 -20.5t-26 -20.5t-41.5 -9.5q-41 0 -65.5 24t-24.5 65q0 62 48.5 106.5t121.5 44.5q39 0 73 -15t58 -30t39 -15q16 0 30 9.5t22.5 20.5t26 20.5t41.5 9.5q41 0 65.5 -24t24.5 -65q0 -62 -48.5 -106.5
t-121.5 -44.5z" />
    <glyph glyph-name="nbspace" unicode="&#xa0;" horiz-adv-x="280" 
 />
    <glyph glyph-name="exclamdown" unicode="&#xa1;" horiz-adv-x="310" 
d="M155 320q-52 0 -83.5 29.5t-31.5 75.5t31.5 75.5t83.5 29.5t83.5 -29.5t31.5 -75.5t-31.5 -75.5t-83.5 -29.5zM155 -220q-52 0 -86 32t-34 78l20 290q8 100 100 100t100 -100l20 -290q0 -46 -34 -78t-86 -32z" />
    <glyph glyph-name="cent" unicode="&#xa2;" horiz-adv-x="540" 
d="M30 215v90q0 83 42 136.5t113 73.5q0 38 28 64t72 26t72 -25t28 -60q60 -15 95 -49t35 -76q0 -80 -90 -80q-37 0 -72 27.5t-58 27.5q-26 0 -45.5 -19.5t-19.5 -45.5v-90q0 -26 19.5 -45.5t45.5 -19.5q29 0 66.5 27.5t73.5 27.5q90 0 90 -80q0 -42 -36.5 -77t-103.5 -53
q0 -31 -28.5 -55.5t-71.5 -24.5q-44 0 -72 25.5t-28 63.5q-63 13 -109 70.5t-46 140.5z" />
    <glyph glyph-name="sterling" unicode="&#xa3;" horiz-adv-x="640" 
d="M110 200q24 0 47 27t23 63q-44 0 -72 26t-28 64t28 64t72 26v0q0 112 67 181t173 69q85 0 132.5 -35.5t47.5 -84.5q0 -37 -19.5 -58.5t-50.5 -21.5q-21 0 -43.5 10t-36.5 10q-30 0 -50 -20t-20 -50h80q44 0 72 -26t28 -64t-28 -64t-72 -26h-80q0 -22 -12.5 -42t-25.5 -29
l-12 -9v-10h190q52 0 81 -27t29 -73t-29 -73t-81 -27h-410q-52 0 -81 27t-29 73t29 73t81 27z" />
    <glyph glyph-name="currency" unicode="&#xa4;" horiz-adv-x="680" 
d="M290 430h70q32 0 51 15t19 35t-19 35t-51 15h-70v-100zM70 90v15q-24 8 -42 29t-18 46t18 46t42 29v25q-23 8 -41.5 29.5t-18.5 45.5q0 25 18 46t42 29v170q0 46 29 73t81 27h180q144 0 222 -62.5t78 -157.5q0 -81 -79 -140.5t-221 -59.5h-70v-25h190q33 0 56.5 -22.5
t23.5 -52.5t-23.5 -52.5t-56.5 -22.5h-190v-15q0 -46 -29 -73t-81 -27t-81 27t-29 73z" />
    <glyph glyph-name="yen" unicode="&#xa5;" horiz-adv-x="680" 
d="M640 520l-70 -100q7 -1 17 -4.5t26.5 -21t16.5 -44.5q0 -31 -21.5 -50.5t-58.5 -19.5h-80l-20 -30h100q37 0 58.5 -19.5t21.5 -50.5t-21.5 -50.5t-58.5 -19.5h-100v-20q0 -46 -29 -73t-81 -27t-81 27t-29 73v20h-100q-37 0 -58.5 19.5t-21.5 50.5t21.5 50.5t58.5 19.5
h100l-20 30h-80q-37 0 -58.5 19.5t-21.5 50.5q0 27 15 44.5t30 21.5l15 4l-70 100q-40 50 -40 90q0 46 30 73t85 27q24 0 46.5 -12.5t32.5 -25.5l11 -12l130 -190h10l130 190q4 6 11.5 14t31 22t47.5 14q55 0 85 -27t30 -73q0 -18 -10 -40.5t-20 -35.5z" />
    <glyph glyph-name="brokenbar" unicode="&#xa6;" horiz-adv-x="370" 
d="M295 660v-230q0 -46 -29 -73t-81 -27t-81 27t-29 73v230q0 46 29 73t81 27t81 -27t29 -73zM295 140v-230q0 -46 -29 -73t-81 -27t-81 27t-29 73v230q0 46 29 73t81 27t81 -27t29 -73z" />
    <glyph glyph-name="section" unicode="&#xa7;" horiz-adv-x="555" 
d="M30 310q0 22 8 43t20 34t24 23.5t20 15.5l8 4v10l-4 2q-4 2 -10 6t-13.5 10t-15 15.5t-13.5 20t-10 25.5t-4 31q0 66 69.5 118t185.5 52q100 0 160 -40.5t60 -84.5q0 -35 -23 -55t-67 -20q-37 0 -72 22.5t-58 22.5q-21 0 -33 -8t-12 -17q0 -13 28.5 -25t69 -26t80.5 -34
t68.5 -57.5t28.5 -87.5q0 -27 -20 -52t-40 -36l-20 -12v-10l5 -3q4 -3 11 -9t15.5 -14t17 -19t15.5 -22.5t11.5 -27t4.5 -30.5q0 -70 -72.5 -122.5t-202.5 -52.5q-106 0 -168 40.5t-62 84.5q0 35 23 55t67 20q36 0 73.5 -22.5t66.5 -22.5q65 0 65 30q0 12 -29.5 23t-71 24.5
t-83.5 33t-71.5 57t-29.5 87.5zM230 320q0 -16 17.5 -27t34.5 -15l18 -3q20 10 20 25q0 16 -20 27.5t-40 14.5l-20 4q-10 -11 -10 -26z" />
    <glyph glyph-name="dieresis" unicode="&#xa8;" horiz-adv-x="500" 
d="M365 640q-41 0 -68 26t-27 64t27 64t68 26t68 -26t27 -64t-27 -64t-68 -26zM135 640q-41 0 -68 26t-27 64t27 64t68 26t68 -26t27 -64t-27 -64t-68 -26z" />
    <glyph glyph-name="copyright" unicode="&#xa9;" horiz-adv-x="1000" 
d="M320 265v60q0 70 53.5 117.5t141.5 47.5q70 0 112.5 -31.5t42.5 -68.5q0 -27 -17.5 -43.5t-47.5 -16.5q-26 0 -48.5 17.5t-41.5 17.5q-18 0 -31.5 -12.5t-13.5 -27.5v-60q0 -15 13.5 -27.5t31.5 -12.5t42 17.5t53 17.5q30 0 47.5 -16.5t17.5 -43.5q0 -38 -43.5 -69
t-116.5 -31q-88 0 -141.5 47.5t-53.5 117.5zM790 300q0 120 -85 205t-205 85t-205 -85t-85 -205t85 -205t205 -85t205 85t85 205zM970 300q0 -182 -135 -311t-335 -129t-335 129t-135 311t135 311t335 129t335 -129t135 -311z" />
    <glyph glyph-name="ordfeminine" unicode="&#xaa;" horiz-adv-x="425" 
d="M385 580v-155q0 -65 -75 -65q-20 0 -36 9t-22 17l-7 9h-5q-2 -4 -7.5 -11t-28.5 -18t-54 -11q-51 0 -85.5 31.5t-34.5 73.5q0 55 42 87.5t128 32.5h40q0 25 -34 25q-12 0 -36 -12.5t-55 -12.5q-60 0 -60 55q0 27 39.5 51t111.5 24q85 0 132 -37t47 -93zM240 480v25h-40
q-30 0 -30 -25t30 -25q11 0 21 6.5t15 12.5z" />
    <glyph glyph-name="guillemotleft" unicode="&#xab;" horiz-adv-x="635" 
d="M30 250q0 8 1.5 16t2.5 14t5.5 14t6 11.5t8 12l8 10.5t9.5 11t9 11l75 90q44 55 100 55q37 0 58.5 -19.5t21.5 -50.5q0 -8 -2 -17t-4.5 -15t-8.5 -14.5l-9 -12.5t-11 -13.5t-10 -12.5l-70 -85v-10l70 -85q2 -3 10 -12.5t11 -13.5l9 -12.5t8.5 -14.5t4.5 -15t2 -17
q0 -31 -21.5 -50.5t-58.5 -19.5q-56 0 -100 55l-75 90q-1 2 -9 11t-9.5 11l-8 10.5t-8 12t-6 11.5t-5.5 14t-2.5 14t-1.5 16zM300 250q0 8 1.5 16t2.5 14t5.5 14t6 11.5t8 12l8 10.5t9.5 11t9 11l75 90q44 55 100 55q37 0 58.5 -19.5t21.5 -50.5q0 -8 -2 -17t-4.5 -15
t-8.5 -14.5l-9 -12.5t-11 -13.5t-10 -12.5l-70 -85v-10l70 -85q2 -3 10 -12.5t11 -13.5l9 -12.5t8.5 -14.5t4.5 -15t2 -17q0 -31 -21.5 -50.5t-58.5 -19.5q-56 0 -100 55l-75 90q-1 2 -9 11t-9.5 11l-8 10.5t-8 12t-6 11.5t-5.5 14t-2.5 14t-1.5 16z" />
    <glyph glyph-name="logicalnot" unicode="&#xac;" horiz-adv-x="570" 
d="M10 380q0 38 28 64t72 26h340q44 0 72 -26t28 -64v-145q0 -38 -28 -64t-72 -26t-72 26t-28 64v55h-240q-44 0 -72 26t-28 64z" />
    <glyph glyph-name="uni00AD" unicode="&#xad;" horiz-adv-x="520" 
d="M410 430q44 0 72 -26t28 -64t-28 -64t-72 -26h-300q-44 0 -72 26t-28 64t28 64t72 26h300z" />
    <glyph glyph-name="registered" unicode="&#xae;" horiz-adv-x="1000" 
d="M490 240h-20v-70q0 -27 -20 -46t-50 -19t-50 19t-20 46v255q0 23 17 39t43 16h125q82 0 128.5 -35.5t46.5 -84.5q0 -29 -14 -50t-28 -28l-13 -7v-5l45 -65q20 -25 20 -45q0 -23 -18 -39t-47 -16q-52 0 -75 35zM470 340h45q11 0 18 6t7 14t-7 14t-18 6h-45v-40zM790 300
q0 120 -85 205t-205 85t-205 -85t-85 -205t85 -205t205 -85t205 85t85 205zM970 300q0 -182 -135 -311t-335 -129t-335 129t-135 311t135 311t335 129t335 -129t135 -311z" />
    <glyph glyph-name="macron" unicode="&#xaf;" horiz-adv-x="460" 
d="M115 820h230q34 0 54.5 -20.5t20.5 -54.5t-20.5 -54.5t-54.5 -20.5h-230q-34 0 -54.5 20.5t-20.5 54.5t20.5 54.5t54.5 20.5z" />
    <glyph glyph-name="degree" unicode="&#xb0;" horiz-adv-x="420" 
d="M265 540q0 26 -16 43t-39 17t-39 -17t-16 -43t16 -43t39 -17t39 17t16 43zM400 540q0 -73 -52.5 -121.5t-137.5 -48.5t-137.5 48.5t-52.5 121.5t52.5 121.5t137.5 48.5t137.5 -48.5t52.5 -121.5z" />
    <glyph glyph-name="plusminus" unicode="&#xb1;" 
d="M470 204q44 0 72 -26t28 -64t-28 -64t-72 -26h-350q-44 0 -72 26t-28 64t28 64t72 26h85v86h-85q-44 0 -72 26t-28 64t28 64t72 26h85v85q0 44 26 72t64 28t64 -28t26 -72v-85h85q44 0 72 -26t28 -64t-28 -64t-72 -26h-85v-86h85z" />
    <glyph glyph-name="twosuperior" unicode="&#xb2;" horiz-adv-x="400" 
d="M365 585q0 -31 -28.5 -53t-57.5 -30t-29 -6v-6h55q29 0 47 -19t18 -46q0 -26 -19.5 -45.5t-45.5 -19.5h-210q-26 0 -45.5 19.5t-19.5 45.5q0 37 29 64.5t63.5 39.5t63.5 26.5t29 29.5q0 20 -35 20q-17 0 -45.5 -20t-49.5 -20q-23 0 -36.5 13.5t-13.5 36.5q0 37 42.5 66
t122.5 29q75 0 120 -37t45 -88z" />
    <glyph glyph-name="threesuperior" unicode="&#xb3;" horiz-adv-x="391" 
d="M310 600l-50 -28v-6q4 0 11 -1t24.5 -7.5t30.5 -16t24 -29.5t10 -47q-1 -41 -46 -75.5t-119 -34.5q-79 0 -122 27t-43 58q0 22 14 36t36 14q21 0 49.5 -20t45.5 -20q35 0 35 23q0 22 -35 22h-35q-18 0 -29 10t-11 25q0 14 9 22.5t31 22.5l40 25v5h-89q-26 0 -41.5 13.5
t-15.5 35.5q0 23 15 37t42 14h198q61 0 61 -50q0 -33 -40 -55z" />
    <glyph glyph-name="acute" unicode="&#xb4;" horiz-adv-x="295" 
d="M105 590q-30 0 -47.5 16.5t-17.5 43.5q0 11 2.5 23.5t5.5 19.5l2 7l25 75q25 75 100 75q37 0 58.5 -20.5t21.5 -54.5q0 -13 -3.5 -27t-7.5 -21l-4 -7l-45 -74q-34 -56 -90 -56z" />
    <glyph glyph-name="mu" unicode="&#xb5;" horiz-adv-x="620" 
d="M310 0q-13 0 -25.5 5t-18.5 11l-6 5h-10v-151q0 -38 -28 -64t-72 -26t-72 26t-28 64v565q0 38 28 64t72 26t72 -26t28 -64v-210q0 -32 18 -51t42 -19t42 19t18 51v210q0 38 28 64t72 26t72 -26t28 -64v-350q0 -38 -28 -64t-72 -26q-31 0 -53.5 8.5t-29.5 17.5l-7 9h-10
q-20 -30 -60 -30z" />
    <glyph glyph-name="paragraph" unicode="&#xb6;" horiz-adv-x="710" 
d="M620 530v-670q0 -34 -25 -57t-65 -23t-65 23t-25 57v670h-50v-670q0 -34 -25 -57t-65 -23t-65 23t-25 57v460q-85 0 -142.5 55.5t-57.5 134.5t57.5 134.5t142.5 55.5h410q30 0 55 -26t25 -59t-23 -57t-57 -28z" />
    <glyph glyph-name="periodcentered" unicode="&#xb7;" horiz-adv-x="280" 
d="M140 455q52 0 83.5 -29.5t31.5 -75.5t-31.5 -75.5t-83.5 -29.5t-83.5 29.5t-31.5 75.5t31.5 75.5t83.5 29.5z" />
    <glyph glyph-name="cedilla" unicode="&#xb8;" horiz-adv-x="370" 
d="M330 -175q0 -53 -53 -94t-142 -41q-46 0 -70.5 18.5t-24.5 46.5q0 60 85 60q55 0 55 20t-55 20q-26 0 -43 16t-17 39v100h125v-50q67 -7 103.5 -42.5t36.5 -92.5z" />
    <glyph glyph-name="onesuperior" unicode="&#xb9;" horiz-adv-x="315" 
d="M275 650v-230q0 -27 -21 -46t-54 -19t-54 19t-21 46v105h-5q-15 -20 -45 -20q-23 0 -39 16.5t-16 38.5q0 15 6 27.5t12 17.5l7 5l80 70q30 35 75 35q33 0 54 -19t21 -46z" />
    <glyph glyph-name="ordmasculine" unicode="&#xba;" horiz-adv-x="420" 
d="M30 510v45q0 66 49.5 110.5t130.5 44.5t130.5 -45t49.5 -110v-45q0 -66 -49.5 -110.5t-130.5 -44.5t-130.5 44.5t-49.5 110.5zM240 510v45q0 11 -9.5 20.5t-20.5 9.5t-20.5 -9.5t-9.5 -20.5v-45q0 -11 9.5 -20.5t20.5 -9.5t20.5 9.5t9.5 20.5z" />
    <glyph glyph-name="guillemotright" unicode="&#xbb;" horiz-adv-x="635" 
d="M605 250q0 -8 -1.5 -16t-2.5 -14t-5.5 -14t-6 -11.5t-8 -12l-8 -10.5t-9.5 -11t-9 -11l-75 -90q-44 -55 -100 -55q-37 0 -58.5 19.5t-21.5 50.5q0 8 2 17t4.5 15t8.5 14.5l9 12.5t11 13.5t10 12.5l70 85v10l-70 85q-2 3 -10 12.5t-11 13.5l-9 12.5t-8.5 14.5t-4.5 15
t-2 17q0 31 21.5 50.5t58.5 19.5q56 0 100 -55l75 -90q1 -2 9 -11t9.5 -11l8 -10.5t8 -12t6 -11.5t5.5 -14t2.5 -14t1.5 -16zM335 250q0 -8 -1.5 -16t-2.5 -14t-5.5 -14t-6 -11.5t-8 -12l-8 -10.5t-9.5 -11t-9 -11l-75 -90q-44 -55 -100 -55q-37 0 -58.5 19.5t-21.5 50.5
q0 8 2 17t4.5 15t8.5 14.5l9 12.5t11 13.5t10 12.5l70 85v10l-70 85q-2 3 -10 12.5t-11 13.5l-9 12.5t-8.5 14.5t-4.5 15t-2 17q0 31 21.5 50.5t58.5 19.5q56 0 100 -55l75 -90q1 -2 9 -11t9.5 -11l8 -10.5t8 -12t6 -11.5t5.5 -14t2.5 -14t1.5 -16z" />
    <glyph glyph-name="onequarter" unicode="&#xbc;" horiz-adv-x="945" 
d="M275 650v-230q0 -27 -21 -46t-54 -19t-54 19t-21 46v105h-5q-15 -20 -45 -20q-23 0 -39 16.5t-16 38.5q0 15 6 27.5t12 17.5l7 5l80 70q30 35 75 35q33 0 54 -19t21 -46zM700 545l-365 -515q-3 -6 -10 -14t-31.5 -22t-53.5 -14q-34 0 -57 23t-23 57q0 18 6 36.5t12 28.5
l7 10l365 515q3 6 10 14t31.5 22t53.5 14q34 0 57 -23t23 -57q0 -18 -6.5 -36.5t-12.5 -28.5zM860 55q0 -27 -21 -46t-54 -19t-54 19t-21 46h-125q-26 0 -43 16.5t-17 38.5q0 16 6.5 31t12.5 22l6 7l95 115q28 34 54.5 49.5t73.5 15.5q41 0 64 -18.5t23 -46.5v-120
q22 0 38.5 -16.5t16.5 -38.5t-16.5 -38.5t-38.5 -16.5zM670 155h50v60h-5l-45 -54v-6z" />
    <glyph glyph-name="onehalf" unicode="&#xbd;" horiz-adv-x="950" 
d="M700 545l-365 -515q-3 -6 -10 -14t-31.5 -22t-53.5 -14q-34 0 -57 23t-23 57q0 18 6 36.5t12 28.5l7 10l365 515q3 6 10 14t31.5 22t53.5 14q34 0 57 -23t23 -57q0 -18 -6.5 -36.5t-12.5 -28.5zM275 650v-230q0 -27 -21 -46t-54 -19t-54 19t-21 46v105h-5
q-15 -20 -45 -20q-23 0 -39 16.5t-16 38.5q0 15 6 27.5t12 17.5l7 5l80 70q30 35 75 35q33 0 54 -19t21 -46zM905 225q0 -31 -28.5 -53t-57.5 -30t-29 -6v-6h55q29 0 47 -19t18 -46q0 -26 -19.5 -45.5t-45.5 -19.5h-210q-26 0 -45.5 19.5t-19.5 45.5q0 37 29 64.5t63.5 39.5
t63.5 26.5t29 29.5q0 20 -35 20q-17 0 -45.5 -20t-49.5 -20q-23 0 -36.5 13.5t-13.5 36.5q0 37 42.5 66t122.5 29q75 0 120 -37t45 -88z" />
    <glyph glyph-name="threequarters" unicode="&#xbe;" horiz-adv-x="975" 
d="M745 545l-365 -515q-3 -6 -10 -14t-31.5 -22t-53.5 -14q-34 0 -57 23t-23 57q0 18 6.5 36.5t12.5 28.5l6 10l365 515q3 6 10 14t31.5 22t53.5 14q34 0 57 -23t23 -57q0 -18 -6 -36.5t-12 -28.5zM320 600l-50 -28v-6q4 0 11 -1t24.5 -7.5t30.5 -16t24 -29.5t10 -47
q-1 -41 -46 -75.5t-119 -34.5q-79 0 -122 27t-43 58q0 22 14 36t36 14q21 0 49.5 -20t45.5 -20q35 0 35 23q0 22 -35 22h-35q-18 0 -29 10t-11 25q0 14 9 22.5t31 22.5l40 25v5h-89q-26 0 -41.5 13.5t-15.5 35.5q0 23 15 37t42 14h198q61 0 61 -50q0 -33 -40 -55zM880 55
q0 -27 -21 -46t-54 -19t-54 19t-21 46h-125q-26 0 -43 16.5t-17 38.5q0 16 6.5 31t12.5 22l6 7l95 115q28 34 54.5 49.5t73.5 15.5q41 0 64 -18.5t23 -46.5v-120q22 0 38.5 -16.5t16.5 -38.5t-16.5 -38.5t-38.5 -16.5zM690 155h50v60h-5l-45 -54v-6z" />
    <glyph glyph-name="questiondown" unicode="&#xbf;" 
d="M405 180q-7 -30 -32 -58.5t-51 -45.5t-46.5 -35t-20.5 -31q0 -16 16 -28t44 -12q31 0 72 35t83 35q55 0 82.5 -24t27.5 -66q0 -66 -71 -118t-194 -52q-139 0 -217 61t-78 149q0 36 14 65.5t35.5 48t44 33.5t43 31t28.5 32q40 80 120 80q53 0 81.5 -28t18.5 -72zM310 320
q-52 0 -83.5 29.5t-31.5 75.5t31.5 75.5t83.5 29.5t83.5 -29.5t31.5 -75.5t-31.5 -75.5t-83.5 -29.5z" />
    <glyph glyph-name="Agrave" unicode="&#xc0;" horiz-adv-x="720" 
d="M300 330h120l-55 150h-10zM255 150l-25 -60q-42 -100 -120 -100q-48 0 -79 29t-31 71q0 13 6 35.5t12 38.5l7 16l160 420q24 60 64 90t111 30t111.5 -30t63.5 -90l160 -420q25 -60 25 -90q0 -42 -31 -71t-79 -29q-78 0 -120 100l-25 60h-210zM362 780q-56 0 -90 56
l-45 74q-15 25 -15 55q0 34 21.5 54.5t58.5 20.5q75 0 100 -75l25 -75q10 -25 10 -50q0 -27 -17.5 -43.5t-47.5 -16.5z" />
    <glyph glyph-name="Aacute" unicode="&#xc1;" horiz-adv-x="720" 
d="M300 330h120l-55 150h-10zM255 150l-25 -60q-42 -100 -120 -100q-48 0 -79 29t-31 71q0 13 6 35.5t12 38.5l7 16l160 420q24 60 64 90t111 30t111.5 -30t63.5 -90l160 -420q25 -60 25 -90q0 -42 -31 -71t-79 -29q-78 0 -120 100l-25 60h-210zM377 780q-30 0 -47.5 16.5
t-17.5 43.5q0 11 2.5 23.5t5.5 19.5l2 7l25 75q25 75 100 75q37 0 58.5 -20.5t21.5 -54.5q0 -13 -3.5 -27t-7.5 -21l-4 -7l-45 -74q-34 -56 -90 -56z" />
    <glyph glyph-name="Acircumflex" unicode="&#xc2;" horiz-adv-x="720" 
d="M300 330h120l-55 150h-10zM255 150l-25 -60q-42 -100 -120 -100q-48 0 -79 29t-31 71q0 13 6 35.5t12 38.5l7 16l160 420q24 60 64 90t111 30t111.5 -30t63.5 -90l160 -420q25 -60 25 -90q0 -42 -31 -71t-79 -29q-78 0 -120 100l-25 60h-210zM360 1040q68 0 105 -50
l65 -90q25 -30 25 -55q0 -27 -20 -46t-50 -19q-31 0 -50 12.5t-35 37.5l-35 56h-10l-35 -56q-16 -25 -35 -37.5t-50 -12.5q-30 0 -50 19t-20 46q0 11 6.5 25t12.5 22l6 8l65 90q37 50 105 50z" />
    <glyph glyph-name="Atilde" unicode="&#xc3;" horiz-adv-x="720" 
d="M300 330h120l-55 150h-10zM255 150l-25 -60q-42 -100 -120 -100q-48 0 -79 29t-31 71q0 13 6 35.5t12 38.5l7 16l160 420q24 60 64 90t111 30t111.5 -30t63.5 -90l160 -420q25 -60 25 -90q0 -42 -31 -71t-79 -29q-78 0 -120 100l-25 60h-210zM442 800q-36 0 -76 25
t-54 25t-25 -12.5t-27.5 -25t-42.5 -12.5q-31 0 -50.5 21.5t-19.5 58.5q0 49 37.5 84.5t92.5 35.5q36 0 76 -25t54 -25t25 12.5t27.5 25t42.5 12.5q31 0 50.5 -21.5t19.5 -58.5q0 -49 -37.5 -84.5t-92.5 -35.5z" />
    <glyph glyph-name="Adieresis" unicode="&#xc4;" horiz-adv-x="720" 
d="M300 330h120l-55 150h-10zM255 150l-25 -60q-42 -100 -120 -100q-48 0 -79 29t-31 71q0 13 6 35.5t12 38.5l7 16l160 420q24 60 64 90t111 30t111.5 -30t63.5 -90l160 -420q25 -60 25 -90q0 -42 -31 -71t-79 -29q-78 0 -120 100l-25 60h-210zM475 790q-41 0 -68 26
t-27 64t27 64t68 26t68 -26t27 -64t-27 -64t-68 -26zM245 790q-41 0 -68 26t-27 64t27 64t68 26t68 -26t27 -64t-27 -64t-68 -26z" />
    <glyph glyph-name="Aring" unicode="&#xc5;" horiz-adv-x="720" 
d="M255 150l-25 -60q-42 -100 -120 -100q-48 0 -79 29t-31 71q0 13 6 35.5t12 38.5l7 16l160 420q23 58 56 84q-36 39 -36 91q0 57 44.5 98.5t110.5 41.5t110.5 -41.5t44.5 -98.5q0 -51 -37 -91q34 -28 57 -84l160 -420q25 -60 25 -90q0 -42 -31 -71t-79 -29q-78 0 -120 100
l-25 60h-210zM300 330h120l-55 150h-10zM400 775q0 18 -12.5 31.5t-27.5 13.5t-27.5 -13.5t-12.5 -31.5t12.5 -31.5t27.5 -13.5t27.5 13.5t12.5 31.5z" />
    <glyph glyph-name="AE" unicode="&#xc6;" horiz-adv-x="1015" 
d="M255 150l-25 -60q-42 -100 -120 -100q-48 0 -79 29t-31 71q0 13 6 35.5t12 38.5l7 16l150 400q24 60 64 90t111 30h190h5h340q52 0 81 -27t29 -73t-29 -73t-81 -27h-230v-60h150q44 0 72 -26t28 -64t-28 -64t-72 -26h-150v-60h240q52 0 81 -27t29 -73t-29 -73t-81 -27
h-350q-52 0 -81 27t-29 73v50h-180zM360 500l-60 -170h135v170h-75z" />
    <glyph glyph-name="Ccedilla" unicode="&#xc7;" horiz-adv-x="670" 
d="M40 280v140q0 130 92 215t243 85q122 0 198.5 -55t76.5 -115q0 -42 -27.5 -66t-82.5 -24q-41 0 -84.5 35t-80.5 35q-49 0 -79.5 -30.5t-30.5 -79.5v-140q0 -49 30.5 -79.5t79.5 -30.5q43 0 89.5 35t85.5 35q55 0 82.5 -24t27.5 -66q0 -60 -78.5 -115t-206.5 -55h-5v-20
q67 -7 103.5 -42.5t36.5 -92.5q0 -53 -53 -94t-142 -41q-46 0 -70.5 18.5t-24.5 46.5q0 60 85 60q55 0 55 20t-55 20q-26 0 -43 16t-17 39v90q-96 31 -150.5 106t-54.5 174z" />
    <glyph glyph-name="Egrave" unicode="&#xc8;" horiz-adv-x="685" 
d="M555 500h-270v-60h190q44 0 72 -26t28 -64t-28 -64t-72 -26h-190v-60h280q52 0 81 -27t29 -73t-29 -73t-81 -27h-390q-52 0 -81 27t-29 73v500q0 46 29 73t81 27h380q52 0 81 -27t29 -73t-29 -73t-81 -27zM382 780q-56 0 -90 56l-45 74q-15 25 -15 55q0 34 21.5 54.5
t58.5 20.5q75 0 100 -75l25 -75q10 -25 10 -50q0 -27 -17.5 -43.5t-47.5 -16.5z" />
    <glyph glyph-name="Eacute" unicode="&#xc9;" horiz-adv-x="685" 
d="M555 500h-270v-60h190q44 0 72 -26t28 -64t-28 -64t-72 -26h-190v-60h280q52 0 81 -27t29 -73t-29 -73t-81 -27h-390q-52 0 -81 27t-29 73v500q0 46 29 73t81 27h380q52 0 81 -27t29 -73t-29 -73t-81 -27zM347 781q-30 0 -47.5 16.5t-17.5 43.5q0 11 2.5 23.5t5.5 19.5
l2 7l25 75q25 75 100 75q37 0 58.5 -20.5t21.5 -54.5q0 -13 -3.5 -27t-7.5 -21l-4 -7l-45 -74q-34 -56 -90 -56z" />
    <glyph glyph-name="Ecircumflex" unicode="&#xca;" horiz-adv-x="685" 
d="M555 500h-270v-60h190q44 0 72 -26t28 -64t-28 -64t-72 -26h-190v-60h280q52 0 81 -27t29 -73t-29 -73t-81 -27h-390q-52 0 -81 27t-29 73v500q0 46 29 73t81 27h380q52 0 81 -27t29 -73t-29 -73t-81 -27zM360 1040q68 0 105 -50l65 -90q25 -30 25 -55q0 -27 -20 -46
t-50 -19q-31 0 -50 12.5t-35 37.5l-35 56h-10l-35 -56q-16 -25 -35 -37.5t-50 -12.5q-30 0 -50 19t-20 46q0 11 6.5 25t12.5 22l6 8l65 90q37 50 105 50z" />
    <glyph glyph-name="Edieresis" unicode="&#xcb;" horiz-adv-x="685" 
d="M555 500h-270v-60h190q44 0 72 -26t28 -64t-28 -64t-72 -26h-190v-60h280q52 0 81 -27t29 -73t-29 -73t-81 -27h-390q-52 0 -81 27t-29 73v500q0 46 29 73t81 27h380q52 0 81 -27t29 -73t-29 -73t-81 -27zM475 790q-41 0 -68 26t-27 64t27 64t68 26t68 -26t27 -64
t-27 -64t-68 -26zM245 790q-41 0 -68 26t-27 64t27 64t68 26t68 -26t27 -64t-27 -64t-68 -26z" />
    <glyph glyph-name="Igrave" unicode="&#xcc;" horiz-adv-x="348" 
d="M288 610v-520q0 -46 -29 -73t-81 -27t-81 27t-29 73v520q0 46 29 73t81 27t81 -27t29 -73zM190 780q-56 0 -90 56l-45 74q-15 25 -15 55q0 34 21.5 54.5t58.5 20.5q75 0 100 -75l25 -75q10 -25 10 -50q0 -27 -17.5 -43.5t-47.5 -16.5z" />
    <glyph glyph-name="Iacute" unicode="&#xcd;" horiz-adv-x="357" 
d="M285 610v-520q0 -46 -29 -73t-81 -27t-81 27t-29 73v520q0 46 29 73t81 27t81 -27t29 -73zM172 780q-30 0 -47.5 16.5t-17.5 43.5q0 11 2.5 23.5t4.5 19.5l3 7l25 75q25 75 100 75q37 0 58.5 -20.5t21.5 -54.5q0 -13 -4 -27t-8 -21l-3 -7l-45 -74q-34 -56 -90 -56z" />
    <glyph glyph-name="Icircumflex" unicode="&#xce;" horiz-adv-x="370" 
d="M295 610v-520q0 -46 -29 -73t-81 -27t-81 27t-29 73v520q0 46 29 73t81 27t81 -27t29 -73zM185 1040q68 0 105 -50l65 -90q25 -30 25 -55q0 -27 -20 -46t-50 -19q-31 0 -50 12.5t-35 37.5l-35 56h-10l-35 -56q-16 -25 -35 -37.5t-50 -12.5q-30 0 -50 19t-20 46q0 11 6 25
t12 22l7 8l65 90q38 50 105 50z" />
    <glyph glyph-name="Idieresis" unicode="&#xcf;" horiz-adv-x="350" 
d="M285 610v-520q0 -46 -29 -73t-81 -27t-81 27t-29 73v520q0 46 29 73t81 27t81 -27t29 -73zM290 790q-41 0 -68 26t-27 64t27 64t68 26t68 -26t27 -64t-27 -64t-68 -26zM60 790q-41 0 -68 26t-27 64t27 64t68 26t68 -26t27 -64t-27 -64t-68 -26z" />
    <glyph glyph-name="Eth" unicode="&#xd0;" horiz-adv-x="750" 
d="M710 400v-100q0 -131 -93.5 -215.5t-251.5 -84.5h-175q-52 0 -81 27t-29 73v150l-7.5 2.5t-16.5 9t-21.5 16.5t-17 25.5t-7.5 36.5q0 31 17.5 53.5t34.5 29.5l18 7v170q0 46 29 73t81 27h175q158 0 251.5 -84.5t93.5 -215.5zM365 520h-65v-90h20q44 0 72 -26t28 -64
t-28 -64t-72 -26h-20v-70h65q53 0 86.5 34t33.5 86v100q0 52 -33.5 86t-86.5 34z" />
    <glyph glyph-name="Ntilde" unicode="&#xd1;" horiz-adv-x="780" 
d="M295 320h-10v-230q0 -46 -29 -73t-81 -27t-81 27t-29 73v520q0 45 29 72.5t81 27.5q42 0 72.5 -23.5t67.5 -76.5l170 -230h10v230q0 46 29 73t81 27t81 -27t29 -73v-520q0 -45 -29 -72.5t-81 -27.5q-42 0 -72.5 23.5t-67.5 76.5zM472 780q-36 0 -76 25t-54 25t-25 -12.5
t-27.5 -25t-42.5 -12.5q-31 0 -50.5 21.5t-19.5 58.5q0 49 37.5 84.5t92.5 35.5q36 0 76 -25t54 -25t25 12.5t27.5 25t42.5 12.5q31 0 50.5 -21.5t19.5 -58.5q0 -49 -37.5 -84.5t-92.5 -35.5z" />
    <glyph glyph-name="Ograve" unicode="&#xd2;" horiz-adv-x="750" 
d="M710 420v-140q0 -130 -92 -215t-243 -85t-243 85t-92 215v140q0 130 92 215t243 85t243 -85t92 -215zM485 280v140q0 58 -32 94t-78 36t-78 -36t-32 -94v-140q0 -58 32 -94t78 -36t78 36t32 94zM387 780q-56 0 -90 56l-45 74q-15 25 -15 55q0 34 21.5 54.5t58.5 20.5
q75 0 100 -75l25 -75q10 -25 10 -50q0 -27 -17.5 -43.5t-47.5 -16.5z" />
    <glyph glyph-name="Oacute" unicode="&#xd3;" horiz-adv-x="750" 
d="M710 420v-140q0 -130 -92 -215t-243 -85t-243 85t-92 215v140q0 130 92 215t243 85t243 -85t92 -215zM485 280v140q0 58 -32 94t-78 36t-78 -36t-32 -94v-140q0 -58 32 -94t78 -36t78 36t32 94zM372 780q-30 0 -47.5 16.5t-17.5 43.5q0 11 2.5 23.5t4.5 19.5l3 7l25 75
q25 75 100 75q37 0 58.5 -20.5t21.5 -54.5q0 -13 -4 -27t-8 -21l-3 -7l-45 -74q-34 -56 -90 -56z" />
    <glyph glyph-name="Ocircumflex" unicode="&#xd4;" horiz-adv-x="750" 
d="M710 420v-140q0 -130 -92 -215t-243 -85t-243 85t-92 215v140q0 130 92 215t243 85t243 -85t92 -215zM485 280v140q0 58 -32 94t-78 36t-78 -36t-32 -94v-140q0 -58 32 -94t78 -36t78 36t32 94zM375 1040q67 0 105 -50l65 -90q25 -30 25 -55q0 -27 -20 -46t-50 -19
q-31 0 -50 12.5t-35 37.5l-35 56h-10l-35 -56q-16 -25 -35 -37.5t-50 -12.5q-30 0 -50 19t-20 46q0 11 6 25t12 22l7 8l65 90q38 50 105 50z" />
    <glyph glyph-name="Otilde" unicode="&#xd5;" horiz-adv-x="750" 
d="M710 420v-140q0 -130 -92 -215t-243 -85t-243 85t-92 215v140q0 130 92 215t243 85t243 -85t92 -215zM485 280v140q0 58 -32 94t-78 36t-78 -36t-32 -94v-140q0 -58 32 -94t78 -36t78 36t32 94zM457 790q-36 0 -76 25t-54 25t-25 -12.5t-27.5 -25t-42.5 -12.5
q-31 0 -50.5 21.5t-19.5 58.5q0 49 37.5 84.5t92.5 35.5q36 0 76 -25t54 -25t25 12.5t27.5 25t42.5 12.5q31 0 50.5 -21.5t19.5 -58.5q0 -49 -37.5 -84.5t-92.5 -35.5z" />
    <glyph glyph-name="Odieresis" unicode="&#xd6;" horiz-adv-x="750" 
d="M710 420v-140q0 -130 -92 -215t-243 -85t-243 85t-92 215v140q0 130 92 215t243 85t243 -85t92 -215zM485 280v140q0 58 -32 94t-78 36t-78 -36t-32 -94v-140q0 -58 32 -94t78 -36t78 36t32 94zM490 790q-41 0 -68 26t-27 64t27 64t68 26t68 -26t27 -64t-27 -64t-68 -26z
M260 790q-41 0 -68 26t-27 64t27 64t68 26t68 -26t27 -64t-27 -64t-68 -26z" />
    <glyph glyph-name="multiply" unicode="&#xd7;" horiz-adv-x="532" 
d="M78 355q-31 32 -32.5 70.5t25.5 64.5q26 27 64.5 25.5t70.5 -33.5l60 -60l60 60q31 32 69.5 33.5t64.5 -25.5q28 -26 26.5 -64.5t-33.5 -70.5l-60 -60l60 -60q32 -31 33.5 -69.5t-26.5 -64.5q-26 -28 -64.5 -26.5t-69.5 33.5l-60 60l-60 -60q-32 -32 -70.5 -33.5
t-64.5 26.5q-27 26 -25.5 64.5t32.5 69.5l61 60z" />
    <glyph glyph-name="Oslash" unicode="&#xd8;" horiz-adv-x="750" 
d="M485 280v110l-145 -235q0 -5 35 -5q46 0 78 36t32 94zM265 420v-110l145 235q-20 5 -35 5q-46 0 -78 -36t-32 -94zM710 420v-140q0 -130 -92 -215t-243 -85q-31 0 -65 5t-52 10l-18 5l-2 -4q-2 -4 -7 -11t-11.5 -13.5t-18.5 -11.5t-26 -5q-33 0 -54 18t-21 42q0 16 5 31
t10 22l5 7q-3 3 -8.5 9t-19.5 26t-24.5 42t-19 57t-8.5 71v140q0 130 92 215t243 85q31 0 65 -5t52 -10l18 -5l2 4q2 4 7 11t11.5 13.5t18.5 11.5t26 5q33 0 54 -18t21 -42q0 -16 -5 -31t-10 -22l-5 -7q3 -3 8.5 -9t19.5 -26t24.5 -42t19 -57t8.5 -71z" />
    <glyph glyph-name="Ugrave" unicode="&#xd9;" horiz-adv-x="770" 
d="M385 -20q-148 0 -234 80t-86 210v340q0 46 29 73t81 27t81 -27t29 -73v-340q0 -52 27 -81t73 -29t73 29t27 81v340q0 46 29 73t81 27t81 -27t29 -73v-340q0 -130 -86 -210t-234 -80zM397 770q-56 0 -90 56l-45 74q-15 25 -15 55q0 34 21.5 54.5t58.5 20.5q75 0 100 -75
l25 -75q10 -25 10 -50q0 -27 -17.5 -43.5t-47.5 -16.5z" />
    <glyph glyph-name="Uacute" unicode="&#xda;" horiz-adv-x="770" 
d="M385 -20q-148 0 -234 80t-86 210v340q0 46 29 73t81 27t81 -27t29 -73v-340q0 -52 27 -81t73 -29t73 29t27 81v340q0 46 29 73t81 27t81 -27t29 -73v-340q0 -130 -86 -210t-234 -80zM393 770q-30 0 -47.5 16.5t-17.5 43.5q0 11 2.5 23.5t5.5 19.5l2 7l25 75q25 75 100 75
q37 0 58.5 -20.5t21.5 -54.5q0 -13 -3.5 -27t-7.5 -21l-4 -7l-45 -74q-34 -56 -90 -56z" />
    <glyph glyph-name="Ucircumflex" unicode="&#xdb;" horiz-adv-x="770" 
d="M385 -20q-148 0 -234 80t-86 210v340q0 46 29 73t81 27t81 -27t29 -73v-340q0 -52 27 -81t73 -29t73 29t27 81v340q0 46 29 73t81 27t81 -27t29 -73v-340q0 -130 -86 -210t-234 -80zM385 1030q68 0 105 -50l65 -90q25 -30 25 -55q0 -27 -20 -46t-50 -19q-31 0 -50 12.5
t-35 37.5l-35 56h-10l-35 -56q-16 -25 -35 -37.5t-50 -12.5q-30 0 -50 19t-20 46q0 11 6 25t12 22l7 8l65 90q38 50 105 50z" />
    <glyph glyph-name="Udieresis" unicode="&#xdc;" horiz-adv-x="770" 
d="M385 -20q-148 0 -234 80t-86 210v340q0 46 29 73t81 27t81 -27t29 -73v-340q0 -52 27 -81t73 -29t73 29t27 81v340q0 46 29 73t81 27t81 -27t29 -73v-340q0 -130 -86 -210t-234 -80zM510 790q-41 0 -68 26t-27 64t27 64t68 26t68 -26t27 -64t-27 -64t-68 -26zM280 790
q-41 0 -68 26t-27 64t27 64t68 26t68 -26t27 -64t-27 -64t-68 -26z" />
    <glyph glyph-name="Yacute" unicode="&#xdd;" horiz-adv-x="680" 
d="M335 470h10l130 190q4 6 11.5 14t31 22t47.5 14q55 0 85 -27t30 -73q0 -18 -10 -40.5t-20 -35.5l-10 -14l-190 -270v-160q0 -46 -29 -73t-81 -27t-81 27t-29 73v160l-190 270q-40 50 -40 90q0 46 30 73t85 27q24 0 46.5 -12.5t32.5 -25.5l11 -12zM347 770
q-30 0 -47.5 16.5t-17.5 43.5q0 11 2.5 23.5t5.5 19.5l2 7l25 75q25 75 100 75q37 0 58.5 -20.5t21.5 -54.5q0 -13 -3.5 -27t-7.5 -21l-4 -7l-45 -74q-34 -56 -90 -56z" />
    <glyph glyph-name="Thorn" unicode="&#xde;" horiz-adv-x="700" 
d="M285 610h90q146 0 228 -71.5t82 -183.5t-82 -183.5t-228 -71.5h-90v-20q0 -46 -29 -73t-81 -27t-81 27t-29 73v550q0 46 29 73t81 27t81 -27t29 -73v-20zM285 280h90q37 0 58.5 20.5t21.5 54.5t-21.5 54.5t-58.5 20.5h-90v-150z" />
    <glyph glyph-name="germandbls" unicode="&#xdf;" horiz-adv-x="650" 
d="M50 86v424q0 93 66.5 151.5t183.5 58.5q113 0 179 -57t66 -143q0 -37 -27.5 -72.5t-27.5 -57.5q0 -19 15.5 -36t37.5 -32t44 -33.5t37.5 -49t15.5 -69.5q0 -78 -66 -134t-174 -56q-67 0 -98.5 27.5t-31.5 72.5q0 30 20 50t50 20q10 0 25 -5t25 -5q22 0 36 14t14 36
q0 16 -14.5 31t-35 28.5t-41 30.5t-35 45.5t-14.5 64.5q0 31 22.5 63.5t22.5 56.5q0 29 -12.5 44.5t-32.5 15.5q-50 0 -50 -60v-424q0 -39 -28 -65t-72 -26t-72 26t-28 65z" />
    <glyph glyph-name="agrave" unicode="&#xe0;" horiz-adv-x="585" 
d="M540 330v-240q0 -38 -28 -64t-72 -26q-31 0 -53.5 12.5t-29.5 25.5l-7 12h-10q-2 -2 -5 -6.5t-14.5 -14.5t-25 -18t-35 -14.5t-45.5 -6.5q-85 0 -137.5 48.5t-52.5 121.5q0 76 62.5 123t187.5 47h65q0 19 -19 37t-41 18q-29 0 -61.5 -25t-68.5 -25q-44 0 -67 20t-23 55
q0 45 57 85t163 40q119 0 189.5 -59.5t70.5 -145.5zM340 196v9h-65q-50 0 -50 -35t50 -35q26 0 45.5 18.5t19.5 42.5zM305 600q-56 0 -90 56l-45 74q-15 25 -15 55q0 34 21.5 54.5t58.5 20.5q75 0 100 -75l25 -75q10 -25 10 -50q0 -27 -17.5 -43.5t-47.5 -16.5z" />
    <glyph glyph-name="aacute" unicode="&#xe1;" horiz-adv-x="585" 
d="M540 330v-240q0 -38 -28 -64t-72 -26q-31 0 -53.5 12.5t-29.5 25.5l-7 12h-10q-2 -2 -5 -6.5t-14.5 -14.5t-25 -18t-35 -14.5t-45.5 -6.5q-85 0 -137.5 48.5t-52.5 121.5q0 76 62.5 123t187.5 47h65q0 19 -19 37t-41 18q-29 0 -61.5 -25t-68.5 -25q-44 0 -67 20t-23 55
q0 45 57 85t163 40q119 0 189.5 -59.5t70.5 -145.5zM340 196v9h-65q-50 0 -50 -35t50 -35q26 0 45.5 18.5t19.5 42.5zM300 600q-30 0 -47.5 16.5t-17.5 43.5q0 11 2.5 23.5t4.5 19.5l3 7l25 75q25 75 100 75q37 0 58.5 -20.5t21.5 -54.5q0 -13 -4 -27t-8 -21l-3 -7l-45 -74
q-34 -56 -90 -56z" />
    <glyph glyph-name="acircumflex" unicode="&#xe2;" horiz-adv-x="585" 
d="M540 330v-240q0 -38 -28 -64t-72 -26q-31 0 -53.5 12.5t-29.5 25.5l-7 12h-10q-2 -2 -5 -6.5t-14.5 -14.5t-25 -18t-35 -14.5t-45.5 -6.5q-85 0 -137.5 48.5t-52.5 121.5q0 76 62.5 123t187.5 47h65q0 19 -19 37t-41 18q-29 0 -61.5 -25t-68.5 -25q-44 0 -67 20t-23 55
q0 45 57 85t163 40q119 0 189.5 -59.5t70.5 -145.5zM340 196v9h-65q-50 0 -50 -35t50 -35q26 0 45.5 18.5t19.5 42.5zM302 860q68 0 105 -50l65 -90q25 -30 25 -55q0 -27 -20 -46t-50 -19q-31 0 -50 12.5t-35 37.5l-35 56h-10l-35 -56q-16 -25 -35 -37.5t-50 -12.5
q-30 0 -50 19t-20 46q0 11 6.5 25t12.5 22l6 8l65 90q38 50 105 50z" />
    <glyph glyph-name="atilde" unicode="&#xe3;" horiz-adv-x="585" 
d="M540 330v-240q0 -38 -28 -64t-72 -26q-31 0 -53.5 12.5t-29.5 25.5l-7 12h-10q-2 -2 -5 -6.5t-14.5 -14.5t-25 -18t-35 -14.5t-45.5 -6.5q-85 0 -137.5 48.5t-52.5 121.5q0 76 62.5 123t187.5 47h65q0 19 -19 37t-41 18q-29 0 -61.5 -25t-68.5 -25q-44 0 -67 20t-23 55
q0 45 57 85t163 40q119 0 189.5 -59.5t70.5 -145.5zM340 196v9h-65q-50 0 -50 -35t50 -35q26 0 45.5 18.5t19.5 42.5zM385 620q-36 0 -76 25t-54 25t-25 -12.5t-27.5 -25t-42.5 -12.5q-31 0 -50.5 21.5t-19.5 58.5q0 49 37.5 84.5t92.5 35.5q36 0 76 -25t54 -25t25 12.5
t27.5 25t42.5 12.5q31 0 50.5 -21.5t19.5 -58.5q0 -49 -37.5 -84.5t-92.5 -35.5z" />
    <glyph glyph-name="adieresis" unicode="&#xe4;" horiz-adv-x="585" 
d="M540 330v-240q0 -38 -28 -64t-72 -26q-31 0 -53.5 12.5t-29.5 25.5l-7 12h-10q-2 -2 -5 -6.5t-14.5 -14.5t-25 -18t-35 -14.5t-45.5 -6.5q-85 0 -137.5 48.5t-52.5 121.5q0 76 62.5 123t187.5 47h65q0 19 -19 37t-41 18q-29 0 -61.5 -25t-68.5 -25q-44 0 -67 20t-23 55
q0 45 57 85t163 40q119 0 189.5 -59.5t70.5 -145.5zM340 196v9h-65q-50 0 -50 -35t50 -35q26 0 45.5 18.5t19.5 42.5zM407 620q-41 0 -68 26t-27 64t27 64t68 26t68 -26t27 -64t-27 -64t-68 -26zM177 620q-41 0 -68 26t-27 64t27 64t68 26t68 -26t27 -64t-27 -64t-68 -26z
" />
    <glyph glyph-name="aring" unicode="&#xe5;" horiz-adv-x="585" 
d="M540 330v-240q0 -38 -28 -64t-72 -26q-31 0 -53.5 12.5t-29.5 25.5l-7 12h-10q-2 -2 -5 -6.5t-14.5 -14.5t-25 -18t-35 -14.5t-45.5 -6.5q-85 0 -137.5 48.5t-52.5 121.5q0 76 62.5 123t187.5 47h65q0 19 -19 37t-41 18q-29 0 -61.5 -25t-68.5 -25q-44 0 -67 20t-23 55
q0 45 57 85t163 40q119 0 189.5 -59.5t70.5 -145.5zM340 196v9h-65q-50 0 -50 -35t50 -35q26 0 45.5 18.5t19.5 42.5zM332 730q0 18 -12.5 31.5t-27.5 13.5t-27.5 -13.5t-12.5 -31.5t12.5 -31.5t27.5 -13.5t27.5 13.5t12.5 31.5zM447 730q0 -57 -44.5 -98.5t-110.5 -41.5
t-110.5 41.5t-44.5 98.5t44.5 98.5t110.5 41.5t110.5 -41.5t44.5 -98.5z" />
    <glyph glyph-name="ae" unicode="&#xe6;" horiz-adv-x="885" 
d="M340 196v9h-65q-50 0 -50 -35t50 -35q26 0 45.5 18.5t19.5 42.5zM540 315h120q0 26 -17 43t-43 17t-43 -17t-17 -43zM235 -15q-98 0 -154 50.5t-56 124.5q0 76 62.5 123t187.5 47h65q0 19 -19 37t-41 18q-29 0 -61.5 -25t-68.5 -25q-44 0 -67 20t-23 55q0 45 57 85
t163 40q49 0 89 -15t55 -30l16 -15h10q6 7 17 17t50 26.5t83 16.5q114 0 187 -67t73 -163v-15q0 -38 -28 -64t-72 -26h-220q0 -30 19 -50t46 -20q29 0 66.5 25t73.5 25q90 0 90 -80q0 -40 -62 -77.5t-168 -37.5q-49 0 -89 15t-56 30l-15 15h-10l-6.5 -6.5t-21 -14.5t-37 -18
t-57 -14.5t-78.5 -6.5z" />
    <glyph glyph-name="ccedilla" unicode="&#xe7;" horiz-adv-x="540" 
d="M30 215v90q0 96 74 163t191 67q98 0 159 -45t61 -95q0 -80 -90 -80q-37 0 -72 27.5t-58 27.5q-26 0 -45.5 -19.5t-19.5 -45.5v-90q0 -26 19.5 -45.5t45.5 -19.5q29 0 66.5 27.5t73.5 27.5q90 0 90 -80q0 -51 -63 -95.5t-167 -44.5v-15q67 -7 103.5 -42.5t36.5 -92.5
q0 -53 -53 -94t-142 -41q-46 0 -70.5 18.5t-24.5 46.5q0 60 85 60q55 0 55 20t-55 20q-26 0 -43 16t-17 39v89q-66 29 -103 84t-37 122z" />
    <glyph glyph-name="egrave" unicode="&#xe8;" horiz-adv-x="575" 
d="M550 305v-15q0 -38 -28 -64t-72 -26h-220q0 -30 19 -50t46 -20q29 0 66.5 25t73.5 25q90 0 90 -80q0 -40 -62 -77.5t-168 -37.5q-117 0 -191 67t-74 163v90q0 96 73 163t187 67t187 -67t73 -163zM230 315h120q0 26 -17 43t-43 17t-43 -17t-17 -43zM300 600q-56 0 -90 56
l-45 74q-15 25 -15 55q0 34 21.5 54.5t58.5 20.5q75 0 100 -75l25 -75q10 -25 10 -50q0 -27 -17.5 -43.5t-47.5 -16.5z" />
    <glyph glyph-name="eacute" unicode="&#xe9;" horiz-adv-x="575" 
d="M550 305v-15q0 -38 -28 -64t-72 -26h-220q0 -30 19 -50t46 -20q29 0 66.5 25t73.5 25q90 0 90 -80q0 -40 -62 -77.5t-168 -37.5q-117 0 -191 67t-74 163v90q0 96 73 163t187 67t187 -67t73 -163zM230 315h120q0 26 -17 43t-43 17t-43 -17t-17 -43zM285 600
q-30 0 -47.5 16.5t-17.5 43.5q0 11 2.5 23.5t5.5 19.5l2 7l25 75q25 75 100 75q37 0 58.5 -20.5t21.5 -54.5q0 -13 -3.5 -27t-7.5 -21l-4 -7l-45 -74q-34 -56 -90 -56z" />
    <glyph glyph-name="ecircumflex" unicode="&#xea;" horiz-adv-x="575" 
d="M550 305v-15q0 -38 -28 -64t-72 -26h-220q0 -30 19 -50t46 -20q29 0 66.5 25t73.5 25q90 0 90 -80q0 -40 -62 -77.5t-168 -37.5q-117 0 -191 67t-74 163v90q0 96 73 163t187 67t187 -67t73 -163zM230 315h120q0 26 -17 43t-43 17t-43 -17t-17 -43zM287 860q67 0 105 -50
l65 -90q25 -30 25 -55q0 -27 -20 -46t-50 -19q-31 0 -50 12.5t-35 37.5l-35 56h-10l-35 -56q-16 -25 -35 -37.5t-50 -12.5q-30 0 -50 19t-20 46q0 11 6 25t12 22l7 8l65 90q38 50 105 50z" />
    <glyph glyph-name="edieresis" unicode="&#xeb;" horiz-adv-x="575" 
d="M550 305v-15q0 -38 -28 -64t-72 -26h-220q0 -30 19 -50t46 -20q29 0 66.5 25t73.5 25q90 0 90 -80q0 -40 -62 -77.5t-168 -37.5q-117 0 -191 67t-74 163v90q0 96 73 163t187 67t187 -67t73 -163zM230 315h120q0 26 -17 43t-43 17t-43 -17t-17 -43zM402 610q-41 0 -68 26
t-27 64t27 64t68 26t68 -26t27 -64t-27 -64t-68 -26zM172 610q-41 0 -68 26t-27 64t27 64t68 26t68 -26t27 -64t-27 -64t-68 -26z" />
    <glyph glyph-name="igrave" unicode="&#xec;" horiz-adv-x="313" 
d="M258 425v-340q0 -38 -28 -64t-72 -26t-72 26t-28 64v340q0 38 28 64t72 26t72 -26t28 -64zM160 600q-56 0 -90 56l-45 74q-15 25 -15 55q0 34 21.5 54.5t58.5 20.5q75 0 100 -75l25 -75q10 -25 10 -50q0 -27 -17.5 -43.5t-47.5 -16.5z" />
    <glyph glyph-name="iacute" unicode="&#xed;" horiz-adv-x="322" 
d="M255 425v-340q0 -38 -28 -64t-72 -26t-72 26t-28 64v340q0 38 28 64t72 26t72 -26t28 -64zM162 600q-30 0 -47.5 16.5t-17.5 43.5q0 11 2.5 23.5t4.5 19.5l3 7l25 75q25 75 100 75q37 0 58.5 -20.5t21.5 -54.5q0 -13 -4 -27t-8 -21l-3 -7l-45 -74q-34 -56 -90 -56z" />
    <glyph glyph-name="icircumflex" unicode="&#xee;" horiz-adv-x="340" 
d="M270 425v-340q0 -38 -28 -64t-72 -26t-72 26t-28 64v340q0 38 28 64t72 26t72 -26t28 -64zM170 860q68 0 105 -50l65 -90q25 -30 25 -55q0 -27 -20 -46t-50 -19q-31 0 -50 12.5t-35 37.5l-35 56h-10l-35 -56q-16 -25 -35 -37.5t-50 -12.5q-30 0 -50 19t-20 46
q0 11 6.5 25t12.5 22l6 8l65 90q38 50 105 50z" />
    <glyph glyph-name="idieresis" unicode="&#xef;" horiz-adv-x="330" 
d="M265 425v-340q0 -38 -28 -64t-72 -26t-72 26t-28 64v340q0 38 28 64t72 26t72 -26t28 -64zM280 610q-41 0 -68 26t-27 64t27 64t68 26t68 -26t27 -64t-27 -64t-68 -26zM50 610q-41 0 -68 26t-27 64t27 64t68 26t68 -26t27 -64t-27 -64t-68 -26z" />
    <glyph glyph-name="eth" unicode="&#xf0;" 
d="M270 710q26 60 85 60q30 0 47.5 -17t17.5 -45q0 -10 -4 -22t-8 -19l-3 -7q51 -42 80 -75t52 -96.5t23 -148.5v-125q0 -97 -74.5 -163.5t-195.5 -66.5q-122 0 -196 65.5t-74 164.5v10q0 98 63 159t167 61q29 0 56.5 -8.5t40.5 -17.5l13 -9h10q-4 24 -19 46.5t-28 33.5
l-13 10q-18 -45 -65 -45q-33 0 -51.5 17.5t-18.5 47.5l5 30q-3 1 -7.5 2t-16.5 7.5t-21.5 14.5t-17 23t-7.5 33q0 41 24.5 65.5t65.5 24.5q16 0 33.5 -2.5t26.5 -5.5zM220 225v-10q0 -37 19.5 -58.5t50.5 -21.5t50.5 21.5t19.5 58.5v10q0 37 -19.5 58.5t-50.5 21.5
t-50.5 -21.5t-19.5 -58.5z" />
    <glyph glyph-name="ntilde" unicode="&#xf1;" horiz-adv-x="615" 
d="M250 305v-220q0 -38 -28 -64t-72 -26t-72 26t-28 64v350q0 38 28 64t72 26q31 0 53.5 -13t29.5 -23.5t7 -13.5h10q2 2 5 6.5t14 14.5t24 18t34 14.5t43 6.5q85 0 142.5 -63.5t57.5 -166.5v-220q0 -38 -28 -64t-72 -26t-72 26t-28 64v220q0 29 -18.5 49.5t-41.5 20.5
t-41.5 -20.5t-18.5 -49.5zM390 620q-36 0 -76 25t-54 25t-25 -12.5t-27.5 -25t-42.5 -12.5q-31 0 -50.5 21.5t-19.5 58.5q0 49 37.5 84.5t92.5 35.5q36 0 76 -25t54 -25t25 12.5t27.5 25t42.5 12.5q31 0 50.5 -21.5t19.5 -58.5q0 -49 -37.5 -84.5t-92.5 -35.5z" />
    <glyph glyph-name="ograve" unicode="&#xf2;" 
d="M295 380q-27 0 -46 -21t-19 -54v-90q0 -33 19 -54t46 -21t46 21t19 54v90q0 33 -19 54t-46 21zM295 -15q-117 0 -191 67t-74 163v90q0 96 74 163t191 67t191 -67t74 -163v-90q0 -96 -74 -163t-191 -67zM297 600q-56 0 -90 56l-45 74q-15 25 -15 55q0 34 21.5 54.5
t58.5 20.5q75 0 100 -75l25 -75q10 -25 10 -50q0 -27 -17.5 -43.5t-47.5 -16.5z" />
    <glyph glyph-name="oacute" unicode="&#xf3;" 
d="M295 380q-27 0 -46 -21t-19 -54v-90q0 -33 19 -54t46 -21t46 21t19 54v90q0 33 -19 54t-46 21zM295 -15q-117 0 -191 67t-74 163v90q0 96 74 163t191 67t191 -67t74 -163v-90q0 -96 -74 -163t-191 -67zM302 600q-30 0 -47.5 16.5t-17.5 43.5q0 11 2.5 23.5t4.5 19.5l3 7
l25 75q25 75 100 75q37 0 58.5 -20.5t21.5 -54.5q0 -13 -4 -27t-8 -21l-3 -7l-45 -74q-34 -56 -90 -56z" />
    <glyph glyph-name="ocircumflex" unicode="&#xf4;" 
d="M295 380q-27 0 -46 -21t-19 -54v-90q0 -33 19 -54t46 -21t46 21t19 54v90q0 33 -19 54t-46 21zM295 -15q-117 0 -191 67t-74 163v90q0 96 74 163t191 67t191 -67t74 -163v-90q0 -96 -74 -163t-191 -67zM295 860q68 0 105 -50l65 -90q25 -30 25 -55q0 -27 -20 -46t-50 -19
q-31 0 -50 12.5t-35 37.5l-35 56h-10l-35 -56q-16 -25 -35 -37.5t-50 -12.5q-30 0 -50 19t-20 46q0 11 6 25t12 22l7 8l65 90q38 50 105 50z" />
    <glyph glyph-name="otilde" unicode="&#xf5;" 
d="M295 380q-27 0 -46 -21t-19 -54v-90q0 -33 19 -54t46 -21t46 21t19 54v90q0 33 -19 54t-46 21zM295 -15q-117 0 -191 67t-74 163v90q0 96 74 163t191 67t191 -67t74 -163v-90q0 -96 -74 -163t-191 -67zM377 610q-36 0 -76 25t-54 25t-25 -12.5t-27.5 -25t-42.5 -12.5
q-31 0 -50.5 21.5t-19.5 58.5q0 49 37.5 84.5t92.5 35.5q36 0 76 -25t54 -25t25 12.5t27.5 25t42.5 12.5q31 0 50.5 -21.5t19.5 -58.5q0 -49 -37.5 -84.5t-92.5 -35.5z" />
    <glyph glyph-name="odieresis" unicode="&#xf6;" 
d="M295 380q-27 0 -46 -21t-19 -54v-90q0 -33 19 -54t46 -21t46 21t19 54v90q0 33 -19 54t-46 21zM295 -15q-117 0 -191 67t-74 163v90q0 96 74 163t191 67t191 -67t74 -163v-90q0 -96 -74 -163t-191 -67zM410 610q-41 0 -68 26t-27 64t27 64t68 26t68 -26t27 -64t-27 -64
t-68 -26zM180 610q-41 0 -68 26t-27 64t27 64t68 26t68 -26t27 -64t-27 -64t-68 -26z" />
    <glyph glyph-name="divide" unicode="&#xf7;" horiz-adv-x="570" 
d="M110 430h350q44 0 72 -26t28 -64t-28 -64t-72 -26h-350q-44 0 -72 26t-28 64t28 64t72 26zM280 210q52 0 83.5 -29.5t31.5 -75.5t-31.5 -75.5t-83.5 -29.5t-83.5 29.5t-31.5 75.5t31.5 75.5t83.5 29.5zM280 680q52 0 83.5 -29.5t31.5 -75.5t-31.5 -75.5t-83.5 -29.5
t-83.5 29.5t-31.5 75.5t31.5 75.5t83.5 29.5z" />
    <glyph glyph-name="oslash" unicode="&#xf8;" 
d="M295 -15q-18 0 -38 2.5t-31 4.5l-11 3q-2 -4 -6.5 -11t-21.5 -18t-37 -11q-32 0 -53.5 18t-21.5 42q0 11 3.5 23.5t7.5 19.5l4 7q-7 6 -17 18t-26.5 51t-16.5 81v90q0 96 74 163t191 67q18 0 38 -2.5t31 -4.5l11 -3q2 4 6.5 11t21.5 18t37 11q32 0 53.5 -18t21.5 -42
q0 -11 -3.5 -23.5t-7.5 -19.5l-4 -7q7 -6 17 -18t26.5 -51t16.5 -81v-90q0 -96 -74 -163t-191 -67zM285 140h10q27 0 46 21t19 54v50zM305 380h-10q-27 0 -46 -21t-19 -54v-45z" />
    <glyph glyph-name="ugrave" unicode="&#xf9;" horiz-adv-x="620" 
d="M370 215v220q0 38 28 64t72 26t72 -26t28 -64v-350q0 -38 -28 -64t-72 -26q-31 0 -53.5 13t-29.5 23.5t-7 13.5h-10q-2 -2 -5 -6.5t-14 -14.5t-24 -18t-34 -14.5t-43 -6.5q-85 0 -142.5 63.5t-57.5 166.5v220q0 38 28 64t72 26t72 -26t28 -64v-220q0 -29 18.5 -49.5
t41.5 -20.5t41.5 20.5t18.5 49.5zM312 600q-56 0 -90 56l-45 74q-15 25 -15 55q0 34 21.5 54.5t58.5 20.5q75 0 100 -75l25 -75q10 -25 10 -50q0 -27 -17.5 -43.5t-47.5 -16.5z" />
    <glyph glyph-name="uacute" unicode="&#xfa;" horiz-adv-x="620" 
d="M370 215v220q0 38 28 64t72 26t72 -26t28 -64v-350q0 -38 -28 -64t-72 -26q-31 0 -53.5 13t-29.5 23.5t-7 13.5h-10q-2 -2 -5 -6.5t-14 -14.5t-24 -18t-34 -14.5t-43 -6.5q-85 0 -142.5 63.5t-57.5 166.5v220q0 38 28 64t72 26t72 -26t28 -64v-220q0 -29 18.5 -49.5
t41.5 -20.5t41.5 20.5t18.5 49.5zM307 600q-30 0 -47.5 16.5t-17.5 43.5q0 11 2.5 23.5t5.5 19.5l2 7l25 75q25 75 100 75q37 0 58.5 -20.5t21.5 -54.5q0 -13 -3.5 -27t-7.5 -21l-4 -7l-45 -74q-34 -56 -90 -56z" />
    <glyph glyph-name="ucircumflex" unicode="&#xfb;" horiz-adv-x="620" 
d="M370 215v220q0 38 28 64t72 26t72 -26t28 -64v-350q0 -38 -28 -64t-72 -26q-31 0 -53.5 13t-29.5 23.5t-7 13.5h-10q-2 -2 -5 -6.5t-14 -14.5t-24 -18t-34 -14.5t-43 -6.5q-85 0 -142.5 63.5t-57.5 166.5v220q0 38 28 64t72 26t72 -26t28 -64v-220q0 -29 18.5 -49.5
t41.5 -20.5t41.5 20.5t18.5 49.5zM310 860q68 0 105 -50l65 -90q25 -30 25 -55q0 -27 -20 -46t-50 -19q-31 0 -50 12.5t-35 37.5l-35 56h-10l-35 -56q-16 -25 -35 -37.5t-50 -12.5q-30 0 -50 19t-20 46q0 11 6.5 25t12.5 22l6 8l65 90q38 50 105 50z" />
    <glyph glyph-name="udieresis" unicode="&#xfc;" horiz-adv-x="620" 
d="M370 215v220q0 38 28 64t72 26t72 -26t28 -64v-350q0 -38 -28 -64t-72 -26q-31 0 -53.5 13t-29.5 23.5t-7 13.5h-10q-2 -2 -5 -6.5t-14 -14.5t-24 -18t-34 -14.5t-43 -6.5q-85 0 -142.5 63.5t-57.5 166.5v220q0 38 28 64t72 26t72 -26t28 -64v-220q0 -29 18.5 -49.5
t41.5 -20.5t41.5 20.5t18.5 49.5zM425 610q-41 0 -68 26t-27 64t27 64t68 26t68 -26t27 -64t-27 -64t-68 -26zM195 610q-41 0 -68 26t-27 64t27 64t68 26t68 -26t27 -64t-27 -64t-68 -26z" />
    <glyph glyph-name="yacute" unicode="&#xfd;" horiz-adv-x="555" 
d="M125 -65l50 115l-155 320q-20 40 -20 70q0 38 24.5 61.5t65.5 23.5q81 0 115 -85l70 -170h10l65 170q34 85 115 85q41 0 65.5 -23.5t24.5 -61.5q0 -13 -5 -30.5t-10 -28.5l-5 -11l-225 -505q-20 -44 -46 -64.5t-69 -20.5q-41 0 -65.5 23.5t-24.5 61.5q0 13 5 30.5
t10 28.5zM295 600q-30 0 -47.5 16.5t-17.5 43.5q0 11 2.5 23.5t5.5 19.5l2 7l25 75q25 75 100 75q37 0 58.5 -20.5t21.5 -54.5q0 -13 -3.5 -27t-7.5 -21l-4 -7l-45 -74q-34 -56 -90 -56z" />
    <glyph glyph-name="thorn" unicode="&#xfe;" horiz-adv-x="615" 
d="M55 -130v760q0 38 28 64t72 26t72 -26t28 -64v-120h10q30 25 115 25q84 0 144.5 -65.5t60.5 -164.5v-90q0 -99 -60.5 -164.5t-144.5 -65.5q-38 0 -66.5 6.5t-38.5 12.5l-10 6h-10v-140q0 -38 -28 -64t-72 -26t-72 26t-28 64zM255 305v-90q0 -33 19 -54t46 -21t46 21
t19 54v90q0 33 -19 54t-46 21t-46 -21t-19 -54z" />
    <glyph glyph-name="ydieresis" unicode="&#xff;" horiz-adv-x="555" 
d="M125 -65l50 115l-155 320q-20 40 -20 70q0 38 24.5 61.5t65.5 23.5q81 0 115 -85l70 -170h10l65 170q34 85 115 85q41 0 65.5 -23.5t24.5 -61.5q0 -13 -5 -30.5t-10 -28.5l-5 -11l-225 -505q-20 -44 -46 -64.5t-69 -20.5q-41 0 -65.5 23.5t-24.5 61.5q0 13 5 30.5
t10 28.5zM402 610q-41 0 -68 26t-27 64t27 64t68 26t68 -26t27 -64t-27 -64t-68 -26zM172 610q-41 0 -68 26t-27 64t27 64t68 26t68 -26t27 -64t-27 -64t-68 -26z" />
    <glyph glyph-name="Amacron" unicode="&#x100;" horiz-adv-x="720" 
d="M300 330h120l-55 150h-10zM255 150l-25 -60q-42 -100 -120 -100q-48 0 -79 29t-31 71q0 13 6 35.5t12 38.5l7 16l160 420q24 60 64 90t111 30t111.5 -30t63.5 -90l160 -420q25 -60 25 -90q0 -42 -31 -71t-79 -29q-78 0 -120 100l-25 60h-210zM255 950h230
q34 0 54.5 -20.5t20.5 -54.5t-20.5 -54.5t-54.5 -20.5h-230q-34 0 -54.5 20.5t-20.5 54.5t20.5 54.5t54.5 20.5z" />
    <glyph glyph-name="amacron" unicode="&#x101;" horiz-adv-x="585" 
d="M540 330v-240q0 -38 -28 -64t-72 -26q-31 0 -53.5 12.5t-29.5 25.5l-7 12h-10q-2 -2 -5 -6.5t-14.5 -14.5t-25 -18t-35 -14.5t-45.5 -6.5q-85 0 -137.5 48.5t-52.5 121.5q0 76 62.5 123t187.5 47h65q0 19 -19 37t-41 18q-29 0 -61.5 -25t-68.5 -25q-44 0 -67 20t-23 55
q0 45 57 85t163 40q119 0 189.5 -59.5t70.5 -145.5zM340 196v9h-65q-50 0 -50 -35t50 -35q26 0 45.5 18.5t19.5 42.5zM197 780h230q34 0 54.5 -20.5t20.5 -54.5t-20.5 -54.5t-54.5 -20.5h-230q-34 0 -54.5 20.5t-20.5 54.5t20.5 54.5t54.5 20.5z" />
    <glyph glyph-name="Abreve" unicode="&#x102;" horiz-adv-x="720" 
d="M300 330h120l-55 150h-10zM255 150l-25 -60q-42 -100 -120 -100q-48 0 -79 29t-31 71q0 13 6 35.5t12 38.5l7 16l160 420q24 60 64 90t111 30t111.5 -30t63.5 -90l160 -420q25 -60 25 -90q0 -42 -31 -71t-79 -29q-78 0 -120 100l-25 60h-210zM360 925q29 0 55.5 27.5
t59.5 27.5q30 0 50 -20t20 -50q0 -49 -52 -89.5t-133 -40.5t-133 40.5t-52 89.5q0 30 20 50t50 20q33 0 59.5 -27.5t55.5 -27.5z" />
    <glyph glyph-name="abreve" unicode="&#x103;" horiz-adv-x="585" 
d="M540 330v-240q0 -38 -28 -64t-72 -26q-31 0 -53.5 12.5t-29.5 25.5l-7 12h-10q-2 -2 -5 -6.5t-14.5 -14.5t-25 -18t-35 -14.5t-45.5 -6.5q-85 0 -137.5 48.5t-52.5 121.5q0 76 62.5 123t187.5 47h65q0 19 -19 37t-41 18q-29 0 -61.5 -25t-68.5 -25q-44 0 -67 20t-23 55
q0 45 57 85t163 40q119 0 189.5 -59.5t70.5 -145.5zM340 196v9h-65q-50 0 -50 -35t50 -35q26 0 45.5 18.5t19.5 42.5zM302 745q29 0 55.5 27.5t59.5 27.5q30 0 50 -20t20 -50q0 -49 -52 -89.5t-133 -40.5t-133 40.5t-52 89.5q0 30 20 50t50 20q33 0 59.5 -27.5t55.5 -27.5z
" />
    <glyph glyph-name="Aogonek" unicode="&#x104;" horiz-adv-x="720" 
d="M425 -130q0 28 11.5 53.5t27.5 42.5t32.5 29.5t27.5 18.5t12 6q-27 24 -46 70l-25 60h-210l-25 -60q-42 -100 -120 -100q-48 0 -79 29t-31 71q0 13 6 35.5t12 38.5l7 16l160 420q24 60 64 90t111 30t111.5 -30t63.5 -90l160 -420q25 -60 25 -90q0 -34 -22 -59.5t-48 -39
t-48 -34.5t-22 -47q0 -40 50 -40q33 0 51.5 -17.5t18.5 -47.5q0 -29 -27 -47t-83 -18q-72 0 -118.5 39.5t-46.5 90.5zM300 330h120l-55 150h-10z" />
    <glyph glyph-name="aogonek" unicode="&#x105;" horiz-adv-x="585" 
d="M540 330v-240q0 -30 -19.5 -53t-43 -35t-43 -32t-19.5 -44q0 -40 50 -40q33 0 51.5 -17.5t18.5 -47.5q0 -29 -27 -47t-83 -18q-72 0 -118.5 39.5t-46.5 90.5q0 25 11 49t26 39.5t30.5 28t26.5 17.5l11 6h2q-5 5 -9.5 11t-5.5 9l-2 4h-10q-2 -2 -5 -6.5t-14.5 -14.5
t-25 -18t-35 -14.5t-45.5 -6.5q-85 0 -137.5 48.5t-52.5 121.5q0 76 62.5 123t187.5 47h65q0 19 -19 37t-41 18q-29 0 -61.5 -25t-68.5 -25q-44 0 -67 20t-23 55q0 45 57 85t163 40q119 0 189.5 -59.5t70.5 -145.5zM340 196v9h-65q-50 0 -50 -35t50 -35q26 0 45.5 18.5
t19.5 42.5z" />
    <glyph glyph-name="Cacute" unicode="&#x106;" horiz-adv-x="670" 
d="M40 280v140q0 130 92 215t243 85q122 0 198.5 -55t76.5 -115q0 -42 -27.5 -66t-82.5 -24q-41 0 -84.5 35t-80.5 35q-49 0 -79.5 -30.5t-30.5 -79.5v-140q0 -49 30.5 -79.5t79.5 -30.5q43 0 89.5 35t85.5 35q55 0 82.5 -24t27.5 -66q0 -60 -78.5 -115t-206.5 -55
q-151 0 -243 85t-92 215zM365 780q-30 0 -47.5 16.5t-17.5 43.5q0 11 2.5 23.5t5.5 19.5l2 7l25 75q25 75 100 75q37 0 58.5 -20.5t21.5 -54.5q0 -13 -3.5 -27t-7.5 -21l-4 -7l-45 -74q-34 -56 -90 -56z" />
    <glyph glyph-name="cacute" unicode="&#x107;" horiz-adv-x="540" 
d="M30 215v90q0 96 74 163t191 67q98 0 159 -45t61 -95q0 -80 -90 -80q-37 0 -72 27.5t-58 27.5q-26 0 -45.5 -19.5t-19.5 -45.5v-90q0 -26 19.5 -45.5t45.5 -19.5q29 0 66.5 27.5t73.5 27.5q90 0 90 -80q0 -51 -63 -95.5t-167 -44.5q-117 0 -191 67t-74 163zM287 600
q-30 0 -47.5 16.5t-17.5 43.5q0 11 2.5 23.5t5.5 19.5l2 7l25 75q25 75 100 75q37 0 58.5 -20.5t21.5 -54.5q0 -13 -3.5 -27t-7.5 -21l-4 -7l-45 -74q-34 -56 -90 -56z" />
    <glyph glyph-name="Ccircumflex" unicode="&#x108;" horiz-adv-x="670" 
d="M40 280v140q0 130 92 215t243 85q122 0 198.5 -55t76.5 -115q0 -42 -27.5 -66t-82.5 -24q-41 0 -84.5 35t-80.5 35q-49 0 -79.5 -30.5t-30.5 -79.5v-140q0 -49 30.5 -79.5t79.5 -30.5q43 0 89.5 35t85.5 35q55 0 82.5 -24t27.5 -66q0 -60 -78.5 -115t-206.5 -55
q-151 0 -243 85t-92 215zM367 1040q68 0 105 -50l65 -90q25 -30 25 -55q0 -27 -20 -46t-50 -19q-31 0 -50 12.5t-35 37.5l-35 56h-10l-35 -56q-16 -25 -35 -37.5t-50 -12.5q-30 0 -50 19t-20 46q0 11 6 25t12 22l7 8l65 90q38 50 105 50z" />
    <glyph glyph-name="ccircumflex" unicode="&#x109;" horiz-adv-x="540" 
d="M30 215v90q0 96 74 163t191 67q98 0 159 -45t61 -95q0 -80 -90 -80q-37 0 -72 27.5t-58 27.5q-26 0 -45.5 -19.5t-19.5 -45.5v-90q0 -26 19.5 -45.5t45.5 -19.5q29 0 66.5 27.5t73.5 27.5q90 0 90 -80q0 -51 -63 -95.5t-167 -44.5q-117 0 -191 67t-74 163zM290 860
q68 0 105 -50l65 -90q25 -30 25 -55q0 -27 -20 -46t-50 -19q-31 0 -50 12.5t-35 37.5l-35 56h-10l-35 -56q-16 -25 -35 -37.5t-50 -12.5q-30 0 -50 19t-20 46q0 11 6.5 25t12.5 22l6 8l65 90q38 50 105 50z" />
    <glyph glyph-name="Ccaron" unicode="&#x10c;" horiz-adv-x="670" 
d="M40 280v140q0 130 92 215t243 85q122 0 198.5 -55t76.5 -115q0 -42 -27.5 -66t-82.5 -24q-41 0 -84.5 35t-80.5 35q-49 0 -79.5 -30.5t-30.5 -79.5v-140q0 -49 30.5 -79.5t79.5 -30.5q43 0 89.5 35t85.5 35q55 0 82.5 -24t27.5 -66q0 -60 -78.5 -115t-206.5 -55
q-151 0 -243 85t-92 215zM367 780q-67 0 -105 50l-65 90q-25 30 -25 55q0 27 20 46t50 19q31 0 50 -12.5t35 -37.5l35 -56h10l35 56q16 25 35 37.5t50 12.5q30 0 50 -19t20 -46q0 -11 -6 -25t-12 -22l-7 -8l-65 -90q-37 -50 -105 -50z" />
    <glyph glyph-name="ccaron" unicode="&#x10d;" horiz-adv-x="540" 
d="M30 215v90q0 96 74 163t191 67q98 0 159 -45t61 -95q0 -80 -90 -80q-37 0 -72 27.5t-58 27.5q-26 0 -45.5 -19.5t-19.5 -45.5v-90q0 -26 19.5 -45.5t45.5 -19.5q29 0 66.5 27.5t73.5 27.5q90 0 90 -80q0 -51 -63 -95.5t-167 -44.5q-117 0 -191 67t-74 163zM290 600
q-67 0 -105 50l-65 90q-25 30 -25 55q0 27 20 46t50 19q31 0 50 -12.5t35 -37.5l35 -56h10l35 56q16 25 35 37.5t50 12.5q30 0 50 -19t20 -46q0 -11 -6.5 -25t-12.5 -22l-6 -8l-65 -90q-37 -50 -105 -50z" />
    <glyph glyph-name="Dcaron" unicode="&#x10e;" horiz-adv-x="735" 
d="M695 400v-100q0 -131 -93.5 -215.5t-251.5 -84.5h-175q-52 0 -81 27t-29 73v500q0 46 29 73t81 27h175q158 0 251.5 -84.5t93.5 -215.5zM350 520h-65v-340h65q52 0 86 34t34 86v100q0 52 -34 86t-86 34zM347 780q-67 0 -105 50l-65 90q-25 30 -25 55q0 27 20 46t50 19
q31 0 50 -12.5t35 -37.5l35 -56h10l35 56q16 25 35 37.5t50 12.5q30 0 50 -19t20 -46q0 -11 -6 -25t-12 -22l-7 -8l-65 -90q-38 -50 -105 -50z" />
    <glyph glyph-name="dcaron" unicode="&#x10f;" horiz-adv-x="841" 
d="M641 620q0 38 28 64t72 26q13 0 28 -5t32 -16.5t28.5 -37t11.5 -61.5q0 -63 -50 -114t-110 -51q-18 0 -29 9t-11 21q0 17 10.5 27.5t23 14t25 12t15.5 21.5q-31 4 -52.5 29t-21.5 61zM460 -5q-31 0 -53.5 12.5t-29.5 24.5l-7 13h-10q-2 -2 -5 -6.5t-14.5 -14.5t-25 -18
t-35 -14.5t-45.5 -6.5q-84 0 -144.5 65.5t-60.5 164.5v90q0 99 60.5 164.5t144.5 65.5q38 0 66.5 -6.5t38.5 -12.5l10 -6h10v120q0 38 28 64t72 26t72 -26t28 -64v-545q0 -38 -28 -64t-72 -26zM230 305v-90q0 -33 19 -54t46 -21t46 21t19 54v90q0 33 -19 54t-46 21t-46 -21
t-19 -54z" />
    <glyph glyph-name="Dcroat" unicode="&#x110;" horiz-adv-x="750" 
d="M710 400v-100q0 -131 -93.5 -215.5t-251.5 -84.5h-175q-52 0 -81 27t-29 73v150l-7.5 2.5t-16.5 9t-21.5 16.5t-17 25.5t-7.5 36.5q0 31 17.5 53.5t34.5 29.5l18 7v170q0 46 29 73t81 27h175q158 0 251.5 -84.5t93.5 -215.5zM365 520h-65v-90h20q44 0 72 -26t28 -64
t-28 -64t-72 -26h-20v-70h65q53 0 86.5 34t33.5 86v100q0 52 -33.5 86t-86.5 34z" />
    <glyph glyph-name="dcroat" unicode="&#x111;" horiz-adv-x="620" 
d="M555 640v-15q7 -2 18 -6t29 -23t18 -46t-16 -45.5t-32 -24.5l-17 -5v-390q0 -38 -28 -64t-72 -26q-31 0 -53.5 12.5t-29.5 24.5l-7 13h-10q-2 -2 -5 -6.5t-14.5 -14.5t-25 -18t-35 -14.5t-45.5 -6.5q-84 0 -144.5 65.5t-60.5 164.5t60.5 164.5t144.5 65.5q38 0 66.5 -6.5
t38.5 -12.5l10 -6h10v50h-50q-40 0 -65 23t-25 57t25 57t65 23h50v10q0 38 28 64t72 26t72 -26t28 -64zM225 215q0 -33 19 -54t46 -21t46 21t19 54t-19 54t-46 21t-46 -21t-19 -54z" />
    <glyph glyph-name="Emacron" unicode="&#x112;" horiz-adv-x="685" 
d="M555 500h-270v-60h190q44 0 72 -26t28 -64t-28 -64t-72 -26h-190v-60h280q52 0 81 -27t29 -73t-29 -73t-81 -27h-390q-52 0 -81 27t-29 73v500q0 46 29 73t81 27h380q52 0 81 -27t29 -73t-29 -73t-81 -27zM255 960h230q34 0 54.5 -20.5t20.5 -54.5t-20.5 -54.5
t-54.5 -20.5h-230q-34 0 -54.5 20.5t-20.5 54.5t20.5 54.5t54.5 20.5z" />
    <glyph glyph-name="emacron" unicode="&#x113;" horiz-adv-x="575" 
d="M550 305v-15q0 -38 -28 -64t-72 -26h-220q0 -30 19 -50t46 -20q29 0 66.5 25t73.5 25q90 0 90 -80q0 -40 -62 -77.5t-168 -37.5q-117 0 -191 67t-74 163v90q0 96 73 163t187 67t187 -67t73 -163zM230 315h120q0 26 -17 43t-43 17t-43 -17t-17 -43zM182 780h230
q34 0 54.5 -20.5t20.5 -54.5t-20.5 -54.5t-54.5 -20.5h-230q-34 0 -54.5 20.5t-20.5 54.5t20.5 54.5t54.5 20.5z" />
    <glyph glyph-name="Edotaccent" unicode="&#x116;" horiz-adv-x="685" 
d="M555 500h-270v-60h190q44 0 72 -26t28 -64t-28 -64t-72 -26h-190v-60h280q52 0 81 -27t29 -73t-29 -73t-81 -27h-390q-52 0 -81 27t-29 73v500q0 46 29 73t81 27h380q52 0 81 -27t29 -73t-29 -73t-81 -27zM370 790q-44 0 -72 26t-28 64t28 64t72 26t72 -26t28 -64
t-28 -64t-72 -26z" />
    <glyph glyph-name="edotaccent" unicode="&#x117;" horiz-adv-x="575" 
d="M550 305v-15q0 -38 -28 -64t-72 -26h-220q0 -30 19 -50t46 -20q29 0 66.5 25t73.5 25q90 0 90 -80q0 -40 -62 -77.5t-168 -37.5q-117 0 -191 67t-74 163v90q0 96 73 163t187 67t187 -67t73 -163zM230 315h120q0 26 -17 43t-43 17t-43 -17t-17 -43zM307 610q-44 0 -72 26
t-28 64t28 64t72 26t72 -26t28 -64t-28 -64t-72 -26z" />
    <glyph glyph-name="Eogonek" unicode="&#x118;" horiz-adv-x="685" 
d="M555 500h-270v-60h190q44 0 72 -26t28 -64t-28 -64t-72 -26h-190v-60h280q52 0 81 -27t29 -73q0 -33 -16.5 -56.5t-40 -36.5l-47 -25t-40 -29.5t-16.5 -42.5q0 -40 50 -40q33 0 51.5 -17.5t18.5 -47.5q0 -29 -27 -47t-83 -18q-72 0 -118.5 39.5t-46.5 90.5q0 75 87 130
h-272q-52 0 -81 27t-29 73v500q0 46 29 73t81 27h380q52 0 81 -27t29 -73t-29 -73t-81 -27z" />
    <glyph glyph-name="eogonek" unicode="&#x119;" horiz-adv-x="575" 
d="M179 -130q0 66 70 118q-99 13 -159 77t-60 150v90q0 96 73 163t187 67t187 -67t73 -163v-15q0 -38 -28 -64t-72 -26h-220q0 -30 19 -50t46 -20q29 0 66.5 25t73.5 25q90 0 90 -80q0 -24 -26 -51t-74 -44q-17 -9 -34.5 -21t-37 -33.5t-19.5 -40.5q0 -40 50 -40
q33 0 51.5 -17.5t18.5 -47.5q0 -29 -27 -47t-83 -18q-72 0 -118.5 39.5t-46.5 90.5zM230 315h120q0 26 -17 43t-43 17t-43 -17t-17 -43z" />
    <glyph glyph-name="Ecaron" unicode="&#x11a;" horiz-adv-x="685" 
d="M555 500h-270v-60h190q44 0 72 -26t28 -64t-28 -64t-72 -26h-190v-60h280q52 0 81 -27t29 -73t-29 -73t-81 -27h-390q-52 0 -81 27t-29 73v500q0 46 29 73t81 27h380q52 0 81 -27t29 -73t-29 -73t-81 -27zM370 780q-68 0 -105 50l-65 90q-25 30 -25 55q0 27 20 46t50 19
q31 0 50 -12.5t35 -37.5l35 -56h10l35 56q16 25 35 37.5t50 12.5q30 0 50 -19t20 -46q0 -11 -6.5 -25t-12.5 -22l-6 -8l-65 -90q-37 -50 -105 -50z" />
    <glyph glyph-name="ecaron" unicode="&#x11b;" horiz-adv-x="575" 
d="M550 305v-15q0 -38 -28 -64t-72 -26h-220q0 -30 19 -50t46 -20q29 0 66.5 25t73.5 25q90 0 90 -80q0 -40 -62 -77.5t-168 -37.5q-117 0 -191 67t-74 163v90q0 96 73 163t187 67t187 -67t73 -163zM230 315h120q0 26 -17 43t-43 17t-43 -17t-17 -43zM297 600q-67 0 -105 50
l-65 90q-25 30 -25 55q0 27 20 46t50 19q31 0 50 -12.5t35 -37.5l35 -56h10l35 56q16 25 35 37.5t50 12.5q30 0 50 -19t20 -46q0 -11 -6 -25t-12 -22l-7 -8l-65 -90q-38 -50 -105 -50z" />
    <glyph glyph-name="Gbreve" unicode="&#x11e;" horiz-adv-x="710" 
d="M40 280v140q0 130 92 215t243 85q122 0 198.5 -55t76.5 -115q0 -42 -27.5 -66t-82.5 -24q-41 0 -84.5 35t-80.5 35q-49 0 -79.5 -30.5t-30.5 -79.5v-140q0 -49 30.5 -79.5t79.5 -30.5q24 0 48 7.5t35 14.5l12 8v40h-30q-44 0 -72 26t-28 64t28 64t72 26h140q90 0 90 -90
v-180q0 -59 -83 -114.5t-212 -55.5q-151 0 -243 85t-92 215zM377 925q29 0 55.5 27.5t59.5 27.5q30 0 50 -20t20 -50q0 -49 -52 -89.5t-133 -40.5t-133 40.5t-52 89.5q0 30 20 50t50 20q33 0 59.5 -27.5t55.5 -27.5z" />
    <glyph glyph-name="gbreve" unicode="&#x11f;" horiz-adv-x="610" 
d="M560 435v-435q0 -90 -75 -155t-195 -65q-103 0 -166.5 43t-63.5 87q0 80 90 80q36 0 73.5 -27.5t66.5 -27.5q30 0 50 19t20 46v40h-10q-30 -25 -115 -25q-84 0 -144.5 65.5t-60.5 164.5v60q0 99 60.5 164.5t144.5 65.5q38 0 69 -15t44 -30l12 -15h10q2 6 7.5 14t28.5 22
t54 14q44 0 72 -26t28 -64zM230 305v-60q0 -33 19 -54t46 -21t46 21t19 54v60q0 33 -19 54t-46 21t-46 -21t-19 -54zM325 745q29 0 55.5 27.5t59.5 27.5q30 0 50 -20t20 -50q0 -49 -52 -89.5t-133 -40.5t-133 40.5t-52 89.5q0 30 20 50t50 20q33 0 59.5 -27.5t55.5 -27.5z
" />
    <glyph glyph-name="Gcommaaccent" unicode="&#x122;" horiz-adv-x="710" 
d="M40 280v140q0 130 92 215t243 85q122 0 198.5 -55t76.5 -115q0 -42 -27.5 -66t-82.5 -24q-41 0 -84.5 35t-80.5 35q-49 0 -79.5 -30.5t-30.5 -79.5v-140q0 -49 30.5 -79.5t79.5 -30.5q24 0 48 7.5t35 14.5l12 8v40h-30q-44 0 -72 26t-28 64t28 64t72 26h140q90 0 90 -90
v-180q0 -59 -83 -114.5t-212 -55.5q-151 0 -243 85t-92 215zM267 -160q0 38 28 64t72 26q43 0 71.5 -32.5t28.5 -87.5q0 -63 -50 -114t-110 -51q-18 0 -29 9t-11 21q0 17 10.5 27.5t23 14t25 12t15.5 21.5q-31 4 -52.5 29t-21.5 61z" />
    <glyph glyph-name="gcommaaccent" unicode="&#x123;" horiz-adv-x="610" 
d="M560 435v-435q0 -90 -75 -155t-195 -65q-103 0 -166.5 43t-63.5 87q0 80 90 80q36 0 73.5 -27.5t66.5 -27.5q30 0 50 19t20 46v40h-10q-30 -25 -115 -25q-84 0 -144.5 65.5t-60.5 164.5v60q0 99 60.5 164.5t144.5 65.5q38 0 69 -15t44 -30l12 -15h10q2 6 7.5 14t28.5 22
t54 14q44 0 72 -26t28 -64zM230 305v-60q0 -33 19 -54t46 -21t46 21t19 54v60q0 33 -19 54t-46 21t-46 -21t-19 -54zM425 680q0 -38 -28 -64t-72 -26q-43 0 -71.5 32.5t-28.5 87.5q0 63 50 114t110 51q18 0 29 -9t11 -21q0 -17 -10.5 -27.5t-23 -14t-25 -12t-15.5 -21.5
q31 -4 52.5 -29t21.5 -61z" />
    <glyph glyph-name="Imacron" unicode="&#x12a;" horiz-adv-x="360" 
d="M290 610v-520q0 -46 -29 -73t-81 -27t-81 27t-29 73v520q0 46 29 73t81 27t81 -27t29 -73zM65 960h230q34 0 54.5 -20.5t20.5 -54.5t-20.5 -54.5t-54.5 -20.5h-230q-34 0 -54.5 20.5t-20.5 54.5t20.5 54.5t54.5 20.5z" />
    <glyph glyph-name="imacron" unicode="&#x12b;" horiz-adv-x="320" 
d="M260 425v-340q0 -38 -28 -64t-72 -26t-72 26t-28 64v340q0 38 28 64t72 26t72 -26t28 -64zM45 780h230q34 0 54.5 -20.5t20.5 -54.5t-20.5 -54.5t-54.5 -20.5h-230q-34 0 -54.5 20.5t-20.5 54.5t20.5 54.5t54.5 20.5z" />
    <glyph glyph-name="Iogonek" unicode="&#x12e;" horiz-adv-x="360" 
d="M295 610v-520q0 -37 -21 -64.5t-46.5 -40.5t-46.5 -32.5t-21 -42.5q0 -40 50 -40q33 0 51.5 -17.5t18.5 -47.5q0 -29 -27 -47t-83 -18q-72 0 -118.5 39.5t-46.5 90.5q0 44 27.5 79t55.5 48l27 13q-4 2 -11 7t-18 25.5t-11 47.5v520q0 46 29 73t81 27t81 -27t29 -73z" />
    <glyph glyph-name="iogonek" unicode="&#x12f;" horiz-adv-x="315" 
d="M255 415v-330q0 -32 -22 -56t-48 -37t-48 -34t-22 -48q0 -40 50 -40q33 0 51.5 -17.5t18.5 -47.5q0 -29 -27 -47t-83 -18q-72 0 -118.5 39.5t-46.5 90.5q0 28 12.5 54.5t30 43.5t35 30.5t30.5 19.5l12 7q-25 28 -25 60v330q0 38 28 64t72 26t72 -26t28 -64zM155 740
q44 0 74.5 -28.5t30.5 -66.5t-30.5 -66.5t-74.5 -28.5t-74.5 28.5t-30.5 66.5t30.5 66.5t74.5 28.5z" />
    <glyph glyph-name="Idotaccent" unicode="&#x130;" horiz-adv-x="350" 
d="M285 610v-520q0 -46 -29 -73t-81 -27t-81 27t-29 73v520q0 46 29 73t81 27t81 -27t29 -73zM175 780q-44 0 -72 26t-28 64t28 64t72 26t72 -26t28 -64t-28 -64t-72 -26z" />
    <glyph glyph-name="dotlessi" unicode="&#x131;" horiz-adv-x="300" 
d="M250 425v-340q0 -38 -28 -64t-72 -26t-72 26t-28 64v340q0 38 28 64t72 26t72 -26t28 -64z" />
    <glyph glyph-name="Kcommaaccent" unicode="&#x136;" horiz-adv-x="715" 
d="M340 255l-55 -50v-115q0 -46 -29 -73t-81 -27t-81 27t-29 73v520q0 46 29 73t81 27t81 -27t29 -73v-140l220 210q30 30 80 30q45 0 72.5 -27.5t27.5 -72.5q0 -22 -10 -42t-20 -29l-10 -9l-140 -135l170 -215q40 -50 40 -90q0 -46 -29 -73t-81 -27q-24 0 -48 12.5
t-35 25.5l-12 12zM287 -150q0 38 28 64t72 26q43 0 71.5 -32.5t28.5 -87.5q0 -63 -50 -114t-110 -51q-18 0 -29 9t-11 21q0 17 10.5 27.5t23 14t25 12t15.5 21.5q-31 4 -52.5 29t-21.5 61z" />
    <glyph glyph-name="kcommaaccent" unicode="&#x137;" horiz-adv-x="575" 
d="M435 280l110 -135q30 -35 30 -70t-25.5 -57.5t-69.5 -22.5q-24 0 -45.5 10t-30.5 20l-9 10l-110 135l-30 -30v-55q0 -38 -28 -64t-72 -26t-72 26t-28 64v545q0 38 28 64t72 26t72 -26t28 -64v-265l120 110q4 5 12.5 12.5t33.5 20t49 12.5q38 0 61.5 -24t23.5 -61
q0 -22 -10 -43.5t-20 -31.5l-10 -10zM210 -160q0 38 28 64t72 26q43 0 71.5 -32.5t28.5 -87.5q0 -63 -50 -114t-110 -51q-18 0 -29 9t-11 21q0 17 10.5 27.5t23 14t25 12t15.5 21.5q-31 4 -52.5 29t-21.5 61z" />
    <glyph glyph-name="Lacute" unicode="&#x139;" horiz-adv-x="635" 
d="M285 200h240q52 0 81 -27t29 -73t-29 -73t-81 -27h-350q-52 0 -81 27t-29 73v510q0 46 29 73t81 27t81 -27t29 -73v-410zM182 780q-30 0 -47.5 16.5t-17.5 43.5q0 11 2.5 23.5t4.5 19.5l3 7l25 75q25 75 100 75q37 0 58.5 -20.5t21.5 -54.5q0 -13 -4 -27t-8 -21l-3 -7
l-45 -74q-34 -56 -90 -56z" />
    <glyph glyph-name="lacute" unicode="&#x13a;" horiz-adv-x="317" 
d="M255 630v-545q0 -38 -28 -64t-72 -26t-72 26t-28 64v545q0 38 28 64t72 26t72 -26t28 -64zM152 780q-30 0 -47.5 16.5t-17.5 43.5q0 11 2.5 23.5t4.5 19.5l3 7l25 75q25 75 100 75q37 0 58.5 -20.5t21.5 -54.5q0 -13 -4 -27t-8 -21l-3 -7l-45 -74q-34 -56 -90 -56z" />
    <glyph glyph-name="Lcommaaccent" unicode="&#x13b;" horiz-adv-x="635" 
d="M285 200h240q52 0 81 -27t29 -73t-29 -73t-81 -27h-350q-52 0 -81 27t-29 73v510q0 46 29 73t81 27t81 -27t29 -73v-410zM245 -160q0 38 28 64t72 26q43 0 71.5 -32.5t28.5 -87.5q0 -63 -50 -114t-110 -51q-18 0 -29 9t-11 21q0 17 10.5 27.5t23 14t25 12t15.5 21.5
q-31 4 -52.5 29t-21.5 61z" />
    <glyph glyph-name="lcommaaccent" unicode="&#x13c;" horiz-adv-x="310" 
d="M255 630v-545q0 -38 -28 -64t-72 -26t-72 26t-28 64v545q0 38 28 64t72 26t72 -26t28 -64zM55 -160q0 38 28 64t72 26q43 0 71.5 -32.5t28.5 -87.5q0 -63 -50 -114t-110 -51q-18 0 -29 9t-11 21q0 17 10.5 27.5t23 14t25 12t15.5 21.5q-31 4 -52.5 29t-21.5 61z" />
    <glyph glyph-name="Lcaron" unicode="&#x13d;" horiz-adv-x="635" 
d="M365 620q0 38 28 64t72 26q13 0 28 -5t32 -16.5t28.5 -37t11.5 -61.5q0 -63 -50 -114t-110 -51q-18 0 -29 9t-11 21q0 17 10.5 27.5t23 14t25 12t15.5 21.5q-31 4 -52.5 29t-21.5 61zM285 200h240q52 0 81 -27t29 -73t-29 -73t-81 -27h-350q-52 0 -81 27t-29 73v510
q0 46 29 73t81 27t81 -27t29 -73v-410z" />
    <glyph glyph-name="lcaron" unicode="&#x13e;" horiz-adv-x="535" 
d="M335 620q0 38 28 64t72 26q13 0 28 -5t32 -16.5t28.5 -37t11.5 -61.5q0 -63 -50 -114t-110 -51q-18 0 -29 9t-11 21q0 17 10.5 27.5t23 14t25 12t15.5 21.5q-31 4 -52.5 29t-21.5 61zM255 630v-545q0 -38 -28 -64t-72 -26t-72 26t-28 64v545q0 38 28 64t72 26t72 -26
t28 -64z" />
    <glyph glyph-name="Lslash" unicode="&#x141;" horiz-adv-x="670" 
d="M320 200h240q52 0 81 -27t29 -73t-29 -73t-81 -27h-350q-52 0 -81 27t-29 73v140q-15 -6 -30 -6q-30 0 -50 21.5t-20 54.5q0 50 50 80l50 30v190q0 46 29 73t81 27t81 -27t29 -73v-75l10 5q25 16 60 16q30 0 50 -21.5t20 -54.5q0 -27 -15.5 -48.5t-34.5 -31.5l-90 -50
v-150z" />
    <glyph glyph-name="lslash" unicode="&#x142;" horiz-adv-x="430" 
d="M380 380l-70 -35v-260q0 -38 -28 -64t-72 -26t-72 26t-28 64v155q-20 -6 -40 -6q-30 0 -50 21.5t-20 54.5q0 27 16 49t34 31l60 30v210q0 38 28 64t72 26t72 -26t28 -64v-105q20 10 50 10t50 -21t20 -54q0 -27 -16 -49t-34 -31z" />
    <glyph glyph-name="Nacute" unicode="&#x143;" horiz-adv-x="780" 
d="M295 320h-10v-230q0 -46 -29 -73t-81 -27t-81 27t-29 73v520q0 45 29 72.5t81 27.5q42 0 72.5 -23.5t67.5 -76.5l170 -230h10v230q0 46 29 73t81 27t81 -27t29 -73v-520q0 -45 -29 -72.5t-81 -27.5q-42 0 -72.5 23.5t-67.5 76.5zM387 780q-30 0 -47.5 16.5t-17.5 43.5
q0 11 2.5 23.5t5.5 19.5l2 7l25 75q25 75 100 75q37 0 58.5 -20.5t21.5 -54.5q0 -13 -3.5 -27t-7.5 -21l-4 -7l-45 -74q-34 -56 -90 -56z" />
    <glyph glyph-name="nacute" unicode="&#x144;" horiz-adv-x="615" 
d="M250 305v-220q0 -38 -28 -64t-72 -26t-72 26t-28 64v350q0 38 28 64t72 26q31 0 53.5 -13t29.5 -23.5t7 -13.5h10q2 2 5 6.5t14 14.5t24 18t34 14.5t43 6.5q85 0 142.5 -63.5t57.5 -166.5v-220q0 -38 -28 -64t-72 -26t-72 26t-28 64v220q0 29 -18.5 49.5t-41.5 20.5
t-41.5 -20.5t-18.5 -49.5zM315 600q-30 0 -47.5 16.5t-17.5 43.5q0 11 2.5 23.5t5.5 19.5l2 7l25 75q25 75 100 75q37 0 58.5 -20.5t21.5 -54.5q0 -13 -3.5 -27t-7.5 -21l-4 -7l-45 -74q-34 -56 -90 -56z" />
    <glyph glyph-name="Ncommaaccent" unicode="&#x145;" horiz-adv-x="780" 
d="M295 320h-10v-230q0 -46 -29 -73t-81 -27t-81 27t-29 73v520q0 45 29 72.5t81 27.5q42 0 72.5 -23.5t67.5 -76.5l170 -230h10v230q0 46 29 73t81 27t81 -27t29 -73v-520q0 -45 -29 -72.5t-81 -27.5q-42 0 -72.5 23.5t-67.5 76.5zM300 -150q0 38 28 64t72 26
q43 0 71.5 -32.5t28.5 -87.5q0 -63 -50 -114t-110 -51q-18 0 -29 9t-11 21q0 17 10.5 27.5t23 14t25 12t15.5 21.5q-31 4 -52.5 29t-21.5 61z" />
    <glyph glyph-name="ncommaaccent" unicode="&#x146;" horiz-adv-x="615" 
d="M250 305v-220q0 -38 -28 -64t-72 -26t-72 26t-28 64v350q0 38 28 64t72 26q31 0 53.5 -13t29.5 -23.5t7 -13.5h10q2 2 5 6.5t14 14.5t24 18t34 14.5t43 6.5q85 0 142.5 -63.5t57.5 -166.5v-220q0 -38 -28 -64t-72 -26t-72 26t-28 64v220q0 29 -18.5 49.5t-41.5 20.5
t-41.5 -20.5t-18.5 -49.5zM217 -150q0 38 28 64t72 26q43 0 71.5 -32.5t28.5 -87.5q0 -63 -50 -114t-110 -51q-18 0 -29 9t-11 21q0 17 10.5 27.5t23 14t25 12t15.5 21.5q-31 4 -52.5 29t-21.5 61z" />
    <glyph glyph-name="Ncaron" unicode="&#x147;" horiz-adv-x="780" 
d="M295 320h-10v-230q0 -46 -29 -73t-81 -27t-81 27t-29 73v520q0 45 29 72.5t81 27.5q42 0 72.5 -23.5t67.5 -76.5l170 -230h10v230q0 46 29 73t81 27t81 -27t29 -73v-520q0 -45 -29 -72.5t-81 -27.5q-42 0 -72.5 23.5t-67.5 76.5zM390 780q-68 0 -105 50l-65 90
q-25 30 -25 55q0 27 20 46t50 19q31 0 50 -12.5t35 -37.5l35 -56h10l35 56q16 25 35 37.5t50 12.5q30 0 50 -19t20 -46q0 -11 -6.5 -25t-12.5 -22l-6 -8l-65 -90q-37 -50 -105 -50z" />
    <glyph glyph-name="ncaron" unicode="&#x148;" horiz-adv-x="615" 
d="M250 305v-220q0 -38 -28 -64t-72 -26t-72 26t-28 64v350q0 38 28 64t72 26q31 0 53.5 -13t29.5 -23.5t7 -13.5h10q2 2 5 6.5t14 14.5t24 18t34 14.5t43 6.5q85 0 142.5 -63.5t57.5 -166.5v-220q0 -38 -28 -64t-72 -26t-72 26t-28 64v220q0 29 -18.5 49.5t-41.5 20.5
t-41.5 -20.5t-18.5 -49.5zM317 600q-67 0 -105 50l-65 90q-25 30 -25 55q0 27 20 46t50 19q31 0 50 -12.5t35 -37.5l35 -56h10l35 56q16 25 35 37.5t50 12.5q30 0 50 -19t20 -46q0 -11 -6 -25t-12 -22l-7 -8l-65 -90q-38 -50 -105 -50z" />
    <glyph glyph-name="Omacron" unicode="&#x14c;" horiz-adv-x="750" 
d="M710 420v-140q0 -130 -92 -215t-243 -85t-243 85t-92 215v140q0 130 92 215t243 85t243 -85t92 -215zM485 280v140q0 58 -32 94t-78 36t-78 -36t-32 -94v-140q0 -58 32 -94t78 -36t78 36t32 94zM260 960h230q34 0 54.5 -20.5t20.5 -54.5t-20.5 -54.5t-54.5 -20.5h-230
q-34 0 -54.5 20.5t-20.5 54.5t20.5 54.5t54.5 20.5z" />
    <glyph glyph-name="omacron" unicode="&#x14d;" 
d="M295 380q-27 0 -46 -21t-19 -54v-90q0 -33 19 -54t46 -21t46 21t19 54v90q0 33 -19 54t-46 21zM295 -15q-117 0 -191 67t-74 163v90q0 96 74 163t191 67t191 -67t74 -163v-90q0 -96 -74 -163t-191 -67zM190 780h230q34 0 54.5 -20.5t20.5 -54.5t-20.5 -54.5t-54.5 -20.5
h-230q-34 0 -54.5 20.5t-20.5 54.5t20.5 54.5t54.5 20.5z" />
    <glyph glyph-name="Ohungarumlaut" unicode="&#x150;" horiz-adv-x="750" 
d="M710 420v-140q0 -130 -92 -215t-243 -85t-243 85t-92 215v140q0 130 92 215t243 85t243 -85t92 -215zM485 280v140q0 58 -32 94t-78 36t-78 -36t-32 -94v-140q0 -58 32 -94t78 -36t78 36t32 94zM492 780q-26 0 -43 16t-17 39q0 11 2.5 25t5.5 22l2 8l25 80q22 70 95 70
q33 0 54 -20t21 -50q0 -13 -3.5 -28t-7.5 -24l-4 -8l-45 -79q-29 -51 -85 -51zM272 780q-26 0 -43 16t-17 39q0 11 2.5 25t5.5 22l2 8l25 80q22 70 95 70q33 0 54 -20t21 -50q0 -13 -3.5 -28t-7.5 -24l-4 -8l-45 -79q-29 -51 -85 -51z" />
    <glyph glyph-name="ohungarumlaut" unicode="&#x151;" 
d="M295 380q-27 0 -46 -21t-19 -54v-90q0 -33 19 -54t46 -21t46 21t19 54v90q0 33 -19 54t-46 21zM295 -15q-117 0 -191 67t-74 163v90q0 96 74 163t191 67t191 -67t74 -163v-90q0 -96 -74 -163t-191 -67zM402 600q-26 0 -43 16t-17 39q0 11 2.5 25t5.5 22l2 8l25 80
q22 70 95 70q33 0 54 -20t21 -50q0 -13 -3.5 -28t-7.5 -24l-4 -8l-45 -79q-29 -51 -85 -51zM182 600q-26 0 -43 16t-17 39q0 11 2.5 25t5.5 22l2 8l25 80q22 70 95 70q33 0 54 -20t21 -50q0 -13 -3.5 -28t-7.5 -24l-4 -8l-45 -79q-29 -51 -85 -51z" />
    <glyph glyph-name="OE" unicode="&#x152;" horiz-adv-x="1010" 
d="M40 300v100q0 131 93.5 215.5t251.5 84.5h495q52 0 81 -27t29 -73t-29 -73t-81 -27h-230v-60h150q44 0 72 -26t28 -64t-28 -64t-72 -26h-150v-60h240q52 0 81 -27t29 -73t-29 -73t-81 -27h-505q-158 0 -251.5 84.5t-93.5 215.5zM430 520h-45q-53 0 -86.5 -34t-33.5 -86
v-100q0 -52 33.5 -86t86.5 -34h45v340z" />
    <glyph glyph-name="oe" unicode="&#x153;" horiz-adv-x="905" 
d="M295 380q-27 0 -46 -21t-19 -54v-90q0 -33 19 -54t46 -21t46 21t19 54v90q0 33 -19 54t-46 21zM560 315h120q0 26 -17 43t-43 17t-43 -17t-17 -43zM620 535q114 0 187 -67t73 -163v-15q0 -38 -28 -64t-72 -26h-220q0 -30 19 -50t46 -20q29 0 66.5 25t73.5 25q90 0 90 -80
q0 -40 -62 -77.5t-168 -37.5q-31 0 -58.5 5.5t-45.5 13.5t-31 16.5t-19 13.5l-6 6h-10q-6 -6 -17 -15t-52.5 -24.5t-90.5 -15.5q-117 0 -191 67t-74 163v90q0 96 74 163t191 67q49 0 89 -14t56 -27l15 -14h10q6 6 17 15t51 24.5t87 15.5z" />
    <glyph glyph-name="Racute" unicode="&#x154;" horiz-adv-x="730" 
d="M345 250h-60v-160q0 -46 -29 -73t-81 -27t-81 27t-29 73v510q0 46 29 73t81 27h210q152 0 226 -59.5t74 -165.5q0 -35 -11.5 -65t-27.5 -47.5t-32 -30t-28 -17.5l-11 -5v-10l100 -120q40 -50 40 -90q0 -46 -30.5 -73t-89.5 -27q-22 0 -44.5 12.5t-34.5 25.5l-11 12z
M285 420h100q33 0 51.5 16t18.5 39t-18.5 39t-51.5 16h-100v-110zM360 780q-30 0 -47.5 16.5t-17.5 43.5q0 11 2.5 23.5t4.5 19.5l3 7l25 75q25 75 100 75q37 0 58.5 -20.5t21.5 -54.5q0 -13 -4 -27t-8 -21l-3 -7l-45 -74q-34 -56 -90 -56z" />
    <glyph glyph-name="racute" unicode="&#x155;" horiz-adv-x="480" 
d="M385 340q-13 0 -38 5t-37 5q-26 0 -43 -17t-17 -43v-205q0 -38 -28 -64t-72 -26t-72 26t-28 64v350q0 38 28 64t72 26q20 0 36.5 -5.5t26 -13.5t16 -16.5t9 -13.5t2.5 -6h10q2 3 5 7t14.5 15.5t25 20t35 15.5t45.5 7q48 0 76.5 -26.5t28.5 -68.5q0 -45 -26.5 -72.5
t-68.5 -27.5zM265 600q-30 0 -47.5 16.5t-17.5 43.5q0 11 2.5 23.5t5.5 19.5l2 7l25 75q25 75 100 75q37 0 58.5 -20.5t21.5 -54.5q0 -13 -3.5 -27t-7.5 -21l-4 -7l-45 -74q-34 -56 -90 -56z" />
    <glyph glyph-name="Rcommaaccent" unicode="&#x156;" horiz-adv-x="730" 
d="M345 250h-60v-160q0 -46 -29 -73t-81 -27t-81 27t-29 73v510q0 46 29 73t81 27h210q152 0 226 -59.5t74 -165.5q0 -35 -11.5 -65t-27.5 -47.5t-32 -30t-28 -17.5l-11 -5v-10l100 -120q40 -50 40 -90q0 -46 -30.5 -73t-89.5 -27q-22 0 -44.5 12.5t-34.5 25.5l-11 12z
M285 420h100q33 0 51.5 16t18.5 39t-18.5 39t-51.5 16h-100v-110zM282 -150q0 38 28 64t72 26q43 0 71.5 -32.5t28.5 -87.5q0 -63 -50 -114t-110 -51q-18 0 -29 9t-11 21q0 17 10.5 27.5t23 14t25 12t15.5 21.5q-31 4 -52.5 29t-21.5 61z" />
    <glyph glyph-name="rcommaaccent" unicode="&#x157;" horiz-adv-x="480" 
d="M385 340q-13 0 -38 5t-37 5q-26 0 -43 -17t-17 -43v-205q0 -38 -28 -64t-72 -26t-72 26t-28 64v350q0 38 28 64t72 26q20 0 36.5 -5.5t26 -13.5t16 -16.5t9 -13.5t2.5 -6h10q2 3 5 7t14.5 15.5t25 20t35 15.5t45.5 7q48 0 76.5 -26.5t28.5 -68.5q0 -45 -26.5 -72.5
t-68.5 -27.5zM50 -160q0 38 28 64t72 26q43 0 71.5 -32.5t28.5 -87.5q0 -63 -50 -114t-110 -51q-18 0 -29 9t-11 21q0 17 10.5 27.5t23 14t25 12t15.5 21.5q-31 4 -52.5 29t-21.5 61z" />
    <glyph glyph-name="Rcaron" unicode="&#x158;" horiz-adv-x="730" 
d="M345 250h-60v-160q0 -46 -29 -73t-81 -27t-81 27t-29 73v510q0 46 29 73t81 27h210q152 0 226 -59.5t74 -165.5q0 -35 -11.5 -65t-27.5 -47.5t-32 -30t-28 -17.5l-11 -5v-10l100 -120q40 -50 40 -90q0 -46 -30.5 -73t-89.5 -27q-22 0 -44.5 12.5t-34.5 25.5l-11 12z
M285 420h100q33 0 51.5 16t18.5 39t-18.5 39t-51.5 16h-100v-110zM372 780q-68 0 -105 50l-65 90q-25 30 -25 55q0 27 20 46t50 19q31 0 50 -12.5t35 -37.5l35 -56h10l35 56q16 25 35 37.5t50 12.5q30 0 50 -19t20 -46q0 -11 -6.5 -25t-12.5 -22l-6 -8l-65 -90
q-37 -50 -105 -50z" />
    <glyph glyph-name="rcaron" unicode="&#x159;" horiz-adv-x="480" 
d="M385 340q-13 0 -38 5t-37 5q-26 0 -43 -17t-17 -43v-205q0 -38 -28 -64t-72 -26t-72 26t-28 64v350q0 38 28 64t72 26q20 0 36.5 -5.5t26 -13.5t16 -16.5t9 -13.5t2.5 -6h10q2 3 5 7t14.5 15.5t25 20t35 15.5t45.5 7q48 0 76.5 -26.5t28.5 -68.5q0 -45 -26.5 -72.5
t-68.5 -27.5zM267 600q-67 0 -105 50l-65 90q-25 30 -25 55q0 27 20 46t50 19q31 0 50 -12.5t35 -37.5l35 -56h10l35 56q16 25 35 37.5t50 12.5q30 0 50 -19t20 -46q0 -11 -6 -25t-12 -22l-7 -8l-65 -90q-38 -50 -105 -50z" />
    <glyph glyph-name="Sacute" unicode="&#x15a;" horiz-adv-x="645" 
d="M400 220q0 14 -27.5 24.5t-68.5 18.5t-89 24.5t-89 39t-68.5 65t-27.5 98.5q0 102 77.5 166t222.5 64q122 0 198.5 -55t76.5 -115q0 -42 -27.5 -66t-82.5 -24q-41 0 -84.5 35t-80.5 35q-35 0 -52.5 -11.5t-17.5 -28.5q0 -16 27.5 -28.5t68.5 -21.5t89 -25.5t89 -37.5
t68.5 -62t27.5 -95q0 -103 -86 -171.5t-244 -68.5q-128 0 -206.5 55t-78.5 115q0 42 27.5 66t82.5 24q39 0 85.5 -35t89.5 -35q52 0 76 14.5t24 35.5zM330 780q-30 0 -47.5 16.5t-17.5 43.5q0 11 2.5 23.5t4.5 19.5l3 7l25 75q25 75 100 75q37 0 58.5 -20.5t21.5 -54.5
q0 -13 -4 -27t-8 -21l-3 -7l-45 -74q-34 -56 -90 -56z" />
    <glyph glyph-name="sacute" unicode="&#x15b;" horiz-adv-x="510" 
d="M500 160q0 -76 -66 -125.5t-194 -49.5q-106 0 -168 40.5t-62 84.5q0 35 23 55t67 20q36 0 73.5 -27.5t66.5 -27.5q25 0 37.5 9t12.5 21q0 13 -27.5 22t-66 18.5t-77.5 25t-66.5 50t-27.5 84.5q0 79 62 127t188 48q97 0 156 -41t59 -84q0 -35 -23 -55t-67 -20
q-30 0 -51.5 13.5t-38.5 27.5t-35 14t-29 -9t-11 -21q0 -13 27.5 -22t66.5 -18.5t77.5 -25t66 -50t27.5 -84.5zM272 600q-30 0 -47.5 16.5t-17.5 43.5q0 11 2.5 23.5t4.5 19.5l3 7l25 75q25 75 100 75q37 0 58.5 -20.5t21.5 -54.5q0 -13 -4 -27t-8 -21l-3 -7l-45 -74
q-34 -56 -90 -56z" />
    <glyph glyph-name="Scedilla" unicode="&#x15e;" horiz-adv-x="645" 
d="M400 220q0 14 -27.5 24.5t-68.5 18.5t-89 24.5t-89 39t-68.5 65t-27.5 98.5q0 102 77.5 166t222.5 64q122 0 198.5 -55t76.5 -115q0 -42 -27.5 -66t-82.5 -24q-41 0 -84.5 35t-80.5 35q-35 0 -52.5 -11.5t-17.5 -28.5q0 -16 27.5 -28.5t68.5 -21.5t89 -25.5t89 -37.5
t68.5 -62t27.5 -95q0 -97 -76 -163t-217 -75v-22q67 -7 103.5 -42.5t36.5 -92.5q0 -53 -53 -94t-142 -41q-46 0 -70.5 18.5t-24.5 46.5q0 60 85 60q55 0 55 20t-55 20q-26 0 -43 16t-17 39v79q-91 18 -144 65.5t-53 95.5q0 42 27.5 66t82.5 24q39 0 85.5 -35t89.5 -35
q52 0 76 14.5t24 35.5z" />
    <glyph glyph-name="scedilla" unicode="&#x15f;" horiz-adv-x="510" 
d="M500 160q0 -72 -58 -120t-172 -54v-16q67 -7 103.5 -42.5t36.5 -92.5q0 -53 -53 -94t-142 -41q-46 0 -70.5 18.5t-24.5 46.5q0 60 85 60q55 0 55 20t-55 20q-26 0 -43 16t-17 39v76q-64 15 -99.5 48.5t-35.5 65.5q0 35 23 55t67 20q36 0 73.5 -27.5t66.5 -27.5
q25 0 37.5 9t12.5 21q0 13 -27.5 22t-66 18.5t-77.5 25t-66.5 50t-27.5 84.5q0 79 62 127t188 48q97 0 156 -41t59 -84q0 -35 -23 -55t-67 -20q-30 0 -51.5 13.5t-38.5 27.5t-35 14t-29 -9t-11 -21q0 -13 27.5 -22t66.5 -18.5t77.5 -25t66 -50t27.5 -84.5z" />
    <glyph glyph-name="Scaron" unicode="&#x160;" horiz-adv-x="645" 
d="M400 220q0 14 -27.5 24.5t-68.5 18.5t-89 24.5t-89 39t-68.5 65t-27.5 98.5q0 102 77.5 166t222.5 64q122 0 198.5 -55t76.5 -115q0 -42 -27.5 -66t-82.5 -24q-41 0 -84.5 35t-80.5 35q-35 0 -52.5 -11.5t-17.5 -28.5q0 -16 27.5 -28.5t68.5 -21.5t89 -25.5t89 -37.5
t68.5 -62t27.5 -95q0 -103 -86 -171.5t-244 -68.5q-128 0 -206.5 55t-78.5 115q0 42 27.5 66t82.5 24q39 0 85.5 -35t89.5 -35q52 0 76 14.5t24 35.5zM322 780q-68 0 -105 50l-65 90q-25 30 -25 55q0 27 20 46t50 19q31 0 50 -12.5t35 -37.5l35 -56h10l35 56q16 25 35 37.5
t50 12.5q30 0 50 -19t20 -46q0 -11 -6.5 -25t-12.5 -22l-6 -8l-65 -90q-37 -50 -105 -50z" />
    <glyph glyph-name="scaron" unicode="&#x161;" horiz-adv-x="510" 
d="M500 160q0 -76 -66 -125.5t-194 -49.5q-106 0 -168 40.5t-62 84.5q0 35 23 55t67 20q36 0 73.5 -27.5t66.5 -27.5q25 0 37.5 9t12.5 21q0 13 -27.5 22t-66 18.5t-77.5 25t-66.5 50t-27.5 84.5q0 79 62 127t188 48q97 0 156 -41t59 -84q0 -35 -23 -55t-67 -20
q-30 0 -51.5 13.5t-38.5 27.5t-35 14t-29 -9t-11 -21q0 -13 27.5 -22t66.5 -18.5t77.5 -25t66 -50t27.5 -84.5zM265 600q-67 0 -105 50l-65 90q-25 30 -25 55q0 27 20 46t50 19q31 0 50 -12.5t35 -37.5l35 -56h10l35 56q16 25 35 37.5t50 12.5q30 0 50 -19t20 -46
q0 -11 -6 -25t-12 -22l-7 -8l-65 -90q-38 -50 -105 -50z" />
    <glyph glyph-name="Tcommaaccent" unicode="&#x162;" horiz-adv-x="660" 
d="M220 500h-110q-52 0 -81 27t-29 73t29 73t81 27h440q52 0 81 -27t29 -73t-29 -73t-81 -27h-110v-410q0 -46 -29 -73t-81 -27t-81 27t-29 73v410zM230 -160q0 38 28 64t72 26q43 0 71.5 -32.5t28.5 -87.5q0 -63 -50 -114t-110 -51q-18 0 -29 9t-11 21q0 17 10.5 27.5
t23 14t25 12t15.5 21.5q-31 4 -52.5 29t-21.5 61z" />
    <glyph glyph-name="tcommaaccent" unicode="&#x163;" horiz-adv-x="455" 
d="M80 515v35q0 38 28 64t72 26t72 -26t28 -64v-30h50q44 0 72 -26t28 -64q0 -39 -28 -64.5t-72 -25.5h-50v-145q0 -18 12.5 -31.5t27.5 -13.5q10 0 25 5t25 5q37 0 58.5 -20.5t21.5 -54.5q0 -41 -41 -70.5t-119 -29.5q-90 0 -150 60t-60 150v150l-7.5 2.5t-16.5 8.5
t-21.5 16t-17 24.5t-7.5 33.5q0 29 17.5 50t34.5 28zM170 -160q0 38 28 64t72 26q43 0 71.5 -32.5t28.5 -87.5q0 -63 -50 -114t-110 -51q-18 0 -29 9t-11 21q0 17 10.5 27.5t23 14t25 12t15.5 21.5q-31 4 -52.5 29t-21.5 61z" />
    <glyph glyph-name="Tcaron" unicode="&#x164;" horiz-adv-x="660" 
d="M220 500h-110q-52 0 -81 27t-29 73t29 73t81 27h440q52 0 81 -27t29 -73t-29 -73t-81 -27h-110v-410q0 -46 -29 -73t-81 -27t-81 27t-29 73v410zM330 780q-68 0 -105 50l-65 90q-25 30 -25 55q0 27 20 46t50 19q31 0 50 -12.5t35 -37.5l35 -56h10l35 56q16 25 35 37.5
t50 12.5q30 0 50 -19t20 -46q0 -11 -6.5 -25t-12.5 -22l-6 -8l-65 -90q-37 -50 -105 -50z" />
    <glyph glyph-name="tcaron" unicode="&#x165;" horiz-adv-x="676" 
d="M476 620q0 38 28 64t72 26q13 0 28 -5t32 -16.5t28.5 -37t11.5 -61.5q0 -63 -50 -114t-110 -51q-18 0 -29 9t-11 21q0 17 10.5 27.5t23 14t25 12t15.5 21.5q-31 4 -52.5 29t-21.5 61zM80 515v35q0 38 28 64t72 26t72 -26t28 -64v-30h50q44 0 72 -26t28 -64
q0 -39 -28 -64.5t-72 -25.5h-50v-145q0 -18 12.5 -31.5t27.5 -13.5q10 0 25 5t25 5q37 0 58.5 -20.5t21.5 -54.5q0 -41 -41 -70.5t-119 -29.5q-90 0 -150 60t-60 150v150l-7.5 2.5t-16.5 8.5t-21.5 16t-17 24.5t-7.5 33.5q0 29 17.5 50t34.5 28z" />
    <glyph glyph-name="Umacron" unicode="&#x16a;" horiz-adv-x="770" 
d="M385 -20q-148 0 -234 80t-86 210v340q0 46 29 73t81 27t81 -27t29 -73v-340q0 -52 27 -81t73 -29t73 29t27 81v340q0 46 29 73t81 27t81 -27t29 -73v-340q0 -130 -86 -210t-234 -80zM270 960h230q34 0 54.5 -20.5t20.5 -54.5t-20.5 -54.5t-54.5 -20.5h-230
q-34 0 -54.5 20.5t-20.5 54.5t20.5 54.5t54.5 20.5z" />
    <glyph glyph-name="umacron" unicode="&#x16b;" horiz-adv-x="620" 
d="M370 215v220q0 38 28 64t72 26t72 -26t28 -64v-350q0 -38 -28 -64t-72 -26q-31 0 -53.5 13t-29.5 23.5t-7 13.5h-10q-2 -2 -5 -6.5t-14 -14.5t-24 -18t-34 -14.5t-43 -6.5q-85 0 -142.5 63.5t-57.5 166.5v220q0 38 28 64t72 26t72 -26t28 -64v-220q0 -29 18.5 -49.5
t41.5 -20.5t41.5 20.5t18.5 49.5zM205 780h230q34 0 54.5 -20.5t20.5 -54.5t-20.5 -54.5t-54.5 -20.5h-230q-34 0 -54.5 20.5t-20.5 54.5t20.5 54.5t54.5 20.5z" />
    <glyph glyph-name="Uring" unicode="&#x16e;" horiz-adv-x="770" 
d="M385 -20q-148 0 -234 80t-86 210v340q0 46 29 73t81 27t81 -27t29 -73v-340q0 -52 27 -81t73 -29t73 29t27 81v340q0 46 29 73t81 27t81 -27t29 -73v-340q0 -130 -86 -210t-234 -80zM425 890q0 18 -12.5 31.5t-27.5 13.5t-27.5 -13.5t-12.5 -31.5t12.5 -31.5t27.5 -13.5
t27.5 13.5t12.5 31.5zM540 890q0 -57 -44.5 -98.5t-110.5 -41.5t-110.5 41.5t-44.5 98.5t44.5 98.5t110.5 41.5t110.5 -41.5t44.5 -98.5z" />
    <glyph glyph-name="uring" unicode="&#x16f;" horiz-adv-x="620" 
d="M370 215v220q0 38 28 64t72 26t72 -26t28 -64v-350q0 -38 -28 -64t-72 -26q-31 0 -53.5 13t-29.5 23.5t-7 13.5h-10q-2 -2 -5 -6.5t-14 -14.5t-24 -18t-34 -14.5t-43 -6.5q-85 0 -142.5 63.5t-57.5 166.5v220q0 38 28 64t72 26t72 -26t28 -64v-220q0 -29 18.5 -49.5
t41.5 -20.5t41.5 20.5t18.5 49.5zM360 710q0 18 -12.5 31.5t-27.5 13.5t-27.5 -13.5t-12.5 -31.5t12.5 -31.5t27.5 -13.5t27.5 13.5t12.5 31.5zM475 710q0 -57 -44.5 -98.5t-110.5 -41.5t-110.5 41.5t-44.5 98.5t44.5 98.5t110.5 41.5t110.5 -41.5t44.5 -98.5z" />
    <glyph glyph-name="Uhungarumlaut" unicode="&#x170;" horiz-adv-x="770" 
d="M385 -20q-148 0 -234 80t-86 210v340q0 46 29 73t81 27t81 -27t29 -73v-340q0 -52 27 -81t73 -29t73 29t27 81v340q0 46 29 73t81 27t81 -27t29 -73v-340q0 -130 -86 -210t-234 -80zM482 780q-26 0 -43 16t-17 39q0 11 2.5 25t5.5 22l2 8l25 80q22 70 95 70q33 0 54 -20
t21 -50q0 -13 -3.5 -28t-7.5 -24l-4 -8l-45 -79q-29 -51 -85 -51zM262 780q-26 0 -43 16t-17 39q0 11 2.5 25t5.5 22l2 8l25 80q22 70 95 70q33 0 54 -20t21 -50q0 -13 -3.5 -28t-7.5 -24l-4 -8l-45 -79q-29 -51 -85 -51z" />
    <glyph glyph-name="uhungarumlaut" unicode="&#x171;" horiz-adv-x="620" 
d="M370 215v220q0 38 28 64t72 26t72 -26t28 -64v-350q0 -38 -28 -64t-72 -26q-31 0 -53.5 13t-29.5 23.5t-7 13.5h-10q-2 -2 -5 -6.5t-14 -14.5t-24 -18t-34 -14.5t-43 -6.5q-85 0 -142.5 63.5t-57.5 166.5v220q0 38 28 64t72 26t72 -26t28 -64v-220q0 -29 18.5 -49.5
t41.5 -20.5t41.5 20.5t18.5 49.5zM417 600q-26 0 -43 16t-17 39q0 11 2.5 25t4.5 22l3 8l25 80q22 70 95 70q33 0 54 -20t21 -50q0 -13 -4 -28t-8 -24l-3 -8l-45 -79q-29 -51 -85 -51zM197 600q-26 0 -43 16t-17 39q0 11 2.5 25t4.5 22l3 8l25 80q22 70 95 70q33 0 54 -20
t21 -50q0 -13 -4 -28t-8 -24l-3 -8l-45 -79q-29 -51 -85 -51z" />
    <glyph glyph-name="Uogonek" unicode="&#x172;" horiz-adv-x="770" 
d="M284 -130q0 61 62 112q-131 10 -206 88.5t-75 199.5v340q0 46 29 73t81 27t81 -27t29 -73v-340q0 -52 27 -81t73 -29t73 29t27 81v340q0 46 29 73t81 27t81 -27t29 -73v-340q0 -93 -45.5 -162t-128.5 -102q-16 -8 -34.5 -20t-38 -34t-19.5 -42q0 -40 50 -40
q33 0 51.5 -17.5t18.5 -47.5q0 -29 -27 -47t-83 -18q-72 0 -118.5 39.5t-46.5 90.5z" />
    <glyph glyph-name="uogonek" unicode="&#x173;" horiz-adv-x="620" 
d="M370 215v220q0 38 28 64t72 26t72 -26t28 -64v-350q0 -32 -22.5 -56t-50 -37t-50 -34t-22.5 -48q0 -40 50 -40q33 0 51.5 -17.5t18.5 -47.5q0 -29 -27 -47t-83 -18q-72 0 -118.5 39.5t-46.5 90.5q0 35 27 71t50 53.5t45 30.5q-12 13 -12 20h-10q-2 -2 -5 -6.5t-14 -14.5
t-24 -18t-34 -14.5t-43 -6.5q-85 0 -142.5 63.5t-57.5 166.5v220q0 38 28 64t72 26t72 -26t28 -64v-220q0 -29 18.5 -49.5t41.5 -20.5t41.5 20.5t18.5 49.5z" />
    <glyph glyph-name="Ydieresis" unicode="&#x178;" horiz-adv-x="680" 
d="M335 470h10l130 190q4 6 11.5 14t31 22t47.5 14q55 0 85 -27t30 -73q0 -18 -10 -40.5t-20 -35.5l-10 -14l-190 -270v-160q0 -46 -29 -73t-81 -27t-81 27t-29 73v160l-190 270q-40 50 -40 90q0 46 30 73t85 27q24 0 46.5 -12.5t32.5 -25.5l11 -12zM455 790q-41 0 -68 26
t-27 64t27 64t68 26t68 -26t27 -64t-27 -64t-68 -26zM225 790q-41 0 -68 26t-27 64t27 64t68 26t68 -26t27 -64t-27 -64t-68 -26z" />
    <glyph glyph-name="Zacute" unicode="&#x179;" horiz-adv-x="630" 
d="M40 200l270 290v10h-190q-52 0 -81 27t-29 73t29 73t81 27h390q52 0 81 -27t29 -73q0 -27 -10 -52t-20 -36l-10 -12l-250 -290v-10h190q52 0 81 -27t29 -73t-29 -73t-81 -27h-410q-52 0 -81 27t-29 73q0 27 10 52t20 36zM322 780q-30 0 -47.5 16.5t-17.5 43.5
q0 11 2.5 23.5t4.5 19.5l3 7l25 75q25 75 100 75q37 0 58.5 -20.5t21.5 -54.5q0 -13 -4 -27t-8 -21l-3 -7l-45 -74q-34 -56 -90 -56z" />
    <glyph glyph-name="zacute" unicode="&#x17a;" horiz-adv-x="520" 
d="M465 340l-170 -150v-10h120q44 0 72 -26t28 -64t-28 -64t-72 -26h-320q-37 0 -63.5 26t-26.5 64q0 24 10 46.5t20 33.5l10 10l170 150v10h-100q-44 0 -72 26t-28 64t28 64t72 26h300q37 0 63.5 -26t26.5 -64q0 -24 -10 -46.5t-20 -33.5zM267 600q-30 0 -47.5 16.5
t-17.5 43.5q0 11 2.5 23.5t5.5 19.5l2 7l25 75q25 75 100 75q37 0 58.5 -20.5t21.5 -54.5q0 -13 -3.5 -27t-7.5 -21l-4 -7l-45 -74q-34 -56 -90 -56z" />
    <glyph glyph-name="Zdotaccent" unicode="&#x17b;" horiz-adv-x="630" 
d="M40 200l270 290v10h-190q-52 0 -81 27t-29 73t29 73t81 27h390q52 0 81 -27t29 -73q0 -27 -10 -52t-20 -36l-10 -12l-250 -290v-10h190q52 0 81 -27t29 -73t-29 -73t-81 -27h-410q-52 0 -81 27t-29 73q0 27 10 52t20 36zM325 790q-44 0 -72 26t-28 64t28 64t72 26t72 -26
t28 -64t-28 -64t-72 -26z" />
    <glyph glyph-name="zdotaccent" unicode="&#x17c;" horiz-adv-x="520" 
d="M465 340l-170 -150v-10h120q44 0 72 -26t28 -64t-28 -64t-72 -26h-320q-37 0 -63.5 26t-26.5 64q0 24 10 46.5t20 33.5l10 10l170 150v10h-100q-44 0 -72 26t-28 64t28 64t72 26h300q37 0 63.5 -26t26.5 -64q0 -24 -10 -46.5t-20 -33.5zM270 610q-44 0 -72 26t-28 64
t28 64t72 26t72 -26t28 -64t-28 -64t-72 -26z" />
    <glyph glyph-name="Zcaron" unicode="&#x17d;" horiz-adv-x="630" 
d="M40 200l270 290v10h-190q-52 0 -81 27t-29 73t29 73t81 27h390q52 0 81 -27t29 -73q0 -27 -10 -52t-20 -36l-10 -12l-250 -290v-10h190q52 0 81 -27t29 -73t-29 -73t-81 -27h-410q-52 0 -81 27t-29 73q0 27 10 52t20 36zM315 780q-67 0 -105 50l-65 90q-25 30 -25 55
q0 27 20 46t50 19q31 0 50 -12.5t35 -37.5l35 -56h10l35 56q16 25 35 37.5t50 12.5q30 0 50 -19t20 -46q0 -11 -6 -25t-12 -22l-7 -8l-65 -90q-38 -50 -105 -50z" />
    <glyph glyph-name="zcaron" unicode="&#x17e;" horiz-adv-x="520" 
d="M465 340l-170 -150v-10h120q44 0 72 -26t28 -64t-28 -64t-72 -26h-320q-37 0 -63.5 26t-26.5 64q0 24 10 46.5t20 33.5l10 10l170 150v10h-100q-44 0 -72 26t-28 64t28 64t72 26h300q37 0 63.5 -26t26.5 -64q0 -24 -10 -46.5t-20 -33.5zM260 600q-67 0 -105 50l-65 90
q-25 30 -25 55q0 27 20 46t50 19q31 0 50 -12.5t35 -37.5l35 -56h10l35 56q16 25 35 37.5t50 12.5q30 0 50 -19t20 -46q0 -11 -6.5 -25t-12.5 -22l-6 -8l-65 -90q-37 -50 -105 -50z" />
    <glyph glyph-name="florin" unicode="&#x192;" horiz-adv-x="455" 
d="M105 70v235l-7.5 2.5t-16.5 8.5t-21.5 16t-17 24.5t-7.5 33.5q0 29 17.5 50t35.5 28l17 7v35q0 90 60 150t150 60q77 0 118.5 -29.5t41.5 -70.5q0 -34 -21.5 -54.5t-58.5 -20.5q-10 0 -25 5t-25 5q-15 0 -27.5 -13.5t-12.5 -31.5v-30h50q44 0 72 -25.5t28 -64.5
q0 -38 -28 -64t-72 -26h-50v-230q0 -126 -79 -208t-196 -82q-34 0 -57 23t-23 57q0 30 16 49t39 30t45.5 23.5t38.5 39.5t16 68z" />
    <glyph glyph-name="Scommaaccent" unicode="&#x218;" horiz-adv-x="645" 
d="M215 -160q0 38 28 64t72 26q13 0 28 -5t32 -16.5t28.5 -37t11.5 -61.5q0 -63 -50 -114t-110 -51q-18 0 -29 9t-11 21q0 17 10.5 27.5t23 14t25 12t15.5 21.5q-31 4 -52.5 29t-21.5 61zM400 220q0 14 -27.5 24.5t-68.5 18.5t-89 24.5t-89 39t-68.5 65t-27.5 98.5
q0 102 77.5 166t222.5 64q122 0 198.5 -55t76.5 -115q0 -42 -27.5 -66t-82.5 -24q-41 0 -84.5 35t-80.5 35q-35 0 -52.5 -11.5t-17.5 -28.5q0 -16 27.5 -28.5t68.5 -21.5t89 -25.5t89 -37.5t68.5 -62t27.5 -95q0 -103 -86 -171.5t-244 -68.5q-128 0 -206.5 55t-78.5 115
q0 42 27.5 66t82.5 24q39 0 85.5 -35t89.5 -35q52 0 76 14.5t24 35.5z" />
    <glyph glyph-name="scommaaccent" unicode="&#x219;" horiz-adv-x="510" 
d="M500 160q0 -76 -66 -125.5t-194 -49.5q-106 0 -168 40.5t-62 84.5q0 35 23 55t67 20q36 0 73.5 -27.5t66.5 -27.5q25 0 37.5 9t12.5 21q0 13 -27.5 22t-66 18.5t-77.5 25t-66.5 50t-27.5 84.5q0 79 62 127t188 48q97 0 156 -41t59 -84q0 -35 -23 -55t-67 -20
q-30 0 -51.5 13.5t-38.5 27.5t-35 14t-29 -9t-11 -21q0 -13 27.5 -22t66.5 -18.5t77.5 -25t66 -50t27.5 -84.5zM155 -160q0 38 28 64t72 26q43 0 71.5 -32.5t28.5 -87.5q0 -63 -50 -114t-110 -51q-18 0 -29 9t-11 21q0 17 10.5 27.5t23 14t25 12t15.5 21.5q-31 4 -52.5 29
t-21.5 61z" />
    <glyph glyph-name="afii57929" unicode="&#x2bc;" horiz-adv-x="280" 
d="M40 760q0 38 28 64t72 26q43 0 71.5 -32.5t28.5 -87.5q0 -63 -50 -114t-110 -51q-18 0 -29 9t-11 21q0 17 10.5 27.5t23 14t25 12t15.5 21.5q-31 4 -52.5 29t-21.5 61z" />
    <glyph glyph-name="circumflex" unicode="&#x2c6;" horiz-adv-x="470" 
d="M235 850q67 0 105 -50l65 -90q25 -30 25 -55q0 -27 -20 -46t-50 -19q-31 0 -50 12.5t-35 37.5l-35 56h-10l-35 -56q-16 -25 -35 -37.5t-50 -12.5q-30 0 -50 19t-20 46q0 11 6 25t12 22l7 8l65 90q38 50 105 50z" />
    <glyph glyph-name="caron" unicode="&#x2c7;" horiz-adv-x="470" 
d="M235 590q-67 0 -105 50l-65 90q-25 30 -25 55q0 27 20 46t50 19q31 0 50 -12.5t35 -37.5l35 -56h10l35 56q16 25 35 37.5t50 12.5q30 0 50 -19t20 -46q0 -11 -6 -25t-12 -22l-7 -8l-65 -90q-38 -50 -105 -50z" />
    <glyph glyph-name="breve" unicode="&#x2d8;" horiz-adv-x="450" 
d="M225 775q29 0 55.5 27.5t59.5 27.5q30 0 50 -20t20 -50q0 -49 -52 -89.5t-133 -40.5t-133 40.5t-52 89.5q0 30 20 50t50 20q33 0 59.5 -27.5t55.5 -27.5z" />
    <glyph glyph-name="dotaccent" unicode="&#x2d9;" horiz-adv-x="280" 
d="M140 640q-44 0 -72 26t-28 64t28 64t72 26t72 -26t28 -64t-28 -64t-72 -26z" />
    <glyph glyph-name="ring" unicode="&#x2da;" horiz-adv-x="390" 
d="M235 730q0 18 -12.5 31.5t-27.5 13.5t-27.5 -13.5t-12.5 -31.5t12.5 -31.5t27.5 -13.5t27.5 13.5t12.5 31.5zM350 730q0 -57 -44.5 -98.5t-110.5 -41.5t-110.5 41.5t-44.5 98.5t44.5 98.5t110.5 41.5t110.5 -41.5t44.5 -98.5z" />
    <glyph glyph-name="ogonek" unicode="&#x2db;" horiz-adv-x="355" 
d="M40 -130q0 25 11 49t26 39.5t30.5 28t26.5 17.5l11 6h150l-11 -5.5t-24 -15t-30 -23t-24 -27t-11 -29.5q0 -40 50 -40q33 0 51.5 -17.5t18.5 -47.5q0 -29 -27 -47t-83 -18q-72 0 -118.5 39.5t-46.5 90.5z" />
    <glyph glyph-name="tilde" unicode="&#x2dc;" horiz-adv-x="505" 
d="M335 630q-36 0 -76 25t-54 25t-25 -12.5t-27.5 -25t-42.5 -12.5q-31 0 -50.5 21.5t-19.5 58.5q0 49 37.5 84.5t92.5 35.5q36 0 76 -25t54 -25t25 12.5t27.5 25t42.5 12.5q31 0 50.5 -21.5t19.5 -58.5q0 -49 -37.5 -84.5t-92.5 -35.5z" />
    <glyph glyph-name="hungarumlaut" unicode="&#x2dd;" horiz-adv-x="505" 
d="M320 590q-26 0 -43 16t-17 39q0 11 2.5 25t5.5 22l2 8l25 80q22 70 95 70q33 0 54 -20t21 -50q0 -13 -3.5 -28t-7.5 -24l-4 -8l-45 -79q-29 -51 -85 -51zM100 590q-26 0 -43 16t-17 39q0 11 2.5 25t5.5 22l2 8l25 80q22 70 95 70q33 0 54 -20t21 -50q0 -13 -3.5 -28
t-7.5 -24l-4 -8l-45 -79q-29 -51 -85 -51z" />
    <glyph glyph-name="afii10023" unicode="&#x401;" horiz-adv-x="685" 
d="M240 760q-44 0 -72 26t-28 64t28 64t72 26t72 -26t28 -64t-28 -64t-72 -26zM475 760q-44 0 -72 26t-28 64t28 64t72 26t72 -26t28 -64t-28 -64t-72 -26zM555 500h-270v-60h190q44 0 72 -26t28 -64t-28 -64t-72 -26h-190v-60h280q52 0 81 -27t29 -73t-29 -73t-81 -27h-390
q-52 0 -81 27t-29 73v500q0 46 29 73t81 27h380q52 0 81 -27t29 -73t-29 -73t-81 -27z" />
    <glyph glyph-name="afii10051" unicode="&#x402;" horiz-adv-x="790" 
d="M550 190q0 37 -23.5 58.5t-61.5 21.5q-24 0 -48 -5t-35 -10l-12 -5v-160q0 -46 -29 -73t-81 -27t-81 27t-29 73v410h-60q-52 0 -81 27t-29 73t29 73t81 27h360q52 0 81 -27t29 -73t-29 -73t-81 -27h-80v-70q50 20 135 20q116 0 190.5 -73.5t74.5 -186.5q0 -98 -67 -164
t-168 -66q-34 0 -57 23t-23 57q0 26 15 43t32.5 24.5t32.5 28t15 54.5z" />
    <glyph glyph-name="afii10052" unicode="&#x403;" horiz-adv-x="625" 
d="M175 700h340q52 0 81 -27t29 -73t-29 -73t-81 -27h-230v-410q0 -46 -29 -73t-81 -27t-81 27t-29 73v510q0 46 29 73t81 27zM340 770q-30 0 -47.5 16.5t-17.5 43.5l5 40l15 70q8 36 36 58t74 22q33 0 56.5 -21.5t23.5 -48.5q0 -13 -3.5 -25.5t-7.5 -18.5l-4 -6l-40 -70
q-34 -60 -90 -60z" />
    <glyph glyph-name="afii10053" unicode="&#x404;" horiz-adv-x="670" 
d="M40 280v140q0 130 92 215t243 85q122 0 198.5 -55t76.5 -115q0 -42 -27.5 -66t-82.5 -24q-41 0 -84.5 35t-80.5 35q-95 0 -110 -85h115q48 0 74 -24t26 -66t-26 -66t-74 -24h-120q4 -43 34 -69t81 -26q43 0 89.5 35t85.5 35q55 0 82.5 -24t27.5 -66q0 -60 -78.5 -115
t-206.5 -55q-151 0 -243 85t-92 215z" />
    <glyph glyph-name="afii10054" unicode="&#x405;" horiz-adv-x="645" 
d="M400 220q0 14 -27.5 24.5t-68.5 18.5t-89 24.5t-89 39t-68.5 65t-27.5 98.5q0 102 77.5 166t222.5 64q122 0 198.5 -55t76.5 -115q0 -42 -27.5 -66t-82.5 -24q-41 0 -84.5 35t-80.5 35q-35 0 -52.5 -11.5t-17.5 -28.5q0 -16 27.5 -28.5t68.5 -21.5t89 -25.5t89 -37.5
t68.5 -62t27.5 -95q0 -103 -86 -171.5t-244 -68.5q-128 0 -206.5 55t-78.5 115q0 42 27.5 66t82.5 24q39 0 85.5 -35t89.5 -35q52 0 76 14.5t24 35.5z" />
    <glyph glyph-name="afii10055" unicode="&#x406;" horiz-adv-x="350" 
d="M285 610v-520q0 -46 -29 -73t-81 -27t-81 27t-29 73v520q0 46 29 73t81 27t81 -27t29 -73z" />
    <glyph glyph-name="afii10056" unicode="&#x407;" horiz-adv-x="380" 
d="M70 770q-44 0 -72 26t-28 64t28 64t72 26t72 -26t28 -64t-28 -64t-72 -26zM310 770q-44 0 -72 26t-28 64t28 64t72 26t72 -26t28 -64t-28 -64t-72 -26zM300 610v-520q0 -46 -29 -73t-81 -27t-81 27t-29 73v520q0 46 29 73t81 27t81 -27t29 -73z" />
    <glyph glyph-name="afii10057" unicode="&#x408;" horiz-adv-x="465" 
d="M180 300v310q0 46 29 73t81 27t81 -27t29 -73v-310q0 -142 -87 -231t-223 -89q-52 0 -81 27t-29 73q0 36 20.5 56t50 29.5t59 20.5t50 39t20.5 75z" />
    <glyph glyph-name="afii10058" unicode="&#x409;" horiz-adv-x="1065" 
d="M675 490h60q145 0 227.5 -69.5t82.5 -175.5t-82.5 -175.5t-227.5 -69.5h-170q-49 0 -79.5 27.5t-30.5 72.5v400h-105v-140q0 -178 -77.5 -279t-182.5 -101q-45 0 -72.5 27.5t-27.5 72.5q0 27 14.5 44.5t35 31.5t41 34t35 63t14.5 107v240q0 46 29 73t81 27h325
q52 0 81 -27t29 -73v-110zM735 310h-60v-130h60q36 0 58 19t22 46t-22 46t-58 19z" />
    <glyph glyph-name="afii10059" unicode="&#x40a;" horiz-adv-x="1065" 
d="M675 470h70q137 0 218.5 -68.5t81.5 -166.5t-81.5 -166.5t-218.5 -68.5h-180q-49 0 -79.5 27.5t-30.5 72.5v170h-170v-180q0 -46 -29 -73t-81 -27t-81 27t-29 73v520q0 46 29 73t81 27t81 -27t29 -73v-150h170v150q0 46 29 73t81 27t81 -27t29 -73v-140zM745 290h-70
v-110h70q33 0 51.5 16t18.5 39t-18.5 39t-51.5 16z" />
    <glyph glyph-name="afii10060" unicode="&#x40b;" horiz-adv-x="800" 
d="M370 250v-160q0 -46 -29 -73t-81 -27t-81 27t-29 73v410h-60q-52 0 -81 27t-29 73t29 73t81 27h360q52 0 81 -27t29 -73t-29 -73t-81 -27h-80v-70q50 20 135 20q117 0 191 -75t74 -195v-90q0 -45 -29.5 -72.5t-80.5 -27.5q-52 0 -81 27t-29 73v90q0 41 -23.5 65.5
t-61.5 24.5q-24 0 -48 -5t-35 -10z" />
    <glyph glyph-name="afii10061" unicode="&#x40c;" horiz-adv-x="715" 
d="M360 740q-30 0 -47.5 16.5t-17.5 43.5l5 40l15 70q8 36 36 58t74 22q33 0 56.5 -21.5t23.5 -48.5q0 -13 -3.5 -25.5t-7.5 -18.5l-4 -6l-40 -70q-34 -60 -90 -60zM340 255l-55 -50v-115q0 -46 -29 -73t-81 -27t-81 27t-29 73v520q0 46 29 73t81 27t81 -27t29 -73v-140
l220 210q30 30 80 30q45 0 72.5 -27.5t27.5 -72.5q0 -22 -10 -42t-20 -29l-10 -9l-140 -135l170 -215q40 -50 40 -90q0 -46 -29 -73t-81 -27q-24 0 -48 12.5t-35 25.5l-12 12z" />
    <glyph glyph-name="afii10062" unicode="&#x40e;" horiz-adv-x="665" 
d="M330 880q38 0 70 30t70 30q30 0 50 -20t20 -50q0 -57 -59 -103.5t-151 -46.5t-151 46.5t-59 103.5q0 30 20 50t50 20q38 0 70 -30t70 -30zM220 190l-195 330q-25 40 -25 90q0 42 31 71t79 29q70 0 120 -100l110 -210h10l85 210q45 100 120 100q48 0 79 -29t31 -71
q0 -22 -6.5 -44.5t-12.5 -33.5l-6 -12l-160 -330q-43 -91 -117.5 -150.5t-172.5 -59.5q-76 0 -118 34.5t-42 85.5q0 38 26 64t64 26q22 0 42 -10t28 -10q9 0 16.5 5t10.5 10z" />
    <glyph glyph-name="afii10145" unicode="&#x40f;" horiz-adv-x="770" 
d="M275 0h-100q-52 0 -81 27t-29 73v510q0 46 29 73t81 27t81 -27t29 -73v-410h200v410q0 46 29 73t81 27t81 -27t29 -73v-510q0 -46 -29 -73t-81 -27h-100v-50q0 -46 -29 -73t-81 -27t-81 27t-29 73v50z" />
    <glyph glyph-name="afii10017" unicode="&#x410;" horiz-adv-x="720" 
d="M300 330h120l-55 150h-10zM255 150l-25 -60q-42 -100 -120 -100q-48 0 -79 29t-31 71q0 13 6 35.5t12 38.5l7 16l160 420q24 60 64 90t111 30t111.5 -30t63.5 -90l160 -420q25 -60 25 -90q0 -42 -31 -71t-79 -29q-78 0 -120 100l-25 60h-210z" />
    <glyph glyph-name="afii10018" unicode="&#x411;" horiz-adv-x="715" 
d="M405 275h-120v-100h120q65 0 65 50t-65 50zM285 450h119q142 0 219 -63.5t77 -161.5t-77 -161.5t-218 -63.5h-230q-52 0 -81 27t-29 73v500q0 46 29 73t81 27h365q105 0 105 -95t-105 -95h-255v-60z" />
    <glyph glyph-name="afii10019" unicode="&#x412;" horiz-adv-x="725" 
d="M285 530v-90h90q29 0 44.5 12.5t15.5 32.5t-15.5 32.5t-44.5 12.5h-90zM285 280v-110h120q33 0 51.5 16t18.5 39t-18.5 39t-51.5 16h-120zM175 700h200q150 0 220 -50.5t70 -134.5q0 -29 -11.5 -54t-27.5 -39t-32 -24.5t-28 -13.5l-11 -4v-10q6 -1 16 -4t36 -15.5t46 -29
t36 -47.5t16 -69q0 -92 -75 -148.5t-225 -56.5h-230q-52 0 -81 27t-29 73v500q1 46 29.5 73t80.5 27z" />
    <glyph glyph-name="afii10020" unicode="&#x413;" horiz-adv-x="625" 
d="M175 700h340q52 0 81 -27t29 -73t-29 -73t-81 -27h-230v-410q0 -46 -29 -73t-81 -27t-81 27t-29 73v510q0 46 29 73t81 27z" />
    <glyph glyph-name="afii10021" unicode="&#x414;" horiz-adv-x="820" 
d="M80 200q7 8 17 22t26.5 56t16.5 82v240q0 46 29 73t81 27h345q52 0 81 -27t29 -73v-400h10q90 0 90 -91v-159q0 -46 -29 -73t-81 -27t-81 27t-29 73v50h-375v-50q0 -46 -29 -73t-81 -27t-81 27t-29 73v161q0 89 90 89zM485 200v300h-125v-140q0 -40 -14 -77.5t-28 -54.5
l-13 -18v-10h180z" />
    <glyph glyph-name="afii10022" unicode="&#x415;" horiz-adv-x="685" 
d="M555 500h-270v-60h190q44 0 72 -26t28 -64t-28 -64t-72 -26h-190v-60h280q52 0 81 -27t29 -73t-29 -73t-81 -27h-390q-52 0 -81 27t-29 73v500q0 46 29 73t81 27h380q52 0 81 -27t29 -73t-29 -73t-81 -27z" />
    <glyph glyph-name="afii10024" unicode="&#x416;" horiz-adv-x="1040" 
d="M520 710q52 0 81 -27t29 -73v-130l210 200q30 30 80 30q45 0 72.5 -27.5t27.5 -72.5q0 -22 -10 -42t-20 -29l-10 -9l-145 -140l165 -210q40 -50 40 -90q0 -46 -29 -73t-81 -27q-24 0 -48 12.5t-36 25.5l-11 12l-165 210l-40 -35v-125q0 -46 -29 -73t-81 -27t-81 27
t-29 73v125l-40 35l-165 -210q-4 -6 -12.5 -14t-33.5 -22t-49 -14q-52 0 -81 27t-29 73q0 18 10 40.5t20 35.5l10 14l165 210l-145 140q-4 3 -11 9.5t-18 27.5t-11 43q0 45 27.5 72.5t72.5 27.5q22 0 42 -7.5t29 -14.5l9 -8l210 -200v130q0 46 29 73t81 27z" />
    <glyph glyph-name="afii10025" unicode="&#x417;" horiz-adv-x="650" 
d="M279 450h46q25 0 40 12t15 28q0 17 -17.5 28.5t-52.5 11.5q-37 0 -80.5 -35t-84.5 -35q-55 0 -82.5 24t-27.5 66q0 60 76.5 115t198.5 55q144 0 222 -62.5t78 -157.5q0 -31 -12.5 -56.5t-30 -40.5t-35 -25t-30.5 -14l-12 -4v-10q6 -1 15.5 -4t33.5 -14.5t42.5 -26.5
t33.5 -43t15 -62q0 -96 -83 -158t-247 -62q-128 0 -206.5 55t-78.5 115q0 42 27.5 66t82.5 24q39 0 85.5 -35t89.5 -35q52 0 76 14.5t24 35.5q0 20 -20 35t-55 15h-46q-40 0 -67 26.5t-27 63.5q0 40 24 65t70 25z" />
    <glyph glyph-name="afii10026" unicode="&#x418;" horiz-adv-x="780" 
d="M285 380h10l170 230q37 53 67.5 76.5t72.5 23.5q52 0 81 -27.5t29 -72.5v-520q0 -46 -29 -73t-81 -27t-81 27t-29 73v230h-10l-170 -230q-37 -53 -67.5 -76.5t-72.5 -23.5q-52 0 -81 27.5t-29 72.5v520q0 46 29 73t81 27t81 -27t29 -73v-230z" />
    <glyph glyph-name="afii10027" unicode="&#x419;" horiz-adv-x="780" 
d="M285 380h10l170 230q37 53 67.5 76.5t72.5 23.5q52 0 81 -27.5t29 -72.5v-520q0 -46 -29 -73t-81 -27t-81 27t-29 73v230h-10l-170 -230q-37 -53 -67.5 -76.5t-72.5 -23.5q-52 0 -81 27.5t-29 72.5v520q0 46 29 73t81 27t81 -27t29 -73v-230zM400 900q38 0 70 30t70 30
q30 0 50 -20t20 -50q0 -57 -59 -103.5t-151 -46.5t-151 46.5t-59 103.5q0 30 20 50t50 20q38 0 70 -30t70 -30z" />
    <glyph glyph-name="afii10028" unicode="&#x41a;" horiz-adv-x="715" 
d="M340 255l-55 -50v-115q0 -46 -29 -73t-81 -27t-81 27t-29 73v520q0 46 29 73t81 27t81 -27t29 -73v-140l220 210q30 30 80 30q45 0 72.5 -27.5t27.5 -72.5q0 -22 -10 -42t-20 -29l-10 -9l-140 -135l170 -215q40 -50 40 -90q0 -46 -29 -73t-81 -27q-24 0 -48 12.5
t-35 25.5l-12 12z" />
    <glyph glyph-name="afii10029" unicode="&#x41b;" horiz-adv-x="770" 
d="M350 360q0 -178 -77.5 -279t-182.5 -101q-45 0 -72.5 27.5t-27.5 72.5q0 27 14.5 44.5t35 31.5t41 34t35 63t14.5 107v240q0 46 29 73t81 27h355q52 0 81 -27t29 -73v-510q0 -46 -29 -73t-81 -27t-81 27t-29 73v410h-135v-140z" />
    <glyph glyph-name="afii10030" unicode="&#x41c;" horiz-adv-x="980" 
d="M490 60q-83 0 -120 100l-75 190h-10l-45 -260q-8 -46 -37.5 -73t-77.5 -27t-76.5 27.5t-28.5 72.5q0 18 2.5 40.5t5.5 35.5l2 14l70 420q9 55 46 87.5t99 32.5q102 0 150 -120l90 -234h10l90 234q46 120 150 120q62 0 99 -32.5t46 -87.5l70 -420q10 -50 10 -90
q0 -45 -28.5 -72.5t-76.5 -27.5t-77.5 27t-37.5 73l-45 260h-10l-75 -190q-38 -100 -120 -100z" />
    <glyph glyph-name="afii10031" unicode="&#x41d;" horiz-adv-x="770" 
d="M285 610v-170h200v170q0 46 29 73t81 27t81 -27t29 -73v-520q0 -46 -29 -73t-81 -27t-81 27t-29 73v160h-200v-160q0 -46 -29 -73t-81 -27t-81 27t-29 73v520q0 46 29 73t81 27t81 -27t29 -73z" />
    <glyph glyph-name="afii10032" unicode="&#x41e;" horiz-adv-x="750" 
d="M710 420v-140q0 -130 -92 -215t-243 -85t-243 85t-92 215v140q0 130 92 215t243 85t243 -85t92 -215zM485 280v140q0 58 -32 94t-78 36t-78 -36t-32 -94v-140q0 -58 32 -94t78 -36t78 36t32 94z" />
    <glyph glyph-name="afii10033" unicode="&#x41f;" horiz-adv-x="770" 
d="M175 700h420q52 0 81 -27t29 -73v-510q0 -46 -29 -73t-81 -27t-81 27t-29 73v410h-200v-410q0 -46 -29 -73t-81 -27t-81 27t-29 73v510q0 46 29 73t81 27z" />
    <glyph glyph-name="afii10034" unicode="&#x420;" horiz-adv-x="705" 
d="M285 390h90q36 0 58 19t22 46t-22 46t-58 19h-90v-130zM375 210h-90v-120q0 -46 -29 -73t-81 -27t-81 27t-29 73v510q0 46 29 73t81 27h200q145 0 227.5 -69.5t82.5 -175.5t-82.5 -175.5t-227.5 -69.5z" />
    <glyph glyph-name="afii10035" unicode="&#x421;" horiz-adv-x="675" 
d="M40 280v140q0 130 92 215t243 85q122 0 198.5 -55t76.5 -115q0 -42 -27.5 -66t-82.5 -24q-41 0 -84.5 35t-80.5 35q-49 0 -79.5 -30.5t-30.5 -79.5v-140q0 -49 30.5 -79.5t79.5 -30.5q43 0 89.5 35t85.5 35q55 0 82.5 -24t27.5 -66q0 -60 -78.5 -115t-206.5 -55
q-151 0 -243 85t-92 215z" />
    <glyph glyph-name="afii10036" unicode="&#x422;" horiz-adv-x="660" 
d="M220 500h-110q-52 0 -81 27t-29 73t29 73t81 27h440q52 0 81 -27t29 -73t-29 -73t-81 -27h-110v-410q0 -46 -29 -73t-81 -27t-81 27t-29 73v410z" />
    <glyph glyph-name="afii10037" unicode="&#x423;" horiz-adv-x="665" 
d="M220 190l-195 330q-25 40 -25 90q0 42 31 71t79 29q70 0 120 -100l110 -210h10l85 210q45 100 120 100q48 0 79 -29t31 -71q0 -22 -6.5 -44.5t-12.5 -33.5l-6 -12l-160 -330q-43 -91 -117.5 -150.5t-172.5 -59.5q-76 0 -118 34.5t-42 85.5q0 38 26 64t64 26q22 0 42 -10
t28 -10q9 0 16.5 5t10.5 10z" />
    <glyph glyph-name="afii10038" unicode="&#x424;" horiz-adv-x="990" 
d="M605 470v-240q20 -10 50 -10q80 0 80 70v120q0 70 -80 70q-13 0 -25.5 -2.5t-18.5 -5.5zM495 -70q-52 0 -81 27t-29 73v30q-50 -20 -110 -20q-106 0 -173 69t-67 181v120q0 112 67 181t173 69q27 0 54.5 -5t41.5 -10l14 -5v30q0 45 29 72.5t81 27.5t81 -27.5t29 -72.5
v-30q50 20 110 20q106 0 173 -69t67 -181v-120q0 -112 -67 -181t-173 -69q-27 0 -54.5 5t-41.5 10l-14 5v-30q0 -46 -29 -73t-81 -27zM385 230v240q-20 10 -50 10q-80 0 -80 -70v-120q0 -70 80 -70q13 0 25.5 2.5t18.5 5.5z" />
    <glyph glyph-name="afii10039" unicode="&#x425;" horiz-adv-x="670" 
d="M45 180l150 180l-130 160q-40 50 -40 90q0 45 28.5 72.5t76.5 27.5q27 0 52 -12.5t36 -25.5l12 -12l100 -130h10l100 130q4 6 12.5 14t34.5 22t53 14q48 0 76.5 -27.5t28.5 -72.5q0 -18 -10 -40.5t-20 -35.5l-10 -14l-130 -160l150 -180q40 -50 40 -90q0 -45 -28.5 -72.5
t-76.5 -27.5q-27 0 -52 12.5t-36 25.5l-12 12l-120 145h-10l-120 -145q-4 -6 -12.5 -14t-34.5 -22t-53 -14q-48 0 -76.5 27.5t-28.5 72.5q0 18 10 40.5t20 35.5z" />
    <glyph glyph-name="afii10040" unicode="&#x426;" horiz-adv-x="810" 
d="M575 0h-400q-52 0 -81 27t-29 73v510q0 46 29 73t81 27t81 -27t29 -73v-410h190v410q0 46 29 73t81 27t81 -27t29 -73v-410h10q90 0 90 -90v-160q0 -46 -29 -73t-81 -27t-81 27t-29 73v50z" />
    <glyph glyph-name="afii10041" unicode="&#x427;" horiz-adv-x="740" 
d="M565 710q52 0 81 -27t29 -73v-520q0 -46 -29 -73t-81 -27t-81 27t-29 73v140q-60 -20 -145 -20q-117 0 -191 75t-74 195v130q0 45 29.5 72.5t80.5 27.5q52 0 81 -27t29 -73v-130q0 -41 23.5 -65.5t61.5 -24.5q29 0 55 5t38 10l12 5v199q0 46 29 73.5t81 27.5z" />
    <glyph glyph-name="afii10042" unicode="&#x428;" horiz-adv-x="1100" 
d="M925 0h-750q-52 0 -81 27t-29 73v510q0 46 29 73t81 27t81 -27t29 -73v-410h155v410q0 46 29 73t81 27t81 -27t29 -73v-410h155v410q0 46 29 73t81 27t81 -27t29 -73v-510q0 -46 -29 -73t-81 -27z" />
    <glyph glyph-name="afii10043" unicode="&#x429;" horiz-adv-x="1150" 
d="M660 200h155v410q0 46 29 73t81 27t81 -27t29 -73v-410h10q90 0 90 -90v-160q0 -46 -29 -73t-81 -27t-81 27t-29 73v50h-740q-52 0 -81 27t-29 73v510q0 46 29 73t81 27t81 -27t29 -73v-410h155v410q0 46 29 73t81 27t81 -27t29 -73v-410z" />
    <glyph glyph-name="afii10044" unicode="&#x42a;" horiz-adv-x="800" 
d="M380 490h90q145 0 227.5 -69.5t82.5 -175.5t-82.5 -175.5t-227.5 -69.5h-200q-52 0 -81 27t-29 73v400h-60q-52 0 -81 27t-29 73t29 73t81 27h170q52 0 81 -27t29 -73v-110zM470 310h-90v-130h90q36 0 58 19t22 46t-22 46t-58 19z" />
    <glyph glyph-name="afii10045" unicode="&#x42b;" horiz-adv-x="1025" 
d="M365 310h-80v-130h80q36 0 58 19t22 46t-22 46t-58 19zM285 490h80q145 0 227.5 -69.5t82.5 -175.5t-82.5 -175.5t-227.5 -69.5h-190q-52 0 -81 27t-29 73v510q0 46 29 73t81 27t81 -27t29 -73v-120zM960 610v-520q0 -46 -29 -73t-81 -27t-81 27t-29 73v520q0 46 29 73
t81 27t81 -27t29 -73z" />
    <glyph glyph-name="afii10046" unicode="&#x42c;" horiz-adv-x="705" 
d="M375 310h-90v-130h90q36 0 58 19t22 46t-22 46t-58 19zM285 490h90q145 0 227.5 -69.5t82.5 -175.5t-82.5 -175.5t-227.5 -69.5h-200q-52 0 -81 27t-29 73v510q0 46 29 73t81 27t81 -27t29 -73v-120z" />
    <glyph glyph-name="afii10047" unicode="&#x42d;" horiz-adv-x="675" 
d="M635 420v-140q0 -130 -92 -215t-243 -85q-128 0 -206.5 55t-78.5 115q0 42 27.5 66t82.5 24q39 0 85.5 -35t89.5 -35q51 0 81 26t34 69h-120q-48 0 -74 24t-26 66t26 66t74 24h115q-15 85 -110 85q-37 0 -80.5 -35t-84.5 -35q-55 0 -82.5 24t-27.5 66q0 60 76.5 115
t198.5 55q151 0 243 -85t92 -215z" />
    <glyph glyph-name="afii10048" unicode="&#x42e;" horiz-adv-x="1040" 
d="M285 610v-170h85q3 125 88.5 202.5t226.5 77.5q144 0 229.5 -80.5t85.5 -209.5v-160q0 -129 -85.5 -209.5t-229.5 -80.5q-139 0 -223.5 74t-91.5 196h-85v-160q0 -46 -29 -73t-81 -27t-81 27t-29 73v520q0 46 29 73t81 27t81 -27t29 -73zM595 430v-160q0 -58 25.5 -89
t64.5 -31t64.5 31t25.5 89v160q0 58 -25.5 89t-64.5 31t-64.5 -31t-25.5 -89z" />
    <glyph glyph-name="afii10049" unicode="&#x42f;" horiz-adv-x="725" 
d="M345 700h205q52 0 81 -27t29 -73v-510q0 -46 -29 -73t-81 -27t-81 27t-29 72v161h-50l-170 -210q-4 -6 -12.5 -14t-33.5 -22t-49 -14q-52 0 -81 27t-29 73q0 20 10 42.5t20 35.5l10 12l105 120v10q-5 2 -12.5 5.5t-27.5 17t-35 30.5t-27.5 47t-12.5 65q0 91 82 158
t218 67zM345 420h95v110h-95q-33 0 -51.5 -16t-18.5 -39t18.5 -39t51.5 -16z" />
    <glyph glyph-name="afii10065" unicode="&#x430;" horiz-adv-x="585" 
d="M540 330v-240q0 -38 -28 -64t-72 -26q-31 0 -53.5 12.5t-29.5 25.5l-7 12h-10q-2 -2 -5 -6.5t-14.5 -14.5t-25 -18t-35 -14.5t-45.5 -6.5q-85 0 -137.5 48.5t-52.5 121.5q0 76 62.5 123t187.5 47h65q0 19 -19 37t-41 18q-29 0 -61.5 -25t-68.5 -25q-44 0 -67 20t-23 55
q0 45 57 85t163 40q119 0 189.5 -59.5t70.5 -145.5zM340 196v9h-65q-50 0 -50 -35t50 -35q26 0 45.5 18.5t19.5 42.5z" />
    <glyph glyph-name="afii10066" unicode="&#x431;" horiz-adv-x="600" 
d="M40 215v215q0 100 60 172t140 88l150 30q50 10 80 10q41 0 65.5 -24.5t24.5 -65.5q0 -31 -25 -52.5t-50 -27.5l-25 -5l-150 -30q-42 -8 -66 -33t-24 -62h10q40 35 110 35q111 0 175.5 -60.5t64.5 -159.5v-30q0 -99 -74 -164.5t-196 -65.5q-121 0 -195.5 66.5t-74.5 163.5
zM380 215v30q0 37 -19.5 58.5t-50.5 21.5t-50.5 -21.5t-19.5 -58.5v-30q0 -37 19.5 -58.5t50.5 -21.5t50.5 21.5t19.5 58.5z" />
    <glyph glyph-name="afii10067" unicode="&#x432;" horiz-adv-x="580" 
d="M250 385v-60h45q15 0 25 9t10 21t-10 21t-24 9h-46zM250 195v-60h75q15 0 25 9t10 21t-10 21t-25 9h-75zM325 0h-175q-44 0 -72 26t-28 64v340q0 38 28 64t72 26h145q120 0 180 -41.5t60 -103.5q0 -33 -22.5 -57t-44.5 -31l-23 -7v-10q5 -1 13 -3t28.5 -11t36.5 -21.5
t29 -36.5t13 -53q0 -58 -62 -101.5t-178 -43.5z" />
    <glyph glyph-name="afii10068" unicode="&#x433;" horiz-adv-x="500" 
d="M500 430q0 -38 -28 -64t-72 -26h-150v-255q0 -38 -28 -64t-72 -26t-72 26t-28 64v345q0 38 28 64t72 26h250q44 0 72 -26t28 -64z" />
    <glyph glyph-name="afii10069" unicode="&#x434;" horiz-adv-x="665" 
d="M455 -30v30h-265v-30q0 -38 -28 -64t-72 -26t-72 26t-28 64v130q0 31 21.5 50.5t58.5 19.5q40 40 40 100v160q0 38 28 64t72 26h265q44 0 72 -26t28 -64v-260q37 0 58.5 -19.5t21.5 -50.5v-130q0 -38 -28 -64t-72 -26t-72 26t-28 64zM310 350v-80q0 -27 -10 -49.5
t-20 -31.5l-10 -9v-10h105v180h-65z" />
    <glyph glyph-name="afii10070" unicode="&#x435;" horiz-adv-x="575" 
d="M550 305v-15q0 -38 -28 -64t-72 -26h-220q0 -30 19 -50t46 -20q29 0 66.5 25t73.5 25q90 0 90 -80q0 -40 -62 -77.5t-168 -37.5q-117 0 -191 67t-74 163v90q0 96 73 163t187 67t187 -67t73 -163zM230 315h120q0 26 -17 43t-43 17t-43 -17t-17 -43z" />
    <glyph glyph-name="afii10072" unicode="&#x436;" horiz-adv-x="810" 
d="M525 170l-20 -20v-65q0 -38 -28 -64t-72 -26t-72 26t-28 64v65l-20 20l-105 -135q-3 -4 -9.5 -11t-29 -18t-46.5 -11q-44 0 -69.5 22.5t-25.5 57.5q0 16 7.5 33.5t14.5 27.5l8 9l105 135l-80 70q-40 35 -40 85q0 37 23.5 61t61.5 24q24 0 48 -11t36 -23l11 -11l110 -100
v60q0 38 28 64t72 26t72 -26t28 -64v-60l110 100q4 5 12.5 12.5t33.5 20t49 12.5q38 0 61.5 -24t23.5 -61q0 -22 -10 -43.5t-20 -31.5l-10 -10l-80 -70l105 -135q30 -35 30 -70t-25.5 -57.5t-69.5 -22.5q-24 0 -45.5 10t-30.5 20l-9 10z" />
    <glyph glyph-name="afii10073" unicode="&#x437;" horiz-adv-x="520" 
d="M220 330h15q18 0 29 9t11 21t-11 21t-29 9t-35 -14t-38.5 -27.5t-51.5 -13.5q-44 0 -67 20t-23 55q0 43 59 84t156 41q122 0 186 -42.5t64 -97.5q0 -27 -10.5 -48.5t-25 -33.5t-29 -20t-24.5 -11l-11 -2v-10q5 -1 12.5 -3t27.5 -11t35 -22t27.5 -37t12.5 -54
q0 -65 -67 -111.5t-193 -46.5q-106 0 -168 40.5t-62 84.5q0 35 23 55t67 20q36 0 73.5 -27.5t66.5 -27.5q25 0 37.5 9t12.5 21t-12.5 21t-37.5 9h-20q-37 0 -58.5 19.5t-21.5 50.5t21.5 50.5t58.5 19.5z" />
    <glyph glyph-name="afii10074" unicode="&#x438;" horiz-adv-x="630" 
d="M250 435v-130h10l95 130q63 90 125 90q44 0 72 -26t28 -64v-350q0 -38 -28 -64t-72 -26t-72 26t-28 64v130h-10l-95 -130q-63 -90 -125 -90q-44 0 -72 26t-28 64v350q0 38 28 64t72 26t72 -26t28 -64z" />
    <glyph glyph-name="afii10075" unicode="&#x439;" horiz-adv-x="630" 
d="M320 705q29 0 55.5 27.5t59.5 27.5q30 0 50 -20t20 -50q0 -49 -52 -89.5t-133 -40.5t-133 40.5t-52 89.5q0 30 20 50t50 20q33 0 59.5 -27.5t55.5 -27.5zM250 435v-130h10l95 130q63 90 125 90q44 0 72 -26t28 -64v-350q0 -38 -28 -64t-72 -26t-72 26t-28 64v130h-10
l-95 -130q-63 -90 -125 -90q-44 0 -72 26t-28 64v350q0 38 28 64t72 26t72 -26t28 -64z" />
    <glyph glyph-name="afii10076" unicode="&#x43a;" horiz-adv-x="570" 
d="M430 280l110 -135q30 -35 30 -70t-25.5 -57.5t-69.5 -22.5q-24 0 -45.5 10t-30.5 20l-9 10l-110 135l-30 -30v-55q0 -38 -28 -64t-72 -26t-72 26t-28 64v350q0 38 28 64t72 26t72 -26t28 -64v-70l120 110q4 5 12.5 12.5t33.5 20t49 12.5q37 0 61 -24t24 -61
q0 -22 -10 -43.5t-20 -31.5l-10 -10z" />
    <glyph glyph-name="afii10077" unicode="&#x43b;" horiz-adv-x="625" 
d="M300 350v-80q0 -127 -68 -206t-162 -79q-34 0 -57 23t-23 57q0 26 11.5 42t27.5 26t32 22.5t27.5 41.5t11.5 73v160q0 38 28 64t72 26h275q44 0 72 -26t28 -64v-345q0 -38 -28 -64t-72 -26t-72 26t-28 64v265h-75z" />
    <glyph glyph-name="afii10078" unicode="&#x43c;" horiz-adv-x="780" 
d="M385 290h10l55 140q35 95 130 95q54 0 86 -26t39 -69l50 -290q5 -30 5 -55q0 -41 -24.5 -65.5t-65.5 -24.5q-87 0 -105 90l-30 145h-10l-45 -115q-24 -65 -90 -65t-90 65l-45 115h-10l-30 -145q-18 -90 -105 -90q-41 0 -65.5 24.5t-24.5 65.5l5 55l50 290q7 43 39 69
t86 26q95 0 130 -95z" />
    <glyph glyph-name="afii10079" unicode="&#x43d;" horiz-adv-x="620" 
d="M250 435v-105h120v105q0 38 28 64t72 26t72 -26t28 -64v-350q0 -38 -28 -64t-72 -26t-72 26t-28 64v80h-120v-80q0 -38 -28 -64t-72 -26t-72 26t-28 64v350q0 38 28 64t72 26t72 -26t28 -64z" />
    <glyph glyph-name="afii10080" unicode="&#x43e;" 
d="M295 380q-27 0 -46 -21t-19 -54v-90q0 -33 19 -54t46 -21t46 21t19 54v90q0 33 -19 54t-46 21zM295 -15q-117 0 -191 67t-74 163v90q0 96 74 163t191 67t191 -67t74 -163v-90q0 -96 -74 -163t-191 -67z" />
    <glyph glyph-name="afii10081" unicode="&#x43f;" horiz-adv-x="620" 
d="M250 355v-270q0 -38 -28 -64t-72 -26t-72 26t-28 64v345q0 38 28 64t72 26h320q44 0 72 -26t28 -64v-345q0 -38 -28 -64t-72 -26t-72 26t-28 64v270h-120z" />
    <glyph glyph-name="afii10082" unicode="&#x440;" horiz-adv-x="610" 
d="M150 525q31 0 53.5 -12.5t29.5 -24.5l7 -13h10q2 2 5 6.5t14.5 14.5t25 18t35 14.5t45.5 6.5q84 0 144.5 -65.5t60.5 -164.5v-90q0 -99 -60.5 -164.5t-144.5 -65.5q-38 0 -66.5 6.5t-38.5 12.5l-10 6h-10v-140q0 -38 -28 -64t-72 -26t-72 26t-28 64v565q0 38 28 64t72 26
zM380 215v90q0 33 -19 54t-46 21t-46 -21t-19 -54v-90q0 -33 19 -54t46 -21t46 21t19 54z" />
    <glyph glyph-name="afii10083" unicode="&#x441;" horiz-adv-x="540" 
d="M30 215v90q0 96 74 163t191 67q98 0 159 -45t61 -95q0 -80 -90 -80q-37 0 -72 27.5t-58 27.5q-26 0 -45.5 -19.5t-19.5 -45.5v-90q0 -26 19.5 -45.5t45.5 -19.5q29 0 66.5 27.5t73.5 27.5q90 0 90 -80q0 -51 -63 -95.5t-167 -44.5q-117 0 -191 67t-74 163z" />
    <glyph glyph-name="afii10084" unicode="&#x442;" horiz-adv-x="540" 
d="M170 340h-70q-44 0 -72 26t-28 64t28 64t72 26h340q44 0 72 -26t28 -64q0 -39 -28 -64.5t-72 -25.5h-70v-255q0 -38 -28 -64t-72 -26t-72 26t-28 64v255z" />
    <glyph glyph-name="afii10085" unicode="&#x443;" horiz-adv-x="555" 
d="M125 -65l50 115l-155 320q-20 40 -20 70q0 38 24.5 61.5t65.5 23.5q81 0 115 -85l70 -170h10l65 170q34 85 115 85q41 0 65.5 -23.5t24.5 -61.5q0 -13 -5 -30.5t-10 -28.5l-5 -11l-225 -505q-20 -44 -46 -64.5t-69 -20.5q-41 0 -65.5 23.5t-24.5 61.5q0 13 5 30.5
t10 28.5z" />
    <glyph glyph-name="afii10086" unicode="&#x444;" horiz-adv-x="860" 
d="M530 365v-210q20 -10 45 -10q23 0 39 18.5t16 51.5v90q0 33 -16 51.5t-39 18.5q-11 0 -22.5 -2.5t-16.5 -4.5zM330 515v115q0 38 28 64t72 26t72 -26t28 -64v-115h10q30 15 85 15q88 0 146.5 -62.5t58.5 -162.5v-90q0 -100 -58.5 -162.5t-146.5 -62.5q-24 0 -45.5 4
t-30.5 8l-9 3h-10v-135q0 -38 -28 -64t-72 -26t-72 26t-28 64v135h-10q-30 -15 -85 -15q-88 0 -146.5 62.5t-58.5 162.5v90q0 100 58.5 162.5t146.5 62.5q24 0 45.5 -4t30.5 -8l9 -3h10zM330 155v210q-20 10 -45 10q-23 0 -39 -18.5t-16 -51.5v-90q0 -33 16 -51.5t39 -18.5
q11 0 22.5 2.5t16.5 4.5z" />
    <glyph glyph-name="afii10087" unicode="&#x445;" horiz-adv-x="540" 
d="M275 130h-10l-85 -95q-3 -4 -9.5 -11t-27.5 -18t-43 -11q-38 0 -64 26.5t-26 63.5q0 20 6 37.5t12 25.5l7 7l105 110l-85 100q-35 35 -35 70q0 38 27 64t68 26q24 0 45.5 -10t30.5 -20l9 -10l65 -75h10l65 75q3 4 9.5 11t29 18t46.5 11q41 0 68 -26t27 -64
q0 -16 -9 -33.5t-17 -27.5l-9 -9l-85 -100l105 -110q25 -25 25 -70q0 -37 -26 -63.5t-64 -26.5q-22 0 -42 10t-29 20l-9 10z" />
    <glyph glyph-name="afii10088" unicode="&#x446;" horiz-adv-x="650" 
d="M250 435v-265h110v265q0 38 28 64t72 26t72 -26t28 -64v-265q37 0 58.5 -19.5t21.5 -50.5v-130q0 -38 -28 -64t-72 -26t-72 26t-28 64v30h-290q-44 0 -72 26t-28 64v345q0 38 28 64t72 26t72 -26t28 -64z" />
    <glyph glyph-name="afii10089" unicode="&#x447;" 
d="M340 310v125q0 38 28 64t72 26t72 -26t28 -64v-350q0 -38 -28 -64t-72 -26t-72 26t-28 64v65q-50 -10 -100 -10q-98 0 -154 56t-56 154v85q0 38 28 64t72 26t72 -26t28 -64v-85q0 -22 14 -36t36 -14q13 0 28 2.5t24 5.5z" />
    <glyph glyph-name="afii10090" unicode="&#x448;" horiz-adv-x="880" 
d="M250 435v-265h90v265q0 38 28 64t72 26t72 -26t28 -64v-265h90v265q0 38 28 64t72 26t72 -26t28 -64v-345q0 -38 -28 -64t-72 -26h-580q-44 0 -72 26t-28 64v345q0 38 28 64t72 26t72 -26t28 -64z" />
    <glyph glyph-name="afii10091" unicode="&#x449;" horiz-adv-x="920" 
d="M710 0h-560q-44 0 -72 26t-28 64v345q0 38 28 64t72 26t72 -26t28 -64v-265h90v265q0 38 28 64t72 26t72 -26t28 -64v-265h90v265q0 38 28 64t72 26t72 -26t28 -64v-265q37 0 58.5 -19.5t21.5 -50.5v-130q0 -38 -28 -64t-72 -26t-72 26t-28 64v30z" />
    <glyph glyph-name="afii10092" unicode="&#x44a;" horiz-adv-x="635" 
d="M-10 430q0 38 28 64t72 26h140q44 0 72 -26t28 -64v-70h40q118 0 184 -52t66 -128t-66 -128t-184 -52h-140q-44 0 -72 26t-28 64v250h-40q-44 0 -72 26t-28 64zM370 220h-40v-80h40q18 0 31.5 12.5t13.5 27.5t-13.5 27.5t-31.5 12.5z" />
    <glyph glyph-name="afii10093" unicode="&#x44b;" horiz-adv-x="825" 
d="M280 220h-30v-80h30q18 0 31.5 12.5t13.5 27.5t-13.5 27.5t-31.5 12.5zM50 90v345q0 38 28 64t72 26t72 -26t28 -64v-75h30q118 0 184 -52t66 -128t-66 -128t-184 -52h-130q-44 0 -72 26t-28 64zM775 435v-350q0 -38 -28 -64t-72 -26t-72 26t-28 64v350q0 38 28 64t72 26
t72 -26t28 -64z" />
    <glyph glyph-name="afii10094" unicode="&#x44c;" horiz-adv-x="555" 
d="M290 220h-40v-80h40q18 0 31.5 12.5t13.5 27.5t-13.5 27.5t-31.5 12.5zM50 90v345q0 38 28 64t72 26t72 -26t28 -64v-75h40q118 0 184 -52t66 -128t-66 -128t-184 -52h-140q-44 0 -72 26t-28 64z" />
    <glyph glyph-name="afii10095" unicode="&#x44d;" horiz-adv-x="540" 
d="M160 260q0 34 22 54.5t63 20.5h70q-20 40 -70 40q-23 0 -58 -27.5t-72 -27.5q-90 0 -90 80q0 50 59.5 92.5t160.5 42.5q117 0 191 -67t74 -163v-90q0 -96 -74 -163t-191 -67q-108 0 -169 42t-61 93q0 80 90 80q36 0 73.5 -27.5t66.5 -27.5q50 0 70 40h-70q-41 0 -63 20.5
t-22 54.5z" />
    <glyph glyph-name="afii10096" unicode="&#x44e;" horiz-adv-x="835" 
d="M805 315v-110q0 -92 -70 -156t-180 -64q-103 0 -170.5 54.5t-79.5 130.5h-55v-85q0 -38 -28 -64t-72 -26t-72 26t-28 64v350q0 38 28 64t72 26t72 -26t28 -64v-105h55q12 90 78.5 147.5t171.5 57.5q110 0 180 -64t70 -156zM605 205v110q0 29 -15 47t-35 18t-35 -18
t-15 -47v-110q0 -29 15 -47t35 -18t35 18t15 47z" />
    <glyph glyph-name="afii10097" unicode="&#x44f;" horiz-adv-x="585" 
d="M275 310h60v70h-60q-15 0 -25 -10t-10 -25t10 -25t25 -10zM105 210v10q-3 1 -7.5 3.5t-16.5 13t-21.5 23.5t-17 35.5t-7.5 49.5q0 72 64.5 123.5t175.5 51.5h160q44 0 72 -26t28 -65v-344q0 -38 -28 -64t-72 -26t-72 26t-28 64v85h-30l-110 -135q-3 -4 -9.5 -11t-29 -18
t-46.5 -11q-44 0 -69.5 22.5t-25.5 57.5q0 18 7.5 35.5t15.5 25.5l7 9z" />
    <glyph glyph-name="afii10071" unicode="&#x451;" horiz-adv-x="575" 
d="M175 585q-44 0 -72 26t-28 64t28 64t72 26t72 -26t28 -64t-28 -64t-72 -26zM410 585q-44 0 -72 26t-28 64t28 64t72 26t72 -26t28 -64t-28 -64t-72 -26zM550 305v-15q0 -38 -28 -64t-72 -26h-220q0 -30 19 -50t46 -20q29 0 66.5 25t73.5 25q90 0 90 -80q0 -40 -62 -77.5
t-168 -37.5q-117 0 -191 67t-74 163v90q0 96 73 163t187 67t187 -67t73 -163zM230 315h120q0 26 -17 43t-43 17t-43 -17t-17 -43z" />
    <glyph glyph-name="afii10099" unicode="&#x452;" horiz-adv-x="615" 
d="M590 235v-45q0 -93 -61 -161.5t-144 -68.5q-34 0 -57 23t-23 57q0 26 13.5 43t29 24.5t29 28t13.5 54.5v45q0 29 -18.5 49.5t-41.5 20.5t-41.5 -20.5t-18.5 -49.5v-150q0 -38 -28 -64t-72 -26t-72 26t-28 64v395l-7.5 2.5t-16.5 8.5t-21.5 16t-17 24.5t-7.5 33.5
q0 29 17.5 50t34.5 28l18 7q0 38 28 64t72 26t72 -26t28 -64h55q40 0 67.5 -25.5t27.5 -59.5t-27.5 -59.5t-67.5 -25.5h-55v-65h10q4 6 13 14t37.5 22t59.5 14q85 0 142.5 -63.5t57.5 -166.5z" />
    <glyph glyph-name="afii10100" unicode="&#x453;" horiz-adv-x="500" 
d="M500 430q0 -38 -28 -64t-72 -26h-150v-255q0 -38 -28 -64t-72 -26t-72 26t-28 64v345q0 38 28 64t72 26h250q44 0 72 -26t28 -64zM270 580q-30 0 -47.5 16.5t-17.5 43.5l5 40l15 70q8 36 36 58t74 22q33 0 56.5 -21.5t23.5 -48.5q0 -13 -3.5 -25.5t-7.5 -18.5l-4 -6
l-40 -70q-34 -60 -90 -60z" />
    <glyph glyph-name="afii10101" unicode="&#x454;" horiz-adv-x="540" 
d="M380 260q0 -34 -22 -54.5t-63 -20.5h-70q20 -40 70 -40q29 0 66.5 27.5t73.5 27.5q90 0 90 -80q0 -51 -61 -93t-169 -42q-117 0 -191 67t-74 163v90q0 96 74 163t191 67q101 0 160.5 -42.5t59.5 -92.5q0 -80 -90 -80q-37 0 -72 27.5t-58 27.5q-50 0 -70 -40h70
q41 0 63 -20.5t22 -54.5z" />
    <glyph glyph-name="afii10102" unicode="&#x455;" horiz-adv-x="510" 
d="M500 160q0 -76 -66 -125.5t-194 -49.5q-106 0 -168 40.5t-62 84.5q0 35 23 55t67 20q36 0 73.5 -27.5t66.5 -27.5q25 0 37.5 9t12.5 21q0 13 -27.5 22t-66 18.5t-77.5 25t-66.5 50t-27.5 84.5q0 79 62 127t188 48q97 0 156 -41t59 -84q0 -35 -23 -55t-67 -20
q-30 0 -51.5 13.5t-38.5 27.5t-35 14t-29 -9t-11 -21q0 -13 27.5 -22t66.5 -18.5t77.5 -25t66 -50t27.5 -84.5z" />
    <glyph glyph-name="afii10103" unicode="&#x456;" horiz-adv-x="300" 
d="M250 415v-330q0 -38 -28 -64t-72 -26t-72 26t-28 64v330q0 38 28 64t72 26t72 -26t28 -64zM150 740q44 0 74.5 -28.5t30.5 -66.5t-30.5 -66.5t-74.5 -28.5t-74.5 28.5t-30.5 66.5t30.5 66.5t74.5 28.5z" />
    <glyph glyph-name="afii10104" unicode="&#x457;" horiz-adv-x="340" 
d="M270 415v-330q0 -38 -28 -64t-72 -26t-72 26t-28 64v330q0 38 28 64t72 26t72 -26t28 -64zM50 575q-44 0 -72 26t-28 64t28 64t72 26t72 -26t28 -64t-28 -64t-72 -26zM290 575q-44 0 -72 26t-28 64t28 64t72 26t72 -26t28 -64t-28 -64t-72 -26z" />
    <glyph glyph-name="afii10105" unicode="&#x458;" horiz-adv-x="305" 
d="M255 415v-345q0 -126 -79 -208t-196 -82q-34 0 -57 23t-23 57q0 30 16 49t38.5 30t45.5 23.5t39 39.5t16 68v345q0 38 28 64t72 26t72 -26t28 -64zM155 740q44 0 74.5 -28.5t30.5 -66.5t-30.5 -66.5t-74.5 -28.5t-74.5 28.5t-30.5 66.5t30.5 66.5t74.5 28.5z" />
    <glyph glyph-name="afii10106" unicode="&#x459;" horiz-adv-x="866" 
d="M300 350v-80q0 -127 -68 -206t-162 -79q-34 0 -57 23t-23 57q0 26 11.5 42t27.5 26t32 22.5t27.5 41.5t11.5 73v160q0 38 28 64t72 26h260q44 0 72 -26t28 -64v-70h41q118 0 184 -52t66 -128t-66 -128t-184 -52h-141q-44 0 -72 26t-28 64v260h-60zM601 220h-41v-80h41
q18 0 31.5 12.5t13.5 27.5t-13.5 27.5t-31.5 12.5z" />
    <glyph glyph-name="afii10107" unicode="&#x45a;" horiz-adv-x="860" 
d="M355 90v105h-105v-110q0 -38 -28 -64t-72 -26t-72 26t-28 64v350q0 38 28 64t72 26t72 -26t28 -64v-85h105v85q0 38 28 64t72 26t72 -26t28 -64v-85h45q114 0 179.5 -51.5t65.5 -123.5t-65.5 -123.5t-179.5 -51.5h-145q-44 0 -72 26t-28 64zM600 210h-45v-70h45
q18 0 29 10t11 25t-11 25t-29 10z" />
    <glyph glyph-name="afii10108" unicode="&#x45b;" horiz-adv-x="635" 
d="M75 650q0 38 28 64t72 26t72 -26t28 -64h55q40 0 67.5 -25.5t27.5 -59.5t-27.5 -59.5t-67.5 -25.5h-55v-65h10q4 6 13 14t37.5 22t59.5 14q85 0 142.5 -63.5t57.5 -166.5v-150q0 -38 -28 -64t-72 -26t-72 26t-28 64v150q0 29 -18.5 49.5t-41.5 20.5t-41.5 -20.5
t-18.5 -49.5v-150q0 -38 -28 -64t-72 -26t-72 26t-28 64v395l-7.5 2.5t-16.5 8.5t-21.5 16t-17 24.5t-7.5 33.5q0 29 17.5 50t35.5 28z" />
    <glyph glyph-name="afii10109" unicode="&#x45c;" horiz-adv-x="570" 
d="M300 550q-30 0 -47.5 16.5t-17.5 43.5l5 40l15 70q8 36 36 58t74 22q33 0 56.5 -21.5t23.5 -48.5q0 -13 -3.5 -25.5t-7.5 -18.5l-4 -6l-40 -70q-34 -60 -90 -60zM430 280l110 -135q30 -35 30 -70t-25.5 -57.5t-69.5 -22.5q-24 0 -45.5 10t-30.5 20l-9 10l-110 135
l-30 -30v-55q0 -38 -28 -64t-72 -26t-72 26t-28 64v350q0 38 28 64t72 26t72 -26t28 -64v-70l120 110q4 5 12.5 12.5t33.5 20t49 12.5q37 0 61 -24t24 -61q0 -22 -10 -43.5t-20 -31.5l-10 -10z" />
    <glyph glyph-name="afii10110" unicode="&#x45e;" horiz-adv-x="555" 
d="M275 705q29 0 55.5 27.5t59.5 27.5q30 0 50 -20t20 -50q0 -49 -52 -89.5t-133 -40.5t-133 40.5t-52 89.5q0 30 20 50t50 20q33 0 59.5 -27.5t55.5 -27.5zM125 -65l50 115l-155 320q-20 40 -20 70q0 38 24.5 61.5t65.5 23.5q81 0 115 -85l70 -170h10l65 170q34 85 115 85
q41 0 65.5 -23.5t24.5 -61.5q0 -13 -5 -30.5t-10 -28.5l-5 -11l-225 -505q-20 -44 -46 -64.5t-69 -20.5q-41 0 -65.5 23.5t-24.5 61.5q0 13 5 30.5t10 28.5z" />
    <glyph glyph-name="afii10193" unicode="&#x45f;" horiz-adv-x="620" 
d="M250 435v-270h120v270q0 38 28 64t72 26t72 -26t28 -64v-345q0 -38 -28 -64t-72 -26h-60v-30q0 -38 -28 -64t-72 -26t-72 26t-28 64v30h-60q-44 0 -72 26t-28 64v345q0 38 28 64t72 26t72 -26t28 -64z" />
    <glyph glyph-name="afii10050" unicode="&#x490;" horiz-adv-x="625" 
d="M175 700h230v10q0 46 29 73t81 27t81 -27t29 -73v-110q0 -46 -29 -73t-81 -27h-230v-410q0 -46 -29 -73t-81 -27t-81 27t-29 73v510q0 46 29 73t81 27z" />
    <glyph glyph-name="afii10098" unicode="&#x491;" horiz-adv-x="500" 
d="M300 520v10q0 38 28 64t72 26t72 -26t28 -64v-100q0 -38 -28 -64t-72 -26h-150v-255q0 -38 -28 -64t-72 -26t-72 26t-28 64v345q0 38 28 64t72 26h150z" />
    <glyph glyph-name="uni1E9E" unicode="&#x1e9e;" horiz-adv-x="705" 
d="M400 -10q-31 0 -50.5 21.5t-19.5 58.5t19.5 58.5t50.5 21.5q60 0 60 50t-60 50q-41 0 -65.5 23.5t-24.5 61.5q0 20 5 38.5t10 27.5l5 9l40 80v10h-30q-30 0 -50 -19t-20 -46v-345q0 -46 -29 -73t-81 -27t-81 27t-29 73v345q0 118 78.5 191.5t211.5 73.5h155q52 0 81 -27
t29 -73q0 -24 -6.5 -49t-12.5 -38l-6 -13l-60 -102v-8q7 -1 18.5 -4t40.5 -17t51.5 -33.5t41 -57t18.5 -83.5q0 -88 -75 -146.5t-215 -58.5z" />
    <glyph glyph-name="endash" unicode="&#x2013;" horiz-adv-x="650" 
d="M540 410q44 0 72 -26t28 -64t-28 -64t-72 -26h-430q-44 0 -72 26t-28 64t28 64t72 26h430z" />
    <glyph glyph-name="emdash" unicode="&#x2014;" horiz-adv-x="900" 
d="M790 410q44 0 72 -26t28 -64t-28 -64t-72 -26h-680q-44 0 -72 26t-28 64t28 64t72 26h680z" />
    <glyph glyph-name="quoteleft" unicode="&#x2018;" horiz-adv-x="255" 
d="M245 496q0 -46 -31.5 -75.5t-83.5 -29.5q-47 0 -78.5 36.5t-31.5 98.5q0 75 54 130t126 55q18 0 29 -10t11 -25t-11 -25.5t-25 -15.5t-27.5 -16t-16.5 -28q34 0 59.5 -27.5t25.5 -67.5z" />
    <glyph glyph-name="quoteright" unicode="&#x2019;" horiz-adv-x="255" 
d="M10 606q0 46 31.5 75.5t83.5 29.5q47 0 78.5 -36.5t31.5 -98.5q0 -75 -54 -130t-126 -55q-18 0 -29 10t-11 25t11 25.5t25 15.5t27.5 16t16.5 28q-34 0 -59.5 27.5t-25.5 67.5z" />
    <glyph glyph-name="quotesinglbase" unicode="&#x201a;" horiz-adv-x="255" 
d="M10 95q0 46 31.5 75.5t83.5 29.5q47 0 78.5 -36.5t31.5 -98.5q0 -75 -54 -130t-126 -55q-18 0 -29 10t-11 25t11 25.5t25 15.5t27.5 16t16.5 28q-34 0 -59.5 27.5t-25.5 67.5z" />
    <glyph glyph-name="quotedblleft" unicode="&#x201c;" horiz-adv-x="505" 
d="M495 496q0 -46 -31.5 -75.5t-83.5 -29.5q-47 0 -78.5 36.5t-31.5 98.5q0 75 54 130t126 55q18 0 29 -10t11 -25t-11 -25.5t-25 -15.5t-27.5 -16t-16.5 -28q34 0 59.5 -27.5t25.5 -67.5zM245 496q0 -46 -31.5 -75.5t-83.5 -29.5q-47 0 -78.5 36.5t-31.5 98.5q0 75 54 130
t126 55q18 0 29 -10t11 -25t-11 -25.5t-25 -15.5t-27.5 -16t-16.5 -28q34 0 59.5 -27.5t25.5 -67.5z" />
    <glyph glyph-name="quotedblright" unicode="&#x201d;" horiz-adv-x="505" 
d="M10 606q0 46 31.5 75.5t83.5 29.5q47 0 78.5 -36.5t31.5 -98.5q0 -75 -54 -130t-126 -55q-18 0 -29 10t-11 25t11 25.5t25 15.5t27.5 16t16.5 28q-34 0 -59.5 27.5t-25.5 67.5zM260 606q0 46 31.5 75.5t83.5 29.5q47 0 78.5 -36.5t31.5 -98.5q0 -75 -54 -130t-126 -55
q-18 0 -29 10t-11 25t11 25.5t25 15.5t27.5 16t16.5 28q-34 0 -59.5 27.5t-25.5 67.5z" />
    <glyph glyph-name="quotedblbase" unicode="&#x201e;" horiz-adv-x="505" 
d="M10 95q0 46 31.5 75.5t83.5 29.5q47 0 78.5 -36.5t31.5 -98.5q0 -75 -54 -130t-126 -55q-18 0 -29 10t-11 25t11 25.5t25 15.5t27.5 16t16.5 28q-34 0 -59.5 27.5t-25.5 67.5zM260 95q0 46 31.5 75.5t83.5 29.5q47 0 78.5 -36.5t31.5 -98.5q0 -75 -54 -130t-126 -55
q-18 0 -29 10t-11 25t11 25.5t25 15.5t27.5 16t16.5 28q-34 0 -59.5 27.5t-25.5 67.5z" />
    <glyph glyph-name="dagger" unicode="&#x2020;" horiz-adv-x="620" 
d="M500 540q44 0 72 -26t28 -64t-28 -64t-72 -26h-85v-320q0 -46 -29 -73t-81 -27t-81 27t-29 73v320h-75q-44 0 -72 26t-28 64t28 64t72 26h75v120q0 46 29 73t81 27t81 -27t29 -73v-120h85z" />
    <glyph glyph-name="daggerdbl" unicode="&#x2021;" horiz-adv-x="640" 
d="M425 660v-80h85q44 0 72 -26t28 -64t-28 -64t-72 -26h-85v-100h85q44 0 72 -26t28 -64t-28 -64t-72 -26h-85v-80q0 -46 -29 -73t-81 -27t-81 27t-29 73v80h-75q-44 0 -72 26t-28 64t28 64t72 26h75v100h-75q-44 0 -72 26t-28 64t28 64t72 26h75v80q0 46 29 73t81 27
t81 -27t29 -73z" />
    <glyph glyph-name="bullet" unicode="&#x2022;" horiz-adv-x="440" 
d="M220 185q-59 0 -102 41t-43 94t43 94t102 41t102 -41t43 -94t-43 -94t-102 -41z" />
    <glyph glyph-name="ellipsis" unicode="&#x2026;" horiz-adv-x="890" 
d="M135 200q52 0 83.5 -29.5t31.5 -75.5t-31.5 -75.5t-83.5 -29.5t-83.5 29.5t-31.5 75.5t31.5 75.5t83.5 29.5zM445 200q52 0 83.5 -29.5t31.5 -75.5t-31.5 -75.5t-83.5 -29.5t-83.5 29.5t-31.5 75.5t31.5 75.5t83.5 29.5zM755 200q52 0 83.5 -29.5t31.5 -75.5t-31.5 -75.5
t-83.5 -29.5t-83.5 29.5t-31.5 75.5t31.5 75.5t83.5 29.5z" />
    <glyph glyph-name="perthousand" unicode="&#x2030;" horiz-adv-x="1265" 
d="M700 555l-365 -515q-3 -6 -10 -14t-31.5 -22t-53.5 -14q-34 0 -57 23t-23 57q0 18 6 36.5t12 28.5l7 10l365 515q3 6 10 14t31.5 22t53.5 14q34 0 57 -23t23 -57q0 -18 -6.5 -36.5t-12.5 -28.5zM10 510v45q0 66 49.5 110.5t130.5 44.5t130.5 -45t49.5 -110v-45
q0 -66 -49.5 -110.5t-130.5 -44.5t-130.5 44.5t-49.5 110.5zM220 510v45q0 11 -9.5 20.5t-20.5 9.5t-20.5 -9.5t-9.5 -20.5v-45q0 -11 9.5 -20.5t20.5 -9.5t20.5 9.5t9.5 20.5zM505 145v45q0 66 49.5 110.5t130.5 44.5t130.5 -44.5t49.5 -110.5v-45q0 -65 -49.5 -110
t-130.5 -45t-130.5 45t-49.5 110zM715 145v45q0 11 -9.5 20.5t-20.5 9.5t-20.5 -9.5t-9.5 -20.5v-45q0 -11 9.5 -20.5t20.5 -9.5t20.5 9.5t9.5 20.5zM895 145v45q0 66 49.5 110.5t130.5 44.5t130.5 -44.5t49.5 -110.5v-45q0 -65 -49.5 -110t-130.5 -45t-130.5 45t-49.5 110z
M1105 145v45q0 11 -9.5 20.5t-20.5 9.5t-20.5 -9.5t-9.5 -20.5v-45q0 -11 9.5 -20.5t20.5 -9.5t20.5 9.5t9.5 20.5z" />
    <glyph glyph-name="guilsinglleft" unicode="&#x2039;" horiz-adv-x="435" 
d="M30 260q0 64 65 115l110 90q2 2 9.5 8l10.5 8.5t11 8t13.5 8l14.5 6.5t16.5 6t18 3.5t21.5 1.5q37 0 61 -22t24 -53q0 -51 -55 -95l-100 -80v-10l100 -80q55 -44 55 -95q0 -31 -24 -53t-61 -22q-12 0 -23.5 1.5t-22 5.5t-17 6t-16 9t-12.5 9t-13 10.5t-11 8.5l-110 90
q-65 51 -65 115z" />
    <glyph glyph-name="guilsinglright" unicode="&#x203a;" horiz-adv-x="435" 
d="M405 260q0 -64 -65 -115l-110 -90q-2 -2 -9.5 -8l-10.5 -8.5t-11 -8t-13.5 -8l-14.5 -6.5t-16.5 -6t-18 -3.5t-21.5 -1.5q-37 0 -61 22t-24 53q0 51 55 95l100 80v10l-100 80q-55 44 -55 95q0 31 24 53t61 22q12 0 23.5 -1.5t22 -5.5t17 -6t16 -9t12.5 -9t13 -10.5
t11 -8.5l110 -90q65 -51 65 -115z" />
    <glyph glyph-name="fraction" unicode="&#x2044;" horiz-adv-x="585" 
d="M550 545l-365 -515q-3 -6 -10 -14t-31.5 -22t-53.5 -14q-34 0 -57 23t-23 57q0 18 6 36.5t12 28.5l7 10l365 515q3 6 10 14t31.5 22t53.5 14q34 0 57 -23t23 -57q0 -18 -6.5 -36.5t-12.5 -28.5z" />
    <glyph glyph-name="foursuperior" unicode="&#x2074;" horiz-adv-x="430" 
d="M355 420q0 -27 -21 -46t-54 -19t-54 19t-21 46h-125q-26 0 -43 16.5t-17 38.5q0 16 6 31t12 22l7 7l95 115q28 34 54.5 49.5t73.5 15.5q41 0 64 -18.5t23 -46.5v-120q23 0 39 -16t16 -39t-16 -39t-39 -16zM165 520h50v60h-5l-45 -54v-6z" />
    <glyph glyph-name="Euro" unicode="&#x20ac;" horiz-adv-x="690" 
d="M85 340v20h-5q-30 0 -50 20t-20 50q0 27 20 46t50 19h15q12 92 93.5 158.5t206.5 66.5q124 0 199.5 -52t75.5 -108q0 -39 -27 -62t-78 -23q-40 0 -85 32.5t-85 32.5q-24 0 -41.5 -11t-23.5 -23l-5 -11h95q30 0 50 -19t20 -46q0 -30 -20 -50t-50 -20h-110v-20h110
q30 0 50 -20t20 -50q0 -27 -20 -46t-50 -19h-95q2 -5 6 -12.5t23 -20t46 -12.5q43 0 89.5 32.5t85.5 32.5q51 0 78 -23t27 -62q0 -56 -76 -108t-204 -52t-210.5 66.5t-94.5 158.5h-15q-30 0 -50 19t-20 46q0 30 20 50t50 20h5z" />
    <glyph glyph-name="uni20B4" unicode="&#x20b4;" horiz-adv-x="720" 
d="M620 215h-300q-20 -10 -20 -25q0 -14 23 -27t67 -13q38 0 80 25t80 25q44 0 69.5 -23.5t25.5 -61.5q0 -53 -69 -94t-206 -41q-134 0 -212 52.5t-78 118.5q0 18 5 35.5t10 25.5l5 9h-7.5t-16.5 3t-21.5 8t-17 16.5t-7.5 26.5q0 27 18.5 43.5t51.5 16.5h520
q33 0 51.5 -16.5t18.5 -43.5t-18.5 -43.5t-51.5 -16.5zM100 485h300q20 10 20 25q0 14 -23 27t-67 13q-38 0 -80.5 -25t-79.5 -25q-44 0 -69.5 23.5t-25.5 61.5q0 53 68.5 94t206.5 41q134 0 212 -52.5t78 -118.5q0 -18 -5 -35.5t-10 -25.5l-5 -9h7.5t16.5 -3t21.5 -8
t17 -16.5t7.5 -26.5q0 -27 -18.5 -43.5t-51.5 -16.5h-520q-33 0 -51.5 16.5t-18.5 43.5t18.5 43.5t51.5 16.5z" />
    <glyph glyph-name="uni20BD" unicode="&#x20bd;" horiz-adv-x="0" 
 />
    <glyph glyph-name="afii61352" unicode="&#x2116;" horiz-adv-x="1160" 
d="M1030 150h-160q-40 0 -65 23t-25 57t25 57t65 23h160q40 0 65 -23t25 -57t-25 -57t-65 -23zM295 320h-10v-230q0 -46 -29 -73t-81 -27t-81 27t-29 73v520q0 45 29 72.5t81 27.5q42 0 72.5 -23.5t67.5 -76.5l170 -230h10v230q0 46 29 73t81 27t81 -27t29 -73v-520
q0 -45 -29 -72.5t-81 -27.5q-42 0 -72.5 23.5t-67.5 76.5zM770 510v45q0 66 49.5 110.5t130.5 44.5t130.5 -45t49.5 -110v-45q0 -66 -49.5 -110.5t-130.5 -44.5t-130.5 44.5t-49.5 110.5zM980 510v45q0 11 -9.5 20.5t-20.5 9.5t-20.5 -9.5t-9.5 -20.5v-45q0 -11 9.5 -20.5
t20.5 -9.5t20.5 9.5t9.5 20.5z" />
    <glyph glyph-name="trademark" unicode="&#x2122;" horiz-adv-x="940" 
d="M70 700h250q30 0 50 -19t20 -46t-20 -46t-50 -19h-50v-165q0 -27 -21 -46t-54 -19t-54 19t-21 46v165h-50q-30 0 -50 19t-20 46t20 46t50 19zM647 550h6l32 85q14 36 35 53t60 17q74 0 90 -70l39 -180q6 -25 6 -50q0 -27 -20 -46t-50 -19q-60 0 -75 65l-20 90h-5l-29 -75
q-16 -40 -66 -40t-66 40l-29 75h-5l-20 -90q-15 -65 -75 -65q-30 0 -50 19t-20 46l6 50l39 180q16 70 90 70q39 0 60 -17t35 -53z" />
    <glyph glyph-name="minus" unicode="&#x2212;" horiz-adv-x="560" 
d="M450 420q44 0 72 -26t28 -64t-28 -64t-72 -26h-340q-44 0 -72 26t-28 64t28 64t72 26h340z" />
    <glyph glyph-name="CR" horiz-adv-x="0" 
 />
    <glyph glyph-name="cyrBreve" horiz-adv-x="500" 
d="M250 900q38 0 70 30t70 30q30 0 50 -20t20 -50q0 -57 -59 -103.5t-151 -46.5t-151 46.5t-59 103.5q0 30 20 50t50 20q31 0 50.5 -15l39 -30t50.5 -15z" />
    <glyph glyph-name="cyrbreve" horiz-adv-x="450" 
d="M225 705q29 0 55.5 27.5t59.5 27.5q30 0 50 -20t20 -50q0 -49 -52 -89.5t-133 -40.5t-133 40.5t-52 89.5q0 30 20 50t50 20q33 0 59.5 -27.5t55.5 -27.5z" />
    <glyph glyph-name="foundryicon" horiz-adv-x="1230" 
d="M100 -110v920h1030v-920h-1030zM1110 -90v880h-990v-880h990zM635 610h110q36 0 58 -19t22 -46t-22 -46t-58 -19h-55v-80h-55v210zM635 300h110q36 0 58 -19t22 -46t-22 -46t-58 -19h-55v-80h-55v210zM495 170l-75 130h60l40 -75h5l40 75h65l-80 -130v-80h-55v80z
M495 480l-75 130h60l40 -75h5l40 75h65l-80 -130v-80h-55v80zM300 255h-65v45h165l25 -45h-70v-165h-55v165zM300 565h-65v45h165l25 -45h-70v-165h-55v165zM790 400v65q20 4 38 21t22 39h80v-45h-85v-35h120v-45h-175zM790 90v65q20 4 38 21t22 39h80v-45h-85v-35h120v-45
h-175zM810 300h155v-45h-115q-9 37 -40 45zM810 610h155v-45h-115q-9 37 -40 45zM765 545q0 7 -6.5 13.5t-13.5 6.5h-55v-40h55q8 0 14 6t6 14zM765 235q0 7 -6.5 13.5t-13.5 6.5h-55v-40h55q8 0 14 6t6 14z" />
    <glyph glyph-name="commaaccent" horiz-adv-x="280" 
d="M40 -130q0 38 28 64t72 26q43 0 71.5 -32.5t28.5 -87.5q0 -63 -50 -114t-110 -51q-18 0 -29 9t-11 21q0 17 10.5 27.5t23 14t25 12t15.5 21.5q-31 4 -52.5 29t-21.5 61z" />
    <glyph glyph-name="Germandbls" horiz-adv-x="705" 
d="M400 -10q-31 0 -50.5 21.5t-19.5 58.5t19.5 58.5t50.5 21.5q60 0 60 50t-60 50q-41 0 -65.5 23.5t-24.5 61.5q0 20 5 38.5t10 27.5l5 9l40 80v10h-30q-30 0 -50 -19t-20 -46v-345q0 -46 -29 -73t-81 -27t-81 27t-29 73v345q0 118 78.5 191.5t211.5 73.5h155q52 0 81 -27
t29 -73q0 -24 -6.5 -49t-12.5 -38l-6 -13l-60 -102v-8q7 -1 18.5 -4t40.5 -17t51.5 -33.5t41 -57t18.5 -83.5q0 -88 -75 -146.5t-215 -58.5z" />
    </font>
</defs>
</svg>
